<?xml version="1.0" encoding="utf-8" standalone="no"?>
<!DOCTYPE svg PUBLIC "-//W3C//DTD SVG 1.1//EN"
  "http://www.w3.org/Graphics/SVG/1.1/DTD/svg11.dtd">
<!-- Created with matplotlib (https://matplotlib.org/) -->
<svg height="687.6pt" version="1.1" viewBox="0 0 1334.16 687.6" width="1334.16pt" xmlns="http://www.w3.org/2000/svg" xmlns:xlink="http://www.w3.org/1999/xlink">
 <defs>
  <style type="text/css">
*{stroke-linecap:butt;stroke-linejoin:round;}
  </style>
 </defs>
 <g id="figure_1">
  <g id="patch_1">
   <path d="M 0 687.6 
L 1334.16 687.6 
L 1334.16 0 
L 0 0 
z
" style="fill:#ffffff;"/>
  </g>
  <g id="axes_1">
   <g id="patch_2">
    <path d="M 65.54 659.72 
L 1323.36 659.72 
L 1323.36 26.88 
L 65.54 26.88 
z
" style="fill:#ffffff;"/>
   </g>
   <g id="matplotlib.axis_1">
    <g id="xtick_1">
     <g id="line2d_1">
      <path clip-path="url(#p057c226d89)" d="M 122.713636 659.72 
L 122.713636 26.88 
" style="fill:none;stroke:#b0b0b0;stroke-linecap:square;stroke-width:0.8;"/>
     </g>
     <g id="line2d_2">
      <defs>
       <path d="M 0 0 
L 0 3.5 
" id="m944c0ab633" style="stroke:#000000;stroke-width:0.8;"/>
      </defs>
      <g>
       <use style="stroke:#000000;stroke-width:0.8;" x="122.713636" xlink:href="#m944c0ab633" y="659.72"/>
      </g>
     </g>
     <g id="text_1">
      <!-- 0 -->
      <defs>
       <path d="M 31.78125 66.40625 
Q 24.171875 66.40625 20.328125 58.90625 
Q 16.5 51.421875 16.5 36.375 
Q 16.5 21.390625 20.328125 13.890625 
Q 24.171875 6.390625 31.78125 6.390625 
Q 39.453125 6.390625 43.28125 13.890625 
Q 47.125 21.390625 47.125 36.375 
Q 47.125 51.421875 43.28125 58.90625 
Q 39.453125 66.40625 31.78125 66.40625 
z
M 31.78125 74.21875 
Q 44.046875 74.21875 50.515625 64.515625 
Q 56.984375 54.828125 56.984375 36.375 
Q 56.984375 17.96875 50.515625 8.265625 
Q 44.046875 -1.421875 31.78125 -1.421875 
Q 19.53125 -1.421875 13.0625 8.265625 
Q 6.59375 17.96875 6.59375 36.375 
Q 6.59375 54.828125 13.0625 64.515625 
Q 19.53125 74.21875 31.78125 74.21875 
z
" id="DejaVuSans-48"/>
      </defs>
      <g transform="translate(119.532386 674.318438)scale(0.1 -0.1)">
       <use xlink:href="#DejaVuSans-48"/>
      </g>
     </g>
    </g>
    <g id="xtick_2">
     <g id="line2d_3">
      <path clip-path="url(#p057c226d89)" d="M 351.637105 659.72 
L 351.637105 26.88 
" style="fill:none;stroke:#b0b0b0;stroke-linecap:square;stroke-width:0.8;"/>
     </g>
     <g id="line2d_4">
      <g>
       <use style="stroke:#000000;stroke-width:0.8;" x="351.637105" xlink:href="#m944c0ab633" y="659.72"/>
      </g>
     </g>
     <g id="text_2">
      <!-- 200 -->
      <defs>
       <path d="M 19.1875 8.296875 
L 53.609375 8.296875 
L 53.609375 0 
L 7.328125 0 
L 7.328125 8.296875 
Q 12.9375 14.109375 22.625 23.890625 
Q 32.328125 33.6875 34.8125 36.53125 
Q 39.546875 41.84375 41.421875 45.53125 
Q 43.3125 49.21875 43.3125 52.78125 
Q 43.3125 58.59375 39.234375 62.25 
Q 35.15625 65.921875 28.609375 65.921875 
Q 23.96875 65.921875 18.8125 64.3125 
Q 13.671875 62.703125 7.8125 59.421875 
L 7.8125 69.390625 
Q 13.765625 71.78125 18.9375 73 
Q 24.125 74.21875 28.421875 74.21875 
Q 39.75 74.21875 46.484375 68.546875 
Q 53.21875 62.890625 53.21875 53.421875 
Q 53.21875 48.921875 51.53125 44.890625 
Q 49.859375 40.875 45.40625 35.40625 
Q 44.1875 33.984375 37.640625 27.21875 
Q 31.109375 20.453125 19.1875 8.296875 
z
" id="DejaVuSans-50"/>
      </defs>
      <g transform="translate(342.093355 674.318438)scale(0.1 -0.1)">
       <use xlink:href="#DejaVuSans-50"/>
       <use x="63.623047" xlink:href="#DejaVuSans-48"/>
       <use x="127.246094" xlink:href="#DejaVuSans-48"/>
      </g>
     </g>
    </g>
    <g id="xtick_3">
     <g id="line2d_5">
      <path clip-path="url(#p057c226d89)" d="M 580.560574 659.72 
L 580.560574 26.88 
" style="fill:none;stroke:#b0b0b0;stroke-linecap:square;stroke-width:0.8;"/>
     </g>
     <g id="line2d_6">
      <g>
       <use style="stroke:#000000;stroke-width:0.8;" x="580.560574" xlink:href="#m944c0ab633" y="659.72"/>
      </g>
     </g>
     <g id="text_3">
      <!-- 400 -->
      <defs>
       <path d="M 37.796875 64.3125 
L 12.890625 25.390625 
L 37.796875 25.390625 
z
M 35.203125 72.90625 
L 47.609375 72.90625 
L 47.609375 25.390625 
L 58.015625 25.390625 
L 58.015625 17.1875 
L 47.609375 17.1875 
L 47.609375 0 
L 37.796875 0 
L 37.796875 17.1875 
L 4.890625 17.1875 
L 4.890625 26.703125 
z
" id="DejaVuSans-52"/>
      </defs>
      <g transform="translate(571.016824 674.318438)scale(0.1 -0.1)">
       <use xlink:href="#DejaVuSans-52"/>
       <use x="63.623047" xlink:href="#DejaVuSans-48"/>
       <use x="127.246094" xlink:href="#DejaVuSans-48"/>
      </g>
     </g>
    </g>
    <g id="xtick_4">
     <g id="line2d_7">
      <path clip-path="url(#p057c226d89)" d="M 809.484043 659.72 
L 809.484043 26.88 
" style="fill:none;stroke:#b0b0b0;stroke-linecap:square;stroke-width:0.8;"/>
     </g>
     <g id="line2d_8">
      <g>
       <use style="stroke:#000000;stroke-width:0.8;" x="809.484043" xlink:href="#m944c0ab633" y="659.72"/>
      </g>
     </g>
     <g id="text_4">
      <!-- 600 -->
      <defs>
       <path d="M 33.015625 40.375 
Q 26.375 40.375 22.484375 35.828125 
Q 18.609375 31.296875 18.609375 23.390625 
Q 18.609375 15.53125 22.484375 10.953125 
Q 26.375 6.390625 33.015625 6.390625 
Q 39.65625 6.390625 43.53125 10.953125 
Q 47.40625 15.53125 47.40625 23.390625 
Q 47.40625 31.296875 43.53125 35.828125 
Q 39.65625 40.375 33.015625 40.375 
z
M 52.59375 71.296875 
L 52.59375 62.3125 
Q 48.875 64.0625 45.09375 64.984375 
Q 41.3125 65.921875 37.59375 65.921875 
Q 27.828125 65.921875 22.671875 59.328125 
Q 17.53125 52.734375 16.796875 39.40625 
Q 19.671875 43.65625 24.015625 45.921875 
Q 28.375 48.1875 33.59375 48.1875 
Q 44.578125 48.1875 50.953125 41.515625 
Q 57.328125 34.859375 57.328125 23.390625 
Q 57.328125 12.15625 50.6875 5.359375 
Q 44.046875 -1.421875 33.015625 -1.421875 
Q 20.359375 -1.421875 13.671875 8.265625 
Q 6.984375 17.96875 6.984375 36.375 
Q 6.984375 53.65625 15.1875 63.9375 
Q 23.390625 74.21875 37.203125 74.21875 
Q 40.921875 74.21875 44.703125 73.484375 
Q 48.484375 72.75 52.59375 71.296875 
z
" id="DejaVuSans-54"/>
      </defs>
      <g transform="translate(799.940293 674.318438)scale(0.1 -0.1)">
       <use xlink:href="#DejaVuSans-54"/>
       <use x="63.623047" xlink:href="#DejaVuSans-48"/>
       <use x="127.246094" xlink:href="#DejaVuSans-48"/>
      </g>
     </g>
    </g>
    <g id="xtick_5">
     <g id="line2d_9">
      <path clip-path="url(#p057c226d89)" d="M 1038.407512 659.72 
L 1038.407512 26.88 
" style="fill:none;stroke:#b0b0b0;stroke-linecap:square;stroke-width:0.8;"/>
     </g>
     <g id="line2d_10">
      <g>
       <use style="stroke:#000000;stroke-width:0.8;" x="1038.407512" xlink:href="#m944c0ab633" y="659.72"/>
      </g>
     </g>
     <g id="text_5">
      <!-- 800 -->
      <defs>
       <path d="M 31.78125 34.625 
Q 24.75 34.625 20.71875 30.859375 
Q 16.703125 27.09375 16.703125 20.515625 
Q 16.703125 13.921875 20.71875 10.15625 
Q 24.75 6.390625 31.78125 6.390625 
Q 38.8125 6.390625 42.859375 10.171875 
Q 46.921875 13.96875 46.921875 20.515625 
Q 46.921875 27.09375 42.890625 30.859375 
Q 38.875 34.625 31.78125 34.625 
z
M 21.921875 38.8125 
Q 15.578125 40.375 12.03125 44.71875 
Q 8.5 49.078125 8.5 55.328125 
Q 8.5 64.0625 14.71875 69.140625 
Q 20.953125 74.21875 31.78125 74.21875 
Q 42.671875 74.21875 48.875 69.140625 
Q 55.078125 64.0625 55.078125 55.328125 
Q 55.078125 49.078125 51.53125 44.71875 
Q 48 40.375 41.703125 38.8125 
Q 48.828125 37.15625 52.796875 32.3125 
Q 56.78125 27.484375 56.78125 20.515625 
Q 56.78125 9.90625 50.3125 4.234375 
Q 43.84375 -1.421875 31.78125 -1.421875 
Q 19.734375 -1.421875 13.25 4.234375 
Q 6.78125 9.90625 6.78125 20.515625 
Q 6.78125 27.484375 10.78125 32.3125 
Q 14.796875 37.15625 21.921875 38.8125 
z
M 18.3125 54.390625 
Q 18.3125 48.734375 21.84375 45.5625 
Q 25.390625 42.390625 31.78125 42.390625 
Q 38.140625 42.390625 41.71875 45.5625 
Q 45.3125 48.734375 45.3125 54.390625 
Q 45.3125 60.0625 41.71875 63.234375 
Q 38.140625 66.40625 31.78125 66.40625 
Q 25.390625 66.40625 21.84375 63.234375 
Q 18.3125 60.0625 18.3125 54.390625 
z
" id="DejaVuSans-56"/>
      </defs>
      <g transform="translate(1028.863762 674.318438)scale(0.1 -0.1)">
       <use xlink:href="#DejaVuSans-56"/>
       <use x="63.623047" xlink:href="#DejaVuSans-48"/>
       <use x="127.246094" xlink:href="#DejaVuSans-48"/>
      </g>
     </g>
    </g>
    <g id="xtick_6">
     <g id="line2d_11">
      <path clip-path="url(#p057c226d89)" d="M 1267.330981 659.72 
L 1267.330981 26.88 
" style="fill:none;stroke:#b0b0b0;stroke-linecap:square;stroke-width:0.8;"/>
     </g>
     <g id="line2d_12">
      <g>
       <use style="stroke:#000000;stroke-width:0.8;" x="1267.330981" xlink:href="#m944c0ab633" y="659.72"/>
      </g>
     </g>
     <g id="text_6">
      <!-- 1000 -->
      <defs>
       <path d="M 12.40625 8.296875 
L 28.515625 8.296875 
L 28.515625 63.921875 
L 10.984375 60.40625 
L 10.984375 69.390625 
L 28.421875 72.90625 
L 38.28125 72.90625 
L 38.28125 8.296875 
L 54.390625 8.296875 
L 54.390625 0 
L 12.40625 0 
z
" id="DejaVuSans-49"/>
      </defs>
      <g transform="translate(1254.605981 674.318438)scale(0.1 -0.1)">
       <use xlink:href="#DejaVuSans-49"/>
       <use x="63.623047" xlink:href="#DejaVuSans-48"/>
       <use x="127.246094" xlink:href="#DejaVuSans-48"/>
       <use x="190.869141" xlink:href="#DejaVuSans-48"/>
      </g>
     </g>
    </g>
   </g>
   <g id="matplotlib.axis_2">
    <g id="ytick_1">
     <g id="line2d_13">
      <path clip-path="url(#p057c226d89)" d="M 65.54 649.17628 
L 1323.36 649.17628 
" style="fill:none;stroke:#b0b0b0;stroke-linecap:square;stroke-width:0.8;"/>
     </g>
     <g id="line2d_14">
      <defs>
       <path d="M 0 0 
L -3.5 0 
" id="mdbb7fd4298" style="stroke:#000000;stroke-width:0.8;"/>
      </defs>
      <g>
       <use style="stroke:#000000;stroke-width:0.8;" x="65.54" xlink:href="#mdbb7fd4298" y="649.17628"/>
      </g>
     </g>
     <g id="text_7">
      <!-- −2000 -->
      <defs>
       <path d="M 10.59375 35.5 
L 73.1875 35.5 
L 73.1875 27.203125 
L 10.59375 27.203125 
z
" id="DejaVuSans-8722"/>
      </defs>
      <g transform="translate(24.710312 652.975499)scale(0.1 -0.1)">
       <use xlink:href="#DejaVuSans-8722"/>
       <use x="83.789062" xlink:href="#DejaVuSans-50"/>
       <use x="147.412109" xlink:href="#DejaVuSans-48"/>
       <use x="211.035156" xlink:href="#DejaVuSans-48"/>
       <use x="274.658203" xlink:href="#DejaVuSans-48"/>
      </g>
     </g>
    </g>
    <g id="ytick_2">
     <g id="line2d_15">
      <path clip-path="url(#p057c226d89)" d="M 65.54 571.505847 
L 1323.36 571.505847 
" style="fill:none;stroke:#b0b0b0;stroke-linecap:square;stroke-width:0.8;"/>
     </g>
     <g id="line2d_16">
      <g>
       <use style="stroke:#000000;stroke-width:0.8;" x="65.54" xlink:href="#mdbb7fd4298" y="571.505847"/>
      </g>
     </g>
     <g id="text_8">
      <!-- −1500 -->
      <defs>
       <path d="M 10.796875 72.90625 
L 49.515625 72.90625 
L 49.515625 64.59375 
L 19.828125 64.59375 
L 19.828125 46.734375 
Q 21.96875 47.46875 24.109375 47.828125 
Q 26.265625 48.1875 28.421875 48.1875 
Q 40.625 48.1875 47.75 41.5 
Q 54.890625 34.8125 54.890625 23.390625 
Q 54.890625 11.625 47.5625 5.09375 
Q 40.234375 -1.421875 26.90625 -1.421875 
Q 22.3125 -1.421875 17.546875 -0.640625 
Q 12.796875 0.140625 7.71875 1.703125 
L 7.71875 11.625 
Q 12.109375 9.234375 16.796875 8.0625 
Q 21.484375 6.890625 26.703125 6.890625 
Q 35.15625 6.890625 40.078125 11.328125 
Q 45.015625 15.765625 45.015625 23.390625 
Q 45.015625 31 40.078125 35.4375 
Q 35.15625 39.890625 26.703125 39.890625 
Q 22.75 39.890625 18.8125 39.015625 
Q 14.890625 38.140625 10.796875 36.28125 
z
" id="DejaVuSans-53"/>
      </defs>
      <g transform="translate(24.710312 575.305066)scale(0.1 -0.1)">
       <use xlink:href="#DejaVuSans-8722"/>
       <use x="83.789062" xlink:href="#DejaVuSans-49"/>
       <use x="147.412109" xlink:href="#DejaVuSans-53"/>
       <use x="211.035156" xlink:href="#DejaVuSans-48"/>
       <use x="274.658203" xlink:href="#DejaVuSans-48"/>
      </g>
     </g>
    </g>
    <g id="ytick_3">
     <g id="line2d_17">
      <path clip-path="url(#p057c226d89)" d="M 65.54 493.835414 
L 1323.36 493.835414 
" style="fill:none;stroke:#b0b0b0;stroke-linecap:square;stroke-width:0.8;"/>
     </g>
     <g id="line2d_18">
      <g>
       <use style="stroke:#000000;stroke-width:0.8;" x="65.54" xlink:href="#mdbb7fd4298" y="493.835414"/>
      </g>
     </g>
     <g id="text_9">
      <!-- −1000 -->
      <g transform="translate(24.710312 497.634633)scale(0.1 -0.1)">
       <use xlink:href="#DejaVuSans-8722"/>
       <use x="83.789062" xlink:href="#DejaVuSans-49"/>
       <use x="147.412109" xlink:href="#DejaVuSans-48"/>
       <use x="211.035156" xlink:href="#DejaVuSans-48"/>
       <use x="274.658203" xlink:href="#DejaVuSans-48"/>
      </g>
     </g>
    </g>
    <g id="ytick_4">
     <g id="line2d_19">
      <path clip-path="url(#p057c226d89)" d="M 65.54 416.164981 
L 1323.36 416.164981 
" style="fill:none;stroke:#b0b0b0;stroke-linecap:square;stroke-width:0.8;"/>
     </g>
     <g id="line2d_20">
      <g>
       <use style="stroke:#000000;stroke-width:0.8;" x="65.54" xlink:href="#mdbb7fd4298" y="416.164981"/>
      </g>
     </g>
     <g id="text_10">
      <!-- −500 -->
      <g transform="translate(31.072812 419.9642)scale(0.1 -0.1)">
       <use xlink:href="#DejaVuSans-8722"/>
       <use x="83.789062" xlink:href="#DejaVuSans-53"/>
       <use x="147.412109" xlink:href="#DejaVuSans-48"/>
       <use x="211.035156" xlink:href="#DejaVuSans-48"/>
      </g>
     </g>
    </g>
    <g id="ytick_5">
     <g id="line2d_21">
      <path clip-path="url(#p057c226d89)" d="M 65.54 338.494549 
L 1323.36 338.494549 
" style="fill:none;stroke:#b0b0b0;stroke-linecap:square;stroke-width:0.8;"/>
     </g>
     <g id="line2d_22">
      <g>
       <use style="stroke:#000000;stroke-width:0.8;" x="65.54" xlink:href="#mdbb7fd4298" y="338.494549"/>
      </g>
     </g>
     <g id="text_11">
      <!-- 0 -->
      <g transform="translate(52.1775 342.293767)scale(0.1 -0.1)">
       <use xlink:href="#DejaVuSans-48"/>
      </g>
     </g>
    </g>
    <g id="ytick_6">
     <g id="line2d_23">
      <path clip-path="url(#p057c226d89)" d="M 65.54 260.824116 
L 1323.36 260.824116 
" style="fill:none;stroke:#b0b0b0;stroke-linecap:square;stroke-width:0.8;"/>
     </g>
     <g id="line2d_24">
      <g>
       <use style="stroke:#000000;stroke-width:0.8;" x="65.54" xlink:href="#mdbb7fd4298" y="260.824116"/>
      </g>
     </g>
     <g id="text_12">
      <!-- 500 -->
      <g transform="translate(39.4525 264.623334)scale(0.1 -0.1)">
       <use xlink:href="#DejaVuSans-53"/>
       <use x="63.623047" xlink:href="#DejaVuSans-48"/>
       <use x="127.246094" xlink:href="#DejaVuSans-48"/>
      </g>
     </g>
    </g>
    <g id="ytick_7">
     <g id="line2d_25">
      <path clip-path="url(#p057c226d89)" d="M 65.54 183.153683 
L 1323.36 183.153683 
" style="fill:none;stroke:#b0b0b0;stroke-linecap:square;stroke-width:0.8;"/>
     </g>
     <g id="line2d_26">
      <g>
       <use style="stroke:#000000;stroke-width:0.8;" x="65.54" xlink:href="#mdbb7fd4298" y="183.153683"/>
      </g>
     </g>
     <g id="text_13">
      <!-- 1000 -->
      <g transform="translate(33.09 186.952901)scale(0.1 -0.1)">
       <use xlink:href="#DejaVuSans-49"/>
       <use x="63.623047" xlink:href="#DejaVuSans-48"/>
       <use x="127.246094" xlink:href="#DejaVuSans-48"/>
       <use x="190.869141" xlink:href="#DejaVuSans-48"/>
      </g>
     </g>
    </g>
    <g id="ytick_8">
     <g id="line2d_27">
      <path clip-path="url(#p057c226d89)" d="M 65.54 105.48325 
L 1323.36 105.48325 
" style="fill:none;stroke:#b0b0b0;stroke-linecap:square;stroke-width:0.8;"/>
     </g>
     <g id="line2d_28">
      <g>
       <use style="stroke:#000000;stroke-width:0.8;" x="65.54" xlink:href="#mdbb7fd4298" y="105.48325"/>
      </g>
     </g>
     <g id="text_14">
      <!-- 1500 -->
      <g transform="translate(33.09 109.282468)scale(0.1 -0.1)">
       <use xlink:href="#DejaVuSans-49"/>
       <use x="63.623047" xlink:href="#DejaVuSans-53"/>
       <use x="127.246094" xlink:href="#DejaVuSans-48"/>
       <use x="190.869141" xlink:href="#DejaVuSans-48"/>
      </g>
     </g>
    </g>
    <g id="ytick_9">
     <g id="line2d_29">
      <path clip-path="url(#p057c226d89)" d="M 65.54 27.812817 
L 1323.36 27.812817 
" style="fill:none;stroke:#b0b0b0;stroke-linecap:square;stroke-width:0.8;"/>
     </g>
     <g id="line2d_30">
      <g>
       <use style="stroke:#000000;stroke-width:0.8;" x="65.54" xlink:href="#mdbb7fd4298" y="27.812817"/>
      </g>
     </g>
     <g id="text_15">
      <!-- 2000 -->
      <g transform="translate(33.09 31.612036)scale(0.1 -0.1)">
       <use xlink:href="#DejaVuSans-50"/>
       <use x="63.623047" xlink:href="#DejaVuSans-48"/>
       <use x="127.246094" xlink:href="#DejaVuSans-48"/>
       <use x="190.869141" xlink:href="#DejaVuSans-48"/>
      </g>
     </g>
    </g>
    <g id="text_16">
     <!-- count -->
     <defs>
      <path d="M 48.78125 52.59375 
L 48.78125 44.1875 
Q 44.96875 46.296875 41.140625 47.34375 
Q 37.3125 48.390625 33.40625 48.390625 
Q 24.65625 48.390625 19.8125 42.84375 
Q 14.984375 37.3125 14.984375 27.296875 
Q 14.984375 17.28125 19.8125 11.734375 
Q 24.65625 6.203125 33.40625 6.203125 
Q 37.3125 6.203125 41.140625 7.25 
Q 44.96875 8.296875 48.78125 10.40625 
L 48.78125 2.09375 
Q 45.015625 0.34375 40.984375 -0.53125 
Q 36.96875 -1.421875 32.421875 -1.421875 
Q 20.0625 -1.421875 12.78125 6.34375 
Q 5.515625 14.109375 5.515625 27.296875 
Q 5.515625 40.671875 12.859375 48.328125 
Q 20.21875 56 33.015625 56 
Q 37.15625 56 41.109375 55.140625 
Q 45.0625 54.296875 48.78125 52.59375 
z
" id="DejaVuSans-99"/>
      <path d="M 30.609375 48.390625 
Q 23.390625 48.390625 19.1875 42.75 
Q 14.984375 37.109375 14.984375 27.296875 
Q 14.984375 17.484375 19.15625 11.84375 
Q 23.34375 6.203125 30.609375 6.203125 
Q 37.796875 6.203125 41.984375 11.859375 
Q 46.1875 17.53125 46.1875 27.296875 
Q 46.1875 37.015625 41.984375 42.703125 
Q 37.796875 48.390625 30.609375 48.390625 
z
M 30.609375 56 
Q 42.328125 56 49.015625 48.375 
Q 55.71875 40.765625 55.71875 27.296875 
Q 55.71875 13.875 49.015625 6.21875 
Q 42.328125 -1.421875 30.609375 -1.421875 
Q 18.84375 -1.421875 12.171875 6.21875 
Q 5.515625 13.875 5.515625 27.296875 
Q 5.515625 40.765625 12.171875 48.375 
Q 18.84375 56 30.609375 56 
z
" id="DejaVuSans-111"/>
      <path d="M 8.5 21.578125 
L 8.5 54.6875 
L 17.484375 54.6875 
L 17.484375 21.921875 
Q 17.484375 14.15625 20.5 10.265625 
Q 23.53125 6.390625 29.59375 6.390625 
Q 36.859375 6.390625 41.078125 11.03125 
Q 45.3125 15.671875 45.3125 23.6875 
L 45.3125 54.6875 
L 54.296875 54.6875 
L 54.296875 0 
L 45.3125 0 
L 45.3125 8.40625 
Q 42.046875 3.421875 37.71875 1 
Q 33.40625 -1.421875 27.6875 -1.421875 
Q 18.265625 -1.421875 13.375 4.4375 
Q 8.5 10.296875 8.5 21.578125 
z
M 31.109375 56 
z
" id="DejaVuSans-117"/>
      <path d="M 54.890625 33.015625 
L 54.890625 0 
L 45.90625 0 
L 45.90625 32.71875 
Q 45.90625 40.484375 42.875 44.328125 
Q 39.84375 48.1875 33.796875 48.1875 
Q 26.515625 48.1875 22.3125 43.546875 
Q 18.109375 38.921875 18.109375 30.90625 
L 18.109375 0 
L 9.078125 0 
L 9.078125 54.6875 
L 18.109375 54.6875 
L 18.109375 46.1875 
Q 21.34375 51.125 25.703125 53.5625 
Q 30.078125 56 35.796875 56 
Q 45.21875 56 50.046875 50.171875 
Q 54.890625 44.34375 54.890625 33.015625 
z
" id="DejaVuSans-110"/>
      <path d="M 18.3125 70.21875 
L 18.3125 54.6875 
L 36.8125 54.6875 
L 36.8125 47.703125 
L 18.3125 47.703125 
L 18.3125 18.015625 
Q 18.3125 11.328125 20.140625 9.421875 
Q 21.96875 7.515625 27.59375 7.515625 
L 36.8125 7.515625 
L 36.8125 0 
L 27.59375 0 
Q 17.1875 0 13.234375 3.875 
Q 9.28125 7.765625 9.28125 18.015625 
L 9.28125 47.703125 
L 2.6875 47.703125 
L 2.6875 54.6875 
L 9.28125 54.6875 
L 9.28125 70.21875 
z
" id="DejaVuSans-116"/>
     </defs>
     <g transform="translate(18.630625 357.40625)rotate(-90)scale(0.1 -0.1)">
      <use xlink:href="#DejaVuSans-99"/>
      <use x="54.980469" xlink:href="#DejaVuSans-111"/>
      <use x="116.162109" xlink:href="#DejaVuSans-117"/>
      <use x="179.541016" xlink:href="#DejaVuSans-110"/>
      <use x="242.919922" xlink:href="#DejaVuSans-116"/>
     </g>
    </g>
   </g>
   <g id="line2d_31">
    <path clip-path="url(#p057c226d89)" d="M 122.713636 201.786704 
L 123.858254 194.952917 
L 125.002871 187.406702 
L 126.147488 194.023598 
L 127.292106 203.15982 
L 128.436723 191.266483 
L 129.58134 205.612162 
L 130.725958 199.895677 
L 131.870575 200.232787 
L 133.015192 207.21627 
L 134.15981 196.702332 
L 135.304427 217.782317 
L 136.449044 219.196324 
L 137.593662 217.381736 
L 138.738279 227.522859 
L 139.882897 226.994735 
L 141.027514 231.181102 
L 142.172131 234.610492 
L 143.316749 250.734791 
L 144.461366 253.605395 
L 145.605983 241.844017 
L 146.750601 242.806906 
L 147.895218 243.523703 
L 149.039835 250.549526 
L 150.184453 254.865214 
L 151.32907 260.901791 
L 152.473687 274.614456 
L 153.618305 282.407991 
L 154.762922 279.346255 
L 155.907539 280.678765 
L 157.052157 293.097523 
L 158.196774 289.017716 
L 159.341391 300.62143 
L 160.486009 297.700604 
L 161.630626 292.889479 
L 162.775243 308.304478 
L 163.919861 307.966821 
L 165.064478 326.294974 
L 166.209095 323.745779 
L 167.353713 319.353503 
L 168.49833 325.691094 
L 169.642947 327.945286 
L 170.787565 338.493717 
L 171.932182 336.798617 
L 174.221417 352.005728 
L 175.366034 353.864955 
L 176.510652 364.6514 
L 177.655269 373.497681 
L 178.799886 371.781124 
L 179.944504 380.881055 
L 181.089121 384.161209 
L 182.233738 379.625606 
L 183.378356 386.17777 
L 184.522973 392.023133 
L 185.66759 401.76176 
L 186.812208 399.586707 
L 187.956825 404.201273 
L 189.101442 405.576849 
L 190.24606 396.634531 
L 191.390677 408.640183 
L 192.535294 408.615001 
L 193.679912 401.644254 
L 194.824529 405.828191 
L 195.969146 409.588928 
L 197.113764 412.28011 
L 198.258381 422.052927 
L 199.402998 427.617397 
L 200.547616 420.269341 
L 201.692233 431.76183 
L 202.83685 430.603381 
L 203.981468 424.457102 
L 205.126085 440.325644 
L 206.270703 434.243554 
L 207.41532 440.568826 
L 208.559937 437.210216 
L 209.704555 425.455324 
L 210.849172 449.523049 
L 211.993789 446.62116 
L 213.138407 436.110229 
L 214.283024 442.78425 
L 215.427641 441.846898 
L 216.572259 432.978653 
L 217.716876 431.528674 
L 218.861493 445.617361 
L 220.006111 445.721715 
L 221.150728 438.476618 
L 222.295345 433.986314 
L 223.439963 438.138581 
L 224.58458 451.141571 
L 225.729197 443.28134 
L 226.873815 440.619464 
L 228.018432 455.693267 
L 229.163049 452.430401 
L 230.307667 449.673778 
L 231.452284 453.883657 
L 232.596901 450.895991 
L 233.741519 448.338263 
L 234.886136 450.369249 
L 236.030753 455.726871 
L 237.175371 459.680029 
L 238.319988 465.399648 
L 239.464606 457.095564 
L 240.609223 444.383867 
L 241.75384 451.462517 
L 242.898458 448.839268 
L 244.043075 443.767365 
L 245.187692 450.454149 
L 246.33231 463.340854 
L 247.476927 463.421474 
L 248.621544 448.648246 
L 249.766162 461.763178 
L 252.055396 464.571724 
L 253.200014 465.293534 
L 254.344631 455.110255 
L 255.489248 471.490622 
L 256.633866 472.375888 
L 257.778483 473.921607 
L 258.9231 471.347977 
L 260.067718 463.553193 
L 261.212335 465.88064 
L 262.356952 458.356911 
L 263.50157 457.855311 
L 264.646187 460.235218 
L 265.790804 467.05023 
L 266.935422 454.877186 
L 268.080039 451.977704 
L 269.224656 463.767833 
L 270.369274 455.64179 
L 271.513891 459.633654 
L 272.658509 455.754253 
L 273.803126 455.377906 
L 274.947743 459.654726 
L 276.092361 457.716812 
L 277.236978 460.639304 
L 278.381595 463.933153 
L 279.526213 463.61532 
L 280.67083 449.533449 
L 281.815447 450.193557 
L 282.960065 451.403923 
L 284.104682 455.825956 
L 285.249299 450.891925 
L 286.393917 419.970909 
L 287.538534 430.801478 
L 288.683151 432.075675 
L 289.827769 416.220984 
L 290.972386 434.90337 
L 292.117003 431.594113 
L 293.261621 426.550083 
L 294.406238 430.561635 
L 295.550855 425.429632 
L 296.695473 442.25058 
L 297.84009 435.740729 
L 298.984707 417.659528 
L 300.129325 435.318052 
L 301.273942 417.742548 
L 302.418559 397.835937 
L 303.563177 412.103032 
L 304.707794 402.797919 
L 305.852412 401.50671 
L 306.997029 395.83532 
L 308.141646 392.289566 
L 309.286264 395.798888 
L 310.430881 382.829608 
L 311.575498 385.072451 
L 312.720116 378.28981 
L 313.864733 379.163147 
L 315.00935 379.806304 
L 316.153968 368.570369 
L 317.298585 369.165185 
L 318.443202 352.173633 
L 319.58782 353.106281 
L 320.732437 354.405023 
L 321.877054 336.426123 
L 323.021672 343.04099 
L 324.166289 332.345733 
L 325.310906 322.852658 
L 326.455524 331.80706 
L 327.600141 316.104895 
L 328.744758 298.585835 
L 329.889376 303.038675 
L 331.033993 287.240109 
L 332.17861 269.51566 
L 333.323228 281.415044 
L 334.467845 275.427053 
L 335.612462 264.836586 
L 336.75708 263.726241 
L 337.901697 267.973584 
L 339.046314 259.991702 
L 340.190932 238.874533 
L 341.335549 231.710856 
L 342.480167 238.523001 
L 343.624784 224.335152 
L 344.769401 203.605324 
L 345.914019 210.403185 
L 347.058636 203.979082 
L 348.203253 193.341979 
L 349.347871 190.388847 
L 351.637105 182.470918 
L 352.781723 168.487456 
L 353.92634 162.732256 
L 355.070957 165.091344 
L 356.215575 149.03547 
L 357.360192 135.436476 
L 358.504809 134.954639 
L 359.649427 133.986431 
L 360.794044 125.61107 
L 361.938661 120.715602 
L 363.083279 123.860501 
L 364.227896 124.012312 
L 365.372513 121.777792 
L 366.517131 108.432431 
L 367.661748 104.795525 
L 368.806365 91.145803 
L 369.950983 74.011233 
L 371.0956 77.484218 
L 372.240217 75.187904 
L 373.384835 72.407502 
L 374.529452 73.738275 
L 375.67407 77.477141 
L 376.818687 69.057428 
L 377.963304 62.431217 
L 379.107922 76.780719 
L 381.397156 60.456431 
L 382.541774 68.651414 
L 383.686391 61.406342 
L 384.831008 59.881295 
L 385.975626 61.548007 
L 387.120243 65.884584 
L 388.26486 74.321576 
L 389.409478 67.279759 
L 390.554095 69.559834 
L 391.698712 69.572588 
L 392.84333 62.005923 
L 393.987947 74.964136 
L 395.132564 75.761794 
L 396.277182 85.335137 
L 397.421799 101.048812 
L 398.566416 96.70946 
L 399.711034 101.71638 
L 400.855651 103.741415 
L 403.144886 101.437278 
L 404.289503 114.725238 
L 405.43412 125.667017 
L 406.578738 131.927805 
L 407.723355 141.644473 
L 408.867973 153.461764 
L 410.01259 166.956902 
L 411.157207 156.776994 
L 412.301825 175.730732 
L 413.446442 175.538354 
L 414.591059 172.879548 
L 415.735677 201.525385 
L 416.880294 186.906734 
L 418.024911 194.695552 
L 419.169529 208.206313 
L 420.314146 217.709455 
L 421.458763 229.481502 
L 422.603381 234.611407 
L 423.747998 247.217603 
L 424.892615 241.058362 
L 426.037233 271.138329 
L 427.18185 280.282953 
L 428.326467 275.65382 
L 429.471085 300.022021 
L 430.615702 296.367824 
L 432.904937 317.193795 
L 434.049554 327.847709 
L 435.194171 347.334029 
L 436.338789 356.690031 
L 437.483406 355.08051 
L 438.628023 358.523576 
L 439.772641 377.887731 
L 440.917258 377.961783 
L 443.206493 399.005806 
L 444.35111 403.750072 
L 445.495728 423.014709 
L 446.640345 419.394204 
L 447.784962 429.642468 
L 448.92958 441.144692 
L 450.074197 439.333234 
L 451.218814 456.329767 
L 452.363432 457.424473 
L 453.508049 471.190896 
L 454.652666 475.724267 
L 455.797284 473.377794 
L 456.941901 493.890572 
L 458.086518 497.756273 
L 459.231136 519.260365 
L 460.375753 527.324688 
L 461.52037 523.379676 
L 462.664988 535.38018 
L 463.809605 539.585505 
L 464.954222 546.80277 
L 466.09884 540.696505 
L 467.243457 540.362586 
L 468.388074 541.424509 
L 469.532692 551.712495 
L 470.677309 559.002359 
L 471.821926 561.423857 
L 472.966544 583.917873 
L 474.111161 581.72628 
L 475.255779 586.162032 
L 476.400396 593.595414 
L 477.545013 599.944571 
L 478.689631 597.518856 
L 479.834248 590.307768 
L 480.978865 603.683333 
L 482.123483 586.006032 
L 483.2681 590.452095 
L 484.412717 598.347848 
L 485.557335 599.42297 
L 486.701952 612.536512 
L 487.846569 598.528653 
L 488.991187 616.328009 
L 490.135804 623.181395 
L 491.280421 617.301054 
L 492.425039 628.54657 
L 493.569656 611.066792 
L 494.714273 620.005822 
L 495.858891 616.981147 
L 497.003508 597.16953 
L 498.148125 612.890648 
L 499.292743 598.90633 
L 501.581977 614.28955 
L 502.726595 591.396702 
L 503.871212 607.221167 
L 505.015829 593.369957 
L 506.160447 582.419773 
L 507.305064 600.351462 
L 508.449681 586.901 
L 509.594299 580.160506 
L 510.738916 572.647336 
L 511.883534 569.255313 
L 513.028151 567.554174 
L 514.172768 557.571222 
L 515.317386 562.748913 
L 516.462003 551.647421 
L 517.60662 544.345146 
L 518.751238 541.857485 
L 519.895855 533.181278 
L 521.040472 528.363742 
L 522.18509 514.551471 
L 523.329707 510.898955 
L 524.474324 512.166748 
L 525.618942 499.977691 
L 526.763559 482.406375 
L 527.908176 481.948488 
L 529.052794 483.771736 
L 530.197411 466.078224 
L 531.342028 454.453404 
L 532.486646 453.543516 
L 533.631263 442.607541 
L 534.77588 436.770119 
L 535.920498 438.060907 
L 537.065115 429.434402 
L 539.35435 397.313655 
L 540.498967 394.982279 
L 541.643584 386.732417 
L 542.788202 377.11464 
L 543.932819 379.274805 
L 545.077437 365.353477 
L 546.222054 362.30315 
L 547.366671 366.320119 
L 548.511289 355.644853 
L 549.655906 352.925783 
L 550.800523 344.641895 
L 551.945141 333.023598 
L 553.089758 334.952848 
L 554.234375 323.303814 
L 555.378993 307.984283 
L 556.52361 303.726148 
L 557.668227 289.071592 
L 558.812845 283.073302 
L 559.957462 273.168893 
L 561.102079 258.230157 
L 562.246697 261.403654 
L 563.391314 255.941414 
L 564.535931 248.111201 
L 565.680549 244.304532 
L 566.825166 228.320125 
L 567.969783 226.156234 
L 569.114401 232.724544 
L 570.259018 221.588225 
L 571.403635 215.84848 
L 572.548253 198.447376 
L 573.69287 191.621577 
L 574.837487 199.652739 
L 575.982105 179.867681 
L 577.126722 174.095987 
L 579.415957 151.628704 
L 580.560574 155.041707 
L 581.705192 138.420858 
L 582.849809 140.407609 
L 583.994426 142.152633 
L 585.139044 119.126408 
L 586.283661 133.423563 
L 587.428278 142.172063 
L 588.572896 118.896508 
L 589.717513 120.172473 
L 590.86213 108.961644 
L 592.006748 104.307544 
L 593.151365 110.493095 
L 594.295982 91.342817 
L 595.4406 89.883644 
L 596.585217 98.222233 
L 597.729834 88.141468 
L 598.874452 79.995668 
L 600.019069 87.633611 
L 601.163686 87.156652 
L 602.308304 81.99846 
L 603.452921 84.062094 
L 604.597538 89.642687 
L 605.742156 87.976229 
L 606.886773 82.211082 
L 608.03139 70.596815 
L 609.176008 67.496282 
L 610.320625 87.848474 
L 611.465243 80.163094 
L 612.60986 75.368924 
L 614.899095 87.708015 
L 616.043712 89.9008 
L 617.188329 72.33566 
L 618.332947 81.802639 
L 619.477564 93.967626 
L 620.622181 85.445225 
L 621.766799 91.297986 
L 622.911416 101.259248 
L 625.200651 110.871504 
L 626.345268 106.289737 
L 628.634503 119.628087 
L 629.77912 121.044176 
L 630.923737 129.737864 
L 632.068355 128.855372 
L 633.212972 124.022215 
L 634.357589 137.042013 
L 635.502207 154.694473 
L 636.646824 153.958872 
L 637.791441 171.88926 
L 638.936059 181.797933 
L 640.080676 168.95311 
L 641.225293 178.969128 
L 642.369911 187.706853 
L 643.514528 190.146773 
L 644.659146 189.653225 
L 645.803763 193.322953 
L 648.092998 213.083304 
L 650.382232 226.622104 
L 651.52685 241.639132 
L 652.671467 241.775379 
L 653.816084 257.056057 
L 654.960702 270.355408 
L 656.105319 276.446266 
L 657.249936 290.615553 
L 658.394554 282.291956 
L 659.539171 279.640871 
L 660.683788 292.500324 
L 661.828406 313.503778 
L 662.973023 312.43105 
L 664.11764 322.454288 
L 665.262258 346.54248 
L 666.406875 348.491827 
L 668.69611 377.854105 
L 669.840727 382.579812 
L 670.985344 378.680232 
L 672.129962 386.826468 
L 673.274579 391.51816 
L 674.419196 389.681474 
L 675.563814 405.444944 
L 676.708431 404.672043 
L 677.853049 410.124032 
L 678.997666 435.269407 
L 680.142283 436.65348 
L 681.286901 432.367231 
L 682.431518 444.462582 
L 684.720753 453.643018 
L 685.86537 467.442308 
L 687.009987 477.793207 
L 688.154605 474.509978 
L 689.299222 478.199569 
L 690.443839 490.369193 
L 691.588457 475.444967 
L 692.733074 487.582478 
L 693.877691 501.016877 
L 695.022309 495.163165 
L 696.166926 510.309694 
L 697.311543 504.172991 
L 698.456161 511.448842 
L 699.600778 515.783159 
L 700.745395 515.340619 
L 701.890013 525.430206 
L 703.03463 523.947609 
L 704.179247 532.348193 
L 705.323865 526.8811 
L 706.468482 530.24178 
L 707.613099 539.979764 
L 708.757717 531.58132 
L 709.902334 534.331198 
L 711.046951 541.048079 
L 712.191569 545.451671 
L 713.336186 543.16239 
L 714.480804 547.058238 
L 715.625421 556.868227 
L 716.770038 546.265116 
L 717.914656 545.849466 
L 719.059273 544.061905 
L 720.20389 524.939116 
L 721.348508 533.47198 
L 722.493125 539.909464 
L 723.637742 532.202118 
L 724.78236 543.484803 
L 725.926977 539.60951 
L 727.071594 529.680905 
L 728.216212 534.97527 
L 729.360829 527.674466 
L 730.505446 527.201643 
L 731.650064 534.320748 
L 732.794681 527.914898 
L 733.939298 518.637028 
L 735.083916 516.364739 
L 736.228533 522.5419 
L 737.37315 515.821037 
L 738.517768 501.455669 
L 739.662385 499.914834 
L 740.807002 497.002702 
L 741.95162 487.53535 
L 743.096237 489.232729 
L 744.240854 490.207894 
L 745.385472 478.378365 
L 746.530089 469.185428 
L 747.674707 467.633989 
L 748.819324 465.561747 
L 749.963941 454.205237 
L 751.108559 452.08302 
L 752.253176 454.16773 
L 754.542411 438.339587 
L 755.687028 437.994967 
L 756.831645 432.895052 
L 757.976263 424.234045 
L 759.12088 429.832633 
L 760.265497 419.858051 
L 761.410115 404.969472 
L 762.554732 401.920294 
L 763.699349 394.576631 
L 764.843967 389.151428 
L 765.988584 381.606783 
L 767.133201 376.221759 
L 768.277819 379.542014 
L 769.422436 378.691359 
L 770.567053 368.184198 
L 771.711671 364.579954 
L 772.856288 365.935304 
L 774.000905 354.845009 
L 775.145523 345.906837 
L 776.29014 344.888745 
L 778.579375 324.005006 
L 779.723992 317.845415 
L 780.86861 319.986111 
L 782.013227 314.908628 
L 783.157844 295.545622 
L 784.302462 313.182249 
L 785.447079 313.53281 
L 786.591696 294.154703 
L 787.736314 296.660935 
L 788.880931 279.069468 
L 790.025548 288.048066 
L 791.170166 292.813195 
L 792.314783 280.728178 
L 793.4594 283.907027 
L 794.604018 270.63448 
L 795.748635 268.182814 
L 796.893252 260.034521 
L 798.03787 258.981338 
L 799.182487 267.266597 
L 800.327104 254.68145 
L 801.471722 244.312368 
L 802.616339 242.163861 
L 803.760956 244.557316 
L 804.905574 236.179633 
L 806.050191 245.436557 
L 807.194808 244.794029 
L 808.339426 238.963131 
L 809.484043 259.363291 
L 810.62866 239.654155 
L 811.773278 230.299464 
L 812.917895 249.198539 
L 814.062513 239.103652 
L 815.20713 226.241507 
L 816.351747 230.848487 
L 817.496365 237.337581 
L 818.640982 239.146622 
L 819.785599 227.322168 
L 820.930217 220.935885 
L 822.074834 223.415259 
L 823.219451 217.763923 
L 824.364069 225.814671 
L 825.508686 221.55454 
L 826.653303 219.865522 
L 827.797921 229.736101 
L 828.942538 223.844134 
L 830.087155 228.876748 
L 831.231773 220.094674 
L 832.37639 213.757258 
L 833.521007 230.217937 
L 834.665625 219.538066 
L 835.810242 215.826379 
L 836.954859 226.436308 
L 838.099477 233.403416 
L 839.244094 235.198101 
L 840.388711 224.415055 
L 841.533329 227.845928 
L 842.677946 216.040841 
L 843.822563 220.372257 
L 844.967181 231.049484 
L 846.111798 224.121588 
L 847.256416 238.617648 
L 848.401033 236.217954 
L 849.54565 226.560304 
L 850.690268 228.662981 
L 851.834885 232.735607 
L 852.979502 233.5831 
L 854.12412 240.816739 
L 855.268737 246.849899 
L 856.413354 249.565404 
L 857.557972 241.919036 
L 858.702589 244.689879 
L 859.847206 265.717038 
L 860.991824 252.371779 
L 862.136441 242.6527 
L 863.281058 241.397091 
L 864.425676 241.809999 
L 865.570293 254.14904 
L 866.71491 254.54254 
L 867.859528 251.658991 
L 870.148762 259.441874 
L 871.29338 259.858676 
L 872.437997 264.754807 
L 873.582614 273.759583 
L 874.727232 274.797025 
L 875.871849 276.440191 
L 877.016466 284.47001 
L 878.161084 271.877219 
L 879.305701 275.199455 
L 880.450319 280.604536 
L 881.594936 265.938754 
L 882.739553 282.286558 
L 883.884171 291.127307 
L 885.028788 304.118422 
L 886.173405 318.89578 
L 887.318023 305.195521 
L 888.46264 314.5958 
L 889.607257 319.454311 
L 890.751875 311.688212 
L 891.896492 314.918661 
L 893.041109 314.453944 
L 894.185727 312.068708 
L 895.330344 313.196173 
L 896.474961 318.646915 
L 897.619579 326.971313 
L 898.764196 325.092451 
L 899.908813 327.223157 
L 901.053431 346.309201 
L 902.198048 344.067667 
L 903.342665 342.504028 
L 904.487283 349.881075 
L 905.6319 342.326691 
L 906.776517 344.31528 
L 907.921135 359.320906 
L 909.065752 359.290765 
L 910.210369 348.474791 
L 911.354987 349.440064 
L 912.499604 350.92995 
L 913.644221 366.418226 
L 914.788839 373.857823 
L 915.933456 370.871189 
L 917.078074 374.12338 
L 918.222691 364.984115 
L 919.367308 372.472278 
L 920.511926 379.066756 
L 921.656543 382.940825 
L 922.80116 392.924126 
L 923.945778 388.779464 
L 925.090395 391.076439 
L 926.235012 385.476357 
L 927.37963 378.466221 
L 928.524247 385.915321 
L 929.668864 384.360131 
L 930.813482 390.344621 
L 931.958099 392.896403 
L 933.102716 388.803058 
L 935.391951 401.743731 
L 936.536568 398.485137 
L 937.681186 396.779228 
L 938.825803 408.241858 
L 939.97042 408.028268 
L 941.115038 402.544299 
L 942.259655 406.082224 
L 943.404272 405.989806 
L 944.54889 402.517486 
L 945.693507 401.350117 
L 946.838124 398.594025 
L 947.982742 412.516998 
L 949.127359 423.85844 
L 950.271977 401.56862 
L 951.416594 404.258827 
L 952.561211 409.365126 
L 953.705829 395.859447 
L 954.850446 407.174406 
L 955.995063 408.402316 
L 957.139681 417.980741 
L 958.284298 418.819648 
L 959.428915 405.098819 
L 960.573533 408.554682 
L 961.71815 400.701501 
L 962.862767 401.536237 
L 964.007385 397.783165 
L 965.152002 397.851355 
L 966.296619 404.786969 
L 967.441237 409.765643 
L 968.585854 409.740033 
L 969.730471 400.046925 
L 970.875089 406.505548 
L 972.019706 401.279629 
L 973.164323 402.422791 
L 974.308941 396.077358 
L 975.453558 386.990811 
L 976.598175 393.026453 
L 977.742793 379.993452 
L 980.032027 395.610292 
L 981.176645 393.161535 
L 982.321262 393.796238 
L 983.46588 384.570437 
L 984.610497 386.706254 
L 985.755114 393.297159 
L 986.899732 402.405862 
L 988.044349 396.431488 
L 989.188966 391.312951 
L 990.333584 390.755734 
L 991.478201 377.671798 
L 992.622818 392.096596 
L 993.767436 396.43595 
L 994.912053 386.637944 
L 996.05667 383.913535 
L 997.201288 382.798808 
L 998.345905 390.656739 
L 999.490522 376.366981 
L 1000.63514 378.681884 
L 1001.779757 384.02502 
L 1002.924374 377.577508 
L 1004.068992 383.672287 
L 1005.213609 383.582591 
L 1006.358226 390.098289 
L 1007.502844 380.094007 
L 1008.647461 371.70785 
L 1009.792078 380.492758 
L 1010.936696 376.284793 
L 1012.081313 376.746634 
L 1013.22593 385.462294 
L 1014.370548 387.311408 
L 1015.515165 382.344798 
L 1016.659783 384.487008 
L 1017.8044 386.05683 
L 1018.949017 373.301382 
L 1020.093635 368.023832 
L 1021.238252 368.109955 
L 1022.382869 359.706851 
L 1023.527487 359.844967 
L 1024.672104 360.125148 
L 1025.816721 353.020103 
L 1026.961339 358.579879 
L 1028.105956 360.581305 
L 1029.250573 357.688043 
L 1030.395191 368.289848 
L 1032.684425 346.027985 
L 1033.829043 354.553368 
L 1034.97366 343.069471 
L 1036.118277 344.317965 
L 1037.262895 341.473269 
L 1038.407512 334.483346 
L 1039.552129 336.456783 
L 1040.696747 325.039597 
L 1041.841364 325.06544 
L 1042.985981 321.723332 
L 1044.130599 325.332962 
L 1045.275216 320.642006 
L 1046.419833 320.336098 
L 1047.564451 331.823047 
L 1048.709068 317.769048 
L 1049.853686 323.272044 
L 1050.998303 323.014422 
L 1052.14292 311.994337 
L 1053.287538 305.215586 
L 1054.432155 311.371297 
L 1055.576772 311.944307 
L 1056.72139 296.987609 
L 1057.866007 311.843219 
L 1059.010624 303.253721 
L 1060.155242 300.738275 
L 1061.299859 319.05729 
L 1062.444476 314.488912 
L 1063.589094 308.546518 
L 1064.733711 304.447878 
L 1065.878328 305.679077 
L 1067.022946 308.006494 
L 1068.167563 301.795814 
L 1069.31218 302.75489 
L 1070.456798 303.190746 
L 1071.601415 295.639484 
L 1072.746032 297.404571 
L 1073.89065 292.10763 
L 1075.035267 291.225297 
L 1076.179884 293.125742 
L 1077.324502 291.718648 
L 1078.469119 288.084245 
L 1079.613736 292.793007 
L 1080.758354 306.510477 
L 1081.902971 302.454162 
L 1083.047588 301.814764 
L 1085.336823 292.197179 
L 1086.481441 289.714786 
L 1087.626058 290.759036 
L 1088.770675 290.15451 
L 1089.915293 279.547776 
L 1091.05991 282.393856 
L 1092.204527 274.652665 
L 1093.349145 273.51064 
L 1094.493762 281.589277 
L 1095.638379 283.686223 
L 1096.782997 284.067657 
L 1097.927614 281.59898 
L 1099.072231 280.22578 
L 1100.216849 283.651688 
L 1101.361466 295.918301 
L 1102.506083 274.745365 
L 1103.650701 267.633993 
L 1104.795318 280.173826 
L 1105.939935 273.797303 
L 1107.084553 278.044165 
L 1108.22917 269.604162 
L 1109.373787 272.492519 
L 1110.518405 269.125439 
L 1111.663022 266.842067 
L 1112.807639 275.660769 
L 1113.952257 261.862791 
L 1115.096874 267.444185 
L 1116.241491 270.189816 
L 1117.386109 266.703863 
L 1118.530726 269.967408 
L 1119.675344 264.362857 
L 1120.819961 271.877006 
L 1121.964578 277.900631 
L 1123.109196 277.914592 
L 1124.253813 273.542293 
L 1125.39843 257.218334 
L 1126.543048 263.138287 
L 1127.687665 262.046435 
L 1128.832282 263.01901 
L 1129.9769 273.674694 
L 1131.121517 271.715547 
L 1132.266134 281.52105 
L 1133.410752 271.513631 
L 1134.555369 268.739636 
L 1136.844604 257.260233 
L 1137.989221 274.635528 
L 1139.133838 259.701704 
L 1140.278456 255.284619 
L 1141.423073 259.297453 
L 1142.56769 254.379947 
L 1143.712308 257.302199 
L 1144.856925 260.751179 
L 1146.001542 265.284144 
L 1147.14616 259.396324 
L 1148.290777 262.523904 
L 1149.435394 247.082217 
L 1150.580012 252.255663 
L 1151.724629 273.35633 
L 1152.869247 256.766468 
L 1154.013864 258.585165 
L 1155.158481 250.053206 
L 1156.303099 253.808931 
L 1157.447716 257.989284 
L 1158.592333 249.55819 
L 1159.736951 277.277966 
L 1160.881568 274.027984 
L 1162.026185 266.189545 
L 1163.170803 280.086571 
L 1164.31542 275.526274 
L 1165.460037 276.702082 
L 1166.604655 281.452111 
L 1167.749272 282.940589 
L 1168.893889 297.261368 
L 1170.038507 301.396417 
L 1171.183124 300.316224 
L 1172.327741 302.552863 
L 1173.472359 309.854962 
L 1174.616976 312.699823 
L 1175.761593 314.039083 
L 1176.906211 331.181465 
L 1178.050828 325.796147 
L 1179.195445 334.871995 
L 1180.340063 337.393458 
L 1181.48468 326.057911 
L 1182.629297 345.250818 
L 1183.773915 344.774005 
L 1184.918532 349.841462 
L 1186.06315 351.577412 
L 1187.207767 349.337969 
L 1188.352384 367.550341 
L 1189.497002 361.826028 
L 1190.641619 361.647557 
L 1191.786236 379.386916 
L 1192.930854 371.740558 
L 1194.075471 365.356613 
L 1195.220088 375.689109 
L 1196.364706 374.524758 
L 1197.509323 389.971856 
L 1198.65394 394.473813 
L 1199.798558 386.707149 
L 1200.943175 398.667169 
L 1202.087792 403.059056 
L 1203.23241 408.906931 
L 1204.377027 400.127101 
L 1205.521644 402.0718 
L 1206.666262 406.280162 
L 1207.810879 396.081508 
L 1208.955496 408.993168 
L 1210.100114 409.246704 
L 1211.244731 403.351789 
L 1212.389348 413.074795 
L 1213.533966 412.710107 
L 1214.678583 407.306261 
L 1215.8232 407.432153 
L 1216.967818 411.160488 
L 1218.112435 413.236054 
L 1219.257053 412.241634 
L 1220.40167 423.572662 
L 1221.546287 417.233666 
L 1222.690905 405.822961 
L 1223.835522 420.331287 
L 1224.980139 412.493907 
L 1226.124757 403.067275 
L 1227.269374 405.786171 
L 1228.413991 409.130707 
L 1229.558609 414.321361 
L 1230.703226 410.507454 
L 1231.847843 412.784931 
L 1232.992461 413.379458 
L 1234.137078 420.567141 
L 1235.281695 414.993497 
L 1236.426313 407.13077 
L 1237.57093 408.505467 
L 1238.715547 400.86269 
L 1239.860165 407.471733 
L 1241.004782 398.68616 
L 1242.149399 392.378978 
L 1243.294017 412.952792 
L 1244.438634 411.103721 
L 1245.583251 400.715023 
L 1246.727869 406.534533 
L 1247.872486 409.506614 
L 1250.161721 400.240043 
L 1251.306338 396.20796 
L 1252.450956 398.45263 
L 1253.595573 390.939725 
L 1254.74019 380.154885 
L 1255.884808 383.508494 
L 1257.029425 380.555344 
L 1258.174042 392.718903 
L 1259.31866 398.811408 
L 1260.463277 391.087742 
L 1261.607894 397.158646 
L 1262.752512 391.328679 
L 1263.897129 392.387835 
L 1265.041746 401.689692 
L 1266.186364 393.413667 
L 1266.186364 393.413667 
" style="fill:none;stroke:#1f77b4;stroke-linecap:square;stroke-width:1.5;"/>
   </g>
   <g id="line2d_32">
    <path clip-path="url(#p057c226d89)" d="M 122.713636 191.702562 
L 123.858254 192.913432 
L 125.002871 189.276673 
L 126.147488 196.843957 
L 127.292106 193.856544 
L 128.436723 198.383844 
L 129.58134 203.457773 
L 130.725958 193.777611 
L 131.870575 200.999355 
L 133.015192 203.180374 
L 134.15981 200.483101 
L 135.304427 212.015896 
L 136.449044 215.92012 
L 137.593662 212.440838 
L 138.738279 221.378946 
L 139.882897 227.048141 
L 141.027514 230.162915 
L 142.172131 234.472241 
L 143.316749 245.437066 
L 144.461366 245.722303 
L 145.605983 241.785804 
L 146.750601 247.825233 
L 147.895218 240.899632 
L 149.039835 247.10435 
L 150.184453 260.511298 
L 151.32907 267.433846 
L 152.473687 269.300762 
L 153.618305 279.722214 
L 154.762922 282.524388 
L 155.907539 277.341085 
L 157.052157 286.438227 
L 158.196774 288.567742 
L 159.341391 287.621419 
L 160.486009 295.924378 
L 161.630626 302.782609 
L 162.775243 305.794475 
L 163.919861 323.420256 
L 165.064478 317.281571 
L 166.209095 314.433098 
L 167.353713 322.105219 
L 168.49833 323.450613 
L 169.642947 333.34301 
L 170.787565 336.220104 
L 171.932182 344.532018 
L 173.0768 344.651493 
L 174.221417 353.958051 
L 175.366034 359.925133 
L 176.510652 358.990003 
L 177.655269 371.547207 
L 178.799886 380.039344 
L 179.944504 374.813234 
L 181.089121 374.652057 
L 182.233738 391.005852 
L 183.378356 387.880124 
L 184.522973 401.969087 
L 185.66759 401.535495 
L 186.812208 392.549701 
L 187.956825 411.355983 
L 189.101442 400.200578 
L 190.24606 408.345382 
L 191.390677 405.211363 
L 192.535294 394.831752 
L 193.679912 416.565556 
L 194.824529 410.072856 
L 195.969146 408.053367 
L 197.113764 418.309562 
L 198.258381 422.71305 
L 199.402998 422.672719 
L 200.547616 425.666731 
L 201.692233 433.428851 
L 202.83685 423.795735 
L 203.981468 429.730018 
L 205.126085 447.057808 
L 206.270703 437.504245 
L 207.41532 427.003352 
L 208.559937 443.708142 
L 209.704555 450.667023 
L 210.849172 437.799486 
L 211.993789 444.260767 
L 213.138407 443.139045 
L 214.283024 445.070551 
L 215.427641 435.285268 
L 216.572259 423.946331 
L 217.716876 443.505491 
L 218.861493 434.274296 
L 220.006111 440.585595 
L 221.150728 444.818632 
L 222.295345 434.201662 
L 223.439963 451.395437 
L 224.58458 449.037326 
L 225.729197 449.153214 
L 226.873815 461.442492 
L 228.018432 451.27511 
L 229.163049 449.332315 
L 230.307667 455.348892 
L 231.452284 447.670394 
L 232.596901 457.304972 
L 233.741519 453.736661 
L 234.886136 455.119367 
L 236.030753 467.404274 
L 237.175371 450.501143 
L 238.319988 463.429466 
L 239.464606 464.875937 
L 240.609223 448.486358 
L 241.75384 457.020872 
L 242.898458 457.273223 
L 245.187692 443.142851 
L 246.33231 457.11728 
L 247.476927 468.13255 
L 248.621544 464.052855 
L 249.766162 464.315891 
L 250.910779 460.223125 
L 252.055396 465.975394 
L 253.200014 473.304746 
L 254.344631 473.598206 
L 255.489248 467.693415 
L 256.633866 473.5191 
L 257.778483 473.577645 
L 258.9231 459.497146 
L 260.067718 470.249522 
L 261.212335 470.796444 
L 262.356952 463.300294 
L 263.50157 463.305261 
L 264.646187 456.509682 
L 265.790804 463.307224 
L 266.935422 458.804673 
L 268.080039 457.427376 
L 269.224656 457.851916 
L 270.369274 449.628001 
L 271.513891 467.879638 
L 272.658509 453.672914 
L 273.803126 450.850316 
L 274.947743 465.768589 
L 276.092361 460.560068 
L 277.236978 462.77172 
L 278.381595 451.379607 
L 279.526213 458.001991 
L 280.67083 456.991667 
L 281.815447 453.484969 
L 282.960065 456.732351 
L 284.104682 446.953351 
L 285.249299 446.578065 
L 286.393917 438.798618 
L 287.538534 431.803836 
L 288.683151 430.461405 
L 289.827769 422.363935 
L 290.972386 425.459441 
L 292.117003 430.826691 
L 293.261621 429.831421 
L 294.406238 434.292726 
L 295.550855 435.473914 
L 296.695473 437.758385 
L 297.84009 430.71747 
L 298.984707 424.435422 
L 300.129325 429.892844 
L 301.273942 422.257202 
L 302.418559 409.901078 
L 303.563177 411.931537 
L 304.707794 408.322382 
L 305.852412 394.367218 
L 306.997029 393.634471 
L 308.141646 398.973235 
L 309.286264 388.790508 
L 310.430881 386.208695 
L 311.575498 389.760703 
L 312.720116 374.185033 
L 313.864733 374.337153 
L 315.00935 376.261156 
L 316.153968 368.896006 
L 317.298585 367.826447 
L 318.443202 355.123238 
L 319.58782 355.007173 
L 320.732437 343.844123 
L 321.877054 329.942813 
L 323.021672 336.014948 
L 324.166289 329.015948 
L 325.310906 328.931453 
L 326.455524 314.144437 
L 327.600141 313.254853 
L 328.744758 305.64309 
L 329.889376 282.361632 
L 331.033993 287.327442 
L 332.17861 273.782114 
L 333.323228 271.059434 
L 334.467845 274.532671 
L 335.612462 269.33011 
L 336.75708 261.847384 
L 337.901697 249.717339 
L 339.046314 247.155412 
L 340.190932 245.296729 
L 341.335549 232.50621 
L 342.480167 216.479062 
L 343.624784 216.277343 
L 344.769401 213.053049 
L 345.914019 202.016045 
L 347.058636 198.706201 
L 348.203253 196.152508 
L 349.347871 183.941304 
L 351.637105 172.248899 
L 352.781723 159.128354 
L 353.92634 158.107566 
L 355.070957 150.459645 
L 356.215575 143.738484 
L 357.360192 137.918563 
L 358.504809 118.304874 
L 359.649427 125.085283 
L 360.794044 129.287293 
L 361.938661 113.878093 
L 363.083279 116.175076 
L 364.227896 114.21252 
L 365.372513 105.073897 
L 366.517131 96.943141 
L 367.661748 97.128079 
L 368.806365 91.302514 
L 369.950983 69.273726 
L 371.0956 69.475264 
L 372.240217 64.906684 
L 373.384835 65.50576 
L 374.529452 75.99655 
L 375.67407 66.10429 
L 376.818687 62.166305 
L 377.963304 63.382473 
L 379.107922 62.252104 
L 380.252539 62.520473 
L 381.397156 58.642461 
L 382.541774 55.645455 
L 383.686391 59.616481 
L 384.831008 57.493653 
L 387.120243 64.719302 
L 388.26486 56.154943 
L 389.409478 66.970381 
L 390.554095 61.69435 
L 391.698712 57.965786 
L 392.84333 70.408041 
L 393.987947 62.430167 
L 395.132564 78.095898 
L 396.277182 91.573559 
L 397.421799 91.925672 
L 398.566416 88.134851 
L 399.711034 92.56321 
L 400.855651 100.054308 
L 402.000268 95.225471 
L 403.144886 112.708304 
L 404.289503 106.541992 
L 405.43412 122.115944 
L 406.578738 148.940964 
L 407.723355 133.462263 
L 408.867973 149.182679 
L 410.01259 162.079956 
L 411.157207 166.738346 
L 412.301825 173.202501 
L 413.446442 177.132977 
L 414.591059 190.224195 
L 415.735677 191.391927 
L 416.880294 189.579099 
L 418.024911 195.275058 
L 419.169529 210.680128 
L 420.314146 211.023589 
L 422.603381 242.054939 
L 423.747998 241.682151 
L 424.892615 260.362549 
L 426.037233 265.075409 
L 427.18185 274.607379 
L 428.326467 280.852105 
L 429.471085 283.912988 
L 430.615702 307.7303 
L 431.760319 320.447836 
L 432.904937 317.527805 
L 434.049554 333.706936 
L 435.194171 346.966377 
L 436.338789 349.447441 
L 437.483406 373.281889 
L 438.628023 370.090287 
L 439.772641 369.475932 
L 440.917258 389.693289 
L 442.061876 391.550265 
L 443.206493 401.922465 
L 444.35111 410.749306 
L 445.495728 421.132113 
L 446.640345 438.51613 
L 447.784962 442.494629 
L 448.92958 441.444421 
L 450.074197 451.420547 
L 451.218814 465.948713 
L 452.363432 464.702671 
L 453.508049 464.084564 
L 454.652666 485.467543 
L 455.797284 485.953141 
L 456.941901 496.777843 
L 458.086518 512.711348 
L 459.231136 510.352196 
L 460.375753 534.91272 
L 461.52037 535.998674 
L 462.664988 533.9268 
L 463.809605 558.139107 
L 464.954222 545.42579 
L 466.09884 538.550149 
L 467.243457 553.829956 
L 468.388074 549.587069 
L 469.532692 554.570705 
L 470.677309 569.701686 
L 471.821926 577.528309 
L 472.966544 581.948768 
L 474.111161 595.905768 
L 475.255779 595.244113 
L 476.400396 596.938793 
L 477.545013 612.52521 
L 478.689631 606.70411 
L 479.834248 602.17364 
L 480.978865 592.169528 
L 482.123483 598.877456 
L 483.2681 602.804151 
L 484.412717 596.089908 
L 485.557335 615.144183 
L 486.701952 618.780958 
L 487.846569 612.384925 
L 488.991187 625.621933 
L 490.135804 630.954545 
L 491.280421 623.13261 
L 492.425039 627.644788 
L 493.569656 624.528938 
L 494.714273 614.031654 
L 495.858891 624.512759 
L 498.148125 602.544633 
L 499.292743 614.182495 
L 500.43736 603.290715 
L 501.581977 607.276124 
L 502.726595 615.874673 
L 503.871212 606.926508 
L 505.015829 594.449129 
L 506.160447 594.454107 
L 507.305064 596.145651 
L 508.449681 597.633242 
L 509.594299 592.197572 
L 510.738916 563.560155 
L 511.883534 567.496387 
L 513.028151 570.554662 
L 514.172768 563.591751 
L 515.317386 564.048631 
L 516.462003 550.901765 
L 517.60662 552.102338 
L 518.751238 543.9577 
L 519.895855 532.885287 
L 521.040472 532.43176 
L 522.18509 519.025873 
L 523.329707 509.59564 
L 524.474324 512.573991 
L 525.618942 502.496405 
L 526.763559 485.290155 
L 527.908176 477.086038 
L 529.052794 473.317972 
L 530.197411 463.452602 
L 531.342028 459.91617 
L 532.486646 455.781581 
L 533.631263 438.233404 
L 534.77588 440.720723 
L 535.920498 432.643273 
L 537.065115 421.680855 
L 538.209732 412.821775 
L 539.35435 399.278481 
L 540.498967 401.379991 
L 541.643584 378.88836 
L 542.788202 375.396632 
L 543.932819 375.622589 
L 545.077437 371.499426 
L 546.222054 372.949341 
L 547.366671 355.341349 
L 548.511289 365.754688 
L 549.655906 343.376308 
L 550.800523 335.731687 
L 551.945141 344.793663 
L 553.089758 316.227969 
L 554.234375 321.558253 
L 555.378993 306.508286 
L 556.52361 299.861581 
L 557.668227 291.570243 
L 558.812845 271.911883 
L 559.957462 276.105148 
L 561.102079 253.255348 
L 562.246697 259.260394 
L 563.391314 257.732974 
L 564.535931 235.470044 
L 565.680549 242.664337 
L 566.825166 229.461162 
L 567.969783 217.920331 
L 569.114401 228.165721 
L 570.259018 220.980079 
L 571.403635 205.488126 
L 572.548253 194.80299 
L 573.69287 191.831794 
L 574.837487 185.936312 
L 575.982105 171.713516 
L 577.126722 167.166686 
L 578.27134 149.981534 
L 579.415957 151.749672 
L 580.560574 149.853867 
L 581.705192 134.634365 
L 582.849809 140.760196 
L 583.994426 133.30973 
L 585.139044 133.50869 
L 586.283661 125.2184 
L 587.428278 128.278254 
L 588.572896 125.206064 
L 589.717513 99.698896 
L 590.86213 104.451855 
L 592.006748 96.921332 
L 593.151365 98.291552 
L 594.295982 94.827994 
L 595.4406 86.689779 
L 596.585217 92.370746 
L 597.729834 80.249163 
L 598.874452 82.692487 
L 600.019069 78.447825 
L 601.163686 83.015844 
L 602.308304 93.054458 
L 603.452921 73.541891 
L 604.597538 79.845154 
L 605.742156 85.45595 
L 606.886773 67.778886 
L 608.03139 67.91909 
L 609.176008 68.798659 
L 610.320625 67.338375 
L 611.465243 72.173393 
L 612.60986 77.597943 
L 613.754477 67.699087 
L 614.899095 63.76077 
L 616.043712 83.320027 
L 617.188329 83.432898 
L 618.332947 72.675035 
L 619.477564 86.856867 
L 620.622181 92.770599 
L 621.766799 87.014037 
L 622.911416 95.64083 
L 624.056033 102.901956 
L 625.200651 108.838964 
L 626.345268 108.602777 
L 627.489885 107.895389 
L 628.634503 115.902321 
L 629.77912 117.669183 
L 630.923737 120.121532 
L 632.068355 118.958426 
L 633.212972 130.802101 
L 634.357589 137.501199 
L 635.502207 129.439597 
L 636.646824 155.387899 
L 637.791441 170.225175 
L 638.936059 173.692268 
L 640.080676 175.324296 
L 641.225293 170.290686 
L 642.369911 185.093941 
L 643.514528 189.135364 
L 644.659146 191.31881 
L 645.803763 194.149023 
L 646.94838 211.051889 
L 648.092998 212.836183 
L 649.237615 210.992563 
L 650.382232 241.092204 
L 652.671467 248.137953 
L 653.816084 258.336648 
L 654.960702 265.226165 
L 657.249936 287.567645 
L 658.394554 285.15919 
L 659.539171 287.171527 
L 660.683788 297.128691 
L 661.828406 312.93543 
L 662.973023 325.226075 
L 664.11764 334.719219 
L 665.262258 346.390381 
L 666.406875 348.549534 
L 667.551492 372.065183 
L 668.69611 378.949091 
L 669.840727 378.292304 
L 670.985344 386.842348 
L 672.129962 388.40486 
L 673.274579 385.649646 
L 674.419196 396.443672 
L 675.563814 416.675951 
L 676.708431 402.021065 
L 677.853049 425.740478 
L 678.997666 440.738385 
L 680.142283 428.950918 
L 681.286901 449.317533 
L 682.431518 443.331358 
L 683.576135 452.18864 
L 684.720753 472.348548 
L 685.86537 469.816329 
L 687.009987 475.276848 
L 688.154605 473.798599 
L 689.299222 490.055757 
L 690.443839 493.515187 
L 691.588457 481.531611 
L 692.733074 494.951783 
L 693.877691 499.940086 
L 695.022309 515.71416 
L 696.166926 513.18797 
L 697.311543 503.344414 
L 698.456161 515.76409 
L 699.600778 513.045764 
L 700.745395 525.018855 
L 701.890013 529.196785 
L 703.03463 522.772068 
L 704.179247 535.429503 
L 705.323865 531.09286 
L 706.468482 528.038609 
L 707.613099 543.95214 
L 708.757717 537.25794 
L 709.902334 545.974851 
L 711.046951 551.262089 
L 712.191569 539.168 
L 713.336186 549.379149 
L 714.480804 546.938858 
L 715.625421 551.204675 
L 716.770038 547.898036 
L 717.914656 542.765474 
L 719.059273 548.703807 
L 720.20389 532.955242 
L 721.348508 538.40358 
L 722.493125 545.411598 
L 723.637742 534.364332 
L 724.78236 542.524562 
L 725.926977 539.926704 
L 727.071594 533.031073 
L 728.216212 539.093991 
L 729.360829 536.299031 
L 730.505446 537.157679 
L 731.650064 533.604231 
L 732.794681 528.227043 
L 733.939298 523.531838 
L 735.083916 510.940653 
L 737.37315 515.544854 
L 738.517768 503.529116 
L 739.662385 500.975556 
L 740.807002 499.632779 
L 741.95162 495.79402 
L 743.096237 488.318572 
L 744.240854 479.771998 
L 745.385472 476.305058 
L 746.530089 467.974784 
L 747.674707 465.333093 
L 748.819324 465.140649 
L 749.963941 469.762673 
L 751.108559 455.813131 
L 752.253176 445.903439 
L 753.397793 450.298831 
L 754.542411 439.194448 
L 755.687028 437.546027 
L 756.831645 429.767235 
L 757.976263 431.951999 
L 759.12088 429.718076 
L 760.265497 414.040135 
L 761.410115 407.976301 
L 762.554732 395.326356 
L 763.699349 394.646663 
L 764.843967 394.548073 
L 765.988584 378.507845 
L 767.133201 378.833823 
L 768.277819 387.661859 
L 769.422436 375.98376 
L 770.567053 362.805145 
L 771.711671 356.738612 
L 772.856288 358.168628 
L 774.000905 349.125937 
L 775.145523 348.902022 
L 776.29014 338.874588 
L 777.434757 323.032954 
L 778.579375 329.079261 
L 779.723992 317.183492 
L 780.86861 322.161211 
L 782.013227 311.679928 
L 783.157844 294.801997 
L 784.302462 313.307693 
L 785.447079 299.418527 
L 786.591696 293.919299 
L 787.736314 294.096996 
L 788.880931 278.985912 
L 790.025548 288.818998 
L 791.170166 289.778167 
L 792.314783 285.205926 
L 793.4594 282.61846 
L 794.604018 271.56202 
L 795.748635 263.318648 
L 796.893252 255.968349 
L 798.03787 258.655126 
L 799.182487 256.994978 
L 800.327104 245.017062 
L 801.471722 242.621201 
L 802.616339 251.333228 
L 803.760956 239.005324 
L 804.905574 230.773867 
L 806.050191 247.29363 
L 807.194808 251.693246 
L 808.339426 244.973517 
L 809.484043 236.054997 
L 810.62866 242.739946 
L 811.773278 235.792671 
L 812.917895 232.772504 
L 814.062513 239.055828 
L 815.20713 232.945641 
L 816.351747 233.183328 
L 817.496365 220.004325 
L 818.640982 229.301725 
L 819.785599 228.560291 
L 820.930217 210.770265 
L 822.074834 220.501979 
L 823.219451 220.187077 
L 824.364069 216.874506 
L 825.508686 219.83208 
L 827.797921 220.80043 
L 828.942538 223.781084 
L 830.087155 227.937157 
L 831.231773 222.837842 
L 832.37639 206.951631 
L 833.521007 216.088194 
L 834.665625 226.20765 
L 835.810242 215.268634 
L 836.954859 230.412393 
L 838.099477 229.224227 
L 839.244094 225.680269 
L 840.388711 227.805224 
L 842.677946 213.970807 
L 843.822563 215.422287 
L 844.967181 232.780234 
L 846.111798 224.568772 
L 847.256416 226.45976 
L 848.401033 233.236454 
L 849.54565 231.901843 
L 850.690268 223.941695 
L 851.834885 214.46479 
L 852.979502 235.921734 
L 854.12412 242.070325 
L 855.268737 247.460975 
L 856.413354 246.614599 
L 857.557972 243.401078 
L 858.702589 252.568953 
L 859.847206 245.596612 
L 860.991824 245.01444 
L 862.136441 251.839304 
L 863.281058 248.713937 
L 864.425676 239.62938 
L 865.570293 245.565789 
L 866.71491 248.309199 
L 867.859528 252.240516 
L 869.004145 254.263544 
L 870.148762 252.605595 
L 871.29338 263.890543 
L 872.437997 267.523665 
L 873.582614 282.699225 
L 874.727232 282.141904 
L 875.871849 274.306756 
L 877.016466 278.381982 
L 878.161084 273.809958 
L 879.305701 279.210163 
L 880.450319 273.475635 
L 881.594936 271.639363 
L 882.739553 283.356696 
L 883.884171 297.181543 
L 885.028788 304.481368 
L 886.173405 303.018362 
L 887.318023 321.193871 
L 888.46264 318.021892 
L 889.607257 310.086246 
L 890.751875 318.93878 
L 891.896492 309.802951 
L 893.041109 311.38215 
L 896.474961 323.078162 
L 897.619579 323.107024 
L 898.764196 331.714934 
L 899.908813 333.339192 
L 901.053431 344.096998 
L 902.198048 347.795296 
L 903.342665 339.770249 
L 904.487283 351.578346 
L 905.6319 353.232912 
L 906.776517 345.672312 
L 907.921135 354.259288 
L 909.065752 363.797782 
L 910.210369 352.247148 
L 911.354987 350.856982 
L 912.499604 367.245972 
L 913.644221 372.102537 
L 914.788839 370.686512 
L 915.933456 375.426066 
L 917.078074 367.782379 
L 918.222691 370.164235 
L 919.367308 384.691386 
L 920.511926 377.956425 
L 921.656543 382.434347 
L 922.80116 397.14915 
L 923.945778 396.089849 
L 925.090395 384.045049 
L 926.235012 389.493062 
L 927.37963 383.137208 
L 928.524247 378.19812 
L 929.668864 398.471024 
L 930.813482 388.729724 
L 931.958099 395.792096 
L 933.102716 397.717765 
L 934.247334 391.615173 
L 935.391951 400.362711 
L 936.536568 397.803484 
L 937.681186 408.142382 
L 938.825803 405.895929 
L 939.97042 409.808906 
L 941.115038 411.733758 
L 942.259655 400.73095 
L 943.404272 402.284654 
L 944.54889 403.151983 
L 945.693507 407.633062 
L 946.838124 410.7185 
L 947.982742 414.285142 
L 949.127359 421.982663 
L 951.416594 401.043976 
L 952.561211 403.572272 
L 953.705829 404.76806 
L 954.850446 416.287076 
L 955.995063 420.063272 
L 957.139681 421.234334 
L 958.284298 412.548447 
L 959.428915 400.440694 
L 960.573533 416.201172 
L 961.71815 395.351453 
L 962.862767 398.986901 
L 964.007385 406.143233 
L 965.152002 385.529102 
L 966.296619 418.736552 
L 967.441237 405.598567 
L 968.585854 394.073492 
L 969.730471 416.510978 
L 970.875089 397.841025 
L 972.019706 415.195463 
L 973.164323 403.831531 
L 974.308941 384.242437 
L 975.453558 400.102351 
L 976.598175 385.465469 
L 977.742793 387.779033 
L 978.88741 382.655431 
L 980.032027 389.285956 
L 981.176645 395.062219 
L 982.321262 395.729739 
L 983.46588 400.62155 
L 984.610497 379.64727 
L 985.755114 399.056499 
L 986.899732 404.967042 
L 988.044349 392.921515 
L 989.188966 388.567057 
L 990.333584 381.877302 
L 991.478201 399.825729 
L 992.622818 395.763238 
L 993.767436 379.571361 
L 994.912053 391.38113 
L 996.05667 383.826824 
L 997.201288 381.987487 
L 998.345905 393.014141 
L 999.490522 381.644063 
L 1000.63514 381.00247 
L 1002.924374 389.311456 
L 1004.068992 386.491201 
L 1005.213609 384.950839 
L 1006.358226 380.370833 
L 1007.502844 382.020194 
L 1008.647461 381.139112 
L 1009.792078 372.308319 
L 1012.081313 378.26181 
L 1013.22593 388.995598 
L 1014.370548 374.895647 
L 1015.515165 377.724784 
L 1016.659783 395.711877 
L 1017.8044 370.900406 
L 1018.949017 370.700244 
L 1020.093635 372.311403 
L 1021.238252 357.336937 
L 1022.382869 365.440033 
L 1024.672104 350.725284 
L 1025.816721 355.916828 
L 1026.961339 354.806063 
L 1028.105956 365.323107 
L 1029.250573 360.191804 
L 1031.539808 353.956797 
L 1032.684425 349.733517 
L 1033.829043 354.184203 
L 1034.97366 345.021334 
L 1036.118277 341.026758 
L 1037.262895 335.923089 
L 1038.407512 335.861233 
L 1039.552129 336.399576 
L 1040.696747 324.682241 
L 1041.841364 323.116128 
L 1042.985981 325.872937 
L 1044.130599 327.921594 
L 1045.275216 332.340097 
L 1046.419833 323.157152 
L 1047.564451 319.765582 
L 1048.709068 325.64758 
L 1049.853686 324.608094 
L 1050.998303 313.815041 
L 1052.14292 313.149084 
L 1053.287538 322.283481 
L 1054.432155 302.999656 
L 1055.576772 305.736751 
L 1056.72139 301.053544 
L 1057.866007 297.138517 
L 1059.010624 310.47267 
L 1060.155242 299.538418 
L 1061.299859 312.802729 
L 1062.444476 309.746038 
L 1063.589094 305.567153 
L 1064.733711 308.250814 
L 1065.878328 303.515377 
L 1067.022946 311.774199 
L 1068.167563 293.483562 
L 1070.456798 298.376881 
L 1071.601415 295.217511 
L 1072.746032 299.505364 
L 1073.89065 286.547951 
L 1075.035267 294.195343 
L 1076.179884 284.49212 
L 1077.324502 281.842668 
L 1078.469119 295.189422 
L 1079.613736 302.003948 
L 1080.758354 307.38376 
L 1081.902971 303.426294 
L 1083.047588 298.381582 
L 1084.192206 291.065076 
L 1085.336823 298.057827 
L 1086.481441 291.388038 
L 1087.626058 288.615636 
L 1088.770675 289.005146 
L 1089.915293 272.894595 
L 1092.204527 274.765843 
L 1093.349145 279.36051 
L 1094.493762 281.995363 
L 1095.638379 273.563902 
L 1096.782997 279.489394 
L 1097.927614 280.356601 
L 1099.072231 286.719893 
L 1100.216849 286.784946 
L 1101.361466 278.921687 
L 1102.506083 279.283022 
L 1103.650701 266.20978 
L 1104.795318 274.984146 
L 1105.939935 276.778759 
L 1107.084553 271.207194 
L 1108.22917 276.236771 
L 1109.373787 269.51786 
L 1110.518405 270.993697 
L 1111.663022 268.785456 
L 1112.807639 265.458633 
L 1113.952257 257.995255 
L 1115.096874 273.428054 
L 1116.241491 273.112388 
L 1117.386109 264.892429 
L 1118.530726 274.700505 
L 1119.675344 257.939757 
L 1120.819961 270.489751 
L 1121.964578 274.722659 
L 1123.109196 266.015293 
L 1124.253813 269.240436 
L 1125.39843 255.282768 
L 1126.543048 265.658561 
L 1127.687665 266.569425 
L 1128.832282 265.655948 
L 1129.9769 271.535355 
L 1131.121517 273.594295 
L 1132.266134 279.29038 
L 1133.410752 261.608659 
L 1134.555369 270.213654 
L 1135.699986 274.301023 
L 1136.844604 265.457469 
L 1137.989221 264.276854 
L 1139.133838 249.730337 
L 1140.278456 259.543777 
L 1141.423073 253.80583 
L 1142.56769 259.917129 
L 1143.712308 254.876044 
L 1144.856925 247.603392 
L 1146.001542 269.349077 
L 1147.14616 262.93008 
L 1148.290777 259.211046 
L 1149.435394 246.493513 
L 1150.580012 251.970163 
L 1151.724629 258.54723 
L 1152.869247 257.017479 
L 1154.013864 263.536429 
L 1155.158481 251.557542 
L 1156.303099 259.582368 
L 1157.447716 257.621175 
L 1158.592333 257.611707 
L 1159.736951 266.215083 
L 1160.881568 271.535307 
L 1162.026185 279.177236 
L 1163.170803 275.614819 
L 1164.31542 281.99459 
L 1165.460037 277.210039 
L 1166.604655 289.13074 
L 1167.749272 293.372524 
L 1168.893889 288.347783 
L 1170.038507 296.363651 
L 1171.183124 299.880067 
L 1172.327741 315.5444 
L 1173.472359 313.616399 
L 1174.616976 312.391687 
L 1175.761593 312.459646 
L 1176.906211 321.724869 
L 1178.050828 338.051781 
L 1179.195445 329.418996 
L 1180.340063 331.478448 
L 1181.48468 338.993798 
L 1182.629297 340.782501 
L 1183.773915 347.419832 
L 1184.918532 350.799507 
L 1186.06315 343.690054 
L 1187.207767 353.940133 
L 1188.352384 370.592379 
L 1189.497002 372.037533 
L 1190.641619 364.267194 
L 1191.786236 371.421649 
L 1192.930854 375.900039 
L 1194.075471 371.062638 
L 1195.220088 387.163835 
L 1196.364706 384.398885 
L 1197.509323 382.327125 
L 1198.65394 388.873283 
L 1199.798558 398.254113 
L 1200.943175 402.42667 
L 1202.087792 398.500517 
L 1203.23241 408.743915 
L 1204.377027 401.519941 
L 1205.521644 399.401228 
L 1206.666262 405.279941 
L 1207.810879 409.114426 
L 1208.955496 409.134655 
L 1210.100114 407.297261 
L 1211.244731 411.609104 
L 1212.389348 404.754085 
L 1213.533966 406.6561 
L 1214.678583 416.419707 
L 1215.8232 417.281826 
L 1216.967818 407.695467 
L 1218.112435 411.841451 
L 1219.257053 417.048743 
L 1220.40167 414.722519 
L 1221.546287 413.664444 
L 1222.690905 412.000024 
L 1223.835522 429.920454 
L 1224.980139 412.382384 
L 1226.124757 402.104824 
L 1227.269374 414.13947 
L 1228.413991 396.414268 
L 1229.558609 405.522942 
L 1230.703226 419.811187 
L 1231.847843 415.876444 
L 1232.992461 418.75888 
L 1234.137078 416.011459 
L 1235.281695 408.428362 
L 1236.426313 406.560616 
L 1237.57093 414.502949 
L 1238.715547 409.317826 
L 1239.860165 400.60037 
L 1241.004782 406.195075 
L 1242.149399 395.685306 
L 1244.438634 414.669489 
L 1245.583251 392.177571 
L 1246.727869 405.227898 
L 1247.872486 411.711668 
L 1249.017103 399.001066 
L 1250.161721 400.729757 
L 1251.306338 401.148929 
L 1252.450956 392.354149 
L 1253.595573 380.759867 
L 1254.74019 389.07846 
L 1255.884808 381.821038 
L 1257.029425 382.721665 
L 1258.174042 389.071098 
L 1259.31866 390.90977 
L 1260.463277 417.110638 
L 1261.607894 405.136726 
L 1262.752512 383.733215 
L 1263.897129 397.836621 
L 1265.041746 401.060031 
L 1266.186364 382.750461 
L 1266.186364 382.750461 
" style="fill:none;stroke:#ff7f0e;stroke-linecap:square;stroke-width:1.5;"/>
   </g>
   <g id="patch_3">
    <path d="M 65.54 659.72 
L 65.54 26.88 
" style="fill:none;stroke:#000000;stroke-linecap:square;stroke-linejoin:miter;stroke-width:0.8;"/>
   </g>
   <g id="patch_4">
    <path d="M 1323.36 659.72 
L 1323.36 26.88 
" style="fill:none;stroke:#000000;stroke-linecap:square;stroke-linejoin:miter;stroke-width:0.8;"/>
   </g>
   <g id="patch_5">
    <path d="M 65.54 659.72 
L 1323.36 659.72 
" style="fill:none;stroke:#000000;stroke-linecap:square;stroke-linejoin:miter;stroke-width:0.8;"/>
   </g>
   <g id="patch_6">
    <path d="M 65.54 26.88 
L 1323.36 26.88 
" style="fill:none;stroke:#000000;stroke-linecap:square;stroke-linejoin:miter;stroke-width:0.8;"/>
   </g>
   <g id="text_17">
    <!-- Corrected BHN data VS Raw BLN data -->
    <defs>
     <path d="M 64.40625 67.28125 
L 64.40625 56.890625 
Q 59.421875 61.53125 53.78125 63.8125 
Q 48.140625 66.109375 41.796875 66.109375 
Q 29.296875 66.109375 22.65625 58.46875 
Q 16.015625 50.828125 16.015625 36.375 
Q 16.015625 21.96875 22.65625 14.328125 
Q 29.296875 6.6875 41.796875 6.6875 
Q 48.140625 6.6875 53.78125 8.984375 
Q 59.421875 11.28125 64.40625 15.921875 
L 64.40625 5.609375 
Q 59.234375 2.09375 53.4375 0.328125 
Q 47.65625 -1.421875 41.21875 -1.421875 
Q 24.65625 -1.421875 15.125 8.703125 
Q 5.609375 18.84375 5.609375 36.375 
Q 5.609375 53.953125 15.125 64.078125 
Q 24.65625 74.21875 41.21875 74.21875 
Q 47.75 74.21875 53.53125 72.484375 
Q 59.328125 70.75 64.40625 67.28125 
z
" id="DejaVuSans-67"/>
     <path d="M 41.109375 46.296875 
Q 39.59375 47.171875 37.8125 47.578125 
Q 36.03125 48 33.890625 48 
Q 26.265625 48 22.1875 43.046875 
Q 18.109375 38.09375 18.109375 28.8125 
L 18.109375 0 
L 9.078125 0 
L 9.078125 54.6875 
L 18.109375 54.6875 
L 18.109375 46.1875 
Q 20.953125 51.171875 25.484375 53.578125 
Q 30.03125 56 36.53125 56 
Q 37.453125 56 38.578125 55.875 
Q 39.703125 55.765625 41.0625 55.515625 
z
" id="DejaVuSans-114"/>
     <path d="M 56.203125 29.59375 
L 56.203125 25.203125 
L 14.890625 25.203125 
Q 15.484375 15.921875 20.484375 11.0625 
Q 25.484375 6.203125 34.421875 6.203125 
Q 39.59375 6.203125 44.453125 7.46875 
Q 49.3125 8.734375 54.109375 11.28125 
L 54.109375 2.78125 
Q 49.265625 0.734375 44.1875 -0.34375 
Q 39.109375 -1.421875 33.890625 -1.421875 
Q 20.796875 -1.421875 13.15625 6.1875 
Q 5.515625 13.8125 5.515625 26.8125 
Q 5.515625 40.234375 12.765625 48.109375 
Q 20.015625 56 32.328125 56 
Q 43.359375 56 49.78125 48.890625 
Q 56.203125 41.796875 56.203125 29.59375 
z
M 47.21875 32.234375 
Q 47.125 39.59375 43.09375 43.984375 
Q 39.0625 48.390625 32.421875 48.390625 
Q 24.90625 48.390625 20.390625 44.140625 
Q 15.875 39.890625 15.1875 32.171875 
z
" id="DejaVuSans-101"/>
     <path d="M 45.40625 46.390625 
L 45.40625 75.984375 
L 54.390625 75.984375 
L 54.390625 0 
L 45.40625 0 
L 45.40625 8.203125 
Q 42.578125 3.328125 38.25 0.953125 
Q 33.9375 -1.421875 27.875 -1.421875 
Q 17.96875 -1.421875 11.734375 6.484375 
Q 5.515625 14.40625 5.515625 27.296875 
Q 5.515625 40.1875 11.734375 48.09375 
Q 17.96875 56 27.875 56 
Q 33.9375 56 38.25 53.625 
Q 42.578125 51.265625 45.40625 46.390625 
z
M 14.796875 27.296875 
Q 14.796875 17.390625 18.875 11.75 
Q 22.953125 6.109375 30.078125 6.109375 
Q 37.203125 6.109375 41.296875 11.75 
Q 45.40625 17.390625 45.40625 27.296875 
Q 45.40625 37.203125 41.296875 42.84375 
Q 37.203125 48.484375 30.078125 48.484375 
Q 22.953125 48.484375 18.875 42.84375 
Q 14.796875 37.203125 14.796875 27.296875 
z
" id="DejaVuSans-100"/>
     <path id="DejaVuSans-32"/>
     <path d="M 19.671875 34.8125 
L 19.671875 8.109375 
L 35.5 8.109375 
Q 43.453125 8.109375 47.28125 11.40625 
Q 51.125 14.703125 51.125 21.484375 
Q 51.125 28.328125 47.28125 31.5625 
Q 43.453125 34.8125 35.5 34.8125 
z
M 19.671875 64.796875 
L 19.671875 42.828125 
L 34.28125 42.828125 
Q 41.5 42.828125 45.03125 45.53125 
Q 48.578125 48.25 48.578125 53.8125 
Q 48.578125 59.328125 45.03125 62.0625 
Q 41.5 64.796875 34.28125 64.796875 
z
M 9.8125 72.90625 
L 35.015625 72.90625 
Q 46.296875 72.90625 52.390625 68.21875 
Q 58.5 63.53125 58.5 54.890625 
Q 58.5 48.1875 55.375 44.234375 
Q 52.25 40.28125 46.1875 39.3125 
Q 53.46875 37.75 57.5 32.78125 
Q 61.53125 27.828125 61.53125 20.40625 
Q 61.53125 10.640625 54.890625 5.3125 
Q 48.25 0 35.984375 0 
L 9.8125 0 
z
" id="DejaVuSans-66"/>
     <path d="M 9.8125 72.90625 
L 19.671875 72.90625 
L 19.671875 43.015625 
L 55.515625 43.015625 
L 55.515625 72.90625 
L 65.375 72.90625 
L 65.375 0 
L 55.515625 0 
L 55.515625 34.71875 
L 19.671875 34.71875 
L 19.671875 0 
L 9.8125 0 
z
" id="DejaVuSans-72"/>
     <path d="M 9.8125 72.90625 
L 23.09375 72.90625 
L 55.421875 11.921875 
L 55.421875 72.90625 
L 64.984375 72.90625 
L 64.984375 0 
L 51.703125 0 
L 19.390625 60.984375 
L 19.390625 0 
L 9.8125 0 
z
" id="DejaVuSans-78"/>
     <path d="M 34.28125 27.484375 
Q 23.390625 27.484375 19.1875 25 
Q 14.984375 22.515625 14.984375 16.5 
Q 14.984375 11.71875 18.140625 8.90625 
Q 21.296875 6.109375 26.703125 6.109375 
Q 34.1875 6.109375 38.703125 11.40625 
Q 43.21875 16.703125 43.21875 25.484375 
L 43.21875 27.484375 
z
M 52.203125 31.203125 
L 52.203125 0 
L 43.21875 0 
L 43.21875 8.296875 
Q 40.140625 3.328125 35.546875 0.953125 
Q 30.953125 -1.421875 24.3125 -1.421875 
Q 15.921875 -1.421875 10.953125 3.296875 
Q 6 8.015625 6 15.921875 
Q 6 25.140625 12.171875 29.828125 
Q 18.359375 34.515625 30.609375 34.515625 
L 43.21875 34.515625 
L 43.21875 35.40625 
Q 43.21875 41.609375 39.140625 45 
Q 35.0625 48.390625 27.6875 48.390625 
Q 23 48.390625 18.546875 47.265625 
Q 14.109375 46.140625 10.015625 43.890625 
L 10.015625 52.203125 
Q 14.9375 54.109375 19.578125 55.046875 
Q 24.21875 56 28.609375 56 
Q 40.484375 56 46.34375 49.84375 
Q 52.203125 43.703125 52.203125 31.203125 
z
" id="DejaVuSans-97"/>
     <path d="M 28.609375 0 
L 0.78125 72.90625 
L 11.078125 72.90625 
L 34.1875 11.53125 
L 57.328125 72.90625 
L 67.578125 72.90625 
L 39.796875 0 
z
" id="DejaVuSans-86"/>
     <path d="M 53.515625 70.515625 
L 53.515625 60.890625 
Q 47.90625 63.578125 42.921875 64.890625 
Q 37.9375 66.21875 33.296875 66.21875 
Q 25.25 66.21875 20.875 63.09375 
Q 16.5 59.96875 16.5 54.203125 
Q 16.5 49.359375 19.40625 46.890625 
Q 22.3125 44.4375 30.421875 42.921875 
L 36.375 41.703125 
Q 47.40625 39.59375 52.65625 34.296875 
Q 57.90625 29 57.90625 20.125 
Q 57.90625 9.515625 50.796875 4.046875 
Q 43.703125 -1.421875 29.984375 -1.421875 
Q 24.8125 -1.421875 18.96875 -0.25 
Q 13.140625 0.921875 6.890625 3.21875 
L 6.890625 13.375 
Q 12.890625 10.015625 18.65625 8.296875 
Q 24.421875 6.59375 29.984375 6.59375 
Q 38.421875 6.59375 43.015625 9.90625 
Q 47.609375 13.234375 47.609375 19.390625 
Q 47.609375 24.75 44.3125 27.78125 
Q 41.015625 30.8125 33.5 32.328125 
L 27.484375 33.5 
Q 16.453125 35.6875 11.515625 40.375 
Q 6.59375 45.0625 6.59375 53.421875 
Q 6.59375 63.09375 13.40625 68.65625 
Q 20.21875 74.21875 32.171875 74.21875 
Q 37.3125 74.21875 42.625 73.28125 
Q 47.953125 72.359375 53.515625 70.515625 
z
" id="DejaVuSans-83"/>
     <path d="M 44.390625 34.1875 
Q 47.5625 33.109375 50.5625 29.59375 
Q 53.5625 26.078125 56.59375 19.921875 
L 66.609375 0 
L 56 0 
L 46.6875 18.703125 
Q 43.0625 26.03125 39.671875 28.421875 
Q 36.28125 30.8125 30.421875 30.8125 
L 19.671875 30.8125 
L 19.671875 0 
L 9.8125 0 
L 9.8125 72.90625 
L 32.078125 72.90625 
Q 44.578125 72.90625 50.734375 67.671875 
Q 56.890625 62.453125 56.890625 51.90625 
Q 56.890625 45.015625 53.6875 40.46875 
Q 50.484375 35.9375 44.390625 34.1875 
z
M 19.671875 64.796875 
L 19.671875 38.921875 
L 32.078125 38.921875 
Q 39.203125 38.921875 42.84375 42.21875 
Q 46.484375 45.515625 46.484375 51.90625 
Q 46.484375 58.296875 42.84375 61.546875 
Q 39.203125 64.796875 32.078125 64.796875 
z
" id="DejaVuSans-82"/>
     <path d="M 4.203125 54.6875 
L 13.1875 54.6875 
L 24.421875 12.015625 
L 35.59375 54.6875 
L 46.1875 54.6875 
L 57.421875 12.015625 
L 68.609375 54.6875 
L 77.59375 54.6875 
L 63.28125 0 
L 52.6875 0 
L 40.921875 44.828125 
L 29.109375 0 
L 18.5 0 
z
" id="DejaVuSans-119"/>
     <path d="M 9.8125 72.90625 
L 19.671875 72.90625 
L 19.671875 8.296875 
L 55.171875 8.296875 
L 55.171875 0 
L 9.8125 0 
z
" id="DejaVuSans-76"/>
    </defs>
    <g transform="translate(580.613125 20.88)scale(0.12 -0.12)">
     <use xlink:href="#DejaVuSans-67"/>
     <use x="69.824219" xlink:href="#DejaVuSans-111"/>
     <use x="131.005859" xlink:href="#DejaVuSans-114"/>
     <use x="172.103516" xlink:href="#DejaVuSans-114"/>
     <use x="213.185547" xlink:href="#DejaVuSans-101"/>
     <use x="274.708984" xlink:href="#DejaVuSans-99"/>
     <use x="329.689453" xlink:href="#DejaVuSans-116"/>
     <use x="368.898438" xlink:href="#DejaVuSans-101"/>
     <use x="430.421875" xlink:href="#DejaVuSans-100"/>
     <use x="493.898438" xlink:href="#DejaVuSans-32"/>
     <use x="525.685547" xlink:href="#DejaVuSans-66"/>
     <use x="594.289062" xlink:href="#DejaVuSans-72"/>
     <use x="669.484375" xlink:href="#DejaVuSans-78"/>
     <use x="744.289062" xlink:href="#DejaVuSans-32"/>
     <use x="776.076172" xlink:href="#DejaVuSans-100"/>
     <use x="839.552734" xlink:href="#DejaVuSans-97"/>
     <use x="900.832031" xlink:href="#DejaVuSans-116"/>
     <use x="940.041016" xlink:href="#DejaVuSans-97"/>
     <use x="1001.320312" xlink:href="#DejaVuSans-32"/>
     <use x="1033.107422" xlink:href="#DejaVuSans-86"/>
     <use x="1101.515625" xlink:href="#DejaVuSans-83"/>
     <use x="1164.992188" xlink:href="#DejaVuSans-32"/>
     <use x="1196.779297" xlink:href="#DejaVuSans-82"/>
     <use x="1266.230469" xlink:href="#DejaVuSans-97"/>
     <use x="1327.509766" xlink:href="#DejaVuSans-119"/>
     <use x="1409.296875" xlink:href="#DejaVuSans-32"/>
     <use x="1441.083984" xlink:href="#DejaVuSans-66"/>
     <use x="1509.6875" xlink:href="#DejaVuSans-76"/>
     <use x="1565.400391" xlink:href="#DejaVuSans-78"/>
     <use x="1640.205078" xlink:href="#DejaVuSans-32"/>
     <use x="1671.992188" xlink:href="#DejaVuSans-100"/>
     <use x="1735.46875" xlink:href="#DejaVuSans-97"/>
     <use x="1796.748047" xlink:href="#DejaVuSans-116"/>
     <use x="1835.957031" xlink:href="#DejaVuSans-97"/>
    </g>
   </g>
   <g id="legend_1">
    <g id="patch_7">
     <path d="M 72.54 64.514375 
L 155.09 64.514375 
Q 157.09 64.514375 157.09 62.514375 
L 157.09 33.88 
Q 157.09 31.88 155.09 31.88 
L 72.54 31.88 
Q 70.54 31.88 70.54 33.88 
L 70.54 62.514375 
Q 70.54 64.514375 72.54 64.514375 
z
" style="fill:#ffffff;opacity:0.8;stroke:#cccccc;stroke-linejoin:miter;"/>
    </g>
    <g id="line2d_33">
     <path d="M 74.54 39.978437 
L 94.54 39.978437 
" style="fill:none;stroke:#1f77b4;stroke-linecap:square;stroke-width:1.5;"/>
    </g>
    <g id="line2d_34"/>
    <g id="text_18">
     <!-- NEW_BHN -->
     <defs>
      <path d="M 9.8125 72.90625 
L 55.90625 72.90625 
L 55.90625 64.59375 
L 19.671875 64.59375 
L 19.671875 43.015625 
L 54.390625 43.015625 
L 54.390625 34.71875 
L 19.671875 34.71875 
L 19.671875 8.296875 
L 56.78125 8.296875 
L 56.78125 0 
L 9.8125 0 
z
" id="DejaVuSans-69"/>
      <path d="M 3.328125 72.90625 
L 13.28125 72.90625 
L 28.609375 11.28125 
L 43.890625 72.90625 
L 54.984375 72.90625 
L 70.3125 11.28125 
L 85.59375 72.90625 
L 95.609375 72.90625 
L 77.296875 0 
L 64.890625 0 
L 49.515625 63.28125 
L 33.984375 0 
L 21.578125 0 
z
" id="DejaVuSans-87"/>
      <path d="M 50.984375 -16.609375 
L 50.984375 -23.578125 
L -0.984375 -23.578125 
L -0.984375 -16.609375 
z
" id="DejaVuSans-95"/>
     </defs>
     <g transform="translate(102.54 43.478437)scale(0.1 -0.1)">
      <use xlink:href="#DejaVuSans-78"/>
      <use x="74.804688" xlink:href="#DejaVuSans-69"/>
      <use x="137.988281" xlink:href="#DejaVuSans-87"/>
      <use x="236.865234" xlink:href="#DejaVuSans-95"/>
      <use x="286.865234" xlink:href="#DejaVuSans-66"/>
      <use x="355.46875" xlink:href="#DejaVuSans-72"/>
      <use x="430.664062" xlink:href="#DejaVuSans-78"/>
     </g>
    </g>
    <g id="line2d_35">
     <path d="M 74.54 54.934687 
L 94.54 54.934687 
" style="fill:none;stroke:#ff7f0e;stroke-linecap:square;stroke-width:1.5;"/>
    </g>
    <g id="line2d_36"/>
    <g id="text_19">
     <!-- BLN -->
     <g transform="translate(102.54 58.434687)scale(0.1 -0.1)">
      <use xlink:href="#DejaVuSans-66"/>
      <use x="68.603516" xlink:href="#DejaVuSans-76"/>
      <use x="124.316406" xlink:href="#DejaVuSans-78"/>
     </g>
    </g>
   </g>
  </g>
 </g>
 <defs>
  <clipPath id="p057c226d89">
   <rect height="632.84" width="1257.82" x="65.54" y="26.88"/>
  </clipPath>
 </defs>
</svg>
