<?xml version="1.0" encoding="utf-8" standalone="no"?>
<!DOCTYPE svg PUBLIC "-//W3C//DTD SVG 1.1//EN"
  "http://www.w3.org/Graphics/SVG/1.1/DTD/svg11.dtd">
<!-- Created with matplotlib (https://matplotlib.org/) -->
<svg height="687.6pt" version="1.1" viewBox="0 0 1334.16 687.6" width="1334.16pt" xmlns="http://www.w3.org/2000/svg" xmlns:xlink="http://www.w3.org/1999/xlink">
 <defs>
  <style type="text/css">
*{stroke-linecap:butt;stroke-linejoin:round;}
  </style>
 </defs>
 <g id="figure_1">
  <g id="patch_1">
   <path d="M 0 687.6 
L 1334.16 687.6 
L 1334.16 0 
L 0 0 
z
" style="fill:#ffffff;"/>
  </g>
  <g id="axes_1">
   <g id="patch_2">
    <path d="M 65.45 659.72 
L 1323.36 659.72 
L 1323.36 26.88 
L 65.45 26.88 
z
" style="fill:#ffffff;"/>
   </g>
   <g id="matplotlib.axis_1">
    <g id="xtick_1">
     <g id="line2d_1">
      <path clip-path="url(#pdd57b3e12a)" d="M 122.627727 659.72 
L 122.627727 26.88 
" style="fill:none;stroke:#b0b0b0;stroke-linecap:square;stroke-width:0.8;"/>
     </g>
     <g id="line2d_2">
      <defs>
       <path d="M 0 0 
L 0 3.5 
" id="m2b15872bb3" style="stroke:#000000;stroke-width:0.8;"/>
      </defs>
      <g>
       <use style="stroke:#000000;stroke-width:0.8;" x="122.627727" xlink:href="#m2b15872bb3" y="659.72"/>
      </g>
     </g>
     <g id="text_1">
      <!-- 0 -->
      <defs>
       <path d="M 31.78125 66.40625 
Q 24.171875 66.40625 20.328125 58.90625 
Q 16.5 51.421875 16.5 36.375 
Q 16.5 21.390625 20.328125 13.890625 
Q 24.171875 6.390625 31.78125 6.390625 
Q 39.453125 6.390625 43.28125 13.890625 
Q 47.125 21.390625 47.125 36.375 
Q 47.125 51.421875 43.28125 58.90625 
Q 39.453125 66.40625 31.78125 66.40625 
z
M 31.78125 74.21875 
Q 44.046875 74.21875 50.515625 64.515625 
Q 56.984375 54.828125 56.984375 36.375 
Q 56.984375 17.96875 50.515625 8.265625 
Q 44.046875 -1.421875 31.78125 -1.421875 
Q 19.53125 -1.421875 13.0625 8.265625 
Q 6.59375 17.96875 6.59375 36.375 
Q 6.59375 54.828125 13.0625 64.515625 
Q 19.53125 74.21875 31.78125 74.21875 
z
" id="DejaVuSans-48"/>
      </defs>
      <g transform="translate(119.446477 674.318438)scale(0.1 -0.1)">
       <use xlink:href="#DejaVuSans-48"/>
      </g>
     </g>
    </g>
    <g id="xtick_2">
     <g id="line2d_3">
      <path clip-path="url(#pdd57b3e12a)" d="M 351.567576 659.72 
L 351.567576 26.88 
" style="fill:none;stroke:#b0b0b0;stroke-linecap:square;stroke-width:0.8;"/>
     </g>
     <g id="line2d_4">
      <g>
       <use style="stroke:#000000;stroke-width:0.8;" x="351.567576" xlink:href="#m2b15872bb3" y="659.72"/>
      </g>
     </g>
     <g id="text_2">
      <!-- 200 -->
      <defs>
       <path d="M 19.1875 8.296875 
L 53.609375 8.296875 
L 53.609375 0 
L 7.328125 0 
L 7.328125 8.296875 
Q 12.9375 14.109375 22.625 23.890625 
Q 32.328125 33.6875 34.8125 36.53125 
Q 39.546875 41.84375 41.421875 45.53125 
Q 43.3125 49.21875 43.3125 52.78125 
Q 43.3125 58.59375 39.234375 62.25 
Q 35.15625 65.921875 28.609375 65.921875 
Q 23.96875 65.921875 18.8125 64.3125 
Q 13.671875 62.703125 7.8125 59.421875 
L 7.8125 69.390625 
Q 13.765625 71.78125 18.9375 73 
Q 24.125 74.21875 28.421875 74.21875 
Q 39.75 74.21875 46.484375 68.546875 
Q 53.21875 62.890625 53.21875 53.421875 
Q 53.21875 48.921875 51.53125 44.890625 
Q 49.859375 40.875 45.40625 35.40625 
Q 44.1875 33.984375 37.640625 27.21875 
Q 31.109375 20.453125 19.1875 8.296875 
z
" id="DejaVuSans-50"/>
      </defs>
      <g transform="translate(342.023826 674.318438)scale(0.1 -0.1)">
       <use xlink:href="#DejaVuSans-50"/>
       <use x="63.623047" xlink:href="#DejaVuSans-48"/>
       <use x="127.246094" xlink:href="#DejaVuSans-48"/>
      </g>
     </g>
    </g>
    <g id="xtick_3">
     <g id="line2d_5">
      <path clip-path="url(#pdd57b3e12a)" d="M 580.507425 659.72 
L 580.507425 26.88 
" style="fill:none;stroke:#b0b0b0;stroke-linecap:square;stroke-width:0.8;"/>
     </g>
     <g id="line2d_6">
      <g>
       <use style="stroke:#000000;stroke-width:0.8;" x="580.507425" xlink:href="#m2b15872bb3" y="659.72"/>
      </g>
     </g>
     <g id="text_3">
      <!-- 400 -->
      <defs>
       <path d="M 37.796875 64.3125 
L 12.890625 25.390625 
L 37.796875 25.390625 
z
M 35.203125 72.90625 
L 47.609375 72.90625 
L 47.609375 25.390625 
L 58.015625 25.390625 
L 58.015625 17.1875 
L 47.609375 17.1875 
L 47.609375 0 
L 37.796875 0 
L 37.796875 17.1875 
L 4.890625 17.1875 
L 4.890625 26.703125 
z
" id="DejaVuSans-52"/>
      </defs>
      <g transform="translate(570.963675 674.318438)scale(0.1 -0.1)">
       <use xlink:href="#DejaVuSans-52"/>
       <use x="63.623047" xlink:href="#DejaVuSans-48"/>
       <use x="127.246094" xlink:href="#DejaVuSans-48"/>
      </g>
     </g>
    </g>
    <g id="xtick_4">
     <g id="line2d_7">
      <path clip-path="url(#pdd57b3e12a)" d="M 809.447274 659.72 
L 809.447274 26.88 
" style="fill:none;stroke:#b0b0b0;stroke-linecap:square;stroke-width:0.8;"/>
     </g>
     <g id="line2d_8">
      <g>
       <use style="stroke:#000000;stroke-width:0.8;" x="809.447274" xlink:href="#m2b15872bb3" y="659.72"/>
      </g>
     </g>
     <g id="text_4">
      <!-- 600 -->
      <defs>
       <path d="M 33.015625 40.375 
Q 26.375 40.375 22.484375 35.828125 
Q 18.609375 31.296875 18.609375 23.390625 
Q 18.609375 15.53125 22.484375 10.953125 
Q 26.375 6.390625 33.015625 6.390625 
Q 39.65625 6.390625 43.53125 10.953125 
Q 47.40625 15.53125 47.40625 23.390625 
Q 47.40625 31.296875 43.53125 35.828125 
Q 39.65625 40.375 33.015625 40.375 
z
M 52.59375 71.296875 
L 52.59375 62.3125 
Q 48.875 64.0625 45.09375 64.984375 
Q 41.3125 65.921875 37.59375 65.921875 
Q 27.828125 65.921875 22.671875 59.328125 
Q 17.53125 52.734375 16.796875 39.40625 
Q 19.671875 43.65625 24.015625 45.921875 
Q 28.375 48.1875 33.59375 48.1875 
Q 44.578125 48.1875 50.953125 41.515625 
Q 57.328125 34.859375 57.328125 23.390625 
Q 57.328125 12.15625 50.6875 5.359375 
Q 44.046875 -1.421875 33.015625 -1.421875 
Q 20.359375 -1.421875 13.671875 8.265625 
Q 6.984375 17.96875 6.984375 36.375 
Q 6.984375 53.65625 15.1875 63.9375 
Q 23.390625 74.21875 37.203125 74.21875 
Q 40.921875 74.21875 44.703125 73.484375 
Q 48.484375 72.75 52.59375 71.296875 
z
" id="DejaVuSans-54"/>
      </defs>
      <g transform="translate(799.903524 674.318438)scale(0.1 -0.1)">
       <use xlink:href="#DejaVuSans-54"/>
       <use x="63.623047" xlink:href="#DejaVuSans-48"/>
       <use x="127.246094" xlink:href="#DejaVuSans-48"/>
      </g>
     </g>
    </g>
    <g id="xtick_5">
     <g id="line2d_9">
      <path clip-path="url(#pdd57b3e12a)" d="M 1038.387123 659.72 
L 1038.387123 26.88 
" style="fill:none;stroke:#b0b0b0;stroke-linecap:square;stroke-width:0.8;"/>
     </g>
     <g id="line2d_10">
      <g>
       <use style="stroke:#000000;stroke-width:0.8;" x="1038.387123" xlink:href="#m2b15872bb3" y="659.72"/>
      </g>
     </g>
     <g id="text_5">
      <!-- 800 -->
      <defs>
       <path d="M 31.78125 34.625 
Q 24.75 34.625 20.71875 30.859375 
Q 16.703125 27.09375 16.703125 20.515625 
Q 16.703125 13.921875 20.71875 10.15625 
Q 24.75 6.390625 31.78125 6.390625 
Q 38.8125 6.390625 42.859375 10.171875 
Q 46.921875 13.96875 46.921875 20.515625 
Q 46.921875 27.09375 42.890625 30.859375 
Q 38.875 34.625 31.78125 34.625 
z
M 21.921875 38.8125 
Q 15.578125 40.375 12.03125 44.71875 
Q 8.5 49.078125 8.5 55.328125 
Q 8.5 64.0625 14.71875 69.140625 
Q 20.953125 74.21875 31.78125 74.21875 
Q 42.671875 74.21875 48.875 69.140625 
Q 55.078125 64.0625 55.078125 55.328125 
Q 55.078125 49.078125 51.53125 44.71875 
Q 48 40.375 41.703125 38.8125 
Q 48.828125 37.15625 52.796875 32.3125 
Q 56.78125 27.484375 56.78125 20.515625 
Q 56.78125 9.90625 50.3125 4.234375 
Q 43.84375 -1.421875 31.78125 -1.421875 
Q 19.734375 -1.421875 13.25 4.234375 
Q 6.78125 9.90625 6.78125 20.515625 
Q 6.78125 27.484375 10.78125 32.3125 
Q 14.796875 37.15625 21.921875 38.8125 
z
M 18.3125 54.390625 
Q 18.3125 48.734375 21.84375 45.5625 
Q 25.390625 42.390625 31.78125 42.390625 
Q 38.140625 42.390625 41.71875 45.5625 
Q 45.3125 48.734375 45.3125 54.390625 
Q 45.3125 60.0625 41.71875 63.234375 
Q 38.140625 66.40625 31.78125 66.40625 
Q 25.390625 66.40625 21.84375 63.234375 
Q 18.3125 60.0625 18.3125 54.390625 
z
" id="DejaVuSans-56"/>
      </defs>
      <g transform="translate(1028.843373 674.318438)scale(0.1 -0.1)">
       <use xlink:href="#DejaVuSans-56"/>
       <use x="63.623047" xlink:href="#DejaVuSans-48"/>
       <use x="127.246094" xlink:href="#DejaVuSans-48"/>
      </g>
     </g>
    </g>
    <g id="xtick_6">
     <g id="line2d_11">
      <path clip-path="url(#pdd57b3e12a)" d="M 1267.326972 659.72 
L 1267.326972 26.88 
" style="fill:none;stroke:#b0b0b0;stroke-linecap:square;stroke-width:0.8;"/>
     </g>
     <g id="line2d_12">
      <g>
       <use style="stroke:#000000;stroke-width:0.8;" x="1267.326972" xlink:href="#m2b15872bb3" y="659.72"/>
      </g>
     </g>
     <g id="text_6">
      <!-- 1000 -->
      <defs>
       <path d="M 12.40625 8.296875 
L 28.515625 8.296875 
L 28.515625 63.921875 
L 10.984375 60.40625 
L 10.984375 69.390625 
L 28.421875 72.90625 
L 38.28125 72.90625 
L 38.28125 8.296875 
L 54.390625 8.296875 
L 54.390625 0 
L 12.40625 0 
z
" id="DejaVuSans-49"/>
      </defs>
      <g transform="translate(1254.601972 674.318438)scale(0.1 -0.1)">
       <use xlink:href="#DejaVuSans-49"/>
       <use x="63.623047" xlink:href="#DejaVuSans-48"/>
       <use x="127.246094" xlink:href="#DejaVuSans-48"/>
       <use x="190.869141" xlink:href="#DejaVuSans-48"/>
      </g>
     </g>
    </g>
   </g>
   <g id="matplotlib.axis_2">
    <g id="ytick_1">
     <g id="line2d_13">
      <path clip-path="url(#pdd57b3e12a)" d="M 65.45 584.656628 
L 1323.36 584.656628 
" style="fill:none;stroke:#b0b0b0;stroke-linecap:square;stroke-width:0.8;"/>
     </g>
     <g id="line2d_14">
      <defs>
       <path d="M 0 0 
L -3.5 0 
" id="m2cfccd1a41" style="stroke:#000000;stroke-width:0.8;"/>
      </defs>
      <g>
       <use style="stroke:#000000;stroke-width:0.8;" x="65.45" xlink:href="#m2cfccd1a41" y="584.656628"/>
      </g>
     </g>
     <g id="text_7">
      <!-- −7500 -->
      <defs>
       <path d="M 10.59375 35.5 
L 73.1875 35.5 
L 73.1875 27.203125 
L 10.59375 27.203125 
z
" id="DejaVuSans-8722"/>
       <path d="M 8.203125 72.90625 
L 55.078125 72.90625 
L 55.078125 68.703125 
L 28.609375 0 
L 18.3125 0 
L 43.21875 64.59375 
L 8.203125 64.59375 
z
" id="DejaVuSans-55"/>
       <path d="M 10.796875 72.90625 
L 49.515625 72.90625 
L 49.515625 64.59375 
L 19.828125 64.59375 
L 19.828125 46.734375 
Q 21.96875 47.46875 24.109375 47.828125 
Q 26.265625 48.1875 28.421875 48.1875 
Q 40.625 48.1875 47.75 41.5 
Q 54.890625 34.8125 54.890625 23.390625 
Q 54.890625 11.625 47.5625 5.09375 
Q 40.234375 -1.421875 26.90625 -1.421875 
Q 22.3125 -1.421875 17.546875 -0.640625 
Q 12.796875 0.140625 7.71875 1.703125 
L 7.71875 11.625 
Q 12.109375 9.234375 16.796875 8.0625 
Q 21.484375 6.890625 26.703125 6.890625 
Q 35.15625 6.890625 40.078125 11.328125 
Q 45.015625 15.765625 45.015625 23.390625 
Q 45.015625 31 40.078125 35.4375 
Q 35.15625 39.890625 26.703125 39.890625 
Q 22.75 39.890625 18.8125 39.015625 
Q 14.890625 38.140625 10.796875 36.28125 
z
" id="DejaVuSans-53"/>
      </defs>
      <g transform="translate(24.620313 588.455847)scale(0.1 -0.1)">
       <use xlink:href="#DejaVuSans-8722"/>
       <use x="83.789062" xlink:href="#DejaVuSans-55"/>
       <use x="147.412109" xlink:href="#DejaVuSans-53"/>
       <use x="211.035156" xlink:href="#DejaVuSans-48"/>
       <use x="274.658203" xlink:href="#DejaVuSans-48"/>
      </g>
     </g>
    </g>
    <g id="ytick_2">
     <g id="line2d_15">
      <path clip-path="url(#pdd57b3e12a)" d="M 65.45 505.348357 
L 1323.36 505.348357 
" style="fill:none;stroke:#b0b0b0;stroke-linecap:square;stroke-width:0.8;"/>
     </g>
     <g id="line2d_16">
      <g>
       <use style="stroke:#000000;stroke-width:0.8;" x="65.45" xlink:href="#m2cfccd1a41" y="505.348357"/>
      </g>
     </g>
     <g id="text_8">
      <!-- −5000 -->
      <g transform="translate(24.620313 509.147576)scale(0.1 -0.1)">
       <use xlink:href="#DejaVuSans-8722"/>
       <use x="83.789062" xlink:href="#DejaVuSans-53"/>
       <use x="147.412109" xlink:href="#DejaVuSans-48"/>
       <use x="211.035156" xlink:href="#DejaVuSans-48"/>
       <use x="274.658203" xlink:href="#DejaVuSans-48"/>
      </g>
     </g>
    </g>
    <g id="ytick_3">
     <g id="line2d_17">
      <path clip-path="url(#pdd57b3e12a)" d="M 65.45 426.040087 
L 1323.36 426.040087 
" style="fill:none;stroke:#b0b0b0;stroke-linecap:square;stroke-width:0.8;"/>
     </g>
     <g id="line2d_18">
      <g>
       <use style="stroke:#000000;stroke-width:0.8;" x="65.45" xlink:href="#m2cfccd1a41" y="426.040087"/>
      </g>
     </g>
     <g id="text_9">
      <!-- −2500 -->
      <g transform="translate(24.620313 429.839306)scale(0.1 -0.1)">
       <use xlink:href="#DejaVuSans-8722"/>
       <use x="83.789062" xlink:href="#DejaVuSans-50"/>
       <use x="147.412109" xlink:href="#DejaVuSans-53"/>
       <use x="211.035156" xlink:href="#DejaVuSans-48"/>
       <use x="274.658203" xlink:href="#DejaVuSans-48"/>
      </g>
     </g>
    </g>
    <g id="ytick_4">
     <g id="line2d_19">
      <path clip-path="url(#pdd57b3e12a)" d="M 65.45 346.731816 
L 1323.36 346.731816 
" style="fill:none;stroke:#b0b0b0;stroke-linecap:square;stroke-width:0.8;"/>
     </g>
     <g id="line2d_20">
      <g>
       <use style="stroke:#000000;stroke-width:0.8;" x="65.45" xlink:href="#m2cfccd1a41" y="346.731816"/>
      </g>
     </g>
     <g id="text_10">
      <!-- 0 -->
      <g transform="translate(52.0875 350.531035)scale(0.1 -0.1)">
       <use xlink:href="#DejaVuSans-48"/>
      </g>
     </g>
    </g>
    <g id="ytick_5">
     <g id="line2d_21">
      <path clip-path="url(#pdd57b3e12a)" d="M 65.45 267.423546 
L 1323.36 267.423546 
" style="fill:none;stroke:#b0b0b0;stroke-linecap:square;stroke-width:0.8;"/>
     </g>
     <g id="line2d_22">
      <g>
       <use style="stroke:#000000;stroke-width:0.8;" x="65.45" xlink:href="#m2cfccd1a41" y="267.423546"/>
      </g>
     </g>
     <g id="text_11">
      <!-- 2500 -->
      <g transform="translate(33 271.222765)scale(0.1 -0.1)">
       <use xlink:href="#DejaVuSans-50"/>
       <use x="63.623047" xlink:href="#DejaVuSans-53"/>
       <use x="127.246094" xlink:href="#DejaVuSans-48"/>
       <use x="190.869141" xlink:href="#DejaVuSans-48"/>
      </g>
     </g>
    </g>
    <g id="ytick_6">
     <g id="line2d_23">
      <path clip-path="url(#pdd57b3e12a)" d="M 65.45 188.115275 
L 1323.36 188.115275 
" style="fill:none;stroke:#b0b0b0;stroke-linecap:square;stroke-width:0.8;"/>
     </g>
     <g id="line2d_24">
      <g>
       <use style="stroke:#000000;stroke-width:0.8;" x="65.45" xlink:href="#m2cfccd1a41" y="188.115275"/>
      </g>
     </g>
     <g id="text_12">
      <!-- 5000 -->
      <g transform="translate(33 191.914494)scale(0.1 -0.1)">
       <use xlink:href="#DejaVuSans-53"/>
       <use x="63.623047" xlink:href="#DejaVuSans-48"/>
       <use x="127.246094" xlink:href="#DejaVuSans-48"/>
       <use x="190.869141" xlink:href="#DejaVuSans-48"/>
      </g>
     </g>
    </g>
    <g id="ytick_7">
     <g id="line2d_25">
      <path clip-path="url(#pdd57b3e12a)" d="M 65.45 108.807005 
L 1323.36 108.807005 
" style="fill:none;stroke:#b0b0b0;stroke-linecap:square;stroke-width:0.8;"/>
     </g>
     <g id="line2d_26">
      <g>
       <use style="stroke:#000000;stroke-width:0.8;" x="65.45" xlink:href="#m2cfccd1a41" y="108.807005"/>
      </g>
     </g>
     <g id="text_13">
      <!-- 7500 -->
      <g transform="translate(33 112.606223)scale(0.1 -0.1)">
       <use xlink:href="#DejaVuSans-55"/>
       <use x="63.623047" xlink:href="#DejaVuSans-53"/>
       <use x="127.246094" xlink:href="#DejaVuSans-48"/>
       <use x="190.869141" xlink:href="#DejaVuSans-48"/>
      </g>
     </g>
    </g>
    <g id="ytick_8">
     <g id="line2d_27">
      <path clip-path="url(#pdd57b3e12a)" d="M 65.45 29.498734 
L 1323.36 29.498734 
" style="fill:none;stroke:#b0b0b0;stroke-linecap:square;stroke-width:0.8;"/>
     </g>
     <g id="line2d_28">
      <g>
       <use style="stroke:#000000;stroke-width:0.8;" x="65.45" xlink:href="#m2cfccd1a41" y="29.498734"/>
      </g>
     </g>
     <g id="text_14">
      <!-- 10000 -->
      <g transform="translate(26.6375 33.297953)scale(0.1 -0.1)">
       <use xlink:href="#DejaVuSans-49"/>
       <use x="63.623047" xlink:href="#DejaVuSans-48"/>
       <use x="127.246094" xlink:href="#DejaVuSans-48"/>
       <use x="190.869141" xlink:href="#DejaVuSans-48"/>
       <use x="254.492188" xlink:href="#DejaVuSans-48"/>
      </g>
     </g>
    </g>
    <g id="text_15">
     <!-- count -->
     <defs>
      <path d="M 48.78125 52.59375 
L 48.78125 44.1875 
Q 44.96875 46.296875 41.140625 47.34375 
Q 37.3125 48.390625 33.40625 48.390625 
Q 24.65625 48.390625 19.8125 42.84375 
Q 14.984375 37.3125 14.984375 27.296875 
Q 14.984375 17.28125 19.8125 11.734375 
Q 24.65625 6.203125 33.40625 6.203125 
Q 37.3125 6.203125 41.140625 7.25 
Q 44.96875 8.296875 48.78125 10.40625 
L 48.78125 2.09375 
Q 45.015625 0.34375 40.984375 -0.53125 
Q 36.96875 -1.421875 32.421875 -1.421875 
Q 20.0625 -1.421875 12.78125 6.34375 
Q 5.515625 14.109375 5.515625 27.296875 
Q 5.515625 40.671875 12.859375 48.328125 
Q 20.21875 56 33.015625 56 
Q 37.15625 56 41.109375 55.140625 
Q 45.0625 54.296875 48.78125 52.59375 
z
" id="DejaVuSans-99"/>
      <path d="M 30.609375 48.390625 
Q 23.390625 48.390625 19.1875 42.75 
Q 14.984375 37.109375 14.984375 27.296875 
Q 14.984375 17.484375 19.15625 11.84375 
Q 23.34375 6.203125 30.609375 6.203125 
Q 37.796875 6.203125 41.984375 11.859375 
Q 46.1875 17.53125 46.1875 27.296875 
Q 46.1875 37.015625 41.984375 42.703125 
Q 37.796875 48.390625 30.609375 48.390625 
z
M 30.609375 56 
Q 42.328125 56 49.015625 48.375 
Q 55.71875 40.765625 55.71875 27.296875 
Q 55.71875 13.875 49.015625 6.21875 
Q 42.328125 -1.421875 30.609375 -1.421875 
Q 18.84375 -1.421875 12.171875 6.21875 
Q 5.515625 13.875 5.515625 27.296875 
Q 5.515625 40.765625 12.171875 48.375 
Q 18.84375 56 30.609375 56 
z
" id="DejaVuSans-111"/>
      <path d="M 8.5 21.578125 
L 8.5 54.6875 
L 17.484375 54.6875 
L 17.484375 21.921875 
Q 17.484375 14.15625 20.5 10.265625 
Q 23.53125 6.390625 29.59375 6.390625 
Q 36.859375 6.390625 41.078125 11.03125 
Q 45.3125 15.671875 45.3125 23.6875 
L 45.3125 54.6875 
L 54.296875 54.6875 
L 54.296875 0 
L 45.3125 0 
L 45.3125 8.40625 
Q 42.046875 3.421875 37.71875 1 
Q 33.40625 -1.421875 27.6875 -1.421875 
Q 18.265625 -1.421875 13.375 4.4375 
Q 8.5 10.296875 8.5 21.578125 
z
M 31.109375 56 
z
" id="DejaVuSans-117"/>
      <path d="M 54.890625 33.015625 
L 54.890625 0 
L 45.90625 0 
L 45.90625 32.71875 
Q 45.90625 40.484375 42.875 44.328125 
Q 39.84375 48.1875 33.796875 48.1875 
Q 26.515625 48.1875 22.3125 43.546875 
Q 18.109375 38.921875 18.109375 30.90625 
L 18.109375 0 
L 9.078125 0 
L 9.078125 54.6875 
L 18.109375 54.6875 
L 18.109375 46.1875 
Q 21.34375 51.125 25.703125 53.5625 
Q 30.078125 56 35.796875 56 
Q 45.21875 56 50.046875 50.171875 
Q 54.890625 44.34375 54.890625 33.015625 
z
" id="DejaVuSans-110"/>
      <path d="M 18.3125 70.21875 
L 18.3125 54.6875 
L 36.8125 54.6875 
L 36.8125 47.703125 
L 18.3125 47.703125 
L 18.3125 18.015625 
Q 18.3125 11.328125 20.140625 9.421875 
Q 21.96875 7.515625 27.59375 7.515625 
L 36.8125 7.515625 
L 36.8125 0 
L 27.59375 0 
Q 17.1875 0 13.234375 3.875 
Q 9.28125 7.765625 9.28125 18.015625 
L 9.28125 47.703125 
L 2.6875 47.703125 
L 2.6875 54.6875 
L 9.28125 54.6875 
L 9.28125 70.21875 
z
" id="DejaVuSans-116"/>
     </defs>
     <g transform="translate(18.540625 357.40625)rotate(-90)scale(0.1 -0.1)">
      <use xlink:href="#DejaVuSans-99"/>
      <use x="54.980469" xlink:href="#DejaVuSans-111"/>
      <use x="116.162109" xlink:href="#DejaVuSans-117"/>
      <use x="179.541016" xlink:href="#DejaVuSans-110"/>
      <use x="242.919922" xlink:href="#DejaVuSans-116"/>
     </g>
    </g>
   </g>
   <g id="line2d_29">
    <path clip-path="url(#pdd57b3e12a)" d="M 122.627727 435.18872 
L 123.772427 435.627429 
L 124.917126 468.721928 
L 126.061825 469.149352 
L 127.206524 421.152517 
L 128.351223 308.9114 
L 129.495923 221.493002 
L 130.640622 200.094735 
L 131.785321 232.254147 
L 132.93002 252.869604 
L 134.07472 217.940237 
L 135.219419 286.151922 
L 136.364118 432.404771 
L 137.508817 459.732402 
L 138.653517 400.095364 
L 139.798216 372.531522 
L 140.942915 391.479005 
L 142.087614 448.155775 
L 143.232314 399.063377 
L 144.377013 252.83879 
L 145.521712 227.589409 
L 146.666411 245.788092 
L 147.811111 236.718719 
L 148.95581 257.017959 
L 150.100509 259.270786 
L 151.245208 330.055655 
L 152.389908 446.762834 
L 153.534607 454.63453 
L 154.679306 466.820613 
L 155.824005 484.203745 
L 156.968705 418.496239 
L 158.113404 342.861231 
L 160.402802 134.830809 
L 161.547502 143.962929 
L 162.692201 196.655174 
L 163.8369 243.804452 
L 164.981599 329.52722 
L 166.126299 388.607527 
L 167.270998 468.29866 
L 168.415697 521.994995 
L 169.560396 454.166478 
L 170.705096 405.46762 
L 171.849795 386.779472 
L 172.994494 371.366561 
L 174.139193 344.684624 
L 175.283893 257.320331 
L 176.428592 186.824061 
L 177.573291 197.207723 
L 178.71799 244.816126 
L 179.86269 270.856074 
L 181.007389 301.107223 
L 182.152088 387.669839 
L 183.296787 488.666044 
L 184.441486 472.678207 
L 185.586186 379.604898 
L 186.730885 318.151964 
L 187.875584 315.67576 
L 189.020283 346.288498 
L 191.309682 256.962436 
L 192.454381 310.209599 
L 193.59908 384.684067 
L 194.74378 386.413442 
L 195.888479 364.483151 
L 197.033178 345.559179 
L 198.177877 334.413451 
L 199.322577 342.345867 
L 200.467276 308.847239 
L 201.611975 301.844011 
L 202.756674 325.868523 
L 203.901374 303.806632 
L 205.046073 315.3913 
L 206.190772 384.539899 
L 207.335471 413.291917 
L 208.480171 417.332644 
L 209.62487 434.227646 
L 210.769569 418.086212 
L 211.914268 355.137859 
L 213.058968 304.541155 
L 214.203667 262.306157 
L 215.348366 241.6621 
L 216.493065 278.606896 
L 217.637765 260.822622 
L 218.782464 257.165447 
L 219.927163 333.943849 
L 222.216562 381.346921 
L 223.361261 428.696607 
L 224.50596 426.681626 
L 226.795359 419.717659 
L 227.940058 381.675886 
L 230.229456 258.092905 
L 231.374156 261.002069 
L 232.518855 235.316704 
L 233.663554 225.596127 
L 234.808253 337.974664 
L 235.952952 375.496957 
L 237.097652 395.730685 
L 238.242351 454.368428 
L 239.38705 449.546838 
L 241.676449 383.396641 
L 242.821148 367.514022 
L 243.965847 321.723998 
L 245.110546 252.545078 
L 246.255246 217.874518 
L 247.399945 266.874844 
L 248.544644 310.911541 
L 249.689343 269.778659 
L 250.834043 328.450149 
L 251.978742 445.523747 
L 253.123441 482.782848 
L 254.26814 502.438853 
L 255.41284 439.448419 
L 256.557539 355.617865 
L 257.702238 354.795058 
L 258.846937 324.525733 
L 259.991637 238.3606 
L 261.136336 172.286961 
L 262.281035 192.678855 
L 263.425734 285.235408 
L 264.570434 316.028509 
L 265.715133 329.654872 
L 266.859832 432.421778 
L 268.004531 484.112657 
L 269.149231 507.170693 
L 270.29393 537.774667 
L 271.438629 497.554154 
L 272.583328 436.265139 
L 273.728028 335.198707 
L 274.872727 321.921784 
L 276.017426 302.09629 
L 277.162125 175.138883 
L 278.306825 167.192722 
L 279.451524 206.559166 
L 281.740922 408.284262 
L 282.885622 427.132585 
L 285.17502 574.300918 
L 286.319719 539.78554 
L 288.609118 300.820437 
L 289.753817 233.478173 
L 290.898516 280.522995 
L 292.043215 290.371604 
L 293.187915 226.311246 
L 294.332614 276.017263 
L 296.622012 449.437372 
L 297.766712 474.28476 
L 298.911411 452.519475 
L 300.05611 473.2276 
L 301.200809 442.601498 
L 302.345509 391.564022 
L 303.490208 356.483937 
L 304.634907 302.570283 
L 305.779606 272.524892 
L 306.924306 286.017037 
L 308.069005 285.330265 
L 309.213704 297.633472 
L 310.358403 335.175631 
L 311.503103 398.750987 
L 312.647802 427.904314 
L 313.792501 413.242283 
L 314.9372 420.651372 
L 316.0819 431.542961 
L 317.226599 472.468109 
L 318.371298 402.484543 
L 319.515997 290.380156 
L 320.660697 312.738636 
L 321.805396 338.057597 
L 322.950095 301.172029 
L 324.094794 274.170262 
L 325.239494 306.68725 
L 326.384193 370.464487 
L 327.528892 417.292572 
L 328.673591 392.136767 
L 329.818291 346.259779 
L 330.96299 350.010241 
L 332.107689 393.375189 
L 333.252388 426.119879 
L 334.397088 417.883616 
L 335.541787 383.618528 
L 336.686486 394.729443 
L 337.831185 461.757753 
L 338.975885 416.429816 
L 340.120584 343.356639 
L 341.265283 281.328366 
L 342.409982 242.911894 
L 343.554681 330.69968 
L 344.699381 312.838233 
L 345.84408 308.317466 
L 346.988779 412.719378 
L 348.133478 402.136879 
L 349.278178 396.343094 
L 350.422877 427.982493 
L 351.567576 392.338769 
L 352.712275 375.798338 
L 353.856975 401.575917 
L 355.001674 423.296528 
L 356.146373 457.711168 
L 358.435772 350.764334 
L 359.580471 336.881548 
L 360.72517 257.371106 
L 361.869869 258.140036 
L 363.014569 298.503268 
L 364.159268 315.314691 
L 365.303967 347.71146 
L 366.448666 423.890366 
L 367.593366 482.42451 
L 368.738065 394.902309 
L 369.882764 364.631781 
L 371.027463 352.321256 
L 372.172163 257.298675 
L 373.316862 249.979458 
L 374.461561 295.56292 
L 377.895659 414.233002 
L 379.040358 444.795395 
L 380.185057 420.484177 
L 381.329757 363.225032 
L 382.474456 392.777692 
L 383.619155 458.993007 
L 384.763854 337.664554 
L 385.908554 189.657928 
L 387.053253 194.954426 
L 388.197952 260.783352 
L 389.342651 302.591901 
L 390.487351 302.389514 
L 391.63205 348.462166 
L 392.776749 451.454008 
L 393.921448 474.010108 
L 396.210847 300.64569 
L 397.355546 285.400885 
L 398.500245 274.80292 
L 399.644944 279.851145 
L 400.789644 327.909778 
L 401.934343 356.803848 
L 403.079042 435.634728 
L 404.223741 439.257718 
L 405.368441 328.545372 
L 406.51314 311.77622 
L 407.657839 263.753703 
L 408.802538 175.198765 
L 409.947238 190.495877 
L 411.091937 227.445375 
L 412.236636 241.912647 
L 414.526035 399.453239 
L 415.670734 437.521345 
L 416.815433 482.313765 
L 419.104832 366.525908 
L 420.249531 285.538418 
L 421.39423 168.156939 
L 422.538929 174.950325 
L 423.683629 162.684363 
L 424.828328 219.278498 
L 425.973027 347.418984 
L 427.117726 350.768722 
L 428.262426 324.59967 
L 429.407125 355.02058 
L 430.551824 457.356643 
L 431.696523 461.539718 
L 432.841223 365.860128 
L 433.985922 331.425227 
L 435.130621 326.871853 
L 436.27532 328.097225 
L 437.42002 250.186003 
L 438.564719 181.156117 
L 439.709418 192.292469 
L 440.854117 232.474609 
L 441.998817 223.834928 
L 443.143516 212.113798 
L 444.288215 303.042984 
L 445.432914 382.192133 
L 446.577614 448.799062 
L 447.722313 441.838245 
L 448.867012 400.248205 
L 450.011711 388.052837 
L 451.156411 391.310521 
L 452.30111 358.962678 
L 453.445809 232.800461 
L 454.590508 225.985609 
L 455.735207 220.78434 
L 456.879907 189.762955 
L 458.024606 231.65834 
L 459.169305 259.756398 
L 460.314004 384.178129 
L 461.458704 486.625019 
L 462.603403 485.167079 
L 463.748102 501.241016 
L 464.892801 454.705117 
L 466.037501 327.759422 
L 467.1822 331.636169 
L 468.326899 314.266652 
L 469.471598 147.277983 
L 470.616298 94.478392 
L 471.760997 168.94464 
L 472.905696 282.065781 
L 475.195095 427.591771 
L 476.339794 528.46909 
L 477.484493 599.357447 
L 478.629192 630.954545 
L 479.773892 479.892343 
L 480.918591 256.19079 
L 482.06329 214.574799 
L 483.207989 233.596255 
L 484.352689 217.331824 
L 485.497388 248.473007 
L 486.642087 292.131882 
L 487.786786 375.136886 
L 488.931486 489.448263 
L 490.076185 487.358864 
L 491.220884 427.817324 
L 493.510283 369.934772 
L 494.654982 399.114257 
L 495.799681 360.089757 
L 496.94438 296.13509 
L 498.08908 352.474073 
L 499.233779 356.09159 
L 500.378478 371.683139 
L 501.523177 404.653312 
L 502.667877 382.136366 
L 503.812576 420.83099 
L 504.957275 489.998554 
L 506.101974 416.64306 
L 507.246673 286.518785 
L 508.391373 341.848028 
L 509.536072 363.904514 
L 510.680771 289.282165 
L 511.82547 306.101431 
L 512.97017 350.49211 
L 514.114869 415.031293 
L 515.259568 437.909827 
L 516.404267 398.901597 
L 517.548967 352.329537 
L 518.693666 310.863091 
L 520.983064 461.72179 
L 522.127764 424.50798 
L 523.272463 448.100741 
L 524.417162 513.110956 
L 525.561861 477.056793 
L 526.706561 342.461065 
L 527.85126 248.329651 
L 528.995959 254.242058 
L 530.140658 211.108014 
L 531.285358 101.908951 
L 532.430057 221.223233 
L 533.574756 497.772542 
L 534.719455 592.185908 
L 535.864155 592.904865 
L 537.008854 594.03735 
L 538.153553 501.385441 
L 540.442952 259.204199 
L 541.587651 160.038785 
L 542.73235 192.63961 
L 543.877049 215.336135 
L 545.021749 259.905206 
L 546.166448 412.416025 
L 547.311147 519.88025 
L 548.455846 558.713124 
L 549.600546 514.597613 
L 550.745245 431.625362 
L 553.034643 216.821547 
L 554.179343 239.496935 
L 555.324042 319.434005 
L 556.468741 374.852958 
L 557.61344 302.922717 
L 558.75814 200.943622 
L 559.902839 283.204776 
L 561.047538 312.672951 
L 562.192237 306.70668 
L 563.336936 460.13029 
L 564.481636 569.856295 
L 565.626335 524.634611 
L 566.771034 446.922175 
L 569.060433 265.603599 
L 570.205132 235.296055 
L 571.349831 250.412405 
L 572.49453 312.978422 
L 574.783929 203.699627 
L 575.928628 327.150718 
L 577.073327 415.800429 
L 578.218027 424.862454 
L 579.362726 454.334166 
L 580.507425 477.297609 
L 581.652124 453.623655 
L 582.796824 389.374386 
L 583.941523 306.802494 
L 585.086222 253.118357 
L 586.230921 208.016421 
L 587.375621 169.478037 
L 588.52032 179.104777 
L 589.665019 238.305025 
L 591.954418 443.630598 
L 593.099117 522.197232 
L 594.243816 546.953195 
L 595.388515 511.895257 
L 596.533215 394.046232 
L 597.677914 235.521936 
L 598.822613 163.385144 
L 599.967312 80.129529 
L 601.112012 55.645455 
L 602.256711 213.100188 
L 603.40141 299.662334 
L 604.546109 374.969806 
L 605.690809 515.996998 
L 606.835508 503.567976 
L 607.980207 451.378464 
L 609.124906 419.191005 
L 611.414305 343.377927 
L 613.703703 150.792152 
L 614.848402 171.293859 
L 615.993102 260.801874 
L 617.137801 280.373813 
L 618.2825 284.993638 
L 619.427199 304.327544 
L 620.571899 331.873181 
L 621.716598 383.944591 
L 622.861297 392.860547 
L 624.005996 356.364367 
L 625.150696 357.33199 
L 626.295395 354.647231 
L 627.440094 302.018862 
L 628.584793 276.88617 
L 630.874192 312.750343 
L 632.018891 296.612822 
L 633.16359 316.651671 
L 634.30829 295.378556 
L 635.452989 251.377937 
L 636.597688 260.488372 
L 637.742387 273.012515 
L 638.887087 347.054314 
L 640.031786 369.410653 
L 641.176485 388.985904 
L 642.321184 450.628699 
L 643.465884 406.895541 
L 645.755282 222.080643 
L 646.899981 175.582002 
L 648.044681 202.755227 
L 649.18938 220.744865 
L 650.334079 300.530113 
L 651.478778 469.63488 
L 652.623478 512.164817 
L 653.768177 494.469704 
L 654.912876 447.870593 
L 656.057575 351.097094 
L 657.202275 320.152727 
L 658.346974 254.733034 
L 659.491673 225.903884 
L 660.636372 247.242092 
L 661.781072 236.022869 
L 664.07047 320.743534 
L 665.215169 321.982615 
L 666.359869 346.683191 
L 667.504568 409.531444 
L 668.649267 456.639492 
L 669.793966 410.157585 
L 670.938665 330.865014 
L 673.228064 374.263701 
L 674.372763 300.237222 
L 675.517462 273.914932 
L 676.662162 281.436148 
L 677.806861 284.617614 
L 678.95156 342.590915 
L 680.096259 358.303353 
L 682.385658 409.810961 
L 683.530357 341.393198 
L 684.675056 380.711482 
L 685.819756 381.524279 
L 686.964455 285.194616 
L 688.109154 294.031467 
L 689.253853 297.983754 
L 690.398553 345.083367 
L 691.543252 405.8925 
L 692.687951 392.272256 
L 693.83265 399.929074 
L 694.97735 366.521532 
L 696.122049 324.666875 
L 697.266748 363.584983 
L 698.411447 357.228095 
L 699.556147 345.839488 
L 700.700846 401.525286 
L 701.845545 404.126131 
L 702.990244 361.147306 
L 704.134944 279.942874 
L 705.279643 263.673587 
L 706.424342 302.63386 
L 707.569041 309.109927 
L 708.713741 403.29397 
L 709.85844 440.549135 
L 711.003139 398.141626 
L 712.147838 415.912607 
L 713.292538 385.232423 
L 714.437237 311.51886 
L 715.581936 309.947626 
L 716.726635 340.872181 
L 717.871335 348.699453 
L 719.016034 364.247791 
L 720.160733 409.98778 
L 721.305432 437.980335 
L 722.450131 439.647534 
L 723.594831 437.915173 
L 724.73953 378.794716 
L 725.884229 295.551881 
L 727.028928 221.305426 
L 728.173628 205.961691 
L 729.318327 281.307567 
L 730.463026 320.502041 
L 731.607725 340.521427 
L 732.752425 399.398422 
L 733.897124 417.289344 
L 735.041823 443.888344 
L 736.186522 452.133158 
L 737.331222 401.073743 
L 738.475921 394.274406 
L 739.62062 357.264994 
L 740.765319 375.369376 
L 741.910019 390.265897 
L 743.054718 276.519137 
L 744.199417 285.922991 
L 745.344116 282.347496 
L 746.488816 230.475261 
L 747.633515 355.471304 
L 748.778214 429.731183 
L 749.922913 419.953865 
L 751.067613 456.603715 
L 752.212312 383.674329 
L 753.357011 289.630521 
L 754.50171 261.950634 
L 755.64641 266.742998 
L 756.791109 358.479268 
L 757.935808 391.542579 
L 759.080507 371.213822 
L 760.225207 332.49334 
L 761.369906 269.418399 
L 762.514605 302.08826 
L 763.659304 370.024476 
L 764.804004 407.135167 
L 765.948703 430.289576 
L 767.093402 401.944682 
L 768.238101 381.350301 
L 769.382801 408.6957 
L 770.5275 347.039782 
L 771.672199 275.907108 
L 773.961598 364.379302 
L 775.106297 362.362309 
L 776.250996 339.079738 
L 777.395695 326.416831 
L 778.540394 378.573674 
L 779.685094 385.968078 
L 780.829793 340.414111 
L 781.974492 348.821323 
L 783.119191 352.610893 
L 784.263891 334.066735 
L 785.40859 323.688267 
L 786.553289 385.932757 
L 787.697988 422.464392 
L 788.842688 341.830785 
L 791.132086 338.989784 
L 792.276785 318.731612 
L 793.421485 347.84588 
L 794.566184 333.712243 
L 795.710883 374.513086 
L 796.855582 386.21429 
L 798.000282 382.138434 
L 799.144981 437.23821 
L 800.28968 399.106028 
L 801.434379 374.994627 
L 802.579079 379.669535 
L 803.723778 334.38948 
L 804.868477 303.445458 
L 806.013176 230.770513 
L 807.157876 220.585441 
L 808.302575 332.046227 
L 809.447274 394.593684 
L 810.591973 435.715711 
L 811.736673 483.194732 
L 812.881372 457.067629 
L 814.026071 411.858339 
L 815.17077 407.196729 
L 816.31547 376.0929 
L 817.460169 331.799833 
L 818.604868 322.404983 
L 819.749567 329.839775 
L 820.894267 378.252687 
L 822.038966 407.584594 
L 823.183665 361.799479 
L 824.328364 341.080348 
L 825.473064 406.021055 
L 826.617763 455.802433 
L 827.762462 461.484098 
L 828.907161 447.065984 
L 830.05186 372.79713 
L 831.19656 322.353574 
L 832.341259 303.414879 
L 833.485958 280.474061 
L 834.630657 297.676883 
L 836.920056 339.362445 
L 838.064755 361.059881 
L 839.209454 369.121984 
L 840.354154 374.240106 
L 841.498853 410.088805 
L 842.643552 503.642793 
L 843.788251 517.875566 
L 844.932951 427.7507 
L 846.07765 384.702689 
L 847.222349 351.294602 
L 848.367048 298.519611 
L 849.511748 306.380801 
L 850.656447 291.45409 
L 851.801146 260.300406 
L 852.945845 276.656554 
L 854.090545 289.974988 
L 855.235244 332.223032 
L 856.379943 363.706145 
L 857.524642 421.130422 
L 858.669342 514.473467 
L 859.814041 497.879979 
L 860.95874 409.986977 
L 862.103439 311.16868 
L 863.248139 294.240289 
L 864.392838 328.325064 
L 865.537537 298.386931 
L 866.682236 307.25536 
L 867.826936 370.469256 
L 868.971635 417.124135 
L 870.116334 391.541329 
L 871.261033 312.901169 
L 872.405733 277.426125 
L 873.550432 304.296874 
L 874.695131 302.180529 
L 875.83983 271.158158 
L 876.98453 327.203239 
L 878.129229 418.118546 
L 879.273928 455.754997 
L 881.563327 388.795843 
L 882.708026 319.482255 
L 883.852725 196.056685 
L 884.997424 184.175321 
L 886.142123 208.12045 
L 887.286823 261.753596 
L 888.431522 384.714368 
L 889.576221 467.504212 
L 890.72092 502.377845 
L 891.86562 483.658754 
L 894.155018 307.248192 
L 895.299717 264.835316 
L 896.444417 190.25965 
L 897.589116 173.982027 
L 898.733815 223.141586 
L 899.878514 233.5764 
L 901.023214 287.167877 
L 902.167913 355.504699 
L 903.312612 412.016329 
L 904.457311 451.610413 
L 905.602011 440.568205 
L 906.74671 421.481247 
L 907.891409 345.681962 
L 909.036108 245.349108 
L 910.180808 157.892837 
L 911.325507 167.381955 
L 912.470206 253.737376 
L 913.614905 245.744982 
L 914.759605 284.262862 
L 915.904304 385.857023 
L 917.049003 466.718762 
L 918.193702 493.368143 
L 919.338402 424.011207 
L 920.483101 394.874427 
L 921.6278 378.350576 
L 922.772499 339.19319 
L 925.061898 234.328464 
L 926.206597 206.648708 
L 927.351296 195.04306 
L 928.495996 271.102507 
L 929.640695 338.867982 
L 930.785394 373.48235 
L 931.930093 418.279228 
L 933.074793 430.581082 
L 934.219492 403.669127 
L 935.364191 335.071911 
L 936.50889 311.714943 
L 937.653589 308.417254 
L 938.798289 291.847428 
L 939.942988 311.969983 
L 941.087687 307.366593 
L 942.232386 323.76039 
L 943.377086 391.151434 
L 944.521785 363.528625 
L 945.666484 352.48946 
L 946.811183 399.729468 
L 947.955883 411.319924 
L 949.100582 404.391586 
L 950.245281 316.274276 
L 951.38998 237.636913 
L 952.53468 223.131654 
L 953.679379 268.506294 
L 954.824078 342.003386 
L 955.968777 354.036536 
L 957.113477 384.472009 
L 958.258176 473.366197 
L 959.402875 522.345219 
L 960.547574 390.545978 
L 961.692274 240.152187 
L 962.836973 274.979877 
L 963.981672 335.543474 
L 965.126371 309.009694 
L 966.271071 266.895097 
L 967.41577 366.338204 
L 968.560469 484.333936 
L 969.705168 439.701513 
L 970.849868 346.848754 
L 971.994567 279.089213 
L 973.139266 294.376379 
L 974.283965 333.888299 
L 975.428665 305.406187 
L 976.573364 316.44773 
L 977.718063 402.595935 
L 978.862762 466.137846 
L 980.007462 445.986596 
L 981.152161 382.992997 
L 982.29686 369.14649 
L 983.441559 397.296879 
L 984.586259 396.088091 
L 986.875657 255.783522 
L 988.020356 258.133489 
L 989.165056 290.879162 
L 991.454454 403.962531 
L 992.599153 416.620094 
L 993.743852 445.665209 
L 994.888552 434.579268 
L 996.033251 301.362732 
L 997.17795 233.683932 
L 998.322649 299.152441 
L 999.467349 377.20537 
L 1000.612048 422.146069 
L 1001.756747 475.179226 
L 1002.901446 517.911528 
L 1004.046146 473.1262 
L 1005.190845 374.534894 
L 1006.335544 236.630499 
L 1007.480243 167.654084 
L 1009.769642 363.331859 
L 1010.914341 371.236556 
L 1012.05904 373.740442 
L 1013.20374 391.133105 
L 1014.348439 412.611721 
L 1015.493138 421.925636 
L 1016.637837 393.546613 
L 1017.782537 384.253751 
L 1018.927236 358.550074 
L 1021.216634 329.64548 
L 1022.361334 276.087815 
L 1023.506033 300.583319 
L 1024.650732 373.429762 
L 1025.795431 432.888937 
L 1026.940131 426.304047 
L 1028.08483 400.449727 
L 1029.229529 387.447696 
L 1030.374228 303.066204 
L 1031.518928 229.455384 
L 1032.663627 211.282541 
L 1033.808326 259.702968 
L 1034.953025 361.162635 
L 1036.097725 410.190533 
L 1037.242424 432.864032 
L 1038.387123 470.346651 
L 1039.531822 443.745286 
L 1040.676522 374.257092 
L 1041.821221 321.382287 
L 1042.96592 294.348465 
L 1044.110619 310.666477 
L 1045.255319 303.932395 
L 1046.400018 350.038218 
L 1047.544717 435.908126 
L 1048.689416 400.013949 
L 1049.834115 368.626873 
L 1050.978815 347.367337 
L 1052.123514 282.648295 
L 1053.268213 287.961895 
L 1054.412912 281.680425 
L 1055.557612 255.006655 
L 1056.702311 301.558716 
L 1057.84701 358.591992 
L 1058.991709 380.368195 
L 1060.136409 364.719202 
L 1061.281108 369.931372 
L 1062.425807 350.068409 
L 1063.570506 264.2879 
L 1064.715206 308.304987 
L 1065.859905 381.185452 
L 1067.004604 359.672976 
L 1068.149303 396.683605 
L 1069.294003 415.877067 
L 1070.438702 372.869602 
L 1071.583401 286.669801 
L 1072.7281 221.574781 
L 1073.8728 176.023224 
L 1075.017499 147.453075 
L 1076.162198 280.031905 
L 1077.306897 360.383578 
L 1078.451597 400.734771 
L 1079.596296 489.443387 
L 1080.740995 468.884541 
L 1081.885694 408.43249 
L 1084.175093 263.318685 
L 1085.319792 160.740844 
L 1086.464491 83.707888 
L 1087.609191 164.671708 
L 1088.75389 210.386582 
L 1089.898589 307.533804 
L 1091.043288 493.431877 
L 1092.187988 477.310044 
L 1093.332687 580.033717 
L 1094.477386 562.150303 
L 1095.622085 239.524752 
L 1096.766785 217.04025 
L 1097.911484 161.614913 
L 1099.056183 127.313713 
L 1100.200882 248.480302 
L 1101.345581 230.230587 
L 1102.490281 339.93138 
L 1103.63498 313.432423 
L 1104.779679 240.146727 
L 1105.924378 342.484802 
L 1107.069078 340.722876 
L 1108.213777 409.248009 
L 1109.358476 435.867381 
L 1110.503175 368.608316 
L 1111.647875 385.416844 
L 1113.937273 171.347171 
L 1115.081972 150.512549 
L 1116.226672 197.787385 
L 1117.371371 347.927184 
L 1118.51607 373.664862 
L 1119.660769 457.867741 
L 1120.805469 500.608983 
L 1121.950168 328.575926 
L 1123.094867 341.868154 
L 1124.239566 340.762361 
L 1125.384266 188.91273 
L 1126.528965 195.751886 
L 1128.818363 379.281889 
L 1129.963063 403.75278 
L 1131.107762 331.729409 
L 1132.252461 295.775378 
L 1133.39716 340.210102 
L 1134.54186 390.702981 
L 1135.686559 343.456307 
L 1136.831258 345.955083 
L 1137.975957 424.671091 
L 1139.120657 347.940859 
L 1140.265356 253.833979 
L 1141.410055 249.499107 
L 1142.554754 305.454563 
L 1143.699454 418.277609 
L 1144.844153 444.026698 
L 1145.988852 440.31045 
L 1147.133551 429.532824 
L 1148.278251 389.935104 
L 1149.42295 375.322977 
L 1150.567649 287.775364 
L 1151.712348 138.526547 
L 1152.857048 136.188735 
L 1154.001747 334.682769 
L 1155.146446 474.148894 
L 1156.291145 451.333394 
L 1157.435844 451.862882 
L 1158.580544 515.19301 
L 1159.725243 479.960612 
L 1160.869942 318.940159 
L 1162.014641 242.999755 
L 1163.159341 322.524791 
L 1164.30404 369.558726 
L 1165.448739 339.698863 
L 1166.593438 377.456489 
L 1167.738138 459.580354 
L 1168.882837 457.166649 
L 1170.027536 415.277433 
L 1171.172235 405.442609 
L 1172.316935 427.976978 
L 1173.461634 395.942451 
L 1174.606333 263.947722 
L 1175.751032 255.771765 
L 1176.895732 362.906241 
L 1178.040431 353.601576 
L 1179.18513 287.167137 
L 1180.329829 361.54948 
L 1181.474529 537.067077 
L 1182.619228 531.32129 
L 1183.763927 373.216664 
L 1184.908626 307.490242 
L 1186.053326 366.750789 
L 1187.198025 407.718248 
L 1188.342724 309.608553 
L 1189.487423 299.265147 
L 1190.632123 447.903857 
L 1191.776822 446.080824 
L 1192.921521 387.393528 
L 1194.06622 393.034676 
L 1195.21092 335.785974 
L 1196.355619 389.732484 
L 1197.500318 412.887509 
L 1198.645017 313.174048 
L 1199.789717 285.400514 
L 1200.934416 247.804026 
L 1202.079115 384.857857 
L 1203.223814 491.415582 
L 1204.368514 425.018964 
L 1205.513213 447.361474 
L 1207.802611 369.27312 
L 1208.94731 304.497406 
L 1210.09201 188.816203 
L 1211.236709 262.341649 
L 1212.381408 388.809725 
L 1213.526107 446.5454 
L 1214.670807 474.709365 
L 1215.815506 491.157893 
L 1216.960205 463.799862 
L 1218.104904 297.935729 
L 1219.249604 199.193899 
L 1220.394303 214.548571 
L 1221.539002 188.032885 
L 1222.683701 245.794529 
L 1226.117799 575.990437 
L 1227.262498 553.672862 
L 1228.407198 436.336754 
L 1229.551897 365.669622 
L 1230.696596 282.901362 
L 1231.841295 275.438707 
L 1232.985995 280.475334 
L 1234.130694 265.466217 
L 1235.275393 368.859451 
L 1236.420092 357.13832 
L 1237.564792 273.238313 
L 1238.709491 304.242901 
L 1239.85419 281.196521 
L 1240.998889 238.173346 
L 1242.143589 294.104831 
L 1243.288288 403.295561 
L 1244.432987 534.763973 
L 1245.577686 542.18595 
L 1246.722386 433.571463 
L 1247.867085 369.795359 
L 1249.011784 291.718621 
L 1251.301183 79.998811 
L 1252.445882 105.953364 
L 1253.590581 295.081141 
L 1254.73528 422.134635 
L 1255.87998 460.280078 
L 1257.024679 454.16342 
L 1258.169378 509.582462 
L 1259.314077 502.417362 
L 1260.458777 369.106987 
L 1261.603476 263.42149 
L 1262.748175 184.855023 
L 1263.892874 191.276788 
L 1265.037573 201.479038 
L 1266.182273 155.796533 
L 1266.182273 155.796533 
" style="fill:none;stroke:#1f77b4;stroke-linecap:square;stroke-width:1.5;"/>
   </g>
   <g id="line2d_30">
    <path clip-path="url(#pdd57b3e12a)" d="M 122.627727 436.847994 
L 123.772427 436.745367 
L 124.917126 469.177023 
L 126.061825 469.162891 
L 127.206524 412.53548 
L 128.351223 309.266939 
L 129.495923 217.59004 
L 130.640622 191.728674 
L 131.785321 238.309017 
L 132.93002 254.980575 
L 134.07472 213.991042 
L 135.219419 289.736077 
L 136.364118 438.460374 
L 137.508817 460.376243 
L 138.653517 398.014673 
L 139.798216 374.214238 
L 140.942915 398.10229 
L 142.087614 447.404159 
L 143.232314 393.075203 
L 144.377013 246.97982 
L 145.521712 223.741517 
L 146.666411 247.753774 
L 147.811111 241.333669 
L 148.95581 256.896874 
L 150.100509 255.778133 
L 151.245208 336.880925 
L 152.389908 449.19841 
L 153.534607 452.60536 
L 154.679306 468.703891 
L 155.824005 482.220507 
L 156.968705 417.460924 
L 158.113404 339.900339 
L 159.258103 227.274777 
L 160.402802 134.827052 
L 161.547502 151.456024 
L 162.692201 193.11697 
L 163.8369 252.489054 
L 164.981599 332.714088 
L 166.126299 389.761269 
L 167.270998 476.651461 
L 168.415697 515.980088 
L 169.560396 448.970646 
L 170.705096 402.796544 
L 171.849795 390.789402 
L 172.994494 371.78219 
L 174.139193 333.902751 
L 175.283893 256.560248 
L 176.428592 187.756025 
L 177.573291 198.028187 
L 178.71799 248.118481 
L 179.86269 271.305438 
L 181.007389 306.019182 
L 182.152088 389.317287 
L 183.296787 492.1242 
L 184.441486 471.32733 
L 185.586186 371.748349 
L 186.730885 317.441191 
L 187.875584 317.582477 
L 189.020283 346.8211 
L 190.164983 294.978214 
L 191.309682 254.700876 
L 192.454381 317.884213 
L 193.59908 387.283044 
L 194.74378 384.643007 
L 197.033178 345.316331 
L 198.177877 334.523701 
L 199.322577 344.18573 
L 200.467276 312.096955 
L 201.611975 301.162853 
L 202.756674 319.069449 
L 203.901374 303.460979 
L 205.046073 318.216485 
L 206.190772 385.814888 
L 207.335471 412.016605 
L 208.480171 415.370886 
L 209.62487 436.558275 
L 210.769569 421.315533 
L 211.914268 349.481809 
L 213.058968 301.813693 
L 214.203667 267.070478 
L 215.348366 238.612049 
L 216.493065 279.413325 
L 217.637765 259.143436 
L 218.782464 260.549355 
L 219.927163 339.726766 
L 221.071862 355.064514 
L 222.216562 388.131459 
L 223.361261 429.599347 
L 224.50596 425.998285 
L 225.650659 424.597149 
L 226.795359 414.590127 
L 227.940058 381.280962 
L 230.229456 260.116879 
L 231.374156 257.811819 
L 232.518855 235.284968 
L 233.663554 234.02042 
L 234.808253 334.969296 
L 235.952952 378.118812 
L 237.097652 399.765427 
L 238.242351 451.52144 
L 239.38705 450.624798 
L 240.531749 417.625223 
L 241.676449 380.040138 
L 242.821148 364.875119 
L 243.965847 326.226523 
L 245.110546 247.522567 
L 246.255246 218.351827 
L 247.399945 274.328614 
L 248.544644 308.068266 
L 249.689343 273.711154 
L 250.834043 335.875302 
L 251.978742 447.470876 
L 253.123441 485.260322 
L 254.26814 502.911088 
L 255.41284 433.906831 
L 256.557539 354.481044 
L 257.702238 350.518643 
L 258.846937 321.470044 
L 261.136336 165.971552 
L 262.281035 200.231001 
L 263.425734 292.134851 
L 265.715133 331.877723 
L 266.859832 438.324532 
L 268.004531 486.989997 
L 269.149231 506.427267 
L 270.29393 541.383695 
L 271.438629 495.846012 
L 272.583328 432.729168 
L 273.728028 332.911299 
L 274.872727 317.214848 
L 276.017426 295.427175 
L 277.162125 174.261549 
L 278.306825 171.820085 
L 279.451524 211.370807 
L 281.740922 409.502433 
L 282.885622 432.582472 
L 284.030321 506.55409 
L 285.17502 569.566901 
L 286.319719 534.312125 
L 288.609118 300.270239 
L 289.753817 229.917814 
L 290.898516 283.857326 
L 292.043215 287.15756 
L 293.187915 222.22963 
L 294.332614 280.674779 
L 295.477313 362.984502 
L 296.622012 456.485806 
L 297.766712 477.757429 
L 298.911411 451.964128 
L 300.05611 472.012612 
L 301.200809 437.173463 
L 302.345509 385.687151 
L 303.490208 359.061619 
L 304.634907 300.710164 
L 305.779606 266.362845 
L 306.924306 290.214263 
L 308.069005 288.111178 
L 309.213704 300.588368 
L 310.358403 335.157394 
L 311.503103 400.323589 
L 312.647802 430.653235 
L 313.792501 413.025017 
L 314.9372 421.771181 
L 316.0819 426.825244 
L 317.226599 471.99278 
L 318.371298 403.539938 
L 319.515997 288.460185 
L 320.660697 310.193457 
L 321.805396 338.857858 
L 322.950095 303.437591 
L 324.094794 273.802738 
L 325.239494 307.327568 
L 326.384193 374.991656 
L 327.528892 418.235961 
L 328.673591 385.274075 
L 329.818291 346.116292 
L 330.96299 351.787942 
L 332.107689 395.220602 
L 333.252388 425.365353 
L 334.397088 416.546331 
L 335.541787 380.012675 
L 336.686486 398.065867 
L 337.831185 463.68998 
L 338.975885 410.167158 
L 341.265283 277.661855 
L 342.409982 247.744872 
L 343.554681 329.066595 
L 344.699381 311.152665 
L 345.84408 314.930132 
L 346.988779 409.849084 
L 349.278178 395.458608 
L 350.422877 426.016283 
L 351.567576 392.504451 
L 352.712275 375.526338 
L 353.856975 396.900625 
L 356.146373 456.447998 
L 357.291072 400.298287 
L 358.435772 351.047118 
L 359.580471 334.711215 
L 360.72517 258.488228 
L 361.869869 261.787742 
L 363.014569 302.469398 
L 364.159268 311.148884 
L 365.303967 345.901441 
L 366.448666 430.332485 
L 367.593366 478.034771 
L 368.738065 388.809571 
L 369.882764 366.974814 
L 371.027463 352.944558 
L 372.172163 258.595964 
L 373.316862 251.84458 
L 375.60626 337.100531 
L 376.75096 366.453986 
L 377.895659 411.071939 
L 379.040358 445.971326 
L 380.185057 417.147492 
L 381.329757 361.500489 
L 382.474456 396.888805 
L 383.619155 461.684038 
L 384.763854 331.960732 
L 385.908554 182.961882 
L 387.053253 201.756036 
L 388.197952 262.455665 
L 389.342651 297.267545 
L 390.487351 307.883609 
L 391.63205 350.378337 
L 392.776749 456.029579 
L 393.921448 471.450673 
L 395.066148 379.825024 
L 396.210847 302.120906 
L 397.355546 280.995057 
L 398.500245 278.805916 
L 399.644944 281.087448 
L 400.789644 326.016168 
L 401.934343 362.010379 
L 403.079042 438.646194 
L 404.223741 435.360177 
L 405.368441 327.897656 
L 406.51314 313.411986 
L 407.657839 253.71997 
L 408.802538 170.910356 
L 409.947238 197.466806 
L 411.091937 232.103653 
L 412.236636 244.084416 
L 413.381335 328.129756 
L 414.526035 402.477547 
L 415.670734 440.189287 
L 416.815433 481.623707 
L 417.960132 418.912453 
L 419.104832 363.927102 
L 420.249531 272.88244 
L 421.39423 167.463359 
L 422.538929 180.631996 
L 423.683629 160.756396 
L 424.828328 229.123678 
L 425.973027 353.887897 
L 427.117726 352.536913 
L 428.262426 323.514554 
L 429.407125 355.982716 
L 430.551824 460.794959 
L 431.696523 453.436041 
L 432.841223 367.741018 
L 433.985922 334.607566 
L 435.130621 323.395443 
L 436.27532 326.661879 
L 437.42002 246.697452 
L 438.564719 183.972989 
L 439.709418 197.38306 
L 440.854117 233.782186 
L 441.998817 218.636451 
L 443.143516 215.908215 
L 444.288215 313.451007 
L 446.577614 449.393392 
L 447.722313 437.862569 
L 448.867012 398.07262 
L 450.011711 393.495421 
L 451.156411 391.414451 
L 452.30111 356.423967 
L 453.445809 229.31418 
L 454.590508 226.956959 
L 455.735207 221.121445 
L 456.879907 190.828008 
L 458.024606 233.499492 
L 459.169305 260.25191 
L 460.314004 389.672013 
L 461.458704 490.302376 
L 462.603403 482.75558 
L 463.748102 501.722505 
L 464.892801 451.467489 
L 466.037501 323.143131 
L 467.1822 336.662744 
L 468.326899 311.805757 
L 469.471598 141.225902 
L 470.616298 95.353206 
L 471.760997 176.3011 
L 472.905696 286.81009 
L 474.050395 352.094584 
L 475.195095 432.624153 
L 476.339794 534.978528 
L 477.484493 598.730499 
L 478.629192 629.211468 
L 479.773892 467.325942 
L 480.918591 252.313601 
L 482.06329 216.684585 
L 483.207989 230.211176 
L 484.352689 220.272447 
L 485.497388 244.553361 
L 486.642087 293.198317 
L 487.786786 382.745793 
L 488.931486 492.978178 
L 490.076185 485.10991 
L 491.220884 429.741969 
L 492.365583 400.088205 
L 493.510283 362.878363 
L 494.654982 401.136275 
L 495.799681 357.992786 
L 496.94438 291.897829 
L 498.08908 353.17052 
L 499.233779 352.795465 
L 500.378478 370.781086 
L 501.523177 404.402592 
L 502.667877 380.986953 
L 503.812576 425.717793 
L 504.957275 496.300271 
L 506.101974 411.736177 
L 507.246673 281.06247 
L 508.391373 345.505459 
L 509.536072 363.679138 
L 510.680771 288.760562 
L 511.82547 307.666744 
L 512.97017 349.950478 
L 514.114869 416.082503 
L 515.259568 434.979666 
L 516.404267 398.795433 
L 517.548967 345.527783 
L 518.693666 305.46549 
L 519.838365 399.410137 
L 520.983064 460.208702 
L 522.127764 421.492808 
L 523.272463 455.637578 
L 524.417162 515.957189 
L 525.561861 468.13352 
L 526.706561 340.025917 
L 527.85126 246.764496 
L 528.995959 246.066712 
L 530.140658 215.608799 
L 531.285358 97.200974 
L 532.430057 228.034345 
L 533.574756 511.861135 
L 534.719455 583.088523 
L 535.864155 600.459827 
L 537.008854 596.411758 
L 541.587651 156.476969 
L 542.73235 194.761312 
L 543.877049 215.284078 
L 545.021749 261.674112 
L 546.166448 423.571152 
L 547.311147 521.526646 
L 548.455846 555.181872 
L 549.600546 514.986281 
L 550.745245 427.187841 
L 553.034643 215.657017 
L 554.179343 242.781148 
L 555.324042 318.01159 
L 556.468741 369.352399 
L 557.61344 296.688027 
L 558.75814 201.552716 
L 559.902839 289.439267 
L 561.047538 312.474809 
L 562.192237 314.93378 
L 563.336936 466.370406 
L 564.481636 566.287892 
L 565.626335 522.426911 
L 566.771034 440.439261 
L 569.060433 259.170941 
L 570.205132 233.599466 
L 571.349831 255.968358 
L 572.49453 310.48731 
L 574.783929 207.290873 
L 575.928628 332.913255 
L 577.073327 420.029238 
L 578.218027 421.15393 
L 579.362726 457.400049 
L 580.507425 479.554987 
L 581.652124 449.115599 
L 582.796824 388.268036 
L 583.941523 300.897514 
L 585.086222 248.448168 
L 587.375621 166.459792 
L 588.52032 181.09898 
L 589.665019 241.410718 
L 590.809718 350.756518 
L 591.954418 448.701193 
L 593.099117 521.20574 
L 594.243816 549.455012 
L 595.388515 506.152526 
L 596.533215 384.769045 
L 597.677914 232.329129 
L 598.822613 160.38878 
L 599.967312 76.511112 
L 601.112012 60.642059 
L 602.256711 221.815144 
L 604.546109 381.370048 
L 605.690809 516.521741 
L 606.835508 504.663642 
L 607.980207 451.784805 
L 609.124906 413.162928 
L 610.269606 380.743051 
L 611.414305 342.483203 
L 612.559004 238.425727 
L 613.703703 146.396688 
L 614.848402 173.782628 
L 615.993102 261.289236 
L 617.137801 284.473502 
L 618.2825 287.093555 
L 619.427199 304.140005 
L 620.571899 339.38215 
L 621.716598 384.599193 
L 622.861297 393.258931 
L 624.005996 355.802418 
L 625.150696 352.130373 
L 626.295395 351.94385 
L 627.440094 299.832055 
L 628.584793 277.139652 
L 629.729493 297.533337 
L 630.874192 313.799293 
L 632.018891 295.854368 
L 633.16359 318.710932 
L 634.30829 297.529872 
L 635.452989 254.216837 
L 636.597688 261.535197 
L 637.742387 272.783442 
L 638.887087 353.737625 
L 640.031786 367.789549 
L 641.176485 386.246992 
L 642.321184 453.146396 
L 643.465884 399.61912 
L 645.755282 222.715965 
L 646.899981 177.570093 
L 648.044681 203.878032 
L 649.18938 222.42506 
L 650.334079 309.472275 
L 651.478778 477.490649 
L 652.623478 510.945433 
L 653.768177 491.308119 
L 654.912876 442.39781 
L 656.057575 346.46148 
L 657.202275 317.413053 
L 658.346974 249.501007 
L 659.491673 227.526295 
L 660.636372 251.764736 
L 661.781072 238.075811 
L 662.925771 284.682967 
L 664.07047 321.957987 
L 665.215169 322.47127 
L 666.359869 353.318813 
L 667.504568 410.758207 
L 668.649267 455.952451 
L 669.793966 406.637392 
L 670.938665 320.690814 
L 672.083365 355.999233 
L 673.228064 372.440872 
L 674.372763 292.974158 
L 675.517462 281.017208 
L 676.662162 283.466493 
L 677.806861 292.116421 
L 678.95156 344.085635 
L 680.096259 355.311998 
L 681.240959 390.892238 
L 682.385658 399.340958 
L 683.530357 339.463294 
L 684.675056 385.384663 
L 685.819756 370.514248 
L 686.964455 285.838888 
L 688.109154 300.427229 
L 689.253853 298.096917 
L 690.398553 354.167259 
L 691.543252 404.058993 
L 692.687951 388.52756 
L 693.83265 402.690396 
L 694.97735 358.576229 
L 696.122049 324.124291 
L 697.266748 368.694127 
L 698.411447 354.022638 
L 699.556147 344.195058 
L 700.700846 408.713486 
L 701.845545 398.34555 
L 702.990244 354.711259 
L 704.134944 285.024791 
L 705.279643 260.816834 
L 706.424342 298.731354 
L 707.569041 312.858164 
L 708.713741 411.059849 
L 709.85844 435.907875 
L 711.003139 393.627976 
L 712.147838 418.727189 
L 713.292538 378.446445 
L 714.437237 308.372508 
L 715.581936 316.85608 
L 716.726635 337.194125 
L 717.871335 346.649026 
L 719.016034 370.40792 
L 720.160733 408.994698 
L 721.305432 442.062227 
L 722.450131 436.317299 
L 723.594831 435.207778 
L 724.73953 377.918245 
L 725.884229 291.009364 
L 727.028928 221.420402 
L 728.173628 204.953832 
L 729.318327 283.592374 
L 730.463026 317.162716 
L 731.607725 344.800907 
L 732.752425 398.01555 
L 733.897124 415.286259 
L 735.041823 448.569243 
L 736.186522 449.894982 
L 737.331222 403.942317 
L 738.475921 389.655143 
L 739.62062 355.837486 
L 740.765319 378.034161 
L 741.910019 383.022862 
L 743.054718 270.371794 
L 744.199417 291.597475 
L 745.344116 275.720403 
L 746.488816 230.938218 
L 747.633515 372.536538 
L 748.778214 423.670262 
L 749.922913 422.310761 
L 751.067613 458.906001 
L 753.357011 289.861219 
L 754.50171 255.927566 
L 755.64641 273.321868 
L 756.791109 362.097071 
L 757.935808 386.95979 
L 759.080507 377.298437 
L 761.369906 268.652195 
L 762.514605 306.29987 
L 763.659304 364.601576 
L 764.804004 413.400122 
L 765.948703 432.25517 
L 767.093402 400.029312 
L 768.238101 378.805607 
L 769.382801 410.930453 
L 770.5275 345.370328 
L 771.672199 271.820483 
L 772.816898 325.391178 
L 773.961598 360.768585 
L 775.106297 364.041785 
L 776.250996 335.372294 
L 777.395695 328.60894 
L 778.540394 383.491611 
L 779.685094 384.656986 
L 780.829793 346.072602 
L 781.974492 344.313489 
L 783.119191 353.350445 
L 784.263891 332.760511 
L 785.40859 319.21218 
L 786.553289 390.3772 
L 787.697988 418.030242 
L 788.842688 343.270641 
L 789.987387 340.95829 
L 792.276785 326.617921 
L 793.421485 349.462724 
L 794.566184 332.624868 
L 795.710883 375.259457 
L 796.855582 388.418346 
L 798.000282 384.405818 
L 799.144981 431.434644 
L 801.434379 369.920065 
L 802.579079 378.265501 
L 804.868477 298.411572 
L 806.013176 233.189412 
L 807.157876 225.060119 
L 808.302575 331.227332 
L 809.447274 397.276865 
L 811.736673 481.838476 
L 812.881372 455.25362 
L 814.026071 407.876191 
L 815.17077 411.803508 
L 816.31547 376.998416 
L 817.460169 322.705417 
L 818.604868 327.599583 
L 819.749567 333.968835 
L 822.038966 409.314252 
L 823.183665 360.951312 
L 824.328364 336.736717 
L 825.473064 409.925488 
L 826.617763 456.000452 
L 827.762462 464.078901 
L 828.907161 445.369563 
L 830.05186 369.415637 
L 831.19656 321.989946 
L 833.485958 281.36068 
L 834.630657 296.637755 
L 835.775357 320.683587 
L 836.920056 337.099678 
L 838.064755 365.971337 
L 839.209454 372.678302 
L 840.354154 372.537644 
L 841.498853 414.702607 
L 842.643552 500.280452 
L 843.788251 518.973811 
L 844.932951 422.752215 
L 846.07765 378.277282 
L 847.222349 351.944995 
L 848.367048 298.619947 
L 849.511748 307.205385 
L 850.656447 288.692692 
L 851.801146 262.192018 
L 852.945845 278.405835 
L 854.090545 289.011168 
L 855.235244 330.009168 
L 856.379943 365.569768 
L 857.524642 425.433689 
L 858.669342 515.649284 
L 859.814041 502.496671 
L 862.103439 308.19948 
L 863.248139 300.269682 
L 864.392838 318.704701 
L 865.537537 300.479479 
L 866.682236 310.699455 
L 868.971635 420.902454 
L 870.116334 389.61705 
L 871.261033 309.134355 
L 872.405733 282.445669 
L 873.550432 306.953809 
L 874.695131 301.727116 
L 875.83983 275.468385 
L 876.98453 328.358207 
L 878.129229 419.739714 
L 879.273928 455.948994 
L 880.418627 414.532268 
L 881.563327 391.139485 
L 882.708026 313.300252 
L 883.852725 190.80358 
L 884.997424 187.182715 
L 886.142123 209.848292 
L 887.286823 267.551519 
L 888.431522 389.338543 
L 889.576221 470.467027 
L 890.72092 500.473238 
L 891.86562 480.367878 
L 893.010319 389.560517 
L 894.155018 308.149929 
L 895.299717 260.965889 
L 896.444417 184.764301 
L 897.589116 176.265743 
L 898.733815 224.051261 
L 899.878514 234.280667 
L 901.023214 290.797697 
L 902.167913 359.62253 
L 903.312612 417.228213 
L 904.457311 454.584391 
L 905.602011 434.75207 
L 906.74671 419.006258 
L 907.891409 343.311553 
L 909.036108 239.602961 
L 910.180808 152.280455 
L 911.325507 171.610846 
L 912.470206 258.938298 
L 913.614905 241.382318 
L 914.759605 293.478452 
L 915.904304 391.978501 
L 917.049003 469.921947 
L 918.193702 492.729935 
L 919.338402 421.976572 
L 920.483101 394.161113 
L 921.6278 371.711136 
L 922.772499 339.11133 
L 923.917199 282.975871 
L 925.061898 237.049288 
L 926.206597 203.647948 
L 927.351296 197.364802 
L 928.495996 283.985401 
L 929.640695 335.012209 
L 931.930093 418.030635 
L 933.074793 425.984872 
L 934.219492 401.684577 
L 935.364191 334.325717 
L 936.50889 314.086748 
L 937.653589 307.999983 
L 938.798289 300.257959 
L 939.942988 308.019744 
L 941.087687 302.694571 
L 942.232386 331.767948 
L 943.377086 384.501721 
L 944.521785 362.114494 
L 945.666484 355.422126 
L 946.811183 396.750544 
L 947.955883 417.993713 
L 949.100582 405.059339 
L 950.245281 313.496258 
L 951.38998 235.893151 
L 952.53468 223.269216 
L 953.679379 275.654689 
L 954.824078 344.861106 
L 955.968777 351.542851 
L 957.113477 380.476373 
L 958.258176 480.858125 
L 959.402875 521.629916 
L 961.692274 239.745923 
L 962.836973 281.013674 
L 963.981672 343.202489 
L 966.271071 266.771685 
L 968.560469 485.403058 
L 969.705168 436.989589 
L 970.849868 336.54144 
L 971.994567 279.038254 
L 973.139266 298.074919 
L 974.283965 328.131525 
L 975.428665 306.797391 
L 976.573364 321.999454 
L 977.718063 407.501042 
L 978.862762 471.734568 
L 980.007462 444.201271 
L 981.152161 382.428975 
L 982.29686 372.812878 
L 983.441559 391.828352 
L 984.586259 394.725993 
L 986.875657 251.564771 
L 988.020356 262.896849 
L 989.165056 289.634826 
L 990.309755 353.985679 
L 991.454454 405.019274 
L 992.599153 414.428419 
L 993.743852 449.336179 
L 994.888552 427.263157 
L 996.033251 301.129216 
L 997.17795 236.762457 
L 999.467349 376.291059 
L 1000.612048 419.655886 
L 1001.756747 481.053007 
L 1002.901446 514.429847 
L 1004.046146 466.747926 
L 1005.190845 372.730835 
L 1006.335544 235.547635 
L 1007.480243 169.259517 
L 1009.769642 364.767614 
L 1010.914341 370.194331 
L 1012.05904 373.059611 
L 1013.20374 387.924454 
L 1014.348439 417.139345 
L 1015.493138 418.28312 
L 1016.637837 392.136795 
L 1017.782537 395.767576 
L 1018.927236 353.564924 
L 1020.071935 339.930541 
L 1021.216634 330.855802 
L 1022.361334 276.267546 
L 1023.506033 300.120313 
L 1024.650732 371.78171 
L 1025.795431 433.1228 
L 1026.940131 425.525896 
L 1028.08483 403.524022 
L 1029.229529 384.819929 
L 1030.374228 299.164083 
L 1031.518928 228.279433 
L 1032.663627 212.919648 
L 1033.808326 267.152808 
L 1034.953025 365.235079 
L 1036.097725 407.459373 
L 1037.242424 432.181794 
L 1038.387123 475.405047 
L 1039.531822 440.516177 
L 1040.676522 367.005207 
L 1041.821221 317.698095 
L 1042.96592 295.209428 
L 1044.110619 310.169029 
L 1045.255319 301.317736 
L 1046.400018 354.062203 
L 1047.544717 437.549727 
L 1048.689416 399.702197 
L 1049.834115 368.66163 
L 1050.978815 345.347826 
L 1052.123514 282.463766 
L 1053.268213 289.54608 
L 1054.412912 277.701281 
L 1055.557612 252.41563 
L 1057.84701 359.459837 
L 1058.991709 378.271182 
L 1060.136409 365.747045 
L 1061.281108 369.716252 
L 1062.425807 349.324714 
L 1063.570506 265.175898 
L 1064.715206 311.10823 
L 1065.859905 375.918869 
L 1067.004604 357.97871 
L 1068.149303 402.522578 
L 1069.294003 413.513571 
L 1070.438702 369.935098 
L 1071.583401 282.560394 
L 1072.7281 223.877155 
L 1073.8728 176.01366 
L 1075.017499 146.510597 
L 1076.162198 290.700102 
L 1077.306897 358.359605 
L 1078.451597 398.111508 
L 1079.596296 491.474218 
L 1080.740995 463.531075 
L 1081.885694 407.590935 
L 1084.175093 259.479494 
L 1085.319792 159.461111 
L 1086.464491 85.239503 
L 1087.609191 169.087196 
L 1088.75389 214.370189 
L 1089.898589 309.0657 
L 1091.043288 497.089483 
L 1092.187988 477.365048 
L 1093.332687 584.408516 
L 1094.477386 551.681077 
L 1095.622085 225.933109 
L 1096.766785 222.837146 
L 1097.911484 154.246458 
L 1099.056183 135.531913 
L 1100.200882 255.717504 
L 1101.345581 223.526017 
L 1102.490281 350.971468 
L 1103.63498 309.653014 
L 1104.779679 240.856051 
L 1105.924378 348.348675 
L 1107.069078 342.1486 
L 1108.213777 416.417613 
L 1109.358476 425.589983 
L 1110.503175 362.52621 
L 1111.647875 384.253471 
L 1113.937273 170.985606 
L 1115.081972 151.085479 
L 1116.226672 208.828896 
L 1117.371371 350.665403 
L 1118.51607 375.204121 
L 1119.660769 461.852527 
L 1120.805469 488.100045 
L 1121.950168 327.436565 
L 1123.094867 345.611078 
L 1124.239566 335.615954 
L 1125.384266 185.3983 
L 1126.528965 202.397877 
L 1127.673664 301.190637 
L 1128.818363 380.094757 
L 1129.963063 399.516711 
L 1131.107762 323.669854 
L 1132.252461 296.851084 
L 1133.39716 343.829469 
L 1134.54186 383.05609 
L 1135.686559 342.860267 
L 1136.831258 350.530937 
L 1137.975957 426.861756 
L 1139.120657 345.904404 
L 1140.265356 253.587382 
L 1141.410055 251.935905 
L 1142.554754 309.437119 
L 1143.699454 418.532794 
L 1144.844153 441.312242 
L 1145.988852 438.096542 
L 1147.133551 427.077637 
L 1148.278251 388.415925 
L 1149.42295 372.456023 
L 1150.567649 287.22449 
L 1151.712348 130.136177 
L 1152.857048 141.890786 
L 1154.001747 347.236894 
L 1155.146446 468.813294 
L 1156.291145 452.839646 
L 1157.435844 458.927063 
L 1158.580544 517.440991 
L 1159.725243 475.241183 
L 1160.869942 312.260171 
L 1162.014641 242.444627 
L 1163.159341 323.737772 
L 1164.30404 362.102752 
L 1165.448739 334.564806 
L 1166.593438 382.324568 
L 1167.738138 464.477563 
L 1168.882837 461.408162 
L 1170.027536 416.189539 
L 1171.172235 406.226354 
L 1172.316935 429.760534 
L 1173.461634 389.081191 
L 1174.606333 256.450371 
L 1175.751032 253.855201 
L 1176.895732 357.124518 
L 1178.040431 353.823819 
L 1179.18513 292.584812 
L 1180.329829 368.418835 
L 1181.474529 546.27513 
L 1182.619228 529.794542 
L 1183.763927 369.077002 
L 1184.908626 306.911436 
L 1186.053326 363.48981 
L 1187.198025 396.63813 
L 1188.342724 299.619671 
L 1189.487423 304.749417 
L 1190.632123 455.909568 
L 1191.776822 449.092515 
L 1192.921521 392.63647 
L 1194.06622 394.152513 
L 1195.21092 339.048246 
L 1196.355619 389.958799 
L 1197.500318 402.003565 
L 1198.645017 309.149797 
L 1200.934416 242.942325 
L 1202.079115 398.003465 
L 1203.223814 495.726537 
L 1204.368514 422.072206 
L 1205.513213 451.367314 
L 1206.657912 411.254649 
L 1207.802611 365.661667 
L 1208.94731 300.434286 
L 1210.09201 184.410608 
L 1211.236709 264.203823 
L 1212.381408 393.016322 
L 1213.526107 442.871613 
L 1214.670807 479.580743 
L 1215.815506 492.813226 
L 1216.960205 459.352981 
L 1218.104904 294.844628 
L 1219.249604 198.837803 
L 1220.394303 215.107281 
L 1221.539002 185.981841 
L 1222.683701 251.501876 
L 1223.828401 362.389897 
L 1224.9731 462.447567 
L 1226.117799 575.688441 
L 1227.262498 550.95975 
L 1228.407198 433.174411 
L 1230.696596 284.001881 
L 1231.841295 278.168227 
L 1232.985995 275.427566 
L 1234.130694 268.316998 
L 1235.275393 376.69073 
L 1236.420092 346.607834 
L 1237.564792 274.679123 
L 1238.709491 311.337924 
L 1239.85419 274.305225 
L 1240.998889 243.748592 
L 1242.143589 297.8667 
L 1243.288288 408.056707 
L 1244.432987 541.616546 
L 1245.577686 534.945622 
L 1246.722386 429.025994 
L 1247.867085 363.555003 
L 1249.011784 283.085605 
L 1250.156483 188.769235 
L 1251.301183 79.356212 
L 1252.445882 115.046808 
L 1253.590581 305.615778 
L 1254.73528 424.391913 
L 1255.87998 463.270729 
L 1257.024679 458.016077 
L 1258.169378 508.918696 
L 1259.314077 498.671965 
L 1260.458777 359.477726 
L 1261.603476 253.980161 
L 1262.748175 184.142709 
L 1263.892874 190.293568 
L 1265.037573 200.696651 
L 1266.182273 161.159838 
L 1266.182273 161.159838 
" style="fill:none;stroke:#ff7f0e;stroke-linecap:square;stroke-width:1.5;"/>
   </g>
   <g id="patch_3">
    <path d="M 65.45 659.72 
L 65.45 26.88 
" style="fill:none;stroke:#000000;stroke-linecap:square;stroke-linejoin:miter;stroke-width:0.8;"/>
   </g>
   <g id="patch_4">
    <path d="M 1323.36 659.72 
L 1323.36 26.88 
" style="fill:none;stroke:#000000;stroke-linecap:square;stroke-linejoin:miter;stroke-width:0.8;"/>
   </g>
   <g id="patch_5">
    <path d="M 65.45 659.72 
L 1323.36 659.72 
" style="fill:none;stroke:#000000;stroke-linecap:square;stroke-linejoin:miter;stroke-width:0.8;"/>
   </g>
   <g id="patch_6">
    <path d="M 65.45 26.88 
L 1323.36 26.88 
" style="fill:none;stroke:#000000;stroke-linecap:square;stroke-linejoin:miter;stroke-width:0.8;"/>
   </g>
   <g id="text_16">
    <!-- Corrected BHN data VS Raw BLN data -->
    <defs>
     <path d="M 64.40625 67.28125 
L 64.40625 56.890625 
Q 59.421875 61.53125 53.78125 63.8125 
Q 48.140625 66.109375 41.796875 66.109375 
Q 29.296875 66.109375 22.65625 58.46875 
Q 16.015625 50.828125 16.015625 36.375 
Q 16.015625 21.96875 22.65625 14.328125 
Q 29.296875 6.6875 41.796875 6.6875 
Q 48.140625 6.6875 53.78125 8.984375 
Q 59.421875 11.28125 64.40625 15.921875 
L 64.40625 5.609375 
Q 59.234375 2.09375 53.4375 0.328125 
Q 47.65625 -1.421875 41.21875 -1.421875 
Q 24.65625 -1.421875 15.125 8.703125 
Q 5.609375 18.84375 5.609375 36.375 
Q 5.609375 53.953125 15.125 64.078125 
Q 24.65625 74.21875 41.21875 74.21875 
Q 47.75 74.21875 53.53125 72.484375 
Q 59.328125 70.75 64.40625 67.28125 
z
" id="DejaVuSans-67"/>
     <path d="M 41.109375 46.296875 
Q 39.59375 47.171875 37.8125 47.578125 
Q 36.03125 48 33.890625 48 
Q 26.265625 48 22.1875 43.046875 
Q 18.109375 38.09375 18.109375 28.8125 
L 18.109375 0 
L 9.078125 0 
L 9.078125 54.6875 
L 18.109375 54.6875 
L 18.109375 46.1875 
Q 20.953125 51.171875 25.484375 53.578125 
Q 30.03125 56 36.53125 56 
Q 37.453125 56 38.578125 55.875 
Q 39.703125 55.765625 41.0625 55.515625 
z
" id="DejaVuSans-114"/>
     <path d="M 56.203125 29.59375 
L 56.203125 25.203125 
L 14.890625 25.203125 
Q 15.484375 15.921875 20.484375 11.0625 
Q 25.484375 6.203125 34.421875 6.203125 
Q 39.59375 6.203125 44.453125 7.46875 
Q 49.3125 8.734375 54.109375 11.28125 
L 54.109375 2.78125 
Q 49.265625 0.734375 44.1875 -0.34375 
Q 39.109375 -1.421875 33.890625 -1.421875 
Q 20.796875 -1.421875 13.15625 6.1875 
Q 5.515625 13.8125 5.515625 26.8125 
Q 5.515625 40.234375 12.765625 48.109375 
Q 20.015625 56 32.328125 56 
Q 43.359375 56 49.78125 48.890625 
Q 56.203125 41.796875 56.203125 29.59375 
z
M 47.21875 32.234375 
Q 47.125 39.59375 43.09375 43.984375 
Q 39.0625 48.390625 32.421875 48.390625 
Q 24.90625 48.390625 20.390625 44.140625 
Q 15.875 39.890625 15.1875 32.171875 
z
" id="DejaVuSans-101"/>
     <path d="M 45.40625 46.390625 
L 45.40625 75.984375 
L 54.390625 75.984375 
L 54.390625 0 
L 45.40625 0 
L 45.40625 8.203125 
Q 42.578125 3.328125 38.25 0.953125 
Q 33.9375 -1.421875 27.875 -1.421875 
Q 17.96875 -1.421875 11.734375 6.484375 
Q 5.515625 14.40625 5.515625 27.296875 
Q 5.515625 40.1875 11.734375 48.09375 
Q 17.96875 56 27.875 56 
Q 33.9375 56 38.25 53.625 
Q 42.578125 51.265625 45.40625 46.390625 
z
M 14.796875 27.296875 
Q 14.796875 17.390625 18.875 11.75 
Q 22.953125 6.109375 30.078125 6.109375 
Q 37.203125 6.109375 41.296875 11.75 
Q 45.40625 17.390625 45.40625 27.296875 
Q 45.40625 37.203125 41.296875 42.84375 
Q 37.203125 48.484375 30.078125 48.484375 
Q 22.953125 48.484375 18.875 42.84375 
Q 14.796875 37.203125 14.796875 27.296875 
z
" id="DejaVuSans-100"/>
     <path id="DejaVuSans-32"/>
     <path d="M 19.671875 34.8125 
L 19.671875 8.109375 
L 35.5 8.109375 
Q 43.453125 8.109375 47.28125 11.40625 
Q 51.125 14.703125 51.125 21.484375 
Q 51.125 28.328125 47.28125 31.5625 
Q 43.453125 34.8125 35.5 34.8125 
z
M 19.671875 64.796875 
L 19.671875 42.828125 
L 34.28125 42.828125 
Q 41.5 42.828125 45.03125 45.53125 
Q 48.578125 48.25 48.578125 53.8125 
Q 48.578125 59.328125 45.03125 62.0625 
Q 41.5 64.796875 34.28125 64.796875 
z
M 9.8125 72.90625 
L 35.015625 72.90625 
Q 46.296875 72.90625 52.390625 68.21875 
Q 58.5 63.53125 58.5 54.890625 
Q 58.5 48.1875 55.375 44.234375 
Q 52.25 40.28125 46.1875 39.3125 
Q 53.46875 37.75 57.5 32.78125 
Q 61.53125 27.828125 61.53125 20.40625 
Q 61.53125 10.640625 54.890625 5.3125 
Q 48.25 0 35.984375 0 
L 9.8125 0 
z
" id="DejaVuSans-66"/>
     <path d="M 9.8125 72.90625 
L 19.671875 72.90625 
L 19.671875 43.015625 
L 55.515625 43.015625 
L 55.515625 72.90625 
L 65.375 72.90625 
L 65.375 0 
L 55.515625 0 
L 55.515625 34.71875 
L 19.671875 34.71875 
L 19.671875 0 
L 9.8125 0 
z
" id="DejaVuSans-72"/>
     <path d="M 9.8125 72.90625 
L 23.09375 72.90625 
L 55.421875 11.921875 
L 55.421875 72.90625 
L 64.984375 72.90625 
L 64.984375 0 
L 51.703125 0 
L 19.390625 60.984375 
L 19.390625 0 
L 9.8125 0 
z
" id="DejaVuSans-78"/>
     <path d="M 34.28125 27.484375 
Q 23.390625 27.484375 19.1875 25 
Q 14.984375 22.515625 14.984375 16.5 
Q 14.984375 11.71875 18.140625 8.90625 
Q 21.296875 6.109375 26.703125 6.109375 
Q 34.1875 6.109375 38.703125 11.40625 
Q 43.21875 16.703125 43.21875 25.484375 
L 43.21875 27.484375 
z
M 52.203125 31.203125 
L 52.203125 0 
L 43.21875 0 
L 43.21875 8.296875 
Q 40.140625 3.328125 35.546875 0.953125 
Q 30.953125 -1.421875 24.3125 -1.421875 
Q 15.921875 -1.421875 10.953125 3.296875 
Q 6 8.015625 6 15.921875 
Q 6 25.140625 12.171875 29.828125 
Q 18.359375 34.515625 30.609375 34.515625 
L 43.21875 34.515625 
L 43.21875 35.40625 
Q 43.21875 41.609375 39.140625 45 
Q 35.0625 48.390625 27.6875 48.390625 
Q 23 48.390625 18.546875 47.265625 
Q 14.109375 46.140625 10.015625 43.890625 
L 10.015625 52.203125 
Q 14.9375 54.109375 19.578125 55.046875 
Q 24.21875 56 28.609375 56 
Q 40.484375 56 46.34375 49.84375 
Q 52.203125 43.703125 52.203125 31.203125 
z
" id="DejaVuSans-97"/>
     <path d="M 28.609375 0 
L 0.78125 72.90625 
L 11.078125 72.90625 
L 34.1875 11.53125 
L 57.328125 72.90625 
L 67.578125 72.90625 
L 39.796875 0 
z
" id="DejaVuSans-86"/>
     <path d="M 53.515625 70.515625 
L 53.515625 60.890625 
Q 47.90625 63.578125 42.921875 64.890625 
Q 37.9375 66.21875 33.296875 66.21875 
Q 25.25 66.21875 20.875 63.09375 
Q 16.5 59.96875 16.5 54.203125 
Q 16.5 49.359375 19.40625 46.890625 
Q 22.3125 44.4375 30.421875 42.921875 
L 36.375 41.703125 
Q 47.40625 39.59375 52.65625 34.296875 
Q 57.90625 29 57.90625 20.125 
Q 57.90625 9.515625 50.796875 4.046875 
Q 43.703125 -1.421875 29.984375 -1.421875 
Q 24.8125 -1.421875 18.96875 -0.25 
Q 13.140625 0.921875 6.890625 3.21875 
L 6.890625 13.375 
Q 12.890625 10.015625 18.65625 8.296875 
Q 24.421875 6.59375 29.984375 6.59375 
Q 38.421875 6.59375 43.015625 9.90625 
Q 47.609375 13.234375 47.609375 19.390625 
Q 47.609375 24.75 44.3125 27.78125 
Q 41.015625 30.8125 33.5 32.328125 
L 27.484375 33.5 
Q 16.453125 35.6875 11.515625 40.375 
Q 6.59375 45.0625 6.59375 53.421875 
Q 6.59375 63.09375 13.40625 68.65625 
Q 20.21875 74.21875 32.171875 74.21875 
Q 37.3125 74.21875 42.625 73.28125 
Q 47.953125 72.359375 53.515625 70.515625 
z
" id="DejaVuSans-83"/>
     <path d="M 44.390625 34.1875 
Q 47.5625 33.109375 50.5625 29.59375 
Q 53.5625 26.078125 56.59375 19.921875 
L 66.609375 0 
L 56 0 
L 46.6875 18.703125 
Q 43.0625 26.03125 39.671875 28.421875 
Q 36.28125 30.8125 30.421875 30.8125 
L 19.671875 30.8125 
L 19.671875 0 
L 9.8125 0 
L 9.8125 72.90625 
L 32.078125 72.90625 
Q 44.578125 72.90625 50.734375 67.671875 
Q 56.890625 62.453125 56.890625 51.90625 
Q 56.890625 45.015625 53.6875 40.46875 
Q 50.484375 35.9375 44.390625 34.1875 
z
M 19.671875 64.796875 
L 19.671875 38.921875 
L 32.078125 38.921875 
Q 39.203125 38.921875 42.84375 42.21875 
Q 46.484375 45.515625 46.484375 51.90625 
Q 46.484375 58.296875 42.84375 61.546875 
Q 39.203125 64.796875 32.078125 64.796875 
z
" id="DejaVuSans-82"/>
     <path d="M 4.203125 54.6875 
L 13.1875 54.6875 
L 24.421875 12.015625 
L 35.59375 54.6875 
L 46.1875 54.6875 
L 57.421875 12.015625 
L 68.609375 54.6875 
L 77.59375 54.6875 
L 63.28125 0 
L 52.6875 0 
L 40.921875 44.828125 
L 29.109375 0 
L 18.5 0 
z
" id="DejaVuSans-119"/>
     <path d="M 9.8125 72.90625 
L 19.671875 72.90625 
L 19.671875 8.296875 
L 55.171875 8.296875 
L 55.171875 0 
L 9.8125 0 
z
" id="DejaVuSans-76"/>
    </defs>
    <g transform="translate(580.568125 20.88)scale(0.12 -0.12)">
     <use xlink:href="#DejaVuSans-67"/>
     <use x="69.824219" xlink:href="#DejaVuSans-111"/>
     <use x="131.005859" xlink:href="#DejaVuSans-114"/>
     <use x="172.103516" xlink:href="#DejaVuSans-114"/>
     <use x="213.185547" xlink:href="#DejaVuSans-101"/>
     <use x="274.708984" xlink:href="#DejaVuSans-99"/>
     <use x="329.689453" xlink:href="#DejaVuSans-116"/>
     <use x="368.898438" xlink:href="#DejaVuSans-101"/>
     <use x="430.421875" xlink:href="#DejaVuSans-100"/>
     <use x="493.898438" xlink:href="#DejaVuSans-32"/>
     <use x="525.685547" xlink:href="#DejaVuSans-66"/>
     <use x="594.289062" xlink:href="#DejaVuSans-72"/>
     <use x="669.484375" xlink:href="#DejaVuSans-78"/>
     <use x="744.289062" xlink:href="#DejaVuSans-32"/>
     <use x="776.076172" xlink:href="#DejaVuSans-100"/>
     <use x="839.552734" xlink:href="#DejaVuSans-97"/>
     <use x="900.832031" xlink:href="#DejaVuSans-116"/>
     <use x="940.041016" xlink:href="#DejaVuSans-97"/>
     <use x="1001.320312" xlink:href="#DejaVuSans-32"/>
     <use x="1033.107422" xlink:href="#DejaVuSans-86"/>
     <use x="1101.515625" xlink:href="#DejaVuSans-83"/>
     <use x="1164.992188" xlink:href="#DejaVuSans-32"/>
     <use x="1196.779297" xlink:href="#DejaVuSans-82"/>
     <use x="1266.230469" xlink:href="#DejaVuSans-97"/>
     <use x="1327.509766" xlink:href="#DejaVuSans-119"/>
     <use x="1409.296875" xlink:href="#DejaVuSans-32"/>
     <use x="1441.083984" xlink:href="#DejaVuSans-66"/>
     <use x="1509.6875" xlink:href="#DejaVuSans-76"/>
     <use x="1565.400391" xlink:href="#DejaVuSans-78"/>
     <use x="1640.205078" xlink:href="#DejaVuSans-32"/>
     <use x="1671.992188" xlink:href="#DejaVuSans-100"/>
     <use x="1735.46875" xlink:href="#DejaVuSans-97"/>
     <use x="1796.748047" xlink:href="#DejaVuSans-116"/>
     <use x="1835.957031" xlink:href="#DejaVuSans-97"/>
    </g>
   </g>
   <g id="legend_1">
    <g id="patch_7">
     <path d="M 72.45 64.514375 
L 155 64.514375 
Q 157 64.514375 157 62.514375 
L 157 33.88 
Q 157 31.88 155 31.88 
L 72.45 31.88 
Q 70.45 31.88 70.45 33.88 
L 70.45 62.514375 
Q 70.45 64.514375 72.45 64.514375 
z
" style="fill:#ffffff;opacity:0.8;stroke:#cccccc;stroke-linejoin:miter;"/>
    </g>
    <g id="line2d_31">
     <path d="M 74.45 39.978437 
L 94.45 39.978437 
" style="fill:none;stroke:#1f77b4;stroke-linecap:square;stroke-width:1.5;"/>
    </g>
    <g id="line2d_32"/>
    <g id="text_17">
     <!-- NEW_BHN -->
     <defs>
      <path d="M 9.8125 72.90625 
L 55.90625 72.90625 
L 55.90625 64.59375 
L 19.671875 64.59375 
L 19.671875 43.015625 
L 54.390625 43.015625 
L 54.390625 34.71875 
L 19.671875 34.71875 
L 19.671875 8.296875 
L 56.78125 8.296875 
L 56.78125 0 
L 9.8125 0 
z
" id="DejaVuSans-69"/>
      <path d="M 3.328125 72.90625 
L 13.28125 72.90625 
L 28.609375 11.28125 
L 43.890625 72.90625 
L 54.984375 72.90625 
L 70.3125 11.28125 
L 85.59375 72.90625 
L 95.609375 72.90625 
L 77.296875 0 
L 64.890625 0 
L 49.515625 63.28125 
L 33.984375 0 
L 21.578125 0 
z
" id="DejaVuSans-87"/>
      <path d="M 50.984375 -16.609375 
L 50.984375 -23.578125 
L -0.984375 -23.578125 
L -0.984375 -16.609375 
z
" id="DejaVuSans-95"/>
     </defs>
     <g transform="translate(102.45 43.478437)scale(0.1 -0.1)">
      <use xlink:href="#DejaVuSans-78"/>
      <use x="74.804688" xlink:href="#DejaVuSans-69"/>
      <use x="137.988281" xlink:href="#DejaVuSans-87"/>
      <use x="236.865234" xlink:href="#DejaVuSans-95"/>
      <use x="286.865234" xlink:href="#DejaVuSans-66"/>
      <use x="355.46875" xlink:href="#DejaVuSans-72"/>
      <use x="430.664062" xlink:href="#DejaVuSans-78"/>
     </g>
    </g>
    <g id="line2d_33">
     <path d="M 74.45 54.934687 
L 94.45 54.934687 
" style="fill:none;stroke:#ff7f0e;stroke-linecap:square;stroke-width:1.5;"/>
    </g>
    <g id="line2d_34"/>
    <g id="text_18">
     <!-- BLN -->
     <g transform="translate(102.45 58.434687)scale(0.1 -0.1)">
      <use xlink:href="#DejaVuSans-66"/>
      <use x="68.603516" xlink:href="#DejaVuSans-76"/>
      <use x="124.316406" xlink:href="#DejaVuSans-78"/>
     </g>
    </g>
   </g>
  </g>
 </g>
 <defs>
  <clipPath id="pdd57b3e12a">
   <rect height="632.84" width="1257.91" x="65.45" y="26.88"/>
  </clipPath>
 </defs>
</svg>
