<?xml version="1.0" encoding="utf-8" standalone="no"?>
<!DOCTYPE svg PUBLIC "-//W3C//DTD SVG 1.1//EN"
  "http://www.w3.org/Graphics/SVG/1.1/DTD/svg11.dtd">
<!-- Created with matplotlib (https://matplotlib.org/) -->
<svg height="687.6pt" version="1.1" viewBox="0 0 1334.16 687.6" width="1334.16pt" xmlns="http://www.w3.org/2000/svg" xmlns:xlink="http://www.w3.org/1999/xlink">
 <defs>
  <style type="text/css">
*{stroke-linecap:butt;stroke-linejoin:round;}
  </style>
 </defs>
 <g id="figure_1">
  <g id="patch_1">
   <path d="M 0 687.6 
L 1334.16 687.6 
L 1334.16 0 
L 0 0 
z
" style="fill:#ffffff;"/>
  </g>
  <g id="axes_1">
   <g id="patch_2">
    <path d="M 65.54 659.72 
L 1323.36 659.72 
L 1323.36 26.88 
L 65.54 26.88 
z
" style="fill:#ffffff;"/>
   </g>
   <g id="matplotlib.axis_1">
    <g id="xtick_1">
     <g id="line2d_1">
      <path clip-path="url(#pf796ce1d38)" d="M 122.713636 659.72 
L 122.713636 26.88 
" style="fill:none;stroke:#b0b0b0;stroke-linecap:square;stroke-width:0.8;"/>
     </g>
     <g id="line2d_2">
      <defs>
       <path d="M 0 0 
L 0 3.5 
" id="mf47487e1a2" style="stroke:#000000;stroke-width:0.8;"/>
      </defs>
      <g>
       <use style="stroke:#000000;stroke-width:0.8;" x="122.713636" xlink:href="#mf47487e1a2" y="659.72"/>
      </g>
     </g>
     <g id="text_1">
      <!-- 0 -->
      <defs>
       <path d="M 31.78125 66.40625 
Q 24.171875 66.40625 20.328125 58.90625 
Q 16.5 51.421875 16.5 36.375 
Q 16.5 21.390625 20.328125 13.890625 
Q 24.171875 6.390625 31.78125 6.390625 
Q 39.453125 6.390625 43.28125 13.890625 
Q 47.125 21.390625 47.125 36.375 
Q 47.125 51.421875 43.28125 58.90625 
Q 39.453125 66.40625 31.78125 66.40625 
z
M 31.78125 74.21875 
Q 44.046875 74.21875 50.515625 64.515625 
Q 56.984375 54.828125 56.984375 36.375 
Q 56.984375 17.96875 50.515625 8.265625 
Q 44.046875 -1.421875 31.78125 -1.421875 
Q 19.53125 -1.421875 13.0625 8.265625 
Q 6.59375 17.96875 6.59375 36.375 
Q 6.59375 54.828125 13.0625 64.515625 
Q 19.53125 74.21875 31.78125 74.21875 
z
" id="DejaVuSans-48"/>
      </defs>
      <g transform="translate(119.532386 674.318438)scale(0.1 -0.1)">
       <use xlink:href="#DejaVuSans-48"/>
      </g>
     </g>
    </g>
    <g id="xtick_2">
     <g id="line2d_3">
      <path clip-path="url(#pf796ce1d38)" d="M 351.637105 659.72 
L 351.637105 26.88 
" style="fill:none;stroke:#b0b0b0;stroke-linecap:square;stroke-width:0.8;"/>
     </g>
     <g id="line2d_4">
      <g>
       <use style="stroke:#000000;stroke-width:0.8;" x="351.637105" xlink:href="#mf47487e1a2" y="659.72"/>
      </g>
     </g>
     <g id="text_2">
      <!-- 200 -->
      <defs>
       <path d="M 19.1875 8.296875 
L 53.609375 8.296875 
L 53.609375 0 
L 7.328125 0 
L 7.328125 8.296875 
Q 12.9375 14.109375 22.625 23.890625 
Q 32.328125 33.6875 34.8125 36.53125 
Q 39.546875 41.84375 41.421875 45.53125 
Q 43.3125 49.21875 43.3125 52.78125 
Q 43.3125 58.59375 39.234375 62.25 
Q 35.15625 65.921875 28.609375 65.921875 
Q 23.96875 65.921875 18.8125 64.3125 
Q 13.671875 62.703125 7.8125 59.421875 
L 7.8125 69.390625 
Q 13.765625 71.78125 18.9375 73 
Q 24.125 74.21875 28.421875 74.21875 
Q 39.75 74.21875 46.484375 68.546875 
Q 53.21875 62.890625 53.21875 53.421875 
Q 53.21875 48.921875 51.53125 44.890625 
Q 49.859375 40.875 45.40625 35.40625 
Q 44.1875 33.984375 37.640625 27.21875 
Q 31.109375 20.453125 19.1875 8.296875 
z
" id="DejaVuSans-50"/>
      </defs>
      <g transform="translate(342.093355 674.318438)scale(0.1 -0.1)">
       <use xlink:href="#DejaVuSans-50"/>
       <use x="63.623047" xlink:href="#DejaVuSans-48"/>
       <use x="127.246094" xlink:href="#DejaVuSans-48"/>
      </g>
     </g>
    </g>
    <g id="xtick_3">
     <g id="line2d_5">
      <path clip-path="url(#pf796ce1d38)" d="M 580.560574 659.72 
L 580.560574 26.88 
" style="fill:none;stroke:#b0b0b0;stroke-linecap:square;stroke-width:0.8;"/>
     </g>
     <g id="line2d_6">
      <g>
       <use style="stroke:#000000;stroke-width:0.8;" x="580.560574" xlink:href="#mf47487e1a2" y="659.72"/>
      </g>
     </g>
     <g id="text_3">
      <!-- 400 -->
      <defs>
       <path d="M 37.796875 64.3125 
L 12.890625 25.390625 
L 37.796875 25.390625 
z
M 35.203125 72.90625 
L 47.609375 72.90625 
L 47.609375 25.390625 
L 58.015625 25.390625 
L 58.015625 17.1875 
L 47.609375 17.1875 
L 47.609375 0 
L 37.796875 0 
L 37.796875 17.1875 
L 4.890625 17.1875 
L 4.890625 26.703125 
z
" id="DejaVuSans-52"/>
      </defs>
      <g transform="translate(571.016824 674.318438)scale(0.1 -0.1)">
       <use xlink:href="#DejaVuSans-52"/>
       <use x="63.623047" xlink:href="#DejaVuSans-48"/>
       <use x="127.246094" xlink:href="#DejaVuSans-48"/>
      </g>
     </g>
    </g>
    <g id="xtick_4">
     <g id="line2d_7">
      <path clip-path="url(#pf796ce1d38)" d="M 809.484043 659.72 
L 809.484043 26.88 
" style="fill:none;stroke:#b0b0b0;stroke-linecap:square;stroke-width:0.8;"/>
     </g>
     <g id="line2d_8">
      <g>
       <use style="stroke:#000000;stroke-width:0.8;" x="809.484043" xlink:href="#mf47487e1a2" y="659.72"/>
      </g>
     </g>
     <g id="text_4">
      <!-- 600 -->
      <defs>
       <path d="M 33.015625 40.375 
Q 26.375 40.375 22.484375 35.828125 
Q 18.609375 31.296875 18.609375 23.390625 
Q 18.609375 15.53125 22.484375 10.953125 
Q 26.375 6.390625 33.015625 6.390625 
Q 39.65625 6.390625 43.53125 10.953125 
Q 47.40625 15.53125 47.40625 23.390625 
Q 47.40625 31.296875 43.53125 35.828125 
Q 39.65625 40.375 33.015625 40.375 
z
M 52.59375 71.296875 
L 52.59375 62.3125 
Q 48.875 64.0625 45.09375 64.984375 
Q 41.3125 65.921875 37.59375 65.921875 
Q 27.828125 65.921875 22.671875 59.328125 
Q 17.53125 52.734375 16.796875 39.40625 
Q 19.671875 43.65625 24.015625 45.921875 
Q 28.375 48.1875 33.59375 48.1875 
Q 44.578125 48.1875 50.953125 41.515625 
Q 57.328125 34.859375 57.328125 23.390625 
Q 57.328125 12.15625 50.6875 5.359375 
Q 44.046875 -1.421875 33.015625 -1.421875 
Q 20.359375 -1.421875 13.671875 8.265625 
Q 6.984375 17.96875 6.984375 36.375 
Q 6.984375 53.65625 15.1875 63.9375 
Q 23.390625 74.21875 37.203125 74.21875 
Q 40.921875 74.21875 44.703125 73.484375 
Q 48.484375 72.75 52.59375 71.296875 
z
" id="DejaVuSans-54"/>
      </defs>
      <g transform="translate(799.940293 674.318438)scale(0.1 -0.1)">
       <use xlink:href="#DejaVuSans-54"/>
       <use x="63.623047" xlink:href="#DejaVuSans-48"/>
       <use x="127.246094" xlink:href="#DejaVuSans-48"/>
      </g>
     </g>
    </g>
    <g id="xtick_5">
     <g id="line2d_9">
      <path clip-path="url(#pf796ce1d38)" d="M 1038.407512 659.72 
L 1038.407512 26.88 
" style="fill:none;stroke:#b0b0b0;stroke-linecap:square;stroke-width:0.8;"/>
     </g>
     <g id="line2d_10">
      <g>
       <use style="stroke:#000000;stroke-width:0.8;" x="1038.407512" xlink:href="#mf47487e1a2" y="659.72"/>
      </g>
     </g>
     <g id="text_5">
      <!-- 800 -->
      <defs>
       <path d="M 31.78125 34.625 
Q 24.75 34.625 20.71875 30.859375 
Q 16.703125 27.09375 16.703125 20.515625 
Q 16.703125 13.921875 20.71875 10.15625 
Q 24.75 6.390625 31.78125 6.390625 
Q 38.8125 6.390625 42.859375 10.171875 
Q 46.921875 13.96875 46.921875 20.515625 
Q 46.921875 27.09375 42.890625 30.859375 
Q 38.875 34.625 31.78125 34.625 
z
M 21.921875 38.8125 
Q 15.578125 40.375 12.03125 44.71875 
Q 8.5 49.078125 8.5 55.328125 
Q 8.5 64.0625 14.71875 69.140625 
Q 20.953125 74.21875 31.78125 74.21875 
Q 42.671875 74.21875 48.875 69.140625 
Q 55.078125 64.0625 55.078125 55.328125 
Q 55.078125 49.078125 51.53125 44.71875 
Q 48 40.375 41.703125 38.8125 
Q 48.828125 37.15625 52.796875 32.3125 
Q 56.78125 27.484375 56.78125 20.515625 
Q 56.78125 9.90625 50.3125 4.234375 
Q 43.84375 -1.421875 31.78125 -1.421875 
Q 19.734375 -1.421875 13.25 4.234375 
Q 6.78125 9.90625 6.78125 20.515625 
Q 6.78125 27.484375 10.78125 32.3125 
Q 14.796875 37.15625 21.921875 38.8125 
z
M 18.3125 54.390625 
Q 18.3125 48.734375 21.84375 45.5625 
Q 25.390625 42.390625 31.78125 42.390625 
Q 38.140625 42.390625 41.71875 45.5625 
Q 45.3125 48.734375 45.3125 54.390625 
Q 45.3125 60.0625 41.71875 63.234375 
Q 38.140625 66.40625 31.78125 66.40625 
Q 25.390625 66.40625 21.84375 63.234375 
Q 18.3125 60.0625 18.3125 54.390625 
z
" id="DejaVuSans-56"/>
      </defs>
      <g transform="translate(1028.863762 674.318438)scale(0.1 -0.1)">
       <use xlink:href="#DejaVuSans-56"/>
       <use x="63.623047" xlink:href="#DejaVuSans-48"/>
       <use x="127.246094" xlink:href="#DejaVuSans-48"/>
      </g>
     </g>
    </g>
    <g id="xtick_6">
     <g id="line2d_11">
      <path clip-path="url(#pf796ce1d38)" d="M 1267.330981 659.72 
L 1267.330981 26.88 
" style="fill:none;stroke:#b0b0b0;stroke-linecap:square;stroke-width:0.8;"/>
     </g>
     <g id="line2d_12">
      <g>
       <use style="stroke:#000000;stroke-width:0.8;" x="1267.330981" xlink:href="#mf47487e1a2" y="659.72"/>
      </g>
     </g>
     <g id="text_6">
      <!-- 1000 -->
      <defs>
       <path d="M 12.40625 8.296875 
L 28.515625 8.296875 
L 28.515625 63.921875 
L 10.984375 60.40625 
L 10.984375 69.390625 
L 28.421875 72.90625 
L 38.28125 72.90625 
L 38.28125 8.296875 
L 54.390625 8.296875 
L 54.390625 0 
L 12.40625 0 
z
" id="DejaVuSans-49"/>
      </defs>
      <g transform="translate(1254.605981 674.318438)scale(0.1 -0.1)">
       <use xlink:href="#DejaVuSans-49"/>
       <use x="63.623047" xlink:href="#DejaVuSans-48"/>
       <use x="127.246094" xlink:href="#DejaVuSans-48"/>
       <use x="190.869141" xlink:href="#DejaVuSans-48"/>
      </g>
     </g>
    </g>
   </g>
   <g id="matplotlib.axis_2">
    <g id="ytick_1">
     <g id="line2d_13">
      <path clip-path="url(#pf796ce1d38)" d="M 65.54 570.736946 
L 1323.36 570.736946 
" style="fill:none;stroke:#b0b0b0;stroke-linecap:square;stroke-width:0.8;"/>
     </g>
     <g id="line2d_14">
      <defs>
       <path d="M 0 0 
L -3.5 0 
" id="m6c9817d370" style="stroke:#000000;stroke-width:0.8;"/>
      </defs>
      <g>
       <use style="stroke:#000000;stroke-width:0.8;" x="65.54" xlink:href="#m6c9817d370" y="570.736946"/>
      </g>
     </g>
     <g id="text_7">
      <!-- −1000 -->
      <defs>
       <path d="M 10.59375 35.5 
L 73.1875 35.5 
L 73.1875 27.203125 
L 10.59375 27.203125 
z
" id="DejaVuSans-8722"/>
      </defs>
      <g transform="translate(24.710312 574.536164)scale(0.1 -0.1)">
       <use xlink:href="#DejaVuSans-8722"/>
       <use x="83.789062" xlink:href="#DejaVuSans-49"/>
       <use x="147.412109" xlink:href="#DejaVuSans-48"/>
       <use x="211.035156" xlink:href="#DejaVuSans-48"/>
       <use x="274.658203" xlink:href="#DejaVuSans-48"/>
      </g>
     </g>
    </g>
    <g id="ytick_2">
     <g id="line2d_15">
      <path clip-path="url(#pf796ce1d38)" d="M 65.54 438.849529 
L 1323.36 438.849529 
" style="fill:none;stroke:#b0b0b0;stroke-linecap:square;stroke-width:0.8;"/>
     </g>
     <g id="line2d_16">
      <g>
       <use style="stroke:#000000;stroke-width:0.8;" x="65.54" xlink:href="#m6c9817d370" y="438.849529"/>
      </g>
     </g>
     <g id="text_8">
      <!-- −500 -->
      <defs>
       <path d="M 10.796875 72.90625 
L 49.515625 72.90625 
L 49.515625 64.59375 
L 19.828125 64.59375 
L 19.828125 46.734375 
Q 21.96875 47.46875 24.109375 47.828125 
Q 26.265625 48.1875 28.421875 48.1875 
Q 40.625 48.1875 47.75 41.5 
Q 54.890625 34.8125 54.890625 23.390625 
Q 54.890625 11.625 47.5625 5.09375 
Q 40.234375 -1.421875 26.90625 -1.421875 
Q 22.3125 -1.421875 17.546875 -0.640625 
Q 12.796875 0.140625 7.71875 1.703125 
L 7.71875 11.625 
Q 12.109375 9.234375 16.796875 8.0625 
Q 21.484375 6.890625 26.703125 6.890625 
Q 35.15625 6.890625 40.078125 11.328125 
Q 45.015625 15.765625 45.015625 23.390625 
Q 45.015625 31 40.078125 35.4375 
Q 35.15625 39.890625 26.703125 39.890625 
Q 22.75 39.890625 18.8125 39.015625 
Q 14.890625 38.140625 10.796875 36.28125 
z
" id="DejaVuSans-53"/>
      </defs>
      <g transform="translate(31.072812 442.648747)scale(0.1 -0.1)">
       <use xlink:href="#DejaVuSans-8722"/>
       <use x="83.789062" xlink:href="#DejaVuSans-53"/>
       <use x="147.412109" xlink:href="#DejaVuSans-48"/>
       <use x="211.035156" xlink:href="#DejaVuSans-48"/>
      </g>
     </g>
    </g>
    <g id="ytick_3">
     <g id="line2d_17">
      <path clip-path="url(#pf796ce1d38)" d="M 65.54 306.962112 
L 1323.36 306.962112 
" style="fill:none;stroke:#b0b0b0;stroke-linecap:square;stroke-width:0.8;"/>
     </g>
     <g id="line2d_18">
      <g>
       <use style="stroke:#000000;stroke-width:0.8;" x="65.54" xlink:href="#m6c9817d370" y="306.962112"/>
      </g>
     </g>
     <g id="text_9">
      <!-- 0 -->
      <g transform="translate(52.1775 310.761331)scale(0.1 -0.1)">
       <use xlink:href="#DejaVuSans-48"/>
      </g>
     </g>
    </g>
    <g id="ytick_4">
     <g id="line2d_19">
      <path clip-path="url(#pf796ce1d38)" d="M 65.54 175.074695 
L 1323.36 175.074695 
" style="fill:none;stroke:#b0b0b0;stroke-linecap:square;stroke-width:0.8;"/>
     </g>
     <g id="line2d_20">
      <g>
       <use style="stroke:#000000;stroke-width:0.8;" x="65.54" xlink:href="#m6c9817d370" y="175.074695"/>
      </g>
     </g>
     <g id="text_10">
      <!-- 500 -->
      <g transform="translate(39.4525 178.873914)scale(0.1 -0.1)">
       <use xlink:href="#DejaVuSans-53"/>
       <use x="63.623047" xlink:href="#DejaVuSans-48"/>
       <use x="127.246094" xlink:href="#DejaVuSans-48"/>
      </g>
     </g>
    </g>
    <g id="ytick_5">
     <g id="line2d_21">
      <path clip-path="url(#pf796ce1d38)" d="M 65.54 43.187278 
L 1323.36 43.187278 
" style="fill:none;stroke:#b0b0b0;stroke-linecap:square;stroke-width:0.8;"/>
     </g>
     <g id="line2d_22">
      <g>
       <use style="stroke:#000000;stroke-width:0.8;" x="65.54" xlink:href="#m6c9817d370" y="43.187278"/>
      </g>
     </g>
     <g id="text_11">
      <!-- 1000 -->
      <g transform="translate(33.09 46.986497)scale(0.1 -0.1)">
       <use xlink:href="#DejaVuSans-49"/>
       <use x="63.623047" xlink:href="#DejaVuSans-48"/>
       <use x="127.246094" xlink:href="#DejaVuSans-48"/>
       <use x="190.869141" xlink:href="#DejaVuSans-48"/>
      </g>
     </g>
    </g>
    <g id="text_12">
     <!-- count -->
     <defs>
      <path d="M 48.78125 52.59375 
L 48.78125 44.1875 
Q 44.96875 46.296875 41.140625 47.34375 
Q 37.3125 48.390625 33.40625 48.390625 
Q 24.65625 48.390625 19.8125 42.84375 
Q 14.984375 37.3125 14.984375 27.296875 
Q 14.984375 17.28125 19.8125 11.734375 
Q 24.65625 6.203125 33.40625 6.203125 
Q 37.3125 6.203125 41.140625 7.25 
Q 44.96875 8.296875 48.78125 10.40625 
L 48.78125 2.09375 
Q 45.015625 0.34375 40.984375 -0.53125 
Q 36.96875 -1.421875 32.421875 -1.421875 
Q 20.0625 -1.421875 12.78125 6.34375 
Q 5.515625 14.109375 5.515625 27.296875 
Q 5.515625 40.671875 12.859375 48.328125 
Q 20.21875 56 33.015625 56 
Q 37.15625 56 41.109375 55.140625 
Q 45.0625 54.296875 48.78125 52.59375 
z
" id="DejaVuSans-99"/>
      <path d="M 30.609375 48.390625 
Q 23.390625 48.390625 19.1875 42.75 
Q 14.984375 37.109375 14.984375 27.296875 
Q 14.984375 17.484375 19.15625 11.84375 
Q 23.34375 6.203125 30.609375 6.203125 
Q 37.796875 6.203125 41.984375 11.859375 
Q 46.1875 17.53125 46.1875 27.296875 
Q 46.1875 37.015625 41.984375 42.703125 
Q 37.796875 48.390625 30.609375 48.390625 
z
M 30.609375 56 
Q 42.328125 56 49.015625 48.375 
Q 55.71875 40.765625 55.71875 27.296875 
Q 55.71875 13.875 49.015625 6.21875 
Q 42.328125 -1.421875 30.609375 -1.421875 
Q 18.84375 -1.421875 12.171875 6.21875 
Q 5.515625 13.875 5.515625 27.296875 
Q 5.515625 40.765625 12.171875 48.375 
Q 18.84375 56 30.609375 56 
z
" id="DejaVuSans-111"/>
      <path d="M 8.5 21.578125 
L 8.5 54.6875 
L 17.484375 54.6875 
L 17.484375 21.921875 
Q 17.484375 14.15625 20.5 10.265625 
Q 23.53125 6.390625 29.59375 6.390625 
Q 36.859375 6.390625 41.078125 11.03125 
Q 45.3125 15.671875 45.3125 23.6875 
L 45.3125 54.6875 
L 54.296875 54.6875 
L 54.296875 0 
L 45.3125 0 
L 45.3125 8.40625 
Q 42.046875 3.421875 37.71875 1 
Q 33.40625 -1.421875 27.6875 -1.421875 
Q 18.265625 -1.421875 13.375 4.4375 
Q 8.5 10.296875 8.5 21.578125 
z
M 31.109375 56 
z
" id="DejaVuSans-117"/>
      <path d="M 54.890625 33.015625 
L 54.890625 0 
L 45.90625 0 
L 45.90625 32.71875 
Q 45.90625 40.484375 42.875 44.328125 
Q 39.84375 48.1875 33.796875 48.1875 
Q 26.515625 48.1875 22.3125 43.546875 
Q 18.109375 38.921875 18.109375 30.90625 
L 18.109375 0 
L 9.078125 0 
L 9.078125 54.6875 
L 18.109375 54.6875 
L 18.109375 46.1875 
Q 21.34375 51.125 25.703125 53.5625 
Q 30.078125 56 35.796875 56 
Q 45.21875 56 50.046875 50.171875 
Q 54.890625 44.34375 54.890625 33.015625 
z
" id="DejaVuSans-110"/>
      <path d="M 18.3125 70.21875 
L 18.3125 54.6875 
L 36.8125 54.6875 
L 36.8125 47.703125 
L 18.3125 47.703125 
L 18.3125 18.015625 
Q 18.3125 11.328125 20.140625 9.421875 
Q 21.96875 7.515625 27.59375 7.515625 
L 36.8125 7.515625 
L 36.8125 0 
L 27.59375 0 
Q 17.1875 0 13.234375 3.875 
Q 9.28125 7.765625 9.28125 18.015625 
L 9.28125 47.703125 
L 2.6875 47.703125 
L 2.6875 54.6875 
L 9.28125 54.6875 
L 9.28125 70.21875 
z
" id="DejaVuSans-116"/>
     </defs>
     <g transform="translate(18.630625 357.40625)rotate(-90)scale(0.1 -0.1)">
      <use xlink:href="#DejaVuSans-99"/>
      <use x="54.980469" xlink:href="#DejaVuSans-111"/>
      <use x="116.162109" xlink:href="#DejaVuSans-117"/>
      <use x="179.541016" xlink:href="#DejaVuSans-110"/>
      <use x="242.919922" xlink:href="#DejaVuSans-116"/>
     </g>
    </g>
   </g>
   <g id="line2d_23">
    <path clip-path="url(#pf796ce1d38)" d="M 122.713636 223.178766 
L 123.858254 198.203199 
L 125.002871 204.942557 
L 126.147488 191.685408 
L 127.292106 191.169305 
L 128.436723 181.850647 
L 129.58134 168.871853 
L 130.725958 170.786483 
L 131.870575 160.563049 
L 133.015192 155.659135 
L 134.15981 147.705346 
L 135.304427 138.921199 
L 136.449044 145.680254 
L 137.593662 158.502241 
L 138.738279 147.049088 
L 139.882897 141.712548 
L 141.027514 133.338183 
L 142.172131 135.678668 
L 143.316749 140.963465 
L 144.461366 116.066166 
L 145.605983 143.025744 
L 146.750601 135.864059 
L 147.895218 118.664639 
L 149.039835 128.845817 
L 150.184453 114.361901 
L 151.32907 112.937677 
L 152.473687 104.936724 
L 153.618305 92.964595 
L 154.762922 83.328996 
L 155.907539 82.261372 
L 157.052157 87.692551 
L 158.196774 110.269391 
L 159.341391 115.127431 
L 160.486009 127.341903 
L 161.630626 119.341017 
L 162.775243 98.61892 
L 163.919861 122.026862 
L 165.064478 104.220269 
L 166.209095 106.516985 
L 167.353713 122.148633 
L 169.642947 137.109181 
L 170.787565 120.751547 
L 171.932182 144.523414 
L 173.0768 153.091172 
L 174.221417 143.229032 
L 175.366034 141.128993 
L 176.510652 136.815432 
L 177.655269 148.733876 
L 178.799886 144.657551 
L 179.944504 140.006309 
L 181.089121 136.105548 
L 182.233738 140.190512 
L 183.378356 152.676366 
L 184.522973 141.383175 
L 185.66759 156.197164 
L 186.812208 174.20495 
L 187.956825 151.497767 
L 189.101442 171.440057 
L 190.24606 169.363367 
L 191.390677 141.018363 
L 192.535294 179.293733 
L 193.679912 181.085974 
L 194.824529 196.166005 
L 195.969146 201.79159 
L 197.113764 177.83029 
L 198.258381 186.801243 
L 199.402998 174.655309 
L 200.547616 186.73178 
L 201.692233 164.075343 
L 202.83685 156.585273 
L 203.981468 183.408635 
L 205.126085 185.136388 
L 206.270703 199.180718 
L 207.41532 179.172964 
L 208.559937 187.058021 
L 209.704555 212.207235 
L 210.849172 193.872671 
L 211.993789 191.604256 
L 213.138407 195.390169 
L 214.283024 195.991655 
L 215.427641 207.114979 
L 216.572259 212.596736 
L 218.861493 200.899001 
L 220.006111 221.443615 
L 221.150728 223.621222 
L 222.295345 220.288101 
L 223.439963 236.419782 
L 224.58458 226.321316 
L 225.729197 224.375539 
L 226.873815 228.113126 
L 228.018432 226.773421 
L 229.163049 255.830425 
L 230.307667 264.938562 
L 231.452284 240.598769 
L 232.596901 233.792302 
L 233.741519 225.49228 
L 234.886136 231.551747 
L 236.030753 263.306989 
L 237.175371 273.966944 
L 238.319988 279.353287 
L 240.609223 291.808788 
L 241.75384 305.729917 
L 242.898458 296.261289 
L 244.043075 295.946489 
L 245.187692 314.335159 
L 246.33231 295.174568 
L 247.476927 311.831242 
L 248.621544 333.708651 
L 249.766162 313.145393 
L 250.910779 336.301724 
L 252.055396 338.477382 
L 253.200014 336.084909 
L 254.344631 353.139862 
L 255.489248 340.274586 
L 256.633866 336.010143 
L 257.778483 354.71272 
L 258.9231 356.591101 
L 260.067718 353.83722 
L 261.212335 379.937056 
L 262.356952 371.892649 
L 263.50157 364.897621 
L 264.646187 390.396979 
L 265.790804 383.770412 
L 266.935422 379.832088 
L 268.080039 393.8912 
L 269.224656 380.042946 
L 270.369274 400.323865 
L 271.513891 408.063714 
L 272.658509 380.586697 
L 273.803126 403.9428 
L 274.947743 396.683366 
L 276.092361 393.432942 
L 277.236978 406.618656 
L 278.381595 396.55076 
L 279.526213 400.859394 
L 280.67083 401.164839 
L 281.815447 397.100864 
L 282.960065 381.085305 
L 284.104682 397.366979 
L 285.249299 410.104518 
L 286.393917 391.917417 
L 287.538534 390.30929 
L 288.683151 394.093502 
L 289.827769 399.406596 
L 290.972386 401.878161 
L 292.117003 403.145484 
L 293.261621 387.347486 
L 294.406238 400.868916 
L 295.550855 416.635515 
L 296.695473 396.961347 
L 297.84009 405.941673 
L 298.984707 410.9802 
L 300.129325 400.439339 
L 301.273942 401.878638 
L 302.418559 405.831253 
L 303.563177 396.712183 
L 304.707794 397.798028 
L 305.852412 401.410412 
L 306.997029 384.658706 
L 308.141646 394.068019 
L 309.286264 394.800253 
L 310.430881 394.180468 
L 311.575498 411.366704 
L 312.720116 401.136638 
L 313.864733 396.654211 
L 315.00935 402.711255 
L 316.153968 403.828716 
L 317.298585 413.723305 
L 318.443202 427.845167 
L 319.58782 414.229113 
L 320.732437 398.65725 
L 321.877054 388.952967 
L 324.166289 431.739858 
L 325.310906 407.789332 
L 326.455524 423.235983 
L 327.600141 424.274546 
L 328.744758 415.610712 
L 329.889376 425.125132 
L 331.033993 433.41631 
L 332.17861 421.957779 
L 333.323228 404.480764 
L 334.467845 417.543114 
L 335.612462 390.721425 
L 336.75708 409.849767 
L 337.901697 442.316088 
L 339.046314 421.320564 
L 340.190932 426.734629 
L 341.335549 426.198196 
L 342.480167 421.451006 
L 343.624784 410.553341 
L 344.769401 400.862225 
L 345.914019 412.235575 
L 347.058636 412.118747 
L 348.203253 403.829168 
L 349.347871 403.857636 
L 350.492488 407.425458 
L 351.637105 415.029061 
L 352.781723 405.648658 
L 353.92634 408.035602 
L 355.070957 403.017533 
L 356.215575 384.549065 
L 357.360192 412.363083 
L 358.504809 395.058033 
L 359.649427 382.675314 
L 360.794044 384.12396 
L 361.938661 350.118861 
L 363.083279 384.752066 
L 364.227896 402.284019 
L 365.372513 383.629531 
L 366.517131 374.97961 
L 367.661748 367.675927 
L 368.806365 365.845556 
L 369.950983 354.504012 
L 371.0956 366.660593 
L 373.384835 334.174861 
L 374.529452 337.886263 
L 375.67407 318.925871 
L 376.818687 305.046561 
L 377.963304 311.656526 
L 379.107922 307.977021 
L 380.252539 291.953723 
L 381.397156 314.186854 
L 382.541774 310.815234 
L 383.686391 302.640825 
L 384.831008 316.1485 
L 385.975626 302.046705 
L 387.120243 298.662325 
L 388.26486 281.488163 
L 389.409478 254.783247 
L 390.554095 245.539453 
L 391.698712 251.705244 
L 392.84333 240.032573 
L 393.987947 221.615686 
L 395.132564 248.531334 
L 397.421799 220.502501 
L 398.566416 238.737544 
L 399.711034 217.821711 
L 402.000268 187.207077 
L 403.144886 182.216236 
L 404.289503 181.10389 
L 405.43412 187.490787 
L 406.578738 184.311526 
L 407.723355 177.949616 
L 408.867973 170.508213 
L 410.01259 150.979075 
L 411.157207 162.606689 
L 412.301825 152.659067 
L 413.446442 155.614174 
L 414.591059 150.500597 
L 415.735677 134.12316 
L 416.880294 142.127359 
L 418.024911 131.416985 
L 419.169529 111.062475 
L 420.314146 99.115059 
L 421.458763 110.033823 
L 422.603381 102.506615 
L 423.747998 90.564695 
L 424.892615 90.278981 
L 426.037233 86.252893 
L 427.18185 92.936399 
L 428.326467 70.774482 
L 429.471085 55.645455 
L 430.615702 81.173021 
L 431.760319 73.303134 
L 432.904937 77.635187 
L 434.049554 86.36766 
L 435.194171 75.099378 
L 436.338789 77.232765 
L 437.483406 74.815654 
L 438.628023 79.110113 
L 439.772641 71.777992 
L 440.917258 67.318219 
L 442.061876 73.48766 
L 443.206493 83.633199 
L 445.495728 68.013985 
L 446.640345 81.163493 
L 447.784962 70.930774 
L 448.92958 70.233095 
L 450.074197 87.403052 
L 451.218814 76.03358 
L 452.363432 75.708917 
L 453.508049 100.058556 
L 454.652666 98.402311 
L 455.797284 100.190713 
L 456.941901 122.071739 
L 458.086518 131.600633 
L 459.231136 134.794346 
L 460.375753 128.351436 
L 461.52037 129.591192 
L 462.664988 146.810888 
L 463.809605 135.824522 
L 464.954222 140.265055 
L 466.09884 159.067069 
L 467.243457 149.35544 
L 468.388074 170.525832 
L 469.532692 179.586017 
L 470.677309 158.887165 
L 471.821926 207.945662 
L 472.966544 211.222565 
L 474.111161 175.830261 
L 475.255779 208.836181 
L 476.400396 205.683348 
L 477.545013 216.301426 
L 478.689631 223.887244 
L 479.834248 211.595944 
L 480.978865 243.265754 
L 482.123483 242.836774 
L 483.2681 246.296016 
L 484.412717 260.457899 
L 485.557335 247.903997 
L 486.701952 267.735456 
L 488.991187 277.353621 
L 490.135804 305.296144 
L 491.280421 297.400923 
L 492.425039 320.064415 
L 493.569656 314.368769 
L 494.714273 311.00475 
L 495.858891 338.500521 
L 497.003508 335.01661 
L 498.148125 350.162271 
L 499.292743 339.995553 
L 500.43736 339.858794 
L 501.581977 350.918286 
L 502.726595 346.786894 
L 503.871212 361.60335 
L 505.015829 361.128297 
L 506.160447 365.220923 
L 507.305064 400.677983 
L 508.449681 412.973879 
L 509.594299 416.140145 
L 510.738916 415.905187 
L 511.883534 399.776135 
L 513.028151 412.693441 
L 514.172768 410.828642 
L 515.317386 404.172938 
L 516.462003 413.261314 
L 517.60662 408.498706 
L 518.751238 413.61547 
L 519.895855 419.626181 
L 521.040472 431.340801 
L 522.18509 437.243149 
L 523.329707 446.491704 
L 524.474324 460.262476 
L 525.618942 451.250095 
L 526.763559 464.41988 
L 527.908176 463.113624 
L 530.197411 467.062849 
L 531.342028 442.771654 
L 532.486646 484.647152 
L 533.631263 503.424493 
L 534.77588 500.225402 
L 535.920498 510.646223 
L 537.065115 502.079486 
L 538.209732 528.246209 
L 539.35435 523.511062 
L 540.498967 517.621426 
L 541.643584 512.858506 
L 542.788202 493.377164 
L 543.932819 502.63916 
L 545.077437 526.129323 
L 546.222054 538.985827 
L 547.366671 514.416498 
L 549.655906 559.320499 
L 550.800523 565.346244 
L 551.945141 596.893562 
L 553.089758 579.096124 
L 554.234375 580.715072 
L 555.378993 599.379584 
L 556.52361 593.190724 
L 557.668227 606.1816 
L 558.812845 606.635233 
L 559.957462 604.121159 
L 561.102079 611.319338 
L 562.246697 604.05626 
L 563.391314 592.082488 
L 564.535931 606.474214 
L 565.680549 630.418347 
L 566.825166 614.341617 
L 567.969783 611.30742 
L 569.114401 616.729297 
L 570.259018 604.889867 
L 571.403635 607.570975 
L 572.548253 612.952494 
L 573.69287 615.94969 
L 574.837487 621.736311 
L 575.982105 619.570342 
L 577.126722 590.797633 
L 578.27134 585.236303 
L 579.415957 615.38441 
L 580.560574 587.705058 
L 581.705192 588.671124 
L 582.849809 611.839988 
L 583.994426 574.939251 
L 585.139044 598.321009 
L 586.283661 594.129656 
L 587.428278 581.247432 
L 588.572896 596.290482 
L 589.717513 564.917071 
L 590.86213 584.116512 
L 592.006748 578.286993 
L 593.151365 561.541108 
L 594.295982 561.094551 
L 595.4406 547.519449 
L 596.585217 550.08881 
L 597.729834 533.271229 
L 598.874452 544.128645 
L 600.019069 518.327432 
L 601.163686 501.634525 
L 602.308304 510.56882 
L 603.452921 487.185894 
L 604.597538 497.690383 
L 605.742156 498.475381 
L 606.886773 518.237343 
L 608.03139 485.182525 
L 609.176008 466.565615 
L 610.320625 492.097371 
L 611.465243 458.357673 
L 612.60986 480.819418 
L 613.754477 468.073044 
L 614.899095 446.119069 
L 616.043712 448.819652 
L 617.188329 427.004127 
L 619.477564 395.4805 
L 620.622181 410.126218 
L 621.766799 396.218707 
L 622.911416 374.340325 
L 624.056033 357.758102 
L 625.200651 367.590006 
L 626.345268 364.655139 
L 627.489885 348.351629 
L 628.634503 356.112626 
L 629.77912 329.14685 
L 630.923737 336.383896 
L 632.068355 328.72035 
L 633.212972 324.183422 
L 634.357589 304.91732 
L 635.502207 264.699688 
L 636.646824 280.96623 
L 637.791441 274.361869 
L 638.936059 281.065442 
L 640.080676 276.542916 
L 641.225293 261.633864 
L 642.369911 257.119032 
L 643.514528 251.553401 
L 644.659146 260.482072 
L 645.803763 229.42418 
L 646.94838 218.078418 
L 648.092998 227.245583 
L 649.237615 210.422391 
L 650.382232 184.859253 
L 651.52685 185.409385 
L 652.671467 196.261734 
L 653.816084 183.701812 
L 654.960702 202.429145 
L 656.105319 188.572663 
L 657.249936 177.671677 
L 658.394554 194.672264 
L 659.539171 150.886968 
L 660.683788 155.954544 
L 661.828406 152.169639 
L 662.973023 154.365557 
L 664.11764 162.182852 
L 665.262258 130.374726 
L 666.406875 154.094693 
L 667.551492 138.911005 
L 668.69611 157.986147 
L 669.840727 165.313168 
L 670.985344 133.26967 
L 672.129962 140.596554 
L 673.274579 130.573508 
L 674.419196 152.873937 
L 675.563814 154.49218 
L 676.708431 154.188571 
L 677.853049 143.963495 
L 678.997666 130.208731 
L 680.142283 142.477345 
L 681.286901 138.429044 
L 682.431518 152.213455 
L 683.576135 160.608569 
L 684.720753 176.148983 
L 685.86537 164.268707 
L 687.009987 165.855529 
L 688.154605 186.331845 
L 689.299222 160.74412 
L 690.443839 170.900863 
L 691.588457 176.264421 
L 692.733074 190.480626 
L 693.877691 194.538893 
L 695.022309 175.77606 
L 696.166926 192.293816 
L 697.311543 197.98001 
L 698.456161 200.407786 
L 699.600778 191.791816 
L 700.745395 199.363445 
L 701.890013 199.309408 
L 703.03463 201.486925 
L 704.179247 209.200909 
L 705.323865 211.152054 
L 706.468482 242.902768 
L 707.613099 241.288845 
L 708.757717 243.102642 
L 709.902334 247.569543 
L 711.046951 254.163796 
L 712.191569 275.752409 
L 713.336186 277.361585 
L 714.480804 283.418549 
L 715.625421 288.22462 
L 716.770038 278.625739 
L 717.914656 275.268528 
L 719.059273 298.724301 
L 720.20389 299.589363 
L 721.348508 302.950091 
L 722.493125 326.880424 
L 723.637742 324.126107 
L 724.78236 341.000073 
L 725.926977 354.469485 
L 728.216212 318.615174 
L 729.360829 341.03602 
L 730.505446 353.33143 
L 731.650064 316.203387 
L 732.794681 345.541841 
L 733.939298 367.623289 
L 735.083916 355.595664 
L 736.228533 354.129752 
L 737.37315 347.622053 
L 738.517768 364.118105 
L 739.662385 359.499042 
L 740.807002 362.01681 
L 741.95162 362.043583 
L 743.096237 353.765033 
L 744.240854 359.78732 
L 745.385472 352.374337 
L 747.674707 334.278765 
L 748.819324 334.609492 
L 749.963941 347.169174 
L 751.108559 353.036063 
L 752.253176 358.120319 
L 753.397793 357.160439 
L 754.542411 347.634591 
L 755.687028 358.466692 
L 756.831645 338.942833 
L 757.976263 317.073022 
L 759.12088 307.234987 
L 760.265497 291.504891 
L 761.410115 302.320555 
L 762.554732 283.222593 
L 763.699349 283.138144 
L 764.843967 281.664929 
L 765.988584 273.580605 
L 767.133201 280.092227 
L 768.277819 261.671556 
L 769.422436 259.757068 
L 770.567053 251.713431 
L 771.711671 239.606253 
L 772.856288 231.080569 
L 774.000905 225.168023 
L 775.145523 227.531379 
L 776.29014 219.104959 
L 777.434757 206.903125 
L 779.723992 208.639195 
L 780.86861 207.398692 
L 782.013227 199.938154 
L 783.157844 186.709157 
L 784.302462 192.812752 
L 785.447079 191.82466 
L 786.591696 178.63605 
L 787.736314 164.060279 
L 788.880931 146.360258 
L 790.025548 154.22891 
L 791.170166 146.419761 
L 792.314783 133.294553 
L 793.4594 154.276162 
L 794.604018 124.732426 
L 795.748635 126.182893 
L 796.893252 152.959393 
L 798.03787 110.877451 
L 799.182487 114.602306 
L 800.327104 124.830748 
L 801.471722 128.040439 
L 802.616339 122.678263 
L 803.760956 96.739493 
L 804.905574 126.920375 
L 806.050191 111.199524 
L 807.194808 114.02956 
L 808.339426 124.189622 
L 809.484043 97.960564 
L 810.62866 133.926978 
L 811.773278 109.475481 
L 812.917895 100.691951 
L 814.062513 121.304623 
L 815.20713 108.204768 
L 816.351747 129.981118 
L 817.496365 120.188677 
L 818.640982 117.762862 
L 819.785599 118.545507 
L 820.930217 124.042723 
L 822.074834 155.620304 
L 823.219451 136.972775 
L 824.364069 131.280777 
L 825.508686 135.929498 
L 826.653303 127.102154 
L 827.797921 144.817838 
L 828.942538 154.067284 
L 830.087155 156.789545 
L 831.231773 149.570306 
L 832.37639 156.249096 
L 833.521007 150.960651 
L 834.665625 149.793776 
L 835.810242 180.098591 
L 836.954859 167.932767 
L 838.099477 175.894575 
L 839.244094 181.668613 
L 840.388711 191.024184 
L 841.533329 204.157561 
L 842.677946 187.148329 
L 843.822563 200.269909 
L 844.967181 182.779772 
L 846.111798 195.564401 
L 847.256416 220.489934 
L 848.401033 230.637964 
L 849.54565 255.471302 
L 850.690268 232.947584 
L 851.834885 232.988247 
L 852.979502 246.557266 
L 854.12412 277.956077 
L 855.268737 288.79794 
L 856.413354 277.707543 
L 857.557972 295.362337 
L 858.702589 303.525827 
L 859.847206 327.46041 
L 862.136441 321.968354 
L 863.281058 345.738627 
L 864.425676 357.21007 
L 865.570293 340.328411 
L 866.71491 331.145028 
L 867.859528 351.934701 
L 869.004145 354.499884 
L 870.148762 371.744239 
L 871.29338 383.156196 
L 872.437997 373.354596 
L 873.582614 395.81572 
L 874.727232 406.018807 
L 875.871849 409.226284 
L 877.016466 427.346748 
L 878.161084 438.146139 
L 879.305701 434.668207 
L 880.450319 436.837911 
L 881.594936 460.108225 
L 882.739553 453.60102 
L 883.884171 475.842117 
L 885.028788 487.988911 
L 886.173405 477.947867 
L 887.318023 505.05249 
L 888.46264 501.13624 
L 889.607257 517.705743 
L 890.751875 526.172449 
L 891.896492 510.303352 
L 893.041109 529.610163 
L 894.185727 533.868294 
L 895.330344 535.704176 
L 896.474961 545.348309 
L 897.619579 540.977669 
L 898.764196 542.605825 
L 899.908813 546.392969 
L 901.053431 546.977104 
L 902.198048 561.232629 
L 903.342665 581.442937 
L 904.487283 575.895039 
L 905.6319 579.46122 
L 906.776517 591.116728 
L 907.921135 582.493358 
L 909.065752 600.30365 
L 910.210369 590.15321 
L 911.354987 569.954388 
L 912.499604 581.513123 
L 913.644221 571.426159 
L 914.788839 566.300153 
L 915.933456 574.279598 
L 917.078074 564.100516 
L 918.222691 554.929483 
L 919.367308 547.580982 
L 920.511926 544.042508 
L 921.656543 555.074705 
L 922.80116 548.941656 
L 923.945778 551.138813 
L 925.090395 543.304933 
L 926.235012 547.113541 
L 927.37963 547.73964 
L 928.524247 520.894771 
L 929.668864 529.584008 
L 930.813482 521.786936 
L 931.958099 525.547236 
L 933.102716 514.811123 
L 934.247334 491.480967 
L 935.391951 491.113621 
L 936.536568 488.07759 
L 937.681186 480.744507 
L 938.825803 449.670253 
L 939.97042 478.166077 
L 941.115038 465.980635 
L 942.259655 427.807906 
L 943.404272 453.339852 
L 944.54889 411.06481 
L 945.693507 408.857009 
L 946.838124 427.488064 
L 947.982742 375.718183 
L 949.127359 390.165389 
L 950.271977 412.615235 
L 951.416594 382.769789 
L 952.561211 375.624402 
L 953.705829 375.339558 
L 954.850446 359.683547 
L 955.995063 371.345019 
L 957.139681 366.991475 
L 958.284298 350.999115 
L 959.428915 348.00415 
L 960.573533 320.23387 
L 961.71815 332.831798 
L 962.862767 331.063253 
L 964.007385 301.166461 
L 965.152002 308.363678 
L 966.296619 291.395316 
L 967.441237 276.70113 
L 968.585854 297.335877 
L 969.730471 289.547043 
L 970.875089 278.567612 
L 972.019706 275.574467 
L 973.164323 267.874158 
L 974.308941 261.805552 
L 975.453558 258.736562 
L 976.598175 260.405384 
L 977.742793 227.975526 
L 978.88741 235.90635 
L 980.032027 247.386257 
L 981.176645 227.808727 
L 982.321262 237.416331 
L 983.46588 229.061982 
L 984.610497 202.30042 
L 985.755114 198.816844 
L 986.899732 201.807683 
L 988.044349 192.824159 
L 989.188966 201.43595 
L 990.333584 191.187326 
L 991.478201 179.579617 
L 992.622818 191.165897 
L 993.767436 185.996182 
L 994.912053 173.00422 
L 996.05667 147.37473 
L 997.201288 139.682013 
L 998.345905 179.152821 
L 999.490522 162.239408 
L 1000.63514 132.588864 
L 1001.779757 164.787917 
L 1002.924374 150.404242 
L 1004.068992 152.244275 
L 1005.213609 154.726733 
L 1006.358226 130.38962 
L 1007.502844 127.528501 
L 1008.647461 112.983247 
L 1009.792078 107.18033 
L 1010.936696 98.118417 
L 1012.081313 117.957663 
L 1013.22593 121.51581 
L 1014.370548 119.156829 
L 1015.515165 117.616698 
L 1016.659783 95.636321 
L 1017.8044 113.77002 
L 1018.949017 109.533073 
L 1020.093635 119.824504 
L 1021.238252 119.970129 
L 1022.382869 107.762738 
L 1023.527487 124.697932 
L 1024.672104 116.632212 
L 1025.816721 129.05473 
L 1026.961339 125.464663 
L 1028.105956 114.060106 
L 1029.250573 142.824279 
L 1030.395191 135.666303 
L 1031.539808 110.004228 
L 1032.684425 136.297555 
L 1033.829043 147.923643 
L 1034.97366 132.509507 
L 1036.118277 131.15693 
L 1037.262895 125.257209 
L 1039.552129 159.032525 
L 1040.696747 164.125722 
L 1041.841364 167.165273 
L 1042.985981 170.522354 
L 1044.130599 187.843831 
L 1045.275216 179.727255 
L 1046.419833 170.475388 
L 1047.564451 178.200086 
L 1048.709068 176.030406 
L 1049.853686 188.129022 
L 1050.998303 184.305183 
L 1052.14292 193.358496 
L 1053.287538 220.863122 
L 1054.432155 197.426148 
L 1055.576772 205.762468 
L 1056.72139 211.668126 
L 1057.866007 200.851339 
L 1059.010624 238.454688 
L 1060.155242 236.44071 
L 1061.299859 242.664307 
L 1062.444476 238.077707 
L 1063.589094 212.196368 
L 1064.733711 259.390818 
L 1065.878328 268.477813 
L 1067.022946 272.94069 
L 1068.167563 286.400149 
L 1069.31218 271.461361 
L 1070.456798 282.80737 
L 1071.601415 289.056734 
L 1072.746032 297.408543 
L 1073.89065 289.731769 
L 1075.035267 302.399292 
L 1076.179884 308.774925 
L 1077.324502 303.207273 
L 1078.469119 312.379276 
L 1079.613736 310.590003 
L 1080.758354 319.299393 
L 1081.902971 322.279959 
L 1083.047588 344.38077 
L 1084.192206 337.00879 
L 1085.336823 336.588911 
L 1086.481441 343.63348 
L 1087.626058 324.500411 
L 1088.770675 336.143539 
L 1089.915293 332.055072 
L 1092.204527 370.687427 
L 1093.349145 347.954773 
L 1095.638379 373.245679 
L 1096.782997 364.8406 
L 1097.927614 376.954495 
L 1100.216849 359.175872 
L 1101.361466 369.113597 
L 1102.506083 357.88854 
L 1103.650701 368.777017 
L 1104.795318 385.734527 
L 1105.939935 377.480945 
L 1107.084553 400.737378 
L 1108.22917 407.588882 
L 1109.373787 394.779781 
L 1110.518405 406.830808 
L 1111.663022 395.201412 
L 1113.952257 425.73279 
L 1115.096874 388.0498 
L 1116.241491 401.290831 
L 1117.386109 418.303879 
L 1118.530726 407.569009 
L 1119.675344 420.630387 
L 1120.819961 420.01136 
L 1121.964578 419.716442 
L 1123.109196 427.245453 
L 1124.253813 441.22344 
L 1125.39843 433.195529 
L 1126.543048 430.464497 
L 1128.832282 421.239304 
L 1129.9769 446.296312 
L 1131.121517 413.384832 
L 1132.266134 397.935504 
L 1133.410752 419.462355 
L 1134.555369 412.460148 
L 1135.699986 410.536224 
L 1136.844604 435.271296 
L 1137.989221 445.530888 
L 1139.133838 414.921327 
L 1140.278456 420.51561 
L 1141.423073 441.920225 
L 1142.56769 424.243782 
L 1143.712308 423.657166 
L 1144.856925 435.334262 
L 1146.001542 421.96054 
L 1147.14616 424.122615 
L 1148.290777 431.291395 
L 1149.435394 420.945272 
L 1150.580012 425.858994 
L 1151.724629 420.599373 
L 1152.869247 391.585363 
L 1154.013864 404.285916 
L 1155.158481 432.620431 
L 1156.303099 406.34805 
L 1157.447716 412.688353 
L 1158.592333 432.465459 
L 1159.736951 397.030199 
L 1162.026185 431.878386 
L 1163.170803 403.7445 
L 1164.31542 405.165966 
L 1165.460037 416.925362 
L 1166.604655 408.567033 
L 1167.749272 404.230439 
L 1168.893889 408.873292 
L 1170.038507 411.796135 
L 1171.183124 417.217692 
L 1172.327741 405.220971 
L 1173.472359 433.998411 
L 1174.616976 429.480893 
L 1175.761593 410.388653 
L 1176.906211 416.672327 
L 1178.050828 397.280332 
L 1179.195445 440.262404 
L 1180.340063 434.421334 
L 1181.48468 409.301241 
L 1182.629297 434.952821 
L 1183.773915 411.241898 
L 1184.918532 412.785295 
L 1186.06315 414.12745 
L 1187.207767 408.229923 
L 1188.352384 426.825433 
L 1189.497002 399.641066 
L 1190.641619 410.493083 
L 1191.786236 415.86335 
L 1192.930854 386.293399 
L 1194.075471 408.420786 
L 1195.220088 398.519847 
L 1196.364706 379.18856 
L 1197.509323 393.588434 
L 1198.65394 382.917326 
L 1199.798558 389.646209 
L 1200.943175 411.970224 
L 1202.087792 408.84045 
L 1203.23241 400.682657 
L 1204.377027 394.099737 
L 1205.521644 388.455043 
L 1206.666262 372.668699 
L 1208.955496 357.638581 
L 1210.100114 364.848727 
L 1211.244731 380.257902 
L 1212.389348 365.441479 
L 1213.533966 360.4876 
L 1214.678583 362.911896 
L 1215.8232 360.646127 
L 1216.967818 357.457794 
L 1218.112435 348.599662 
L 1219.257053 356.552718 
L 1220.40167 360.230446 
L 1221.546287 340.987123 
L 1222.690905 351.186076 
L 1223.835522 346.50463 
L 1224.980139 343.400929 
L 1226.124757 366.087035 
L 1227.269374 357.399577 
L 1228.413991 331.859429 
L 1229.558609 333.699249 
L 1230.703226 339.615586 
L 1231.847843 310.312222 
L 1232.992461 319.852771 
L 1234.137078 326.387383 
L 1235.281695 320.36606 
L 1236.426313 306.983704 
L 1237.57093 298.146833 
L 1238.715547 300.65449 
L 1239.860165 267.448678 
L 1241.004782 291.093408 
L 1242.149399 303.540828 
L 1243.294017 282.196408 
L 1244.438634 276.335479 
L 1245.583251 260.656145 
L 1246.727869 278.446734 
L 1247.872486 282.424263 
L 1249.017103 273.2344 
L 1250.161721 280.996672 
L 1251.306338 259.641399 
L 1252.450956 252.771592 
L 1253.595573 242.1708 
L 1254.74019 240.456711 
L 1255.884808 242.80233 
L 1257.029425 213.291376 
L 1258.174042 226.304173 
L 1259.31866 226.110163 
L 1260.463277 228.030586 
L 1261.607894 234.892318 
L 1262.752512 205.816579 
L 1263.897129 201.20173 
L 1265.041746 200.352332 
L 1266.186364 203.541978 
L 1266.186364 203.541978 
" style="fill:none;stroke:#1f77b4;stroke-linecap:square;stroke-width:1.5;"/>
   </g>
   <g id="line2d_24">
    <path clip-path="url(#pf796ce1d38)" d="M 122.713636 228.503183 
L 123.858254 204.342816 
L 125.002871 207.95358 
L 126.147488 208.337143 
L 127.292106 199.370358 
L 128.436723 175.132868 
L 129.58134 172.458362 
L 130.725958 182.348832 
L 131.870575 156.649411 
L 133.015192 157.761079 
L 134.15981 164.059369 
L 135.304427 140.084777 
L 136.449044 132.496945 
L 137.593662 159.453747 
L 138.738279 139.905974 
L 139.882897 139.717811 
L 141.027514 141.657981 
L 142.172131 121.785303 
L 143.316749 128.559911 
L 144.461366 115.449815 
L 145.605983 137.076837 
L 146.750601 135.222686 
L 147.895218 115.837224 
L 149.039835 124.128315 
L 151.32907 113.550129 
L 152.473687 98.236747 
L 153.618305 86.609073 
L 154.762922 86.858542 
L 155.907539 76.806108 
L 157.052157 93.118066 
L 158.196774 113.138866 
L 159.341391 108.715276 
L 160.486009 114.891505 
L 161.630626 124.057365 
L 162.775243 118.46772 
L 163.919861 104.830597 
L 165.064478 101.058737 
L 166.209095 109.950197 
L 167.353713 117.599242 
L 168.49833 117.815397 
L 169.642947 133.673777 
L 170.787565 128.334452 
L 171.932182 131.547594 
L 173.0768 150.301522 
L 174.221417 138.41673 
L 175.366034 144.634301 
L 176.510652 136.191557 
L 177.655269 135.363682 
L 178.799886 137.754327 
L 179.944504 128.728291 
L 181.089121 147.063007 
L 182.233738 155.538653 
L 183.378356 153.432124 
L 185.66759 147.596938 
L 186.812208 155.313544 
L 187.956825 169.082585 
L 189.101442 167.943674 
L 190.24606 176.251854 
L 191.390677 168.78826 
L 192.535294 165.787514 
L 193.679912 194.093653 
L 194.824529 181.064731 
L 195.969146 187.204919 
L 197.113764 192.171977 
L 198.258381 172.129737 
L 199.402998 177.717478 
L 201.692233 168.146186 
L 202.83685 174.083463 
L 203.981468 174.713885 
L 205.126085 185.778077 
L 206.270703 184.099673 
L 207.41532 188.774433 
L 208.559937 206.860778 
L 209.704555 183.944821 
L 210.849172 189.866486 
L 211.993789 189.440499 
L 213.138407 187.024522 
L 214.283024 211.746523 
L 215.427641 203.556095 
L 216.572259 200.886447 
L 217.716876 199.409636 
L 218.861493 212.581505 
L 220.006111 212.936645 
L 221.150728 211.268687 
L 222.295345 224.251163 
L 223.439963 219.22907 
L 224.58458 218.583531 
L 225.729197 236.704937 
L 226.873815 240.802534 
L 228.018432 225.100166 
L 229.163049 246.293844 
L 230.307667 252.322987 
L 231.452284 242.636804 
L 232.596901 241.620659 
L 233.741519 228.237149 
L 234.886136 247.523856 
L 236.030753 253.785225 
L 237.175371 258.856245 
L 238.319988 285.607279 
L 239.464606 283.504086 
L 240.609223 286.69353 
L 241.75384 298.11697 
L 242.898458 290.516739 
L 244.043075 284.232075 
L 245.187692 293.754917 
L 246.33231 307.152728 
L 247.476927 323.255504 
L 248.621544 334.702025 
L 249.766162 326.067931 
L 250.910779 338.485312 
L 252.055396 346.357547 
L 253.200014 330.106846 
L 254.344631 334.113631 
L 255.489248 331.773475 
L 256.633866 348.202697 
L 257.778483 352.68664 
L 258.9231 341.457082 
L 260.067718 368.999247 
L 261.212335 362.429652 
L 262.356952 363.332371 
L 263.50157 382.882498 
L 264.646187 375.836647 
L 265.790804 381.460445 
L 266.935422 392.075988 
L 268.080039 394.02321 
L 269.224656 382.391226 
L 270.369274 396.027546 
L 271.513891 398.819196 
L 272.658509 395.266377 
L 273.803126 403.220202 
L 274.947743 402.583979 
L 276.092361 398.824773 
L 277.236978 384.779701 
L 278.381595 399.191128 
L 279.526213 394.425561 
L 280.67083 404.318051 
L 281.815447 406.593224 
L 282.960065 390.078478 
L 284.104682 409.360922 
L 285.249299 396.846866 
L 286.393917 402.351851 
L 287.538534 394.15299 
L 288.683151 391.379483 
L 289.827769 424.99473 
L 290.972386 408.695763 
L 292.117003 403.264507 
L 293.261621 402.124863 
L 294.406238 399.948825 
L 295.550855 406.111903 
L 296.695473 395.431032 
L 297.84009 411.010235 
L 298.984707 410.475847 
L 300.129325 407.841175 
L 301.273942 412.516291 
L 302.418559 397.276287 
L 303.563177 408.440537 
L 304.707794 405.708883 
L 305.852412 385.379573 
L 306.997029 391.624022 
L 308.141646 389.32886 
L 309.286264 384.998322 
L 310.430881 394.268878 
L 311.575498 389.710036 
L 312.720116 392.528945 
L 313.864733 399.371661 
L 315.00935 410.104179 
L 316.153968 416.291374 
L 317.298585 418.076316 
L 318.443202 407.29643 
L 319.58782 392.666187 
L 320.732437 407.530659 
L 321.877054 411.487873 
L 323.021672 404.887609 
L 324.166289 405.718544 
L 325.310906 409.58805 
L 326.455524 419.509195 
L 327.600141 428.015291 
L 328.744758 416.464471 
L 329.889376 409.382331 
L 331.033993 427.386105 
L 332.17861 427.10071 
L 333.323228 422.609457 
L 334.467845 395.367509 
L 335.612462 396.981707 
L 336.75708 425.48066 
L 337.901697 433.273964 
L 339.046314 443.85994 
L 340.190932 421.852911 
L 341.335549 424.364344 
L 342.480167 423.614418 
L 343.624784 409.32912 
L 345.914019 396.250149 
L 347.058636 405.513004 
L 348.203253 400.924603 
L 349.347871 414.071852 
L 350.492488 415.312632 
L 351.637105 415.409526 
L 352.781723 413.360948 
L 353.92634 404.047143 
L 355.070957 408.465552 
L 356.215575 404.37343 
L 357.360192 406.578184 
L 358.504809 400.343855 
L 359.649427 384.907932 
L 360.794044 366.802888 
L 361.938661 377.261681 
L 363.083279 385.25606 
L 364.227896 380.481807 
L 365.372513 380.998106 
L 366.517131 378.330021 
L 367.661748 379.846843 
L 368.806365 371.919243 
L 369.950983 368.34905 
L 371.0956 346.162846 
L 372.240217 354.755585 
L 373.384835 361.990624 
L 374.529452 332.618489 
L 375.67407 321.808772 
L 376.818687 314.436563 
L 377.963304 311.432535 
L 379.107922 293.974576 
L 380.252539 311.320954 
L 381.397156 317.707663 
L 382.541774 301.030266 
L 383.686391 324.317653 
L 384.831008 316.725897 
L 385.975626 311.431873 
L 387.120243 295.909069 
L 388.26486 265.306533 
L 389.409478 256.454826 
L 390.554095 252.049505 
L 391.698712 250.911571 
L 392.84333 235.291722 
L 393.987947 248.220961 
L 395.132564 258.670856 
L 396.277182 241.806178 
L 397.421799 230.693938 
L 398.566416 217.889102 
L 399.711034 227.325623 
L 400.855651 202.232867 
L 402.000268 180.067135 
L 403.144886 194.997457 
L 404.289503 194.960187 
L 405.43412 198.084006 
L 406.578738 191.810676 
L 407.723355 187.86474 
L 408.867973 162.301592 
L 410.01259 161.502143 
L 411.157207 169.098814 
L 412.301825 140.186623 
L 413.446442 145.501534 
L 414.591059 147.608781 
L 415.735677 141.422107 
L 416.880294 134.478986 
L 418.024911 118.505081 
L 419.169529 107.294462 
L 420.314146 116.268977 
L 421.458763 116.749056 
L 422.603381 97.592772 
L 423.747998 92.659038 
L 424.892615 95.264643 
L 426.037233 85.445362 
L 427.18185 82.291453 
L 428.326467 88.704222 
L 429.471085 65.969481 
L 430.615702 70.051741 
L 431.760319 82.439234 
L 432.904937 88.327516 
L 434.049554 86.886722 
L 435.194171 59.673084 
L 436.338789 79.151196 
L 437.483406 88.794085 
L 438.628023 74.384767 
L 439.772641 76.150004 
L 440.917258 69.695561 
L 442.061876 60.481305 
L 443.206493 73.512663 
L 444.35111 77.96586 
L 445.495728 77.230728 
L 446.640345 80.817843 
L 447.784962 68.866572 
L 448.92958 74.061998 
L 450.074197 67.825062 
L 451.218814 75.439783 
L 452.363432 90.228535 
L 453.508049 92.232628 
L 454.652666 106.775311 
L 455.797284 105.421313 
L 456.941901 114.634049 
L 458.086518 121.613489 
L 459.231136 134.732596 
L 460.375753 122.649689 
L 461.52037 120.437719 
L 462.664988 139.197249 
L 463.809605 129.459888 
L 464.954222 153.389611 
L 466.09884 149.688021 
L 467.243457 142.084916 
L 468.388074 161.848954 
L 470.677309 171.263132 
L 471.821926 181.117517 
L 472.966544 204.265403 
L 474.111161 193.559652 
L 475.255779 189.541244 
L 476.400396 208.603821 
L 477.545013 213.66538 
L 478.689631 219.707143 
L 479.834248 226.694986 
L 480.978865 223.178265 
L 482.123483 230.257241 
L 483.2681 254.851992 
L 484.412717 253.829651 
L 485.557335 245.663461 
L 486.701952 268.992059 
L 487.846569 270.890338 
L 488.991187 265.542997 
L 490.135804 298.855795 
L 491.280421 310.401312 
L 492.425039 299.839002 
L 493.569656 305.253979 
L 494.714273 315.748385 
L 495.858891 330.114933 
L 497.003508 325.386957 
L 498.148125 331.245681 
L 499.292743 344.23244 
L 500.43736 322.593534 
L 501.581977 335.961706 
L 502.726595 362.440821 
L 503.871212 349.697517 
L 505.015829 361.280692 
L 506.160447 384.98131 
L 508.449681 409.751772 
L 509.594299 416.369552 
L 510.738916 416.55282 
L 511.883534 403.243651 
L 513.028151 397.643075 
L 514.172768 405.732348 
L 515.317386 402.154723 
L 516.462003 403.895447 
L 518.751238 428.700098 
L 519.895855 427.523236 
L 521.040472 431.572582 
L 522.18509 446.904302 
L 523.329707 449.273287 
L 524.474324 467.120339 
L 526.763559 462.228754 
L 527.908176 456.752916 
L 529.052794 443.13035 
L 530.197411 458.995988 
L 531.342028 460.833713 
L 532.486646 477.118934 
L 533.631263 491.806942 
L 535.920498 515.559352 
L 538.209732 525.331591 
L 539.35435 516.397342 
L 540.498967 514.958196 
L 541.643584 509.354836 
L 542.788202 517.368496 
L 543.932819 510.530405 
L 545.077437 512.157275 
L 546.222054 531.315178 
L 547.366671 529.023764 
L 548.511289 540.227454 
L 549.655906 557.217936 
L 550.800523 569.41901 
L 553.089758 586.23238 
L 554.234375 587.848238 
L 555.378993 597.605187 
L 556.52361 604.854552 
L 557.668227 602.406692 
L 558.812845 607.181443 
L 559.957462 609.600279 
L 561.102079 619.077839 
L 562.246697 603.204155 
L 563.391314 601.208074 
L 564.535931 613.678831 
L 565.680549 620.420578 
L 566.825166 630.954545 
L 567.969783 620.241054 
L 569.114401 618.032277 
L 570.259018 610.560167 
L 571.403635 620.831359 
L 572.548253 622.317734 
L 573.69287 614.262787 
L 574.837487 618.7737 
L 575.982105 612.606388 
L 577.126722 613.75209 
L 578.27134 596.024447 
L 579.415957 607.785207 
L 580.560574 605.519387 
L 581.705192 596.945165 
L 582.849809 601.989762 
L 583.994426 584.919827 
L 585.139044 600.42899 
L 586.283661 600.748777 
L 587.428278 597.785227 
L 588.572896 588.530657 
L 589.717513 591.874169 
L 590.86213 590.798805 
L 592.006748 565.725908 
L 593.151365 573.490045 
L 594.295982 556.977337 
L 595.4406 554.344376 
L 596.585217 554.763617 
L 597.729834 537.376502 
L 598.874452 537.017391 
L 600.019069 525.111314 
L 601.163686 517.605074 
L 602.308304 505.018019 
L 603.452921 497.898931 
L 604.597538 504.37713 
L 606.886773 508.154598 
L 608.03139 492.107997 
L 609.176008 478.528365 
L 610.320625 479.797124 
L 611.465243 472.598686 
L 612.60986 481.08144 
L 613.754477 473.595733 
L 614.899095 453.774072 
L 616.043712 439.669066 
L 617.188329 415.533843 
L 618.332947 422.183172 
L 619.477564 409.836155 
L 620.622181 409.211835 
L 621.766799 413.703603 
L 622.911416 370.209272 
L 624.056033 368.524385 
L 625.200651 370.971558 
L 626.345268 362.884623 
L 627.489885 366.403897 
L 628.634503 341.711204 
L 629.77912 329.171398 
L 630.923737 345.004839 
L 632.068355 350.921141 
L 633.212972 323.364999 
L 634.357589 303.910722 
L 635.502207 301.647892 
L 636.646824 282.808786 
L 637.791441 274.924577 
L 638.936059 283.872968 
L 640.080676 286.271178 
L 641.225293 260.533156 
L 642.369911 254.287695 
L 643.514528 252.377597 
L 644.659146 233.905526 
L 645.803763 240.933096 
L 646.94838 228.002519 
L 648.092998 205.106794 
L 649.237615 202.679827 
L 650.382232 192.038217 
L 651.52685 184.870413 
L 652.671467 186.25798 
L 653.816084 186.58296 
L 654.960702 192.107424 
L 656.105319 194.357535 
L 657.249936 174.75575 
L 658.394554 178.649247 
L 659.539171 171.026166 
L 660.683788 140.845982 
L 661.828406 154.242769 
L 662.973023 155.830628 
L 664.11764 140.801211 
L 665.262258 142.913288 
L 666.406875 150.195579 
L 667.551492 154.174515 
L 668.69611 140.424488 
L 669.840727 143.777442 
L 672.129962 158.479277 
L 673.274579 158.278531 
L 674.419196 138.409097 
L 675.563814 147.261765 
L 676.708431 148.615507 
L 677.853049 138.560869 
L 680.142283 142.054255 
L 681.286901 151.068958 
L 683.576135 154.098195 
L 684.720753 159.771781 
L 687.009987 154.391369 
L 688.154605 164.367792 
L 691.588457 177.625991 
L 692.733074 178.742079 
L 693.877691 184.019589 
L 695.022309 174.639349 
L 696.166926 180.142112 
L 697.311543 193.817264 
L 698.456161 197.749509 
L 699.600778 193.289925 
L 700.745395 192.129576 
L 701.890013 200.390532 
L 703.03463 204.271653 
L 704.179247 218.443698 
L 705.323865 225.960477 
L 706.468482 232.222974 
L 707.613099 241.420416 
L 708.757717 239.960509 
L 709.902334 253.098623 
L 711.046951 260.636058 
L 712.191569 247.181209 
L 713.336186 261.163788 
L 714.480804 280.931924 
L 715.625421 284.492128 
L 716.770038 291.048706 
L 717.914656 271.439775 
L 719.059273 285.682386 
L 720.20389 308.803453 
L 721.348508 293.797651 
L 722.493125 316.634651 
L 723.637742 326.25981 
L 724.78236 326.208478 
L 725.926977 344.816919 
L 727.071594 330.614358 
L 728.216212 325.146858 
L 729.360829 343.703767 
L 730.505446 343.982291 
L 731.650064 340.065466 
L 732.794681 349.735285 
L 733.939298 351.789147 
L 735.083916 352.699241 
L 736.228533 352.501775 
L 737.37315 346.042784 
L 738.517768 349.096481 
L 739.662385 360.315786 
L 740.807002 363.861931 
L 741.95162 356.866844 
L 743.096237 353.167382 
L 745.385472 352.124153 
L 746.530089 346.374821 
L 747.674707 332.46827 
L 748.819324 339.736866 
L 749.963941 342.582501 
L 752.253176 349.927651 
L 753.397793 339.867842 
L 754.542411 345.664278 
L 755.687028 341.891416 
L 756.831645 323.670572 
L 757.976263 312.236311 
L 759.12088 306.337443 
L 760.265497 296.456965 
L 761.410115 284.80456 
L 762.554732 283.898695 
L 763.699349 278.861919 
L 764.843967 279.171693 
L 765.988584 270.124394 
L 767.133201 268.633895 
L 768.277819 270.30535 
L 769.422436 251.163783 
L 772.856288 232.573503 
L 774.000905 221.976036 
L 775.145523 213.823161 
L 776.29014 220.495664 
L 777.434757 208.298159 
L 778.579375 205.870914 
L 779.723992 204.596745 
L 780.86861 198.212073 
L 782.013227 207.644244 
L 783.157844 188.785294 
L 784.302462 178.886802 
L 785.447079 185.968513 
L 786.591696 173.151663 
L 787.736314 155.617352 
L 790.025548 155.109694 
L 791.170166 145.630744 
L 792.314783 145.875045 
L 793.4594 128.543358 
L 794.604018 133.654398 
L 795.748635 135.571366 
L 796.893252 117.790662 
L 798.03787 126.627353 
L 799.182487 123.852853 
L 800.327104 122.299705 
L 801.471722 116.740679 
L 802.616339 113.536646 
L 803.760956 120.917602 
L 804.905574 118.818296 
L 806.050191 120.002124 
L 807.194808 120.211761 
L 808.339426 124.669183 
L 809.484043 109.363731 
L 810.62866 110.232195 
L 811.773278 115.335632 
L 812.917895 99.625603 
L 814.062513 112.566036 
L 815.20713 120.012313 
L 816.351747 124.214887 
L 817.496365 111.784454 
L 818.640982 104.024356 
L 819.785599 124.661076 
L 820.930217 133.326583 
L 822.074834 131.441967 
L 823.219451 136.994669 
L 824.364069 141.439172 
L 825.508686 139.62034 
L 826.653303 145.235397 
L 827.797921 146.625127 
L 830.087155 147.550259 
L 831.231773 158.532641 
L 832.37639 167.189001 
L 833.521007 160.097877 
L 834.665625 164.758507 
L 835.810242 175.600121 
L 836.954859 182.03901 
L 838.099477 176.949414 
L 839.244094 185.617313 
L 840.388711 190.987846 
L 841.533329 190.05174 
L 842.677946 198.582784 
L 843.822563 190.323474 
L 844.967181 202.148482 
L 846.111798 210.569323 
L 847.256416 220.881819 
L 848.401033 239.247578 
L 849.54565 242.56314 
L 850.690268 255.18559 
L 851.834885 231.139745 
L 852.979502 239.08808 
L 854.12412 279.031338 
L 855.268737 275.185189 
L 856.413354 297.469187 
L 857.557972 305.586877 
L 858.702589 304.143517 
L 859.847206 327.70025 
L 860.991824 330.806715 
L 862.136441 343.183702 
L 863.281058 344.804817 
L 864.425676 344.320046 
L 865.570293 344.911466 
L 866.71491 336.164864 
L 867.859528 355.751618 
L 869.004145 365.381056 
L 870.148762 368.483443 
L 871.29338 377.722913 
L 872.437997 379.403277 
L 873.582614 399.715624 
L 874.727232 425.59208 
L 875.871849 418.435918 
L 877.016466 421.872272 
L 878.161084 437.632605 
L 879.305701 436.248344 
L 880.450319 441.107794 
L 881.594936 456.157882 
L 882.739553 472.757565 
L 883.884171 470.089032 
L 885.028788 479.913022 
L 886.173405 502.85801 
L 887.318023 509.425527 
L 888.46264 512.595327 
L 889.607257 512.47463 
L 890.751875 513.320589 
L 891.896492 522.366069 
L 893.041109 538.302562 
L 894.185727 548.443017 
L 895.330344 540.513234 
L 896.474961 535.858449 
L 897.619579 556.170558 
L 898.764196 544.583633 
L 899.908813 545.725712 
L 901.053431 566.449317 
L 902.198048 566.668879 
L 903.342665 576.107125 
L 904.487283 573.701658 
L 905.6319 582.669271 
L 906.776517 588.105676 
L 907.921135 592.196564 
L 909.065752 597.057704 
L 910.210369 600.584405 
L 911.354987 581.020222 
L 912.499604 565.068013 
L 913.644221 582.717851 
L 914.788839 578.90187 
L 915.933456 576.11044 
L 917.078074 563.931426 
L 918.222691 557.204075 
L 919.367308 547.451233 
L 920.511926 547.22958 
L 921.656543 547.92678 
L 922.80116 541.208217 
L 923.945778 553.263736 
L 925.090395 547.15212 
L 926.235012 545.258497 
L 927.37963 541.218869 
L 928.524247 540.293061 
L 929.668864 538.228082 
L 930.813482 521.567683 
L 931.958099 510.511446 
L 933.102716 505.921002 
L 934.247334 502.399246 
L 935.391951 494.722876 
L 936.536568 486.142889 
L 937.681186 471.502441 
L 938.825803 465.534972 
L 939.97042 461.73507 
L 941.115038 456.920102 
L 942.259655 443.859135 
L 943.404272 433.203835 
L 944.54889 425.9193 
L 945.693507 413.596448 
L 946.838124 413.010584 
L 947.982742 409.251384 
L 949.127359 401.384806 
L 950.271977 387.471275 
L 951.416594 384.319641 
L 952.561211 379.128406 
L 953.705829 371.965723 
L 954.850446 371.20196 
L 955.995063 362.099528 
L 957.139681 360.500975 
L 958.284298 354.747263 
L 959.428915 337.709883 
L 960.573533 333.634166 
L 962.862767 317.58421 
L 964.007385 317.159098 
L 965.152002 291.804031 
L 966.296619 296.309401 
L 967.441237 301.684379 
L 968.585854 276.760431 
L 969.730471 279.614993 
L 970.875089 284.4392 
L 972.019706 269.370621 
L 973.164323 252.704507 
L 974.308941 259.411443 
L 975.453558 260.709205 
L 976.598175 250.544473 
L 978.88741 237.326313 
L 980.032027 239.351454 
L 981.176645 238.206112 
L 982.321262 233.993564 
L 983.46588 225.777475 
L 986.899732 188.713683 
L 988.044349 194.52374 
L 989.188966 193.953637 
L 990.333584 187.210279 
L 991.478201 182.800517 
L 992.622818 179.613936 
L 993.767436 180.72703 
L 994.912053 162.128793 
L 996.05667 161.831499 
L 997.201288 162.638104 
L 998.345905 156.209863 
L 999.490522 165.61878 
L 1000.63514 142.604754 
L 1001.779757 148.427331 
L 1002.924374 163.47014 
L 1004.068992 147.987226 
L 1005.213609 151.755763 
L 1006.358226 128.484257 
L 1007.502844 114.348575 
L 1008.647461 120.479099 
L 1009.792078 101.588398 
L 1010.936696 101.050381 
L 1012.081313 106.856411 
L 1014.370548 110.031033 
L 1015.515165 108.57342 
L 1016.659783 113.489661 
L 1017.8044 104.851833 
L 1018.949017 104.899669 
L 1020.093635 118.543201 
L 1021.238252 124.578676 
L 1022.382869 127.401318 
L 1024.672104 114.682685 
L 1025.816721 118.124269 
L 1026.961339 118.444227 
L 1028.105956 123.009677 
L 1029.250573 132.719982 
L 1030.395191 130.798098 
L 1031.539808 121.773454 
L 1032.684425 125.601716 
L 1033.829043 136.67708 
L 1034.97366 132.964282 
L 1036.118277 130.512745 
L 1037.262895 136.549436 
L 1038.407512 149.760015 
L 1039.552129 151.22416 
L 1040.696747 157.92814 
L 1041.841364 173.85169 
L 1042.985981 167.551852 
L 1044.130599 183.343223 
L 1045.275216 177.949972 
L 1046.419833 170.742599 
L 1047.564451 176.315183 
L 1048.709068 177.646057 
L 1049.853686 195.630689 
L 1050.998303 191.319367 
L 1052.14292 201.762464 
L 1053.287538 216.099345 
L 1054.432155 210.325176 
L 1055.576772 205.85167 
L 1056.72139 209.905264 
L 1057.866007 209.754001 
L 1059.010624 222.14113 
L 1060.155242 239.390241 
L 1061.299859 229.160243 
L 1062.444476 232.823568 
L 1063.589094 242.664595 
L 1064.733711 247.06197 
L 1065.878328 271.099721 
L 1067.022946 270.53852 
L 1068.167563 264.856193 
L 1069.31218 282.24533 
L 1070.456798 288.738394 
L 1071.601415 290.911726 
L 1072.746032 287.866068 
L 1073.89065 302.606082 
L 1075.035267 298.222532 
L 1077.324502 321.654085 
L 1078.469119 295.991888 
L 1079.613736 318.942229 
L 1080.758354 318.344341 
L 1081.902971 318.831473 
L 1083.047588 346.316368 
L 1084.192206 340.751068 
L 1085.336823 341.609127 
L 1086.481441 330.00008 
L 1087.626058 331.242875 
L 1088.770675 333.504648 
L 1089.915293 336.751331 
L 1091.05991 352.36651 
L 1092.204527 351.918565 
L 1093.349145 362.912438 
L 1094.493762 365.252167 
L 1095.638379 369.595134 
L 1096.782997 371.722517 
L 1097.927614 362.363354 
L 1099.072231 371.993137 
L 1100.216849 373.007347 
L 1101.361466 361.53193 
L 1102.506083 360.810482 
L 1103.650701 375.685459 
L 1104.795318 380.734975 
L 1105.939935 378.349392 
L 1107.084553 396.793716 
L 1108.22917 392.830408 
L 1109.373787 402.474332 
L 1110.518405 407.635897 
L 1111.663022 409.494736 
L 1112.807639 424.762865 
L 1113.952257 404.21648 
L 1115.096874 397.805156 
L 1116.241491 406.113249 
L 1117.386109 406.864243 
L 1118.530726 416.908177 
L 1119.675344 428.673699 
L 1120.819961 416.150568 
L 1121.964578 415.418786 
L 1123.109196 431.286987 
L 1124.253813 431.034601 
L 1125.39843 439.054114 
L 1126.543048 434.315176 
L 1127.687665 425.53525 
L 1128.832282 427.379863 
L 1129.9769 428.087229 
L 1131.121517 417.314033 
L 1132.266134 404.777631 
L 1133.410752 411.299552 
L 1134.555369 409.274403 
L 1135.699986 416.623534 
L 1136.844604 437.191441 
L 1137.989221 431.098816 
L 1139.133838 417.892097 
L 1140.278456 435.172616 
L 1141.423073 430.049948 
L 1142.56769 419.85665 
L 1143.712308 432.785176 
L 1144.856925 418.261172 
L 1146.001542 419.733257 
L 1147.14616 425.266316 
L 1148.290777 417.081114 
L 1149.435394 426.762153 
L 1150.580012 427.778688 
L 1152.869247 410.152608 
L 1154.013864 404.303972 
L 1155.158481 413.136559 
L 1156.303099 417.488437 
L 1157.447716 417.501541 
L 1158.592333 423.69468 
L 1160.881568 427.165543 
L 1162.026185 423.548163 
L 1163.170803 418.957238 
L 1164.31542 421.729441 
L 1165.460037 405.67696 
L 1166.604655 394.250094 
L 1167.749272 401.835867 
L 1168.893889 404.981442 
L 1170.038507 409.017706 
L 1171.183124 413.913251 
L 1172.327741 425.864711 
L 1173.472359 426.992655 
L 1174.616976 422.835119 
L 1175.761593 409.412792 
L 1176.906211 401.562377 
L 1178.050828 428.169224 
L 1179.195445 427.90635 
L 1180.340063 423.437549 
L 1181.48468 425.279624 
L 1182.629297 411.43086 
L 1183.773915 417.694096 
L 1184.918532 412.278225 
L 1186.06315 415.283268 
L 1187.207767 420.207533 
L 1188.352384 411.417066 
L 1189.497002 400.776089 
L 1190.641619 391.463247 
L 1191.786236 406.274273 
L 1192.930854 402.904816 
L 1194.075471 398.550122 
L 1195.220088 391.167981 
L 1196.364706 385.011294 
L 1197.509323 386.270794 
L 1198.65394 385.36454 
L 1199.798558 394.81754 
L 1200.943175 397.682991 
L 1202.087792 407.664602 
L 1203.23241 404.806234 
L 1204.377027 385.371969 
L 1205.521644 386.234192 
L 1206.666262 381.826312 
L 1207.810879 362.97921 
L 1208.955496 361.306463 
L 1210.100114 365.874638 
L 1211.244731 367.1381 
L 1212.389348 362.088822 
L 1213.533966 362.350146 
L 1214.678583 360.484613 
L 1215.8232 352.409909 
L 1218.112435 371.635619 
L 1219.257053 359.95663 
L 1220.40167 351.725644 
L 1221.546287 355.13866 
L 1222.690905 344.907396 
L 1223.835522 343.27402 
L 1224.980139 352.037221 
L 1226.124757 351.135788 
L 1227.269374 349.185447 
L 1228.413991 335.841651 
L 1229.558609 324.972202 
L 1230.703226 317.540657 
L 1231.847843 303.060575 
L 1232.992461 326.397684 
L 1234.137078 327.156544 
L 1235.281695 318.520962 
L 1236.426313 320.519268 
L 1237.57093 289.214218 
L 1238.715547 297.314485 
L 1239.860165 294.760689 
L 1241.004782 287.087924 
L 1242.149399 284.844806 
L 1243.294017 274.364229 
L 1244.438634 279.790021 
L 1245.583251 272.581773 
L 1246.727869 268.720287 
L 1247.872486 278.478782 
L 1249.017103 283.767604 
L 1250.161721 261.89422 
L 1251.306338 255.264489 
L 1252.450956 254.048413 
L 1253.595573 240.427361 
L 1255.884808 224.761198 
L 1257.029425 221.495612 
L 1258.174042 224.59228 
L 1259.31866 221.389396 
L 1260.463277 224.547544 
L 1261.607894 231.784102 
L 1262.752512 211.826316 
L 1263.897129 200.852844 
L 1265.041746 198.57974 
L 1266.186364 197.462235 
L 1266.186364 197.462235 
" style="fill:none;stroke:#ff7f0e;stroke-linecap:square;stroke-width:1.5;"/>
   </g>
   <g id="patch_3">
    <path d="M 65.54 659.72 
L 65.54 26.88 
" style="fill:none;stroke:#000000;stroke-linecap:square;stroke-linejoin:miter;stroke-width:0.8;"/>
   </g>
   <g id="patch_4">
    <path d="M 1323.36 659.72 
L 1323.36 26.88 
" style="fill:none;stroke:#000000;stroke-linecap:square;stroke-linejoin:miter;stroke-width:0.8;"/>
   </g>
   <g id="patch_5">
    <path d="M 65.54 659.72 
L 1323.36 659.72 
" style="fill:none;stroke:#000000;stroke-linecap:square;stroke-linejoin:miter;stroke-width:0.8;"/>
   </g>
   <g id="patch_6">
    <path d="M 65.54 26.88 
L 1323.36 26.88 
" style="fill:none;stroke:#000000;stroke-linecap:square;stroke-linejoin:miter;stroke-width:0.8;"/>
   </g>
   <g id="text_13">
    <!-- Corrected BHE data VS Raw BLE data -->
    <defs>
     <path d="M 64.40625 67.28125 
L 64.40625 56.890625 
Q 59.421875 61.53125 53.78125 63.8125 
Q 48.140625 66.109375 41.796875 66.109375 
Q 29.296875 66.109375 22.65625 58.46875 
Q 16.015625 50.828125 16.015625 36.375 
Q 16.015625 21.96875 22.65625 14.328125 
Q 29.296875 6.6875 41.796875 6.6875 
Q 48.140625 6.6875 53.78125 8.984375 
Q 59.421875 11.28125 64.40625 15.921875 
L 64.40625 5.609375 
Q 59.234375 2.09375 53.4375 0.328125 
Q 47.65625 -1.421875 41.21875 -1.421875 
Q 24.65625 -1.421875 15.125 8.703125 
Q 5.609375 18.84375 5.609375 36.375 
Q 5.609375 53.953125 15.125 64.078125 
Q 24.65625 74.21875 41.21875 74.21875 
Q 47.75 74.21875 53.53125 72.484375 
Q 59.328125 70.75 64.40625 67.28125 
z
" id="DejaVuSans-67"/>
     <path d="M 41.109375 46.296875 
Q 39.59375 47.171875 37.8125 47.578125 
Q 36.03125 48 33.890625 48 
Q 26.265625 48 22.1875 43.046875 
Q 18.109375 38.09375 18.109375 28.8125 
L 18.109375 0 
L 9.078125 0 
L 9.078125 54.6875 
L 18.109375 54.6875 
L 18.109375 46.1875 
Q 20.953125 51.171875 25.484375 53.578125 
Q 30.03125 56 36.53125 56 
Q 37.453125 56 38.578125 55.875 
Q 39.703125 55.765625 41.0625 55.515625 
z
" id="DejaVuSans-114"/>
     <path d="M 56.203125 29.59375 
L 56.203125 25.203125 
L 14.890625 25.203125 
Q 15.484375 15.921875 20.484375 11.0625 
Q 25.484375 6.203125 34.421875 6.203125 
Q 39.59375 6.203125 44.453125 7.46875 
Q 49.3125 8.734375 54.109375 11.28125 
L 54.109375 2.78125 
Q 49.265625 0.734375 44.1875 -0.34375 
Q 39.109375 -1.421875 33.890625 -1.421875 
Q 20.796875 -1.421875 13.15625 6.1875 
Q 5.515625 13.8125 5.515625 26.8125 
Q 5.515625 40.234375 12.765625 48.109375 
Q 20.015625 56 32.328125 56 
Q 43.359375 56 49.78125 48.890625 
Q 56.203125 41.796875 56.203125 29.59375 
z
M 47.21875 32.234375 
Q 47.125 39.59375 43.09375 43.984375 
Q 39.0625 48.390625 32.421875 48.390625 
Q 24.90625 48.390625 20.390625 44.140625 
Q 15.875 39.890625 15.1875 32.171875 
z
" id="DejaVuSans-101"/>
     <path d="M 45.40625 46.390625 
L 45.40625 75.984375 
L 54.390625 75.984375 
L 54.390625 0 
L 45.40625 0 
L 45.40625 8.203125 
Q 42.578125 3.328125 38.25 0.953125 
Q 33.9375 -1.421875 27.875 -1.421875 
Q 17.96875 -1.421875 11.734375 6.484375 
Q 5.515625 14.40625 5.515625 27.296875 
Q 5.515625 40.1875 11.734375 48.09375 
Q 17.96875 56 27.875 56 
Q 33.9375 56 38.25 53.625 
Q 42.578125 51.265625 45.40625 46.390625 
z
M 14.796875 27.296875 
Q 14.796875 17.390625 18.875 11.75 
Q 22.953125 6.109375 30.078125 6.109375 
Q 37.203125 6.109375 41.296875 11.75 
Q 45.40625 17.390625 45.40625 27.296875 
Q 45.40625 37.203125 41.296875 42.84375 
Q 37.203125 48.484375 30.078125 48.484375 
Q 22.953125 48.484375 18.875 42.84375 
Q 14.796875 37.203125 14.796875 27.296875 
z
" id="DejaVuSans-100"/>
     <path id="DejaVuSans-32"/>
     <path d="M 19.671875 34.8125 
L 19.671875 8.109375 
L 35.5 8.109375 
Q 43.453125 8.109375 47.28125 11.40625 
Q 51.125 14.703125 51.125 21.484375 
Q 51.125 28.328125 47.28125 31.5625 
Q 43.453125 34.8125 35.5 34.8125 
z
M 19.671875 64.796875 
L 19.671875 42.828125 
L 34.28125 42.828125 
Q 41.5 42.828125 45.03125 45.53125 
Q 48.578125 48.25 48.578125 53.8125 
Q 48.578125 59.328125 45.03125 62.0625 
Q 41.5 64.796875 34.28125 64.796875 
z
M 9.8125 72.90625 
L 35.015625 72.90625 
Q 46.296875 72.90625 52.390625 68.21875 
Q 58.5 63.53125 58.5 54.890625 
Q 58.5 48.1875 55.375 44.234375 
Q 52.25 40.28125 46.1875 39.3125 
Q 53.46875 37.75 57.5 32.78125 
Q 61.53125 27.828125 61.53125 20.40625 
Q 61.53125 10.640625 54.890625 5.3125 
Q 48.25 0 35.984375 0 
L 9.8125 0 
z
" id="DejaVuSans-66"/>
     <path d="M 9.8125 72.90625 
L 19.671875 72.90625 
L 19.671875 43.015625 
L 55.515625 43.015625 
L 55.515625 72.90625 
L 65.375 72.90625 
L 65.375 0 
L 55.515625 0 
L 55.515625 34.71875 
L 19.671875 34.71875 
L 19.671875 0 
L 9.8125 0 
z
" id="DejaVuSans-72"/>
     <path d="M 9.8125 72.90625 
L 55.90625 72.90625 
L 55.90625 64.59375 
L 19.671875 64.59375 
L 19.671875 43.015625 
L 54.390625 43.015625 
L 54.390625 34.71875 
L 19.671875 34.71875 
L 19.671875 8.296875 
L 56.78125 8.296875 
L 56.78125 0 
L 9.8125 0 
z
" id="DejaVuSans-69"/>
     <path d="M 34.28125 27.484375 
Q 23.390625 27.484375 19.1875 25 
Q 14.984375 22.515625 14.984375 16.5 
Q 14.984375 11.71875 18.140625 8.90625 
Q 21.296875 6.109375 26.703125 6.109375 
Q 34.1875 6.109375 38.703125 11.40625 
Q 43.21875 16.703125 43.21875 25.484375 
L 43.21875 27.484375 
z
M 52.203125 31.203125 
L 52.203125 0 
L 43.21875 0 
L 43.21875 8.296875 
Q 40.140625 3.328125 35.546875 0.953125 
Q 30.953125 -1.421875 24.3125 -1.421875 
Q 15.921875 -1.421875 10.953125 3.296875 
Q 6 8.015625 6 15.921875 
Q 6 25.140625 12.171875 29.828125 
Q 18.359375 34.515625 30.609375 34.515625 
L 43.21875 34.515625 
L 43.21875 35.40625 
Q 43.21875 41.609375 39.140625 45 
Q 35.0625 48.390625 27.6875 48.390625 
Q 23 48.390625 18.546875 47.265625 
Q 14.109375 46.140625 10.015625 43.890625 
L 10.015625 52.203125 
Q 14.9375 54.109375 19.578125 55.046875 
Q 24.21875 56 28.609375 56 
Q 40.484375 56 46.34375 49.84375 
Q 52.203125 43.703125 52.203125 31.203125 
z
" id="DejaVuSans-97"/>
     <path d="M 28.609375 0 
L 0.78125 72.90625 
L 11.078125 72.90625 
L 34.1875 11.53125 
L 57.328125 72.90625 
L 67.578125 72.90625 
L 39.796875 0 
z
" id="DejaVuSans-86"/>
     <path d="M 53.515625 70.515625 
L 53.515625 60.890625 
Q 47.90625 63.578125 42.921875 64.890625 
Q 37.9375 66.21875 33.296875 66.21875 
Q 25.25 66.21875 20.875 63.09375 
Q 16.5 59.96875 16.5 54.203125 
Q 16.5 49.359375 19.40625 46.890625 
Q 22.3125 44.4375 30.421875 42.921875 
L 36.375 41.703125 
Q 47.40625 39.59375 52.65625 34.296875 
Q 57.90625 29 57.90625 20.125 
Q 57.90625 9.515625 50.796875 4.046875 
Q 43.703125 -1.421875 29.984375 -1.421875 
Q 24.8125 -1.421875 18.96875 -0.25 
Q 13.140625 0.921875 6.890625 3.21875 
L 6.890625 13.375 
Q 12.890625 10.015625 18.65625 8.296875 
Q 24.421875 6.59375 29.984375 6.59375 
Q 38.421875 6.59375 43.015625 9.90625 
Q 47.609375 13.234375 47.609375 19.390625 
Q 47.609375 24.75 44.3125 27.78125 
Q 41.015625 30.8125 33.5 32.328125 
L 27.484375 33.5 
Q 16.453125 35.6875 11.515625 40.375 
Q 6.59375 45.0625 6.59375 53.421875 
Q 6.59375 63.09375 13.40625 68.65625 
Q 20.21875 74.21875 32.171875 74.21875 
Q 37.3125 74.21875 42.625 73.28125 
Q 47.953125 72.359375 53.515625 70.515625 
z
" id="DejaVuSans-83"/>
     <path d="M 44.390625 34.1875 
Q 47.5625 33.109375 50.5625 29.59375 
Q 53.5625 26.078125 56.59375 19.921875 
L 66.609375 0 
L 56 0 
L 46.6875 18.703125 
Q 43.0625 26.03125 39.671875 28.421875 
Q 36.28125 30.8125 30.421875 30.8125 
L 19.671875 30.8125 
L 19.671875 0 
L 9.8125 0 
L 9.8125 72.90625 
L 32.078125 72.90625 
Q 44.578125 72.90625 50.734375 67.671875 
Q 56.890625 62.453125 56.890625 51.90625 
Q 56.890625 45.015625 53.6875 40.46875 
Q 50.484375 35.9375 44.390625 34.1875 
z
M 19.671875 64.796875 
L 19.671875 38.921875 
L 32.078125 38.921875 
Q 39.203125 38.921875 42.84375 42.21875 
Q 46.484375 45.515625 46.484375 51.90625 
Q 46.484375 58.296875 42.84375 61.546875 
Q 39.203125 64.796875 32.078125 64.796875 
z
" id="DejaVuSans-82"/>
     <path d="M 4.203125 54.6875 
L 13.1875 54.6875 
L 24.421875 12.015625 
L 35.59375 54.6875 
L 46.1875 54.6875 
L 57.421875 12.015625 
L 68.609375 54.6875 
L 77.59375 54.6875 
L 63.28125 0 
L 52.6875 0 
L 40.921875 44.828125 
L 29.109375 0 
L 18.5 0 
z
" id="DejaVuSans-119"/>
     <path d="M 9.8125 72.90625 
L 19.671875 72.90625 
L 19.671875 8.296875 
L 55.171875 8.296875 
L 55.171875 0 
L 9.8125 0 
z
" id="DejaVuSans-76"/>
    </defs>
    <g transform="translate(582.008125 20.88)scale(0.12 -0.12)">
     <use xlink:href="#DejaVuSans-67"/>
     <use x="69.824219" xlink:href="#DejaVuSans-111"/>
     <use x="131.005859" xlink:href="#DejaVuSans-114"/>
     <use x="172.103516" xlink:href="#DejaVuSans-114"/>
     <use x="213.185547" xlink:href="#DejaVuSans-101"/>
     <use x="274.708984" xlink:href="#DejaVuSans-99"/>
     <use x="329.689453" xlink:href="#DejaVuSans-116"/>
     <use x="368.898438" xlink:href="#DejaVuSans-101"/>
     <use x="430.421875" xlink:href="#DejaVuSans-100"/>
     <use x="493.898438" xlink:href="#DejaVuSans-32"/>
     <use x="525.685547" xlink:href="#DejaVuSans-66"/>
     <use x="594.289062" xlink:href="#DejaVuSans-72"/>
     <use x="669.484375" xlink:href="#DejaVuSans-69"/>
     <use x="732.667969" xlink:href="#DejaVuSans-32"/>
     <use x="764.455078" xlink:href="#DejaVuSans-100"/>
     <use x="827.931641" xlink:href="#DejaVuSans-97"/>
     <use x="889.210938" xlink:href="#DejaVuSans-116"/>
     <use x="928.419922" xlink:href="#DejaVuSans-97"/>
     <use x="989.699219" xlink:href="#DejaVuSans-32"/>
     <use x="1021.486328" xlink:href="#DejaVuSans-86"/>
     <use x="1089.894531" xlink:href="#DejaVuSans-83"/>
     <use x="1153.371094" xlink:href="#DejaVuSans-32"/>
     <use x="1185.158203" xlink:href="#DejaVuSans-82"/>
     <use x="1254.609375" xlink:href="#DejaVuSans-97"/>
     <use x="1315.888672" xlink:href="#DejaVuSans-119"/>
     <use x="1397.675781" xlink:href="#DejaVuSans-32"/>
     <use x="1429.462891" xlink:href="#DejaVuSans-66"/>
     <use x="1498.066406" xlink:href="#DejaVuSans-76"/>
     <use x="1553.779297" xlink:href="#DejaVuSans-69"/>
     <use x="1616.962891" xlink:href="#DejaVuSans-32"/>
     <use x="1648.75" xlink:href="#DejaVuSans-100"/>
     <use x="1712.226562" xlink:href="#DejaVuSans-97"/>
     <use x="1773.505859" xlink:href="#DejaVuSans-116"/>
     <use x="1812.714844" xlink:href="#DejaVuSans-97"/>
    </g>
   </g>
   <g id="legend_1">
    <g id="patch_7">
     <path d="M 72.54 64.514375 
L 153.9275 64.514375 
Q 155.9275 64.514375 155.9275 62.514375 
L 155.9275 33.88 
Q 155.9275 31.88 153.9275 31.88 
L 72.54 31.88 
Q 70.54 31.88 70.54 33.88 
L 70.54 62.514375 
Q 70.54 64.514375 72.54 64.514375 
z
" style="fill:#ffffff;opacity:0.8;stroke:#cccccc;stroke-linejoin:miter;"/>
    </g>
    <g id="line2d_25">
     <path d="M 74.54 39.978437 
L 94.54 39.978437 
" style="fill:none;stroke:#1f77b4;stroke-linecap:square;stroke-width:1.5;"/>
    </g>
    <g id="line2d_26"/>
    <g id="text_14">
     <!-- NEW_BHE -->
     <defs>
      <path d="M 9.8125 72.90625 
L 23.09375 72.90625 
L 55.421875 11.921875 
L 55.421875 72.90625 
L 64.984375 72.90625 
L 64.984375 0 
L 51.703125 0 
L 19.390625 60.984375 
L 19.390625 0 
L 9.8125 0 
z
" id="DejaVuSans-78"/>
      <path d="M 3.328125 72.90625 
L 13.28125 72.90625 
L 28.609375 11.28125 
L 43.890625 72.90625 
L 54.984375 72.90625 
L 70.3125 11.28125 
L 85.59375 72.90625 
L 95.609375 72.90625 
L 77.296875 0 
L 64.890625 0 
L 49.515625 63.28125 
L 33.984375 0 
L 21.578125 0 
z
" id="DejaVuSans-87"/>
      <path d="M 50.984375 -16.609375 
L 50.984375 -23.578125 
L -0.984375 -23.578125 
L -0.984375 -16.609375 
z
" id="DejaVuSans-95"/>
     </defs>
     <g transform="translate(102.54 43.478437)scale(0.1 -0.1)">
      <use xlink:href="#DejaVuSans-78"/>
      <use x="74.804688" xlink:href="#DejaVuSans-69"/>
      <use x="137.988281" xlink:href="#DejaVuSans-87"/>
      <use x="236.865234" xlink:href="#DejaVuSans-95"/>
      <use x="286.865234" xlink:href="#DejaVuSans-66"/>
      <use x="355.46875" xlink:href="#DejaVuSans-72"/>
      <use x="430.664062" xlink:href="#DejaVuSans-69"/>
     </g>
    </g>
    <g id="line2d_27">
     <path d="M 74.54 54.934687 
L 94.54 54.934687 
" style="fill:none;stroke:#ff7f0e;stroke-linecap:square;stroke-width:1.5;"/>
    </g>
    <g id="line2d_28"/>
    <g id="text_15">
     <!-- BLE -->
     <g transform="translate(102.54 58.434687)scale(0.1 -0.1)">
      <use xlink:href="#DejaVuSans-66"/>
      <use x="68.603516" xlink:href="#DejaVuSans-76"/>
      <use x="124.316406" xlink:href="#DejaVuSans-69"/>
     </g>
    </g>
   </g>
  </g>
 </g>
 <defs>
  <clipPath id="pf796ce1d38">
   <rect height="632.84" width="1257.82" x="65.54" y="26.88"/>
  </clipPath>
 </defs>
</svg>
