<?xml version="1.0" encoding="utf-8" standalone="no"?>
<!DOCTYPE svg PUBLIC "-//W3C//DTD SVG 1.1//EN"
  "http://www.w3.org/Graphics/SVG/1.1/DTD/svg11.dtd">
<!-- Created with matplotlib (https://matplotlib.org/) -->
<svg height="687.6pt" version="1.1" viewBox="0 0 1334.16 687.6" width="1334.16pt" xmlns="http://www.w3.org/2000/svg" xmlns:xlink="http://www.w3.org/1999/xlink">
 <defs>
  <style type="text/css">
*{stroke-linecap:butt;stroke-linejoin:round;}
  </style>
 </defs>
 <g id="figure_1">
  <g id="patch_1">
   <path d="M 0 687.6 
L 1334.16 687.6 
L 1334.16 0 
L 0 0 
z
" style="fill:#ffffff;"/>
  </g>
  <g id="axes_1">
   <g id="patch_2">
    <path d="M 71.84 659.72 
L 1323.36 659.72 
L 1323.36 26.88 
L 71.84 26.88 
z
" style="fill:#ffffff;"/>
   </g>
   <g id="matplotlib.axis_1">
    <g id="xtick_1">
     <g id="line2d_1">
      <path clip-path="url(#p683c236047)" d="M 128.727273 659.72 
L 128.727273 26.88 
" style="fill:none;stroke:#b0b0b0;stroke-linecap:square;stroke-width:0.8;"/>
     </g>
     <g id="line2d_2">
      <defs>
       <path d="M 0 0 
L 0 3.5 
" id="m1f7a70e974" style="stroke:#000000;stroke-width:0.8;"/>
      </defs>
      <g>
       <use style="stroke:#000000;stroke-width:0.8;" x="128.727273" xlink:href="#m1f7a70e974" y="659.72"/>
      </g>
     </g>
     <g id="text_1">
      <!-- 0 -->
      <defs>
       <path d="M 31.78125 66.40625 
Q 24.171875 66.40625 20.328125 58.90625 
Q 16.5 51.421875 16.5 36.375 
Q 16.5 21.390625 20.328125 13.890625 
Q 24.171875 6.390625 31.78125 6.390625 
Q 39.453125 6.390625 43.28125 13.890625 
Q 47.125 21.390625 47.125 36.375 
Q 47.125 51.421875 43.28125 58.90625 
Q 39.453125 66.40625 31.78125 66.40625 
z
M 31.78125 74.21875 
Q 44.046875 74.21875 50.515625 64.515625 
Q 56.984375 54.828125 56.984375 36.375 
Q 56.984375 17.96875 50.515625 8.265625 
Q 44.046875 -1.421875 31.78125 -1.421875 
Q 19.53125 -1.421875 13.0625 8.265625 
Q 6.59375 17.96875 6.59375 36.375 
Q 6.59375 54.828125 13.0625 64.515625 
Q 19.53125 74.21875 31.78125 74.21875 
z
" id="DejaVuSans-48"/>
      </defs>
      <g transform="translate(125.546023 674.318438)scale(0.1 -0.1)">
       <use xlink:href="#DejaVuSans-48"/>
      </g>
     </g>
    </g>
    <g id="xtick_2">
     <g id="line2d_3">
      <path clip-path="url(#p683c236047)" d="M 356.504141 659.72 
L 356.504141 26.88 
" style="fill:none;stroke:#b0b0b0;stroke-linecap:square;stroke-width:0.8;"/>
     </g>
     <g id="line2d_4">
      <g>
       <use style="stroke:#000000;stroke-width:0.8;" x="356.504141" xlink:href="#m1f7a70e974" y="659.72"/>
      </g>
     </g>
     <g id="text_2">
      <!-- 200 -->
      <defs>
       <path d="M 19.1875 8.296875 
L 53.609375 8.296875 
L 53.609375 0 
L 7.328125 0 
L 7.328125 8.296875 
Q 12.9375 14.109375 22.625 23.890625 
Q 32.328125 33.6875 34.8125 36.53125 
Q 39.546875 41.84375 41.421875 45.53125 
Q 43.3125 49.21875 43.3125 52.78125 
Q 43.3125 58.59375 39.234375 62.25 
Q 35.15625 65.921875 28.609375 65.921875 
Q 23.96875 65.921875 18.8125 64.3125 
Q 13.671875 62.703125 7.8125 59.421875 
L 7.8125 69.390625 
Q 13.765625 71.78125 18.9375 73 
Q 24.125 74.21875 28.421875 74.21875 
Q 39.75 74.21875 46.484375 68.546875 
Q 53.21875 62.890625 53.21875 53.421875 
Q 53.21875 48.921875 51.53125 44.890625 
Q 49.859375 40.875 45.40625 35.40625 
Q 44.1875 33.984375 37.640625 27.21875 
Q 31.109375 20.453125 19.1875 8.296875 
z
" id="DejaVuSans-50"/>
      </defs>
      <g transform="translate(346.960391 674.318438)scale(0.1 -0.1)">
       <use xlink:href="#DejaVuSans-50"/>
       <use x="63.623047" xlink:href="#DejaVuSans-48"/>
       <use x="127.246094" xlink:href="#DejaVuSans-48"/>
      </g>
     </g>
    </g>
    <g id="xtick_3">
     <g id="line2d_5">
      <path clip-path="url(#p683c236047)" d="M 584.281008 659.72 
L 584.281008 26.88 
" style="fill:none;stroke:#b0b0b0;stroke-linecap:square;stroke-width:0.8;"/>
     </g>
     <g id="line2d_6">
      <g>
       <use style="stroke:#000000;stroke-width:0.8;" x="584.281008" xlink:href="#m1f7a70e974" y="659.72"/>
      </g>
     </g>
     <g id="text_3">
      <!-- 400 -->
      <defs>
       <path d="M 37.796875 64.3125 
L 12.890625 25.390625 
L 37.796875 25.390625 
z
M 35.203125 72.90625 
L 47.609375 72.90625 
L 47.609375 25.390625 
L 58.015625 25.390625 
L 58.015625 17.1875 
L 47.609375 17.1875 
L 47.609375 0 
L 37.796875 0 
L 37.796875 17.1875 
L 4.890625 17.1875 
L 4.890625 26.703125 
z
" id="DejaVuSans-52"/>
      </defs>
      <g transform="translate(574.737258 674.318438)scale(0.1 -0.1)">
       <use xlink:href="#DejaVuSans-52"/>
       <use x="63.623047" xlink:href="#DejaVuSans-48"/>
       <use x="127.246094" xlink:href="#DejaVuSans-48"/>
      </g>
     </g>
    </g>
    <g id="xtick_4">
     <g id="line2d_7">
      <path clip-path="url(#p683c236047)" d="M 812.057876 659.72 
L 812.057876 26.88 
" style="fill:none;stroke:#b0b0b0;stroke-linecap:square;stroke-width:0.8;"/>
     </g>
     <g id="line2d_8">
      <g>
       <use style="stroke:#000000;stroke-width:0.8;" x="812.057876" xlink:href="#m1f7a70e974" y="659.72"/>
      </g>
     </g>
     <g id="text_4">
      <!-- 600 -->
      <defs>
       <path d="M 33.015625 40.375 
Q 26.375 40.375 22.484375 35.828125 
Q 18.609375 31.296875 18.609375 23.390625 
Q 18.609375 15.53125 22.484375 10.953125 
Q 26.375 6.390625 33.015625 6.390625 
Q 39.65625 6.390625 43.53125 10.953125 
Q 47.40625 15.53125 47.40625 23.390625 
Q 47.40625 31.296875 43.53125 35.828125 
Q 39.65625 40.375 33.015625 40.375 
z
M 52.59375 71.296875 
L 52.59375 62.3125 
Q 48.875 64.0625 45.09375 64.984375 
Q 41.3125 65.921875 37.59375 65.921875 
Q 27.828125 65.921875 22.671875 59.328125 
Q 17.53125 52.734375 16.796875 39.40625 
Q 19.671875 43.65625 24.015625 45.921875 
Q 28.375 48.1875 33.59375 48.1875 
Q 44.578125 48.1875 50.953125 41.515625 
Q 57.328125 34.859375 57.328125 23.390625 
Q 57.328125 12.15625 50.6875 5.359375 
Q 44.046875 -1.421875 33.015625 -1.421875 
Q 20.359375 -1.421875 13.671875 8.265625 
Q 6.984375 17.96875 6.984375 36.375 
Q 6.984375 53.65625 15.1875 63.9375 
Q 23.390625 74.21875 37.203125 74.21875 
Q 40.921875 74.21875 44.703125 73.484375 
Q 48.484375 72.75 52.59375 71.296875 
z
" id="DejaVuSans-54"/>
      </defs>
      <g transform="translate(802.514126 674.318438)scale(0.1 -0.1)">
       <use xlink:href="#DejaVuSans-54"/>
       <use x="63.623047" xlink:href="#DejaVuSans-48"/>
       <use x="127.246094" xlink:href="#DejaVuSans-48"/>
      </g>
     </g>
    </g>
    <g id="xtick_5">
     <g id="line2d_9">
      <path clip-path="url(#p683c236047)" d="M 1039.834744 659.72 
L 1039.834744 26.88 
" style="fill:none;stroke:#b0b0b0;stroke-linecap:square;stroke-width:0.8;"/>
     </g>
     <g id="line2d_10">
      <g>
       <use style="stroke:#000000;stroke-width:0.8;" x="1039.834744" xlink:href="#m1f7a70e974" y="659.72"/>
      </g>
     </g>
     <g id="text_5">
      <!-- 800 -->
      <defs>
       <path d="M 31.78125 34.625 
Q 24.75 34.625 20.71875 30.859375 
Q 16.703125 27.09375 16.703125 20.515625 
Q 16.703125 13.921875 20.71875 10.15625 
Q 24.75 6.390625 31.78125 6.390625 
Q 38.8125 6.390625 42.859375 10.171875 
Q 46.921875 13.96875 46.921875 20.515625 
Q 46.921875 27.09375 42.890625 30.859375 
Q 38.875 34.625 31.78125 34.625 
z
M 21.921875 38.8125 
Q 15.578125 40.375 12.03125 44.71875 
Q 8.5 49.078125 8.5 55.328125 
Q 8.5 64.0625 14.71875 69.140625 
Q 20.953125 74.21875 31.78125 74.21875 
Q 42.671875 74.21875 48.875 69.140625 
Q 55.078125 64.0625 55.078125 55.328125 
Q 55.078125 49.078125 51.53125 44.71875 
Q 48 40.375 41.703125 38.8125 
Q 48.828125 37.15625 52.796875 32.3125 
Q 56.78125 27.484375 56.78125 20.515625 
Q 56.78125 9.90625 50.3125 4.234375 
Q 43.84375 -1.421875 31.78125 -1.421875 
Q 19.734375 -1.421875 13.25 4.234375 
Q 6.78125 9.90625 6.78125 20.515625 
Q 6.78125 27.484375 10.78125 32.3125 
Q 14.796875 37.15625 21.921875 38.8125 
z
M 18.3125 54.390625 
Q 18.3125 48.734375 21.84375 45.5625 
Q 25.390625 42.390625 31.78125 42.390625 
Q 38.140625 42.390625 41.71875 45.5625 
Q 45.3125 48.734375 45.3125 54.390625 
Q 45.3125 60.0625 41.71875 63.234375 
Q 38.140625 66.40625 31.78125 66.40625 
Q 25.390625 66.40625 21.84375 63.234375 
Q 18.3125 60.0625 18.3125 54.390625 
z
" id="DejaVuSans-56"/>
      </defs>
      <g transform="translate(1030.290994 674.318438)scale(0.1 -0.1)">
       <use xlink:href="#DejaVuSans-56"/>
       <use x="63.623047" xlink:href="#DejaVuSans-48"/>
       <use x="127.246094" xlink:href="#DejaVuSans-48"/>
      </g>
     </g>
    </g>
    <g id="xtick_6">
     <g id="line2d_11">
      <path clip-path="url(#p683c236047)" d="M 1267.611612 659.72 
L 1267.611612 26.88 
" style="fill:none;stroke:#b0b0b0;stroke-linecap:square;stroke-width:0.8;"/>
     </g>
     <g id="line2d_12">
      <g>
       <use style="stroke:#000000;stroke-width:0.8;" x="1267.611612" xlink:href="#m1f7a70e974" y="659.72"/>
      </g>
     </g>
     <g id="text_6">
      <!-- 1000 -->
      <defs>
       <path d="M 12.40625 8.296875 
L 28.515625 8.296875 
L 28.515625 63.921875 
L 10.984375 60.40625 
L 10.984375 69.390625 
L 28.421875 72.90625 
L 38.28125 72.90625 
L 38.28125 8.296875 
L 54.390625 8.296875 
L 54.390625 0 
L 12.40625 0 
z
" id="DejaVuSans-49"/>
      </defs>
      <g transform="translate(1254.886612 674.318438)scale(0.1 -0.1)">
       <use xlink:href="#DejaVuSans-49"/>
       <use x="63.623047" xlink:href="#DejaVuSans-48"/>
       <use x="127.246094" xlink:href="#DejaVuSans-48"/>
       <use x="190.869141" xlink:href="#DejaVuSans-48"/>
      </g>
     </g>
    </g>
   </g>
   <g id="matplotlib.axis_2">
    <g id="ytick_1">
     <g id="line2d_13">
      <path clip-path="url(#p683c236047)" d="M 71.84 657.991926 
L 1323.36 657.991926 
" style="fill:none;stroke:#b0b0b0;stroke-linecap:square;stroke-width:0.8;"/>
     </g>
     <g id="line2d_14">
      <defs>
       <path d="M 0 0 
L -3.5 0 
" id="m072a79a4f3" style="stroke:#000000;stroke-width:0.8;"/>
      </defs>
      <g>
       <use style="stroke:#000000;stroke-width:0.8;" x="71.84" xlink:href="#m072a79a4f3" y="657.991926"/>
      </g>
     </g>
     <g id="text_7">
      <!-- −30000 -->
      <defs>
       <path d="M 10.59375 35.5 
L 73.1875 35.5 
L 73.1875 27.203125 
L 10.59375 27.203125 
z
" id="DejaVuSans-8722"/>
       <path d="M 40.578125 39.3125 
Q 47.65625 37.796875 51.625 33 
Q 55.609375 28.21875 55.609375 21.1875 
Q 55.609375 10.40625 48.1875 4.484375 
Q 40.765625 -1.421875 27.09375 -1.421875 
Q 22.515625 -1.421875 17.65625 -0.515625 
Q 12.796875 0.390625 7.625 2.203125 
L 7.625 11.71875 
Q 11.71875 9.328125 16.59375 8.109375 
Q 21.484375 6.890625 26.8125 6.890625 
Q 36.078125 6.890625 40.9375 10.546875 
Q 45.796875 14.203125 45.796875 21.1875 
Q 45.796875 27.640625 41.28125 31.265625 
Q 36.765625 34.90625 28.71875 34.90625 
L 20.21875 34.90625 
L 20.21875 43.015625 
L 29.109375 43.015625 
Q 36.375 43.015625 40.234375 45.921875 
Q 44.09375 48.828125 44.09375 54.296875 
Q 44.09375 59.90625 40.109375 62.90625 
Q 36.140625 65.921875 28.71875 65.921875 
Q 24.65625 65.921875 20.015625 65.03125 
Q 15.375 64.15625 9.8125 62.3125 
L 9.8125 71.09375 
Q 15.4375 72.65625 20.34375 73.4375 
Q 25.25 74.21875 29.59375 74.21875 
Q 40.828125 74.21875 47.359375 69.109375 
Q 53.90625 64.015625 53.90625 55.328125 
Q 53.90625 49.265625 50.4375 45.09375 
Q 46.96875 40.921875 40.578125 39.3125 
z
" id="DejaVuSans-51"/>
      </defs>
      <g transform="translate(24.647812 661.791145)scale(0.1 -0.1)">
       <use xlink:href="#DejaVuSans-8722"/>
       <use x="83.789062" xlink:href="#DejaVuSans-51"/>
       <use x="147.412109" xlink:href="#DejaVuSans-48"/>
       <use x="211.035156" xlink:href="#DejaVuSans-48"/>
       <use x="274.658203" xlink:href="#DejaVuSans-48"/>
       <use x="338.28125" xlink:href="#DejaVuSans-48"/>
      </g>
     </g>
    </g>
    <g id="ytick_2">
     <g id="line2d_15">
      <path clip-path="url(#p683c236047)" d="M 71.84 550.786276 
L 1323.36 550.786276 
" style="fill:none;stroke:#b0b0b0;stroke-linecap:square;stroke-width:0.8;"/>
     </g>
     <g id="line2d_16">
      <g>
       <use style="stroke:#000000;stroke-width:0.8;" x="71.84" xlink:href="#m072a79a4f3" y="550.786276"/>
      </g>
     </g>
     <g id="text_8">
      <!-- −20000 -->
      <g transform="translate(24.647812 554.585495)scale(0.1 -0.1)">
       <use xlink:href="#DejaVuSans-8722"/>
       <use x="83.789062" xlink:href="#DejaVuSans-50"/>
       <use x="147.412109" xlink:href="#DejaVuSans-48"/>
       <use x="211.035156" xlink:href="#DejaVuSans-48"/>
       <use x="274.658203" xlink:href="#DejaVuSans-48"/>
       <use x="338.28125" xlink:href="#DejaVuSans-48"/>
      </g>
     </g>
    </g>
    <g id="ytick_3">
     <g id="line2d_17">
      <path clip-path="url(#p683c236047)" d="M 71.84 443.580626 
L 1323.36 443.580626 
" style="fill:none;stroke:#b0b0b0;stroke-linecap:square;stroke-width:0.8;"/>
     </g>
     <g id="line2d_18">
      <g>
       <use style="stroke:#000000;stroke-width:0.8;" x="71.84" xlink:href="#m072a79a4f3" y="443.580626"/>
      </g>
     </g>
     <g id="text_9">
      <!-- −10000 -->
      <g transform="translate(24.647812 447.379845)scale(0.1 -0.1)">
       <use xlink:href="#DejaVuSans-8722"/>
       <use x="83.789062" xlink:href="#DejaVuSans-49"/>
       <use x="147.412109" xlink:href="#DejaVuSans-48"/>
       <use x="211.035156" xlink:href="#DejaVuSans-48"/>
       <use x="274.658203" xlink:href="#DejaVuSans-48"/>
       <use x="338.28125" xlink:href="#DejaVuSans-48"/>
      </g>
     </g>
    </g>
    <g id="ytick_4">
     <g id="line2d_19">
      <path clip-path="url(#p683c236047)" d="M 71.84 336.374976 
L 1323.36 336.374976 
" style="fill:none;stroke:#b0b0b0;stroke-linecap:square;stroke-width:0.8;"/>
     </g>
     <g id="line2d_20">
      <g>
       <use style="stroke:#000000;stroke-width:0.8;" x="71.84" xlink:href="#m072a79a4f3" y="336.374976"/>
      </g>
     </g>
     <g id="text_10">
      <!-- 0 -->
      <g transform="translate(58.4775 340.174195)scale(0.1 -0.1)">
       <use xlink:href="#DejaVuSans-48"/>
      </g>
     </g>
    </g>
    <g id="ytick_5">
     <g id="line2d_21">
      <path clip-path="url(#p683c236047)" d="M 71.84 229.169326 
L 1323.36 229.169326 
" style="fill:none;stroke:#b0b0b0;stroke-linecap:square;stroke-width:0.8;"/>
     </g>
     <g id="line2d_22">
      <g>
       <use style="stroke:#000000;stroke-width:0.8;" x="71.84" xlink:href="#m072a79a4f3" y="229.169326"/>
      </g>
     </g>
     <g id="text_11">
      <!-- 10000 -->
      <g transform="translate(33.0275 232.968544)scale(0.1 -0.1)">
       <use xlink:href="#DejaVuSans-49"/>
       <use x="63.623047" xlink:href="#DejaVuSans-48"/>
       <use x="127.246094" xlink:href="#DejaVuSans-48"/>
       <use x="190.869141" xlink:href="#DejaVuSans-48"/>
       <use x="254.492188" xlink:href="#DejaVuSans-48"/>
      </g>
     </g>
    </g>
    <g id="ytick_6">
     <g id="line2d_23">
      <path clip-path="url(#p683c236047)" d="M 71.84 121.963676 
L 1323.36 121.963676 
" style="fill:none;stroke:#b0b0b0;stroke-linecap:square;stroke-width:0.8;"/>
     </g>
     <g id="line2d_24">
      <g>
       <use style="stroke:#000000;stroke-width:0.8;" x="71.84" xlink:href="#m072a79a4f3" y="121.963676"/>
      </g>
     </g>
     <g id="text_12">
      <!-- 20000 -->
      <g transform="translate(33.0275 125.762894)scale(0.1 -0.1)">
       <use xlink:href="#DejaVuSans-50"/>
       <use x="63.623047" xlink:href="#DejaVuSans-48"/>
       <use x="127.246094" xlink:href="#DejaVuSans-48"/>
       <use x="190.869141" xlink:href="#DejaVuSans-48"/>
       <use x="254.492188" xlink:href="#DejaVuSans-48"/>
      </g>
     </g>
    </g>
    <g id="text_13">
     <!-- count -->
     <defs>
      <path d="M 48.78125 52.59375 
L 48.78125 44.1875 
Q 44.96875 46.296875 41.140625 47.34375 
Q 37.3125 48.390625 33.40625 48.390625 
Q 24.65625 48.390625 19.8125 42.84375 
Q 14.984375 37.3125 14.984375 27.296875 
Q 14.984375 17.28125 19.8125 11.734375 
Q 24.65625 6.203125 33.40625 6.203125 
Q 37.3125 6.203125 41.140625 7.25 
Q 44.96875 8.296875 48.78125 10.40625 
L 48.78125 2.09375 
Q 45.015625 0.34375 40.984375 -0.53125 
Q 36.96875 -1.421875 32.421875 -1.421875 
Q 20.0625 -1.421875 12.78125 6.34375 
Q 5.515625 14.109375 5.515625 27.296875 
Q 5.515625 40.671875 12.859375 48.328125 
Q 20.21875 56 33.015625 56 
Q 37.15625 56 41.109375 55.140625 
Q 45.0625 54.296875 48.78125 52.59375 
z
" id="DejaVuSans-99"/>
      <path d="M 30.609375 48.390625 
Q 23.390625 48.390625 19.1875 42.75 
Q 14.984375 37.109375 14.984375 27.296875 
Q 14.984375 17.484375 19.15625 11.84375 
Q 23.34375 6.203125 30.609375 6.203125 
Q 37.796875 6.203125 41.984375 11.859375 
Q 46.1875 17.53125 46.1875 27.296875 
Q 46.1875 37.015625 41.984375 42.703125 
Q 37.796875 48.390625 30.609375 48.390625 
z
M 30.609375 56 
Q 42.328125 56 49.015625 48.375 
Q 55.71875 40.765625 55.71875 27.296875 
Q 55.71875 13.875 49.015625 6.21875 
Q 42.328125 -1.421875 30.609375 -1.421875 
Q 18.84375 -1.421875 12.171875 6.21875 
Q 5.515625 13.875 5.515625 27.296875 
Q 5.515625 40.765625 12.171875 48.375 
Q 18.84375 56 30.609375 56 
z
" id="DejaVuSans-111"/>
      <path d="M 8.5 21.578125 
L 8.5 54.6875 
L 17.484375 54.6875 
L 17.484375 21.921875 
Q 17.484375 14.15625 20.5 10.265625 
Q 23.53125 6.390625 29.59375 6.390625 
Q 36.859375 6.390625 41.078125 11.03125 
Q 45.3125 15.671875 45.3125 23.6875 
L 45.3125 54.6875 
L 54.296875 54.6875 
L 54.296875 0 
L 45.3125 0 
L 45.3125 8.40625 
Q 42.046875 3.421875 37.71875 1 
Q 33.40625 -1.421875 27.6875 -1.421875 
Q 18.265625 -1.421875 13.375 4.4375 
Q 8.5 10.296875 8.5 21.578125 
z
M 31.109375 56 
z
" id="DejaVuSans-117"/>
      <path d="M 54.890625 33.015625 
L 54.890625 0 
L 45.90625 0 
L 45.90625 32.71875 
Q 45.90625 40.484375 42.875 44.328125 
Q 39.84375 48.1875 33.796875 48.1875 
Q 26.515625 48.1875 22.3125 43.546875 
Q 18.109375 38.921875 18.109375 30.90625 
L 18.109375 0 
L 9.078125 0 
L 9.078125 54.6875 
L 18.109375 54.6875 
L 18.109375 46.1875 
Q 21.34375 51.125 25.703125 53.5625 
Q 30.078125 56 35.796875 56 
Q 45.21875 56 50.046875 50.171875 
Q 54.890625 44.34375 54.890625 33.015625 
z
" id="DejaVuSans-110"/>
      <path d="M 18.3125 70.21875 
L 18.3125 54.6875 
L 36.8125 54.6875 
L 36.8125 47.703125 
L 18.3125 47.703125 
L 18.3125 18.015625 
Q 18.3125 11.328125 20.140625 9.421875 
Q 21.96875 7.515625 27.59375 7.515625 
L 36.8125 7.515625 
L 36.8125 0 
L 27.59375 0 
Q 17.1875 0 13.234375 3.875 
Q 9.28125 7.765625 9.28125 18.015625 
L 9.28125 47.703125 
L 2.6875 47.703125 
L 2.6875 54.6875 
L 9.28125 54.6875 
L 9.28125 70.21875 
z
" id="DejaVuSans-116"/>
     </defs>
     <g transform="translate(18.568125 357.40625)rotate(-90)scale(0.1 -0.1)">
      <use xlink:href="#DejaVuSans-99"/>
      <use x="54.980469" xlink:href="#DejaVuSans-111"/>
      <use x="116.162109" xlink:href="#DejaVuSans-117"/>
      <use x="179.541016" xlink:href="#DejaVuSans-110"/>
      <use x="242.919922" xlink:href="#DejaVuSans-116"/>
     </g>
    </g>
   </g>
   <g id="line2d_25">
    <path clip-path="url(#p683c236047)" d="M 128.727273 298.140965 
L 129.866157 291.649867 
L 131.005041 286.454003 
L 132.143926 313.41964 
L 133.28281 361.254811 
L 136.699463 407.397753 
L 137.838347 395.669817 
L 138.977232 390.194005 
L 140.116116 365.276942 
L 141.255 309.056012 
L 142.393885 272.900212 
L 143.532769 265.682752 
L 144.671653 271.237072 
L 145.810538 274.201586 
L 146.949422 301.459043 
L 148.088306 346.024473 
L 149.227191 384.459929 
L 150.366075 400.301779 
L 152.643844 367.225759 
L 153.782728 352.467698 
L 154.921613 358.708842 
L 156.060497 356.975485 
L 157.199381 324.964961 
L 158.338266 317.564336 
L 159.47715 350.943817 
L 160.616034 353.632715 
L 161.754919 319.534001 
L 162.893803 331.603404 
L 164.032687 345.500105 
L 165.171572 349.837995 
L 166.310456 355.876564 
L 167.44934 368.893674 
L 168.588225 383.922682 
L 169.727109 361.674243 
L 170.865993 355.352614 
L 172.004878 340.453154 
L 173.143762 316.073584 
L 174.282646 313.677418 
L 175.421531 309.524058 
L 176.560415 311.975225 
L 177.699299 324.17526 
L 178.838184 361.394081 
L 179.977068 379.135685 
L 181.115952 365.458816 
L 182.254837 377.324548 
L 183.393721 380.586905 
L 184.532605 370.580707 
L 185.67149 369.560817 
L 186.810374 348.853331 
L 187.949258 334.774303 
L 189.088143 328.046747 
L 190.227027 320.224426 
L 191.365911 336.126211 
L 192.504796 357.525607 
L 193.64368 362.678118 
L 194.782564 352.588523 
L 195.921449 361.628924 
L 197.060333 378.109786 
L 200.476986 317.592989 
L 201.61587 290.681297 
L 202.754755 309.400744 
L 203.893639 311.584611 
L 205.032523 312.463358 
L 206.171408 352.114888 
L 207.310292 387.136746 
L 208.449176 397.39228 
L 209.588061 369.042876 
L 210.726945 368.293802 
L 211.865829 358.135442 
L 213.004714 317.994253 
L 214.143598 317.109463 
L 215.282482 318.457322 
L 216.421367 316.513361 
L 217.560251 322.005722 
L 218.699135 337.630605 
L 219.83802 348.896884 
L 220.976904 351.615513 
L 222.115789 346.429611 
L 223.254673 338.743312 
L 224.393557 337.613396 
L 225.532442 330.293765 
L 226.671326 332.234612 
L 227.81021 310.605055 
L 228.949095 293.566266 
L 230.087979 310.745775 
L 231.226863 321.404146 
L 232.365748 327.497414 
L 233.504632 329.260247 
L 234.643516 339.937654 
L 235.782401 359.401511 
L 236.921285 374.079145 
L 238.060169 368.516538 
L 239.199054 341.546135 
L 240.337938 322.37083 
L 241.476822 307.756663 
L 242.615707 285.963289 
L 243.754591 276.448192 
L 244.893475 290.344651 
L 247.171244 347.738168 
L 248.310128 363.552167 
L 249.449013 356.414917 
L 250.587897 335.751263 
L 251.726781 334.4507 
L 252.865666 328.940724 
L 254.00455 301.068039 
L 255.143434 284.461133 
L 256.282319 287.763648 
L 257.421203 304.146892 
L 258.560087 308.80414 
L 259.698972 317.356951 
L 260.837856 346.757697 
L 261.97674 359.88138 
L 264.254509 347.809492 
L 265.393393 345.020471 
L 266.532278 331.246854 
L 267.671162 309.349971 
L 268.810046 298.74045 
L 269.948931 283.747037 
L 271.087815 263.474992 
L 272.226699 254.860599 
L 273.365584 294.243577 
L 274.504468 324.650225 
L 275.643352 323.857948 
L 276.782237 360.010907 
L 277.921121 380.180503 
L 279.060005 389.754944 
L 280.19889 386.547793 
L 282.476658 335.953951 
L 283.615543 312.436678 
L 284.754427 318.709434 
L 285.893311 288.940483 
L 287.032196 241.498614 
L 288.17108 260.44738 
L 289.309965 304.21557 
L 290.448849 327.068266 
L 291.587733 332.261496 
L 292.726618 347.167049 
L 293.865502 385.788456 
L 295.004386 390.017203 
L 296.143271 344.456634 
L 297.282155 320.408085 
L 298.421039 309.984704 
L 299.559924 307.270939 
L 300.698808 314.205156 
L 301.837692 295.088187 
L 302.976577 304.503951 
L 304.115461 368.851172 
L 305.254345 395.431617 
L 306.39323 367.621143 
L 307.532114 355.828902 
L 308.670998 346.315643 
L 309.809883 331.914587 
L 312.087651 297.101514 
L 313.226536 305.359706 
L 314.36542 308.675785 
L 315.504304 325.308647 
L 316.643189 351.078925 
L 317.782073 353.0758 
L 318.920957 353.923537 
L 320.059842 377.145055 
L 321.198726 385.366213 
L 322.33761 349.032243 
L 323.476495 337.720108 
L 324.615379 349.461133 
L 326.893148 324.094035 
L 328.032032 319.581827 
L 329.170916 315.866196 
L 330.309801 318.564863 
L 331.448685 322.674322 
L 332.587569 337.645674 
L 334.865338 403.733284 
L 336.004222 410.770896 
L 337.143107 395.867462 
L 338.281991 387.112655 
L 339.420875 355.459686 
L 340.55976 329.878898 
L 341.698644 300.473694 
L 342.837528 277.349728 
L 343.976413 297.599718 
L 345.115297 314.786556 
L 347.393066 382.545156 
L 348.53195 393.241039 
L 349.670834 382.294345 
L 350.809719 383.454482 
L 351.948603 387.713329 
L 354.226372 327.759663 
L 355.365256 330.439342 
L 356.504141 367.679215 
L 357.643025 385.906978 
L 358.781909 378.858962 
L 361.059678 333.753995 
L 362.198562 322.967976 
L 363.337447 313.756529 
L 364.476331 294.849199 
L 365.615215 297.477551 
L 366.7541 349.825332 
L 367.892984 407.289622 
L 369.031868 433.665956 
L 370.170753 423.230979 
L 371.309637 395.056261 
L 372.448521 361.204676 
L 373.587406 322.66158 
L 374.72629 300.85428 
L 375.865174 293.913552 
L 377.004059 277.251929 
L 378.142943 306.837865 
L 379.281827 370.618601 
L 380.420712 394.020723 
L 381.559596 403.97174 
L 382.69848 399.520448 
L 383.837365 384.474445 
L 384.976249 374.260667 
L 386.115133 352.046977 
L 388.392902 261.603512 
L 389.531786 271.86734 
L 390.670671 327.335081 
L 391.809555 353.318805 
L 392.948439 370.857443 
L 394.087324 384.5104 
L 395.226208 380.719622 
L 396.365092 392.139018 
L 397.503977 361.394284 
L 398.642861 317.823245 
L 399.781745 308.344728 
L 400.92063 303.381067 
L 402.059514 303.20904 
L 404.337283 330.938658 
L 405.476167 318.158663 
L 406.615051 341.885304 
L 407.753936 361.807925 
L 408.89282 356.846038 
L 410.031704 383.708955 
L 411.170589 401.345773 
L 412.309473 376.932982 
L 413.448357 308.1451 
L 414.587242 275.023445 
L 415.726126 267.00947 
L 416.86501 236.474105 
L 418.003895 240.6018 
L 419.142779 318.971953 
L 420.281663 386.680963 
L 421.420548 394.911346 
L 422.559432 420.443067 
L 423.698316 409.5313 
L 425.976085 310.925298 
L 427.11497 287.250811 
L 428.253854 285.790269 
L 429.392738 261.352555 
L 430.531623 276.435899 
L 431.670507 311.715607 
L 432.809391 357.358068 
L 433.948276 379.541367 
L 435.08716 339.897619 
L 436.226044 318.638932 
L 437.364929 329.307203 
L 438.503813 336.018655 
L 439.642697 301.53008 
L 440.781582 276.064063 
L 441.920466 297.279178 
L 443.05935 321.703973 
L 444.198235 350.83202 
L 445.337119 364.097731 
L 446.476003 356.166333 
L 447.614888 345.197552 
L 448.753772 338.7345 
L 449.892656 339.012266 
L 451.031541 296.768157 
L 452.170425 260.210106 
L 453.309309 269.12828 
L 454.448194 279.327406 
L 455.587078 290.54402 
L 456.725962 318.272586 
L 457.864847 362.344168 
L 459.003731 362.914151 
L 460.142615 357.599641 
L 461.2815 370.977183 
L 462.420384 360.519806 
L 464.698153 325.183476 
L 466.975921 272.894856 
L 468.114806 284.293642 
L 469.25369 299.01365 
L 470.392574 309.380663 
L 471.531459 304.438487 
L 472.670343 302.858981 
L 473.809227 337.766381 
L 474.948112 353.45085 
L 476.086996 342.097339 
L 477.22588 340.652937 
L 478.364765 352.169991 
L 479.503649 330.645818 
L 480.642533 328.517107 
L 481.781418 356.133444 
L 482.920302 337.969374 
L 484.059186 314.749273 
L 485.198071 308.720175 
L 486.336955 327.09662 
L 487.475839 328.541081 
L 488.614724 316.057701 
L 489.753608 360.302466 
L 490.892492 369.987888 
L 492.031377 319.493637 
L 493.170261 296.914268 
L 494.309146 304.77033 
L 495.44803 298.387784 
L 496.586914 300.428802 
L 497.725799 327.998095 
L 498.864683 349.724103 
L 500.003567 375.615735 
L 501.142452 390.009432 
L 502.281336 389.962465 
L 503.42022 388.051607 
L 504.559105 368.754935 
L 505.697989 335.480749 
L 506.836873 297.078287 
L 507.975758 276.011165 
L 509.114642 280.660317 
L 510.253526 299.565952 
L 511.392411 316.369599 
L 512.531295 306.991878 
L 513.670179 325.53871 
L 514.809064 371.872427 
L 515.947948 387.415086 
L 517.086832 394.844157 
L 518.225717 391.692902 
L 519.364601 391.962717 
L 520.503485 387.940565 
L 521.64237 364.216228 
L 522.781254 317.678322 
L 523.920138 263.836796 
L 525.059023 270.788911 
L 527.336791 289.104243 
L 529.61456 400.172898 
L 530.753444 426.34716 
L 531.892329 423.813941 
L 533.031213 404.240649 
L 534.170097 376.824387 
L 535.308982 358.919556 
L 536.447866 328.86227 
L 537.58675 281.507109 
L 538.725635 269.201063 
L 539.864519 277.792414 
L 541.003403 319.11861 
L 542.142288 379.310731 
L 543.281172 384.157307 
L 544.420056 380.108374 
L 545.558941 405.07043 
L 546.697825 383.538659 
L 547.836709 349.654322 
L 548.975594 334.389289 
L 550.114478 298.344597 
L 551.253362 291.992885 
L 553.531131 342.062682 
L 554.670015 348.905803 
L 555.8089 363.437317 
L 556.947784 423.627337 
L 558.086668 436.726989 
L 559.225553 392.842508 
L 560.364437 344.413032 
L 561.503322 313.229595 
L 563.78109 283.703911 
L 564.919975 286.171435 
L 566.058859 293.11988 
L 567.197743 328.094408 
L 568.336628 367.939864 
L 569.475512 390.67649 
L 570.614396 417.496499 
L 571.753281 402.703002 
L 572.892165 374.557308 
L 574.031049 337.405521 
L 575.169934 327.303161 
L 576.308818 352.126034 
L 577.447702 314.036768 
L 578.586587 300.915315 
L 579.725471 326.990272 
L 582.00324 330.287688 
L 583.142124 303.084183 
L 584.281008 299.084351 
L 585.419893 329.339851 
L 587.697661 418.083381 
L 589.97543 387.362655 
L 591.114314 381.079152 
L 592.253199 322.277148 
L 593.392083 270.533088 
L 594.530967 264.342143 
L 595.669852 277.482341 
L 596.808736 283.259331 
L 597.94762 313.888444 
L 599.086505 378.318106 
L 600.225389 393.754709 
L 601.364273 380.465647 
L 602.503158 371.077241 
L 603.642042 355.959083 
L 604.780926 346.876679 
L 605.919811 332.213976 
L 607.058695 325.21409 
L 609.336464 273.219813 
L 610.475348 282.548141 
L 612.753117 305.876465 
L 613.892001 327.893468 
L 615.030885 360.593641 
L 616.16977 389.856772 
L 617.308654 399.901547 
L 618.447538 374.178587 
L 619.586423 331.501054 
L 620.725307 302.172011 
L 621.864191 293.012047 
L 623.003076 290.054903 
L 624.14196 289.797457 
L 625.280844 300.235327 
L 626.419729 331.775106 
L 627.558613 367.427566 
L 628.697497 378.261671 
L 629.836382 369.265284 
L 630.975266 346.231745 
L 633.253035 316.73552 
L 634.391919 292.583297 
L 635.530804 282.956817 
L 636.669688 275.07206 
L 637.808572 272.080047 
L 638.947457 297.923852 
L 640.086341 336.914295 
L 641.225225 364.423742 
L 642.36411 367.989457 
L 644.641878 383.961377 
L 645.780763 374.448374 
L 646.919647 355.006041 
L 648.058531 316.316607 
L 649.197416 291.114002 
L 650.3363 286.495277 
L 652.614069 287.435617 
L 653.752953 284.653868 
L 654.891837 296.423431 
L 656.030722 331.893837 
L 657.169606 376.014552 
L 658.30849 391.634458 
L 659.447375 384.058406 
L 660.586259 372.763109 
L 661.725143 348.14652 
L 662.864028 312.094618 
L 664.002912 296.603629 
L 665.141796 291.270392 
L 666.280681 281.598475 
L 667.419565 299.858427 
L 670.836218 373.790352 
L 671.975102 374.700594 
L 673.113987 364.041489 
L 674.252871 344.756348 
L 675.391755 310.565097 
L 676.53064 297.606603 
L 678.808408 259.344831 
L 679.947293 295.750294 
L 681.086177 337.841066 
L 683.363946 393.577978 
L 684.50283 406.319545 
L 685.641714 392.879288 
L 686.780599 365.898277 
L 687.919483 350.311903 
L 689.058367 311.428086 
L 690.197252 265.074884 
L 691.336136 275.164111 
L 692.47502 317.213542 
L 693.613905 325.396331 
L 694.752789 331.243746 
L 695.891673 366.099073 
L 697.030558 387.850265 
L 698.169442 390.437673 
L 699.308327 375.226185 
L 700.447211 338.712858 
L 701.586095 322.060277 
L 702.72498 331.269333 
L 703.863864 320.149263 
L 705.002748 299.184708 
L 706.141633 304.571849 
L 707.280517 349.98236 
L 708.419401 361.677869 
L 709.558286 342.952115 
L 710.69717 355.960798 
L 711.836054 360.656355 
L 712.974939 366.729515 
L 714.113823 356.044681 
L 715.252707 343.708373 
L 716.391592 363.169369 
L 717.530476 348.074339 
L 718.66936 323.95118 
L 719.808245 351.414472 
L 720.947129 349.027731 
L 722.086013 326.433817 
L 723.224898 360.478673 
L 724.363782 362.770106 
L 725.502666 323.65403 
L 726.641551 332.9215 
L 727.780435 373.058541 
L 728.919319 357.379659 
L 730.058204 334.312419 
L 731.197088 370.534239 
L 732.335972 389.658426 
L 734.613741 312.36178 
L 735.752625 326.956351 
L 736.89151 314.932776 
L 738.030394 296.549563 
L 739.169278 333.589836 
L 740.308163 363.506268 
L 741.447047 358.377524 
L 742.585931 375.534227 
L 743.724816 425.173552 
L 744.8637 401.59047 
L 746.002584 337.144787 
L 747.141469 312.199636 
L 748.280353 333.873482 
L 749.419237 332.830435 
L 750.558122 275.520094 
L 751.697006 301.726694 
L 752.83589 338.574104 
L 753.974775 320.854617 
L 755.113659 353.232827 
L 756.252543 371.080357 
L 757.391428 353.788553 
L 758.530312 353.971636 
L 759.669196 367.018218 
L 761.946965 343.102774 
L 763.085849 366.177241 
L 764.224734 352.287981 
L 765.363618 334.638502 
L 766.502503 314.048103 
L 767.641387 284.541318 
L 768.780271 290.886827 
L 769.919156 298.790562 
L 771.05804 335.334954 
L 772.196924 355.736252 
L 773.335809 362.044252 
L 774.474693 396.127355 
L 775.613577 397.387889 
L 776.752462 350.878622 
L 777.891346 299.674303 
L 779.03023 291.886107 
L 780.169115 266.376866 
L 781.307999 247.188739 
L 782.446883 282.903669 
L 784.724652 366.522742 
L 785.863536 389.577375 
L 787.002421 400.05033 
L 788.141305 390.915323 
L 789.280189 369.885303 
L 790.419074 344.422589 
L 791.557958 305.107851 
L 792.696842 273.911387 
L 793.835727 263.716825 
L 794.974611 271.074216 
L 796.113495 279.523659 
L 798.391264 346.045024 
L 799.530148 365.869941 
L 800.669033 388.725619 
L 801.807917 382.479374 
L 804.085686 319.270394 
L 805.22457 301.016073 
L 807.502339 279.942129 
L 808.641223 296.527046 
L 809.780107 328.318857 
L 810.918992 343.527838 
L 812.057876 354.518042 
L 813.19676 351.976845 
L 814.335645 344.53851 
L 815.474529 317.368868 
L 816.613413 280.885994 
L 817.752298 299.731427 
L 818.891182 321.746447 
L 820.030066 322.87459 
L 821.168951 329.715136 
L 822.307835 350.016302 
L 823.446719 377.435071 
L 824.585604 348.563617 
L 825.724488 329.616279 
L 826.863372 337.791398 
L 828.002257 299.471139 
L 829.141141 296.588357 
L 830.280025 315.41015 
L 831.41891 297.766135 
L 832.557794 304.316928 
L 833.696678 364.110032 
L 834.835563 393.097211 
L 835.974447 366.194571 
L 837.113332 357.715767 
L 838.252216 346.538012 
L 839.3911 299.54589 
L 840.529985 263.832202 
L 842.807753 331.620601 
L 843.946638 323.840205 
L 845.085522 329.375389 
L 847.363291 377.428259 
L 848.502175 362.620961 
L 849.641059 339.851298 
L 850.779944 339.804976 
L 851.918828 357.317146 
L 853.057712 367.171734 
L 854.196597 351.754112 
L 855.335481 342.818649 
L 856.474365 342.720473 
L 857.61325 337.244608 
L 858.752134 313.669928 
L 859.891018 306.413211 
L 861.029903 318.074131 
L 862.168787 302.213494 
L 863.307671 312.962411 
L 864.446556 362.744907 
L 865.58544 392.038813 
L 866.724324 392.243478 
L 867.863209 381.049259 
L 869.002093 401.130329 
L 870.140977 392.180301 
L 871.279862 331.274078 
L 872.418746 309.505475 
L 873.55763 302.029377 
L 874.696515 314.049879 
L 875.835399 338.542846 
L 876.974283 333.498488 
L 878.113168 334.215633 
L 879.252052 359.887153 
L 880.390936 380.224919 
L 881.529821 379.326743 
L 882.668705 376.81131 
L 883.807589 374.587864 
L 884.946474 389.515633 
L 886.085358 378.073529 
L 887.224242 348.517149 
L 888.363127 326.073461 
L 889.502011 294.513258 
L 890.640895 298.024124 
L 894.057548 354.913737 
L 895.196433 381.766982 
L 896.335317 404.563547 
L 897.474201 413.428189 
L 898.613086 415.068728 
L 899.75197 383.588078 
L 900.890854 361.566946 
L 902.029739 343.687952 
L 903.168623 299.701731 
L 904.307508 281.049917 
L 905.446392 280.85802 
L 906.585276 314.583567 
L 907.724161 377.014451 
L 908.863045 412.579321 
L 910.001929 440.753853 
L 911.140814 428.295637 
L 914.557467 297.295737 
L 915.696351 273.13145 
L 916.835235 259.270027 
L 917.97412 298.009314 
L 919.113004 344.763053 
L 920.251888 373.539792 
L 921.390773 397.783622 
L 922.529657 409.375439 
L 923.668541 404.069366 
L 924.807426 362.12421 
L 925.94631 327.956236 
L 927.085194 308.930553 
L 928.224079 316.543468 
L 929.362963 323.058819 
L 930.501847 338.591351 
L 931.640732 375.760641 
L 932.779616 371.777559 
L 933.9185 348.990869 
L 935.057385 322.592731 
L 937.335153 291.386252 
L 938.474038 283.313705 
L 939.612922 313.597796 
L 940.751806 348.814742 
L 941.890691 366.111295 
L 943.029575 371.698817 
L 944.168459 377.844548 
L 945.307344 370.184665 
L 946.446228 337.394479 
L 947.585112 311.727639 
L 948.723997 309.624275 
L 949.862881 297.516328 
L 951.001765 278.804425 
L 952.14065 289.39071 
L 953.279534 311.734799 
L 956.696187 359.894813 
L 957.835071 380.609183 
L 958.973956 377.363017 
L 961.251724 321.416255 
L 962.390609 293.902103 
L 963.529493 277.506551 
L 965.807262 233.639068 
L 968.08503 320.390809 
L 969.223915 345.806517 
L 970.362799 387.235206 
L 971.501684 408.145211 
L 972.640568 393.906307 
L 973.779452 371.81322 
L 974.918337 337.578621 
L 976.057221 266.050452 
L 977.196105 210.040295 
L 978.33499 213.514745 
L 979.473874 244.096252 
L 980.612758 264.990713 
L 981.751643 296.07315 
L 982.890527 352.155748 
L 984.029411 399.87388 
L 985.168296 411.040965 
L 986.30718 379.329505 
L 987.446064 369.01542 
L 988.584949 357.627151 
L 989.723833 312.117447 
L 990.862717 294.566648 
L 992.001602 280.335662 
L 993.140486 270.886884 
L 994.27937 264.654122 
L 995.418255 265.092403 
L 997.696023 314.929702 
L 998.834908 368.231046 
L 999.973792 402.992786 
L 1002.251561 345.01845 
L 1003.390445 338.920219 
L 1004.529329 302.009811 
L 1005.668214 245.964716 
L 1006.807098 234.114601 
L 1007.945982 277.045595 
L 1009.084867 336.160246 
L 1010.223751 367.74683 
L 1011.362635 380.640427 
L 1012.50152 400.988398 
L 1013.640404 401.143289 
L 1014.779288 357.36749 
L 1015.918173 289.774886 
L 1017.057057 249.374144 
L 1018.195941 255.837041 
L 1020.47371 302.874732 
L 1021.612594 330.632293 
L 1022.751479 371.825248 
L 1023.890363 399.874514 
L 1025.029247 393.199868 
L 1026.168132 377.86805 
L 1028.4459 340.690216 
L 1029.584785 326.401797 
L 1030.723669 308.866118 
L 1031.862553 296.176137 
L 1033.001438 304.565888 
L 1034.140322 317.981219 
L 1035.279206 328.304778 
L 1036.418091 321.959523 
L 1037.556975 321.277578 
L 1038.695859 343.371688 
L 1039.834744 353.327199 
L 1042.112513 402.463711 
L 1043.251397 407.227416 
L 1044.390281 399.086812 
L 1045.529166 375.879048 
L 1046.66805 342.500767 
L 1047.806934 294.407464 
L 1048.945819 272.324963 
L 1050.084703 284.67842 
L 1051.223587 318.108686 
L 1052.362472 347.067031 
L 1053.501356 367.970163 
L 1054.64024 400.382171 
L 1055.779125 411.467006 
L 1056.918009 378.231526 
L 1058.056893 337.698189 
L 1059.195778 317.892158 
L 1060.334662 315.955147 
L 1061.473546 315.065951 
L 1062.612431 317.186062 
L 1063.751315 343.689739 
L 1064.890199 359.722497 
L 1066.029084 380.442468 
L 1067.167968 394.883448 
L 1068.306852 365.865081 
L 1069.445737 350.136324 
L 1070.584621 339.006806 
L 1071.723505 332.715705 
L 1072.86239 343.005491 
L 1074.001274 335.329959 
L 1075.140158 379.228121 
L 1076.279043 402.965963 
L 1077.417927 353.188577 
L 1078.556811 367.037461 
L 1079.695696 376.395256 
L 1081.973464 286.719195 
L 1083.112349 279.460699 
L 1084.251233 346.101114 
L 1085.390117 386.602144 
L 1086.529002 356.638057 
L 1087.667886 352.091662 
L 1089.945655 404.907517 
L 1091.084539 386.695655 
L 1092.223423 323.250019 
L 1093.362308 302.315234 
L 1094.501192 308.874165 
L 1095.640076 347.302102 
L 1096.778961 377.971328 
L 1097.917845 347.867453 
L 1099.056729 347.133605 
L 1100.195614 365.963353 
L 1101.334498 393.520252 
L 1102.473382 339.030927 
L 1103.612267 241.999267 
L 1104.751151 298.192885 
L 1105.890035 363.930499 
L 1107.02892 341.356334 
L 1108.167804 343.74557 
L 1109.306689 391.360458 
L 1110.445573 399.769117 
L 1111.584457 353.883953 
L 1112.723342 321.940527 
L 1113.862226 316.665985 
L 1115.00111 324.591954 
L 1116.139995 342.513186 
L 1117.278879 352.771543 
L 1118.417763 342.22867 
L 1119.556648 344.802533 
L 1120.695532 380.002279 
L 1121.834416 385.724179 
L 1122.973301 323.693751 
L 1124.112185 281.489353 
L 1125.251069 302.092063 
L 1126.389954 309.611248 
L 1127.528838 265.801412 
L 1128.667722 274.946764 
L 1129.806607 376.062346 
L 1130.945491 432.566366 
L 1133.22326 390.313567 
L 1134.362144 399.137899 
L 1135.501028 356.297091 
L 1136.639913 282.284649 
L 1137.778797 268.512708 
L 1138.917681 249.046534 
L 1140.056566 248.702083 
L 1141.19545 296.366264 
L 1142.334334 357.069277 
L 1143.473219 396.957413 
L 1144.612103 369.88694 
L 1145.750987 339.314479 
L 1146.889872 339.924231 
L 1148.028756 327.812284 
L 1149.16764 319.095131 
L 1150.306525 347.749111 
L 1151.445409 382.031019 
L 1152.584293 383.341497 
L 1154.862062 260.305562 
L 1156.000946 239.490969 
L 1157.139831 227.190356 
L 1158.278715 259.056321 
L 1160.556484 374.942515 
L 1161.695368 456.296549 
L 1162.834252 500.664363 
L 1163.973137 450.684069 
L 1165.112021 362.141275 
L 1168.528674 138.880128 
L 1169.667558 132.91038 
L 1170.806443 231.786697 
L 1171.945327 356.269845 
L 1174.223096 498.759164 
L 1175.36198 549.296758 
L 1176.500865 507.703729 
L 1177.639749 375.757053 
L 1178.778633 223.863003 
L 1179.917518 135.109486 
L 1181.056402 90.7975 
L 1182.195286 95.982643 
L 1183.334171 220.428709 
L 1184.473055 379.790617 
L 1185.611939 520.242893 
L 1186.750824 623.705567 
L 1187.889708 589.974763 
L 1189.028592 450.871326 
L 1190.167477 292.623199 
L 1191.306361 161.050942 
L 1192.445245 77.3458 
L 1193.58413 55.645455 
L 1194.723014 159.221805 
L 1195.861898 323.520763 
L 1197.000783 441.534778 
L 1198.139667 532.823245 
L 1199.278551 556.494835 
L 1200.417436 495.617369 
L 1201.55632 406.423568 
L 1202.695204 281.664269 
L 1203.834089 170.036547 
L 1204.972973 130.969914 
L 1206.111857 168.414295 
L 1207.250742 245.955082 
L 1208.389626 307.55423 
L 1210.667395 448.346561 
L 1211.806279 450.756352 
L 1212.945163 403.51073 
L 1214.084048 348.924745 
L 1215.222932 300.733936 
L 1216.361816 257.365334 
L 1217.500701 235.312693 
L 1218.639585 248.316972 
L 1219.778469 284.835579 
L 1220.917354 337.567943 
L 1222.056238 381.783143 
L 1223.195122 397.380268 
L 1224.334007 404.302739 
L 1225.472891 385.138012 
L 1226.611775 349.590375 
L 1228.889544 259.167546 
L 1230.028428 254.074692 
L 1231.167313 263.377231 
L 1232.306197 281.325364 
L 1233.445081 330.223144 
L 1234.583966 391.869656 
L 1235.72285 417.573232 
L 1236.861734 388.087865 
L 1238.000619 348.771293 
L 1239.139503 335.22278 
L 1240.278387 301.039934 
L 1241.417272 236.299791 
L 1242.556156 242.768594 
L 1243.69504 304.973293 
L 1244.833925 336.418071 
L 1245.972809 345.741707 
L 1247.111694 382.827094 
L 1248.250578 432.472917 
L 1249.389462 422.088278 
L 1250.528347 373.579363 
L 1251.667231 334.576597 
L 1253.945 226.491921 
L 1255.083884 204.295705 
L 1256.222768 213.377879 
L 1257.361653 271.190995 
L 1258.500537 389.965551 
L 1259.639421 481.627508 
L 1260.778306 507.279373 
L 1261.91719 497.965689 
L 1263.056074 442.519069 
L 1264.194959 321.304472 
L 1265.333843 174.241119 
L 1266.472727 99.08439 
L 1266.472727 99.08439 
" style="fill:none;stroke:#1f77b4;stroke-linecap:square;stroke-width:1.5;"/>
   </g>
   <g id="line2d_26">
    <path clip-path="url(#p683c236047)" d="M 128.727273 298.164752 
L 129.866157 289.279452 
L 131.005041 288.427294 
L 132.143926 320.659833 
L 133.28281 360.213765 
L 134.421694 380.635366 
L 135.560579 392.613659 
L 136.699463 401.476872 
L 137.838347 396.521547 
L 138.977232 392.918592 
L 140.116116 358.270861 
L 141.255 303.090805 
L 142.393885 272.870341 
L 143.532769 266.1445 
L 144.671653 272.540279 
L 145.810538 275.727405 
L 146.949422 307.27738 
L 149.227191 387.60805 
L 150.366075 399.205866 
L 151.50496 377.240656 
L 152.643844 368.155771 
L 153.782728 355.045844 
L 154.921613 358.211651 
L 156.060497 351.309071 
L 157.199381 321.547726 
L 158.338266 319.205782 
L 159.47715 354.113515 
L 160.616034 352.830196 
L 161.754919 319.647166 
L 162.893803 336.099472 
L 164.032687 346.706115 
L 165.171572 344.436836 
L 166.310456 355.778417 
L 167.44934 375.349564 
L 168.588225 377.816647 
L 169.727109 360.735632 
L 170.865993 355.70991 
L 172.004878 340.332585 
L 173.143762 318.405239 
L 174.282646 309.091719 
L 175.421531 310.72408 
L 176.560415 311.052126 
L 177.699299 330.281869 
L 178.838184 365.809938 
L 179.977068 371.616649 
L 181.115952 370.00396 
L 182.254837 380.026266 
L 183.393721 375.063789 
L 185.67149 368.537144 
L 186.810374 346.972311 
L 187.949258 332.425358 
L 189.088143 328.684745 
L 190.227027 323.001316 
L 191.365911 334.592401 
L 192.504796 360.953385 
L 193.64368 362.699509 
L 194.782564 352.647304 
L 195.921449 360.247855 
L 197.060333 376.616529 
L 198.199217 361.892699 
L 199.338102 335.860279 
L 201.61587 292.079385 
L 202.754755 308.450407 
L 203.893639 311.94643 
L 205.032523 312.64177 
L 206.171408 356.649321 
L 207.310292 392.052406 
L 208.449176 390.256205 
L 209.588061 370.306893 
L 210.726945 371.315175 
L 211.865829 352.739497 
L 213.004714 318.132914 
L 214.143598 315.151097 
L 215.282482 320.163516 
L 216.421367 320.844746 
L 217.560251 318.557751 
L 218.699135 337.908575 
L 219.83802 351.44338 
L 220.976904 348.417185 
L 222.115789 346.197902 
L 223.254673 338.854831 
L 224.393557 339.043792 
L 225.532442 329.816511 
L 226.671326 327.596334 
L 227.81021 314.314308 
L 228.949095 292.865934 
L 230.087979 309.633594 
L 231.226863 324.353887 
L 232.365748 323.459829 
L 233.504632 330.362243 
L 234.643516 346.071169 
L 235.782401 360.211815 
L 236.921285 369.958747 
L 238.060169 368.361682 
L 240.337938 317.020416 
L 241.476822 306.783431 
L 242.615707 288.454615 
L 243.754591 272.513797 
L 244.893475 291.50075 
L 246.03236 322.468263 
L 247.171244 348.223831 
L 248.310128 366.391134 
L 249.449013 357.632218 
L 250.587897 332.608107 
L 251.726781 333.45082 
L 252.865666 329.795562 
L 254.00455 296.268321 
L 255.143434 284.13524 
L 256.282319 291.994736 
L 257.421203 304.685768 
L 258.560087 310.613874 
L 259.698972 318.389136 
L 260.837856 349.292942 
L 261.97674 359.449785 
L 263.115625 346.740271 
L 264.254509 348.525395 
L 265.393393 347.631079 
L 266.532278 325.625552 
L 268.810046 298.319461 
L 269.948931 276.765185 
L 271.087815 263.40591 
L 272.226699 256.676628 
L 273.365584 297.791747 
L 274.504468 326.00013 
L 275.643352 327.150439 
L 276.782237 363.831312 
L 277.921121 383.200146 
L 279.060005 391.542762 
L 280.19889 380.942627 
L 283.615543 310.622943 
L 284.754427 320.760966 
L 285.893311 285.992417 
L 287.032196 239.719832 
L 288.17108 266.243605 
L 289.309965 307.642221 
L 290.448849 325.279192 
L 291.587733 334.297605 
L 292.726618 350.747932 
L 293.865502 387.500549 
L 295.004386 389.547051 
L 296.143271 341.555529 
L 297.282155 318.061583 
L 298.421039 305.842077 
L 299.559924 306.817345 
L 300.698808 314.992508 
L 301.837692 294.147891 
L 302.976577 310.153261 
L 304.115461 374.886918 
L 305.254345 395.791817 
L 306.39323 364.823299 
L 307.532114 352.854965 
L 308.670998 348.733288 
L 309.809883 330.440001 
L 310.948767 306.246636 
L 312.087651 298.629842 
L 313.226536 306.847427 
L 314.36542 306.549775 
L 315.504304 327.034835 
L 316.643189 353.151392 
L 317.782073 353.023538 
L 318.920957 355.340473 
L 320.059842 379.763994 
L 321.198726 383.93132 
L 322.33761 350.355299 
L 323.476495 338.781981 
L 324.615379 348.675425 
L 326.893148 321.100166 
L 328.032032 322.419801 
L 329.170916 316.830525 
L 330.309801 314.387446 
L 331.448685 323.68023 
L 332.587569 340.654926 
L 333.726454 370.285213 
L 334.865338 405.903236 
L 336.004222 412.7056 
L 337.143107 396.765647 
L 338.281991 383.756873 
L 341.698644 299.014509 
L 342.837528 279.667486 
L 343.976413 295.905367 
L 345.115297 320.036553 
L 346.254181 349.00927 
L 347.393066 386.195216 
L 348.53195 389.800208 
L 349.670834 381.787936 
L 350.809719 387.974605 
L 351.948603 383.262587 
L 353.087487 357.755514 
L 354.226372 323.65473 
L 355.365256 331.454796 
L 356.504141 373.934469 
L 357.643025 387.771721 
L 358.781909 375.445071 
L 359.920794 357.843404 
L 361.059678 331.265386 
L 362.198562 321.451958 
L 363.337447 314.874153 
L 364.476331 288.440786 
L 365.615215 300.051071 
L 367.892984 413.395584 
L 369.031868 432.876895 
L 370.170753 420.123956 
L 371.309637 398.077838 
L 372.448521 354.690178 
L 373.587406 318.598968 
L 374.72629 302.538102 
L 377.004059 279.308772 
L 378.142943 310.356414 
L 379.281827 373.233558 
L 380.420712 399.595221 
L 381.559596 401.026207 
L 382.69848 397.904141 
L 383.837365 385.737203 
L 384.976249 369.717083 
L 386.115133 349.892164 
L 388.392902 261.229171 
L 389.531786 275.704948 
L 390.670671 326.57048 
L 391.809555 358.71235 
L 392.948439 373.140169 
L 394.087324 380.415962 
L 395.226208 384.858542 
L 396.365092 392.504766 
L 397.503977 357.350697 
L 398.642861 315.43042 
L 399.781745 308.156251 
L 400.92063 302.985914 
L 402.059514 302.301003 
L 403.198398 319.793473 
L 404.337283 329.725336 
L 405.476167 316.896299 
L 406.615051 344.944743 
L 407.753936 364.572159 
L 408.89282 356.677649 
L 410.031704 385.472429 
L 411.170589 402.425443 
L 412.309473 369.564747 
L 413.448357 302.26867 
L 414.587242 274.368226 
L 415.726126 267.774403 
L 416.86501 234.050515 
L 418.003895 239.68731 
L 419.142779 327.071144 
L 420.281663 391.683135 
L 421.420548 396.17462 
L 422.559432 425.967076 
L 423.698316 406.826944 
L 424.837201 348.022175 
L 425.976085 308.825805 
L 427.11497 286.305099 
L 428.253854 282.970736 
L 429.392738 262.686067 
L 430.531623 277.389767 
L 432.809391 360.127492 
L 433.948276 380.778294 
L 435.08716 337.630071 
L 436.226044 315.320533 
L 437.364929 334.069421 
L 438.503813 335.339069 
L 439.642697 295.775176 
L 440.781582 273.834976 
L 443.05935 323.292924 
L 444.198235 354.686187 
L 445.337119 364.131887 
L 446.476003 351.743323 
L 447.614888 346.158062 
L 448.753772 342.983014 
L 449.892656 334.464485 
L 451.031541 292.010156 
L 452.170425 262.466319 
L 453.309309 268.000282 
L 454.448194 281.111348 
L 455.587078 290.664652 
L 456.725962 322.333784 
L 457.864847 366.613406 
L 459.003731 355.578334 
L 460.142615 359.527913 
L 461.2815 374.263688 
L 462.420384 356.654744 
L 463.559268 342.599081 
L 464.698153 322.244815 
L 466.975921 274.520557 
L 468.114806 283.298215 
L 469.25369 301.228267 
L 470.392574 308.55898 
L 471.531459 305.502488 
L 472.670343 305.009118 
L 473.809227 336.693985 
L 474.948112 352.043952 
L 476.086996 343.183934 
L 477.22588 343.424483 
L 478.364765 347.915591 
L 479.503649 331.502455 
L 480.642533 333.214266 
L 481.781418 355.839343 
L 482.920302 337.270259 
L 484.059186 309.262188 
L 485.198071 311.956612 
L 486.336955 328.457074 
L 487.475839 323.844646 
L 488.614724 320.82389 
L 489.753608 359.672908 
L 490.892492 367.938583 
L 492.031377 317.666205 
L 493.170261 295.099129 
L 494.309146 307.242878 
L 495.44803 301.46331 
L 496.586914 300.362678 
L 500.003567 377.065658 
L 501.142452 390.35769 
L 502.281336 390.580876 
L 503.42022 386.340696 
L 504.559105 367.743554 
L 505.697989 332.90061 
L 506.836873 293.238545 
L 507.975758 275.046055 
L 509.114642 284.135826 
L 510.253526 304.056129 
L 511.392411 314.789038 
L 512.531295 306.079824 
L 513.670179 331.670884 
L 514.809064 375.001379 
L 515.947948 386.584015 
L 517.086832 393.760806 
L 518.225717 391.354835 
L 519.364601 391.656904 
L 520.503485 388.631164 
L 521.64237 361.16794 
L 523.920138 264.345064 
L 525.059023 268.399838 
L 526.197907 280.292036 
L 527.336791 296.219042 
L 529.61456 400.948952 
L 530.753444 430.259898 
L 531.892329 423.689916 
L 533.031213 397.84047 
L 534.170097 379.965767 
L 535.308982 355.601422 
L 536.447866 322.691911 
L 537.58675 283.935209 
L 538.725635 264.387271 
L 539.864519 283.813094 
L 541.003403 326.09493 
L 542.142288 377.521703 
L 543.281172 383.733028 
L 544.420056 380.861244 
L 545.558941 406.02764 
L 546.697825 379.302322 
L 547.836709 348.946573 
L 548.975594 332.00939 
L 550.114478 298.874976 
L 551.253362 292.268188 
L 552.392247 316.566587 
L 553.531131 349.287455 
L 554.670015 348.801126 
L 555.8089 364.3124 
L 556.947784 427.102841 
L 558.086668 437.786983 
L 560.364437 337.519786 
L 561.503322 309.168356 
L 563.78109 285.352396 
L 564.919975 284.437224 
L 566.058859 297.710855 
L 567.197743 330.234215 
L 568.336628 370.442679 
L 569.475512 398.029223 
L 570.614396 413.850739 
L 571.753281 403.345431 
L 572.892165 369.478172 
L 574.031049 332.215049 
L 575.169934 332.688229 
L 576.308818 347.742783 
L 577.447702 313.328475 
L 578.586587 302.310307 
L 579.725471 326.256172 
L 580.864355 332.011199 
L 582.00324 327.246915 
L 583.142124 303.362707 
L 584.281008 301.865233 
L 585.419893 329.456639 
L 586.558777 379.656601 
L 587.697661 419.648254 
L 588.836546 396.334982 
L 589.97543 386.650287 
L 591.114314 379.064382 
L 592.253199 316.185287 
L 593.392083 266.651848 
L 594.530967 266.126696 
L 595.669852 279.364499 
L 596.808736 281.826929 
L 597.94762 320.643032 
L 599.086505 384.198582 
L 600.225389 391.76423 
L 601.364273 378.258807 
L 602.503158 369.427168 
L 603.642042 354.408101 
L 607.058695 323.95595 
L 609.336464 271.959476 
L 610.475348 285.821622 
L 611.614232 297.574846 
L 612.753117 301.92391 
L 613.892001 332.557737 
L 615.030885 366.759786 
L 616.16977 388.661975 
L 617.308654 396.414069 
L 618.447538 372.24532 
L 619.586423 328.209492 
L 620.725307 301.249842 
L 621.864191 291.250979 
L 623.003076 287.630724 
L 624.14196 291.535063 
L 625.280844 301.073914 
L 627.558613 369.43101 
L 628.697497 376.750161 
L 629.836382 369.721893 
L 630.975266 344.299551 
L 633.253035 314.368236 
L 634.391919 291.883378 
L 635.530804 282.044165 
L 636.669688 274.028128 
L 637.808572 273.98196 
L 638.947457 300.420392 
L 640.086341 341.506267 
L 641.225225 364.516177 
L 642.36411 368.207864 
L 643.502994 377.754334 
L 644.641878 383.258902 
L 645.780763 374.640488 
L 646.919647 350.92543 
L 648.058531 313.162252 
L 649.197416 290.509897 
L 650.3363 286.373333 
L 651.475184 284.928459 
L 652.614069 285.034752 
L 653.752953 287.612546 
L 654.891837 298.191356 
L 656.030722 336.75562 
L 657.169606 379.81253 
L 658.30849 390.240892 
L 659.447375 384.275196 
L 660.586259 369.787959 
L 661.725143 343.813783 
L 662.864028 310.154322 
L 664.002912 295.904731 
L 665.141796 290.448126 
L 666.280681 284.01219 
L 668.558449 325.033329 
L 669.697334 352.548796 
L 670.836218 376.342276 
L 671.975102 373.066989 
L 673.113987 363.931581 
L 675.391755 310.446403 
L 676.53064 298.105935 
L 677.669524 273.02452 
L 678.808408 262.245376 
L 679.947293 297.245791 
L 681.086177 344.468829 
L 682.225061 365.107315 
L 683.363946 394.220185 
L 684.50283 413.505492 
L 685.641714 385.135875 
L 686.780599 366.179584 
L 687.919483 350.43664 
L 689.058367 302.967555 
L 690.197252 264.601904 
L 691.336136 276.659585 
L 692.47502 317.974487 
L 693.613905 330.251809 
L 694.752789 332.688797 
L 695.891673 366.857963 
L 697.030558 390.375785 
L 698.169442 388.556191 
L 699.308327 374.240815 
L 700.447211 338.518049 
L 701.586095 319.979468 
L 702.72498 330.228795 
L 703.863864 322.012723 
L 705.002748 295.299428 
L 706.141633 305.624245 
L 707.280517 356.383442 
L 708.419401 360.188706 
L 709.558286 338.128081 
L 710.69717 357.488484 
L 711.836054 367.271026 
L 712.974939 363.181754 
L 715.252707 345.635261 
L 716.391592 361.877958 
L 717.530476 347.000306 
L 718.66936 322.516823 
L 719.808245 351.604875 
L 720.947129 348.277128 
L 722.086013 329.148329 
L 723.224898 364.258176 
L 724.363782 362.11063 
L 725.502666 319.987173 
L 726.641551 335.423069 
L 727.780435 374.026946 
L 730.058204 334.207014 
L 731.197088 370.883559 
L 732.335972 390.833893 
L 733.474857 345.190156 
L 734.613741 312.448293 
L 735.752625 327.474684 
L 736.89151 313.630922 
L 738.030394 297.293976 
L 739.169278 335.121861 
L 740.308163 367.299765 
L 741.447047 356.280635 
L 742.585931 379.185798 
L 743.724816 427.398302 
L 744.8637 397.399009 
L 746.002584 334.504534 
L 747.141469 311.734344 
L 748.280353 332.022781 
L 749.419237 328.962733 
L 750.558122 279.054351 
L 751.697006 300.644981 
L 752.83589 340.371116 
L 753.974775 325.491388 
L 755.113659 352.733746 
L 756.252543 373.181706 
L 757.391428 348.10801 
L 758.530312 357.163205 
L 759.669196 369.373667 
L 760.808081 346.327843 
L 761.946965 350.048189 
L 763.085849 365.367651 
L 764.224734 348.24292 
L 765.363618 335.671772 
L 766.502503 309.501201 
L 767.641387 287.564257 
L 768.780271 292.009113 
L 769.919156 301.311272 
L 771.05804 335.683928 
L 772.196924 358.358342 
L 773.335809 364.216428 
L 774.474693 393.113617 
L 775.613577 399.322027 
L 776.752462 345.478919 
L 777.891346 297.545616 
L 779.03023 288.766371 
L 780.169115 265.277847 
L 781.307999 248.491207 
L 782.446883 285.065605 
L 783.585768 332.508521 
L 784.724652 364.62727 
L 785.863536 392.319225 
L 787.002421 400.77938 
L 789.280189 371.278884 
L 790.419074 341.276141 
L 791.557958 302.115226 
L 792.696842 272.378472 
L 793.835727 262.365624 
L 794.974611 274.777705 
L 796.113495 280.789556 
L 797.25238 310.977476 
L 798.391264 348.641326 
L 799.530148 372.174594 
L 800.669033 390.204843 
L 801.807917 377.420963 
L 802.946801 350.72827 
L 804.085686 313.711709 
L 805.22457 298.193654 
L 806.363454 293.363852 
L 807.502339 276.606681 
L 808.641223 300.877779 
L 809.780107 329.784277 
L 810.918992 341.520858 
L 812.057876 357.981038 
L 813.19676 355.042961 
L 814.335645 344.850949 
L 816.613413 278.052996 
L 817.752298 304.855577 
L 818.891182 323.470525 
L 820.030066 318.080508 
L 821.168951 332.533731 
L 822.307835 357.744784 
L 823.446719 372.851341 
L 824.585604 348.263264 
L 825.724488 331.50938 
L 826.863372 331.879052 
L 828.002257 298.915359 
L 829.141141 297.030793 
L 830.280025 316.363939 
L 831.41891 297.161773 
L 832.557794 307.414481 
L 833.696678 368.269664 
L 834.835563 392.511354 
L 835.974447 365.743386 
L 837.113332 356.784406 
L 838.252216 345.574761 
L 839.3911 292.708877 
L 840.529985 265.072215 
L 841.668869 302.403475 
L 842.807753 333.993312 
L 843.946638 324.322944 
L 845.085522 328.008741 
L 846.224406 360.984711 
L 847.363291 377.529982 
L 848.502175 359.521111 
L 849.641059 337.52813 
L 850.779944 340.882637 
L 851.918828 358.724235 
L 853.057712 364.590104 
L 854.196597 352.620661 
L 855.335481 343.056019 
L 856.474365 343.079153 
L 857.61325 331.963273 
L 858.752134 314.081589 
L 859.891018 309.31994 
L 861.029903 315.86508 
L 862.168787 304.958622 
L 863.307671 312.689128 
L 864.446556 367.473133 
L 865.58544 395.289545 
L 866.724324 385.014325 
L 867.863209 384.327697 
L 869.002093 403.719115 
L 870.140977 386.340403 
L 871.279862 330.688551 
L 872.418746 305.312728 
L 873.55763 303.089586 
L 874.696515 318.126099 
L 875.835399 336.358008 
L 876.974283 335.989927 
L 878.113168 336.943162 
L 880.390936 381.495438 
L 881.529821 382.760956 
L 882.668705 374.55505 
L 883.807589 376.086229 
L 884.946474 390.244911 
L 886.085358 374.136208 
L 887.224242 345.830693 
L 888.363127 322.990495 
L 889.502011 293.175659 
L 890.640895 300.119088 
L 891.77978 319.977073 
L 892.918664 334.436034 
L 894.057548 355.853918 
L 895.196433 383.994518 
L 896.335317 408.670156 
L 897.474201 413.569823 
L 898.613086 410.170659 
L 899.75197 381.278021 
L 900.890854 359.494976 
L 902.029739 340.89104 
L 903.168623 296.646048 
L 904.307508 281.438563 
L 905.446392 283.075738 
L 906.585276 320.543976 
L 907.724161 379.2094 
L 908.863045 413.852012 
L 910.001929 445.055617 
L 911.140814 423.727818 
L 914.557467 294.501866 
L 915.696351 269.417486 
L 916.835235 260.110091 
L 919.113004 349.433975 
L 921.390773 402.42602 
L 922.529657 409.521093 
L 923.668541 400.569281 
L 925.94631 321.668266 
L 927.085194 310.824949 
L 928.224079 313.040188 
L 929.362963 321.099458 
L 931.640732 374.660538 
L 932.779616 374.122979 
L 933.9185 348.691453 
L 935.057385 318.545916 
L 936.196269 302.41557 
L 937.335153 290.491504 
L 938.474038 284.922284 
L 939.612922 313.178468 
L 940.751806 357.74299 
L 941.890691 364.660519 
L 943.029575 369.481135 
L 944.168459 382.815834 
L 945.307344 363.126404 
L 946.446228 336.251881 
L 947.585112 312.562692 
L 948.723997 304.792463 
L 949.862881 298.426125 
L 951.001765 280.766689 
L 952.14065 289.943184 
L 953.279534 311.163376 
L 955.557303 346.602956 
L 956.696187 364.10086 
L 957.835071 378.991907 
L 958.973956 373.466236 
L 960.11284 351.34991 
L 961.251724 317.830702 
L 962.390609 290.04177 
L 963.529493 278.105775 
L 964.668377 249.626134 
L 965.807262 237.676556 
L 966.946146 277.164355 
L 968.08503 321.734545 
L 969.223915 352.554193 
L 970.362799 390.890012 
L 971.501684 407.793608 
L 972.640568 388.593096 
L 973.779452 373.484798 
L 974.918337 333.870145 
L 976.057221 255.839525 
L 977.196105 208.001089 
L 978.33499 214.842306 
L 979.473874 247.891358 
L 980.612758 268.319085 
L 981.751643 298.711528 
L 982.890527 358.262096 
L 984.029411 404.530509 
L 985.168296 408.940714 
L 986.30718 378.621422 
L 987.446064 368.157379 
L 988.584949 353.922293 
L 989.723833 311.452179 
L 990.862717 288.71678 
L 992.001602 282.18013 
L 994.27937 260.445275 
L 995.418255 268.973655 
L 996.557139 288.906047 
L 997.696023 320.032514 
L 998.834908 374.883383 
L 999.973792 404.067224 
L 1001.112676 368.744559 
L 1002.251561 343.194427 
L 1003.390445 341.457125 
L 1004.529329 294.257588 
L 1005.668214 240.337994 
L 1006.807098 235.416255 
L 1007.945982 280.232762 
L 1009.084867 340.802314 
L 1010.223751 370.097347 
L 1011.362635 382.780137 
L 1012.50152 404.606405 
L 1013.640404 401.099934 
L 1014.779288 351.524627 
L 1015.918173 285.911148 
L 1017.057057 244.465393 
L 1018.195941 254.607857 
L 1019.334826 285.813278 
L 1020.47371 303.300411 
L 1021.612594 329.312462 
L 1022.751479 378.240367 
L 1023.890363 404.940323 
L 1025.029247 390.500434 
L 1027.307016 356.742378 
L 1029.584785 327.001979 
L 1030.723669 306.55332 
L 1031.862553 296.738402 
L 1033.001438 301.057838 
L 1034.140322 319.306041 
L 1035.279206 330.353391 
L 1036.418091 322.994875 
L 1037.556975 321.325499 
L 1042.112513 399.915665 
L 1043.251397 409.63095 
L 1044.390281 399.000262 
L 1045.529166 372.90456 
L 1046.66805 337.467491 
L 1047.806934 292.545506 
L 1048.945819 270.360001 
L 1050.084703 288.876024 
L 1051.223587 320.952646 
L 1053.501356 372.357982 
L 1054.64024 403.077702 
L 1055.779125 408.642227 
L 1056.918009 374.421563 
L 1058.056893 336.85804 
L 1059.195778 316.243395 
L 1060.334662 315.331439 
L 1061.473546 312.563054 
L 1062.612431 318.250493 
L 1063.751315 346.966436 
L 1064.890199 360.74553 
L 1066.029084 384.10775 
L 1067.167968 390.998753 
L 1068.306852 364.524758 
L 1069.445737 353.614015 
L 1070.584621 337.732069 
L 1071.723505 331.727898 
L 1072.86239 339.208708 
L 1074.001274 337.841454 
L 1075.140158 382.793977 
L 1076.279043 398.386631 
L 1077.417927 356.41023 
L 1078.556811 368.973176 
L 1079.695696 370.482519 
L 1081.973464 284.046171 
L 1083.112349 280.128567 
L 1084.251233 352.720333 
L 1085.390117 387.228774 
L 1086.529002 353.227729 
L 1087.667886 352.417927 
L 1088.80677 382.88381 
L 1089.945655 406.476855 
L 1091.084539 379.703719 
L 1092.223423 321.627326 
L 1093.362308 302.555647 
L 1094.501192 309.933599 
L 1095.640076 354.1239 
L 1096.778961 374.139301 
L 1097.917845 345.608375 
L 1099.056729 346.889143 
L 1100.195614 369.973105 
L 1101.334498 396.384125 
L 1102.473382 327.838465 
L 1103.612267 241.008641 
L 1105.890035 363.806098 
L 1107.02892 339.899475 
L 1108.167804 347.30331 
L 1109.306689 398.458841 
L 1110.445573 397.813021 
L 1111.584457 346.279975 
L 1112.723342 319.605711 
L 1113.862226 318.646509 
L 1115.00111 323.547295 
L 1116.139995 342.131183 
L 1117.278879 354.162037 
L 1118.417763 339.84992 
L 1119.556648 349.071082 
L 1120.695532 386.164608 
L 1121.834416 379.720908 
L 1122.973301 320.519249 
L 1124.112185 281.670478 
L 1125.251069 300.292497 
L 1126.389954 306.602964 
L 1127.528838 263.537078 
L 1128.667722 282.728703 
L 1129.806607 383.206561 
L 1130.945491 435.022551 
L 1132.084375 407.871939 
L 1133.22326 390.374876 
L 1134.362144 401.084676 
L 1135.501028 346.237309 
L 1136.639913 281.890514 
L 1137.778797 268.286576 
L 1138.917681 244.230083 
L 1140.056566 252.804179 
L 1141.19545 299.067313 
L 1142.334334 361.276338 
L 1143.473219 399.356818 
L 1144.612103 365.387534 
L 1145.750987 339.922794 
L 1146.889872 339.406117 
L 1148.028756 324.475708 
L 1149.16764 319.903072 
L 1150.306525 351.678871 
L 1151.445409 387.691211 
L 1152.584293 376.319559 
L 1154.862062 261.387485 
L 1156.000946 234.291556 
L 1157.139831 227.52806 
L 1158.278715 266.809248 
L 1160.556484 381.403425 
L 1161.695368 464.707435 
L 1162.834252 500.958195 
L 1163.973137 444.831596 
L 1165.112021 352.155183 
L 1168.528674 133.135781 
L 1169.667558 136.602274 
L 1170.806443 241.177285 
L 1171.945327 366.301073 
L 1173.084211 440.627729 
L 1174.223096 502.585038 
L 1175.36198 552.539036 
L 1176.500865 501.588816 
L 1178.778633 215.038667 
L 1179.917518 128.418564 
L 1181.056402 84.526794 
L 1182.195286 101.538651 
L 1183.334171 233.035132 
L 1184.473055 392.020107 
L 1185.611939 532.173658 
L 1186.750824 630.954545 
L 1187.889708 582.582839 
L 1191.306361 151.316431 
L 1192.445245 73.23661 
L 1193.58413 58.01422 
L 1194.723014 171.080247 
L 1195.861898 338.206249 
L 1197.000783 449.018384 
L 1198.139667 537.08347 
L 1199.278551 555.589734 
L 1200.417436 487.284379 
L 1201.55632 395.878502 
L 1202.695204 273.64514 
L 1203.834089 166.149039 
L 1204.972973 126.545318 
L 1206.111857 171.856412 
L 1207.250742 256.499435 
L 1208.389626 313.099493 
L 1209.52851 387.374271 
L 1210.667395 451.926547 
L 1211.806279 449.075029 
L 1212.945163 399.390292 
L 1214.084048 341.406474 
L 1216.361816 255.686708 
L 1217.500701 233.832723 
L 1218.639585 250.199472 
L 1219.778469 287.429804 
L 1220.917354 343.058615 
L 1222.056238 381.365137 
L 1223.195122 399.513806 
L 1224.334007 406.62489 
L 1225.472891 381.874517 
L 1226.611775 345.79377 
L 1228.889544 257.611197 
L 1230.028428 250.449193 
L 1231.167313 266.809137 
L 1232.306197 287.404149 
L 1233.445081 328.665095 
L 1234.583966 397.45357 
L 1235.72285 422.523095 
L 1236.861734 379.160475 
L 1238.000619 346.964381 
L 1239.139503 335.419892 
L 1240.278387 294.595146 
L 1241.417272 235.413207 
L 1242.556156 243.499476 
L 1243.69504 310.476072 
L 1244.833925 341.178885 
L 1245.972809 346.254887 
L 1247.111694 387.569373 
L 1248.250578 433.304092 
L 1249.389462 416.725388 
L 1250.528347 369.42555 
L 1251.667231 329.543676 
L 1253.945 225.664167 
L 1255.083884 202.716568 
L 1256.222768 216.482639 
L 1257.361653 280.998126 
L 1258.500537 398.850421 
L 1259.639421 489.074766 
L 1260.778306 506.155145 
L 1261.91719 494.12229 
L 1263.056074 437.09086 
L 1265.333843 162.025167 
L 1266.472727 98.444642 
L 1266.472727 98.444642 
" style="fill:none;stroke:#ff7f0e;stroke-linecap:square;stroke-width:1.5;"/>
   </g>
   <g id="patch_3">
    <path d="M 71.84 659.72 
L 71.84 26.88 
" style="fill:none;stroke:#000000;stroke-linecap:square;stroke-linejoin:miter;stroke-width:0.8;"/>
   </g>
   <g id="patch_4">
    <path d="M 1323.36 659.72 
L 1323.36 26.88 
" style="fill:none;stroke:#000000;stroke-linecap:square;stroke-linejoin:miter;stroke-width:0.8;"/>
   </g>
   <g id="patch_5">
    <path d="M 71.84 659.72 
L 1323.36 659.72 
" style="fill:none;stroke:#000000;stroke-linecap:square;stroke-linejoin:miter;stroke-width:0.8;"/>
   </g>
   <g id="patch_6">
    <path d="M 71.84 26.88 
L 1323.36 26.88 
" style="fill:none;stroke:#000000;stroke-linecap:square;stroke-linejoin:miter;stroke-width:0.8;"/>
   </g>
   <g id="text_14">
    <!-- Corrected BHE data VS Raw BLE data -->
    <defs>
     <path d="M 64.40625 67.28125 
L 64.40625 56.890625 
Q 59.421875 61.53125 53.78125 63.8125 
Q 48.140625 66.109375 41.796875 66.109375 
Q 29.296875 66.109375 22.65625 58.46875 
Q 16.015625 50.828125 16.015625 36.375 
Q 16.015625 21.96875 22.65625 14.328125 
Q 29.296875 6.6875 41.796875 6.6875 
Q 48.140625 6.6875 53.78125 8.984375 
Q 59.421875 11.28125 64.40625 15.921875 
L 64.40625 5.609375 
Q 59.234375 2.09375 53.4375 0.328125 
Q 47.65625 -1.421875 41.21875 -1.421875 
Q 24.65625 -1.421875 15.125 8.703125 
Q 5.609375 18.84375 5.609375 36.375 
Q 5.609375 53.953125 15.125 64.078125 
Q 24.65625 74.21875 41.21875 74.21875 
Q 47.75 74.21875 53.53125 72.484375 
Q 59.328125 70.75 64.40625 67.28125 
z
" id="DejaVuSans-67"/>
     <path d="M 41.109375 46.296875 
Q 39.59375 47.171875 37.8125 47.578125 
Q 36.03125 48 33.890625 48 
Q 26.265625 48 22.1875 43.046875 
Q 18.109375 38.09375 18.109375 28.8125 
L 18.109375 0 
L 9.078125 0 
L 9.078125 54.6875 
L 18.109375 54.6875 
L 18.109375 46.1875 
Q 20.953125 51.171875 25.484375 53.578125 
Q 30.03125 56 36.53125 56 
Q 37.453125 56 38.578125 55.875 
Q 39.703125 55.765625 41.0625 55.515625 
z
" id="DejaVuSans-114"/>
     <path d="M 56.203125 29.59375 
L 56.203125 25.203125 
L 14.890625 25.203125 
Q 15.484375 15.921875 20.484375 11.0625 
Q 25.484375 6.203125 34.421875 6.203125 
Q 39.59375 6.203125 44.453125 7.46875 
Q 49.3125 8.734375 54.109375 11.28125 
L 54.109375 2.78125 
Q 49.265625 0.734375 44.1875 -0.34375 
Q 39.109375 -1.421875 33.890625 -1.421875 
Q 20.796875 -1.421875 13.15625 6.1875 
Q 5.515625 13.8125 5.515625 26.8125 
Q 5.515625 40.234375 12.765625 48.109375 
Q 20.015625 56 32.328125 56 
Q 43.359375 56 49.78125 48.890625 
Q 56.203125 41.796875 56.203125 29.59375 
z
M 47.21875 32.234375 
Q 47.125 39.59375 43.09375 43.984375 
Q 39.0625 48.390625 32.421875 48.390625 
Q 24.90625 48.390625 20.390625 44.140625 
Q 15.875 39.890625 15.1875 32.171875 
z
" id="DejaVuSans-101"/>
     <path d="M 45.40625 46.390625 
L 45.40625 75.984375 
L 54.390625 75.984375 
L 54.390625 0 
L 45.40625 0 
L 45.40625 8.203125 
Q 42.578125 3.328125 38.25 0.953125 
Q 33.9375 -1.421875 27.875 -1.421875 
Q 17.96875 -1.421875 11.734375 6.484375 
Q 5.515625 14.40625 5.515625 27.296875 
Q 5.515625 40.1875 11.734375 48.09375 
Q 17.96875 56 27.875 56 
Q 33.9375 56 38.25 53.625 
Q 42.578125 51.265625 45.40625 46.390625 
z
M 14.796875 27.296875 
Q 14.796875 17.390625 18.875 11.75 
Q 22.953125 6.109375 30.078125 6.109375 
Q 37.203125 6.109375 41.296875 11.75 
Q 45.40625 17.390625 45.40625 27.296875 
Q 45.40625 37.203125 41.296875 42.84375 
Q 37.203125 48.484375 30.078125 48.484375 
Q 22.953125 48.484375 18.875 42.84375 
Q 14.796875 37.203125 14.796875 27.296875 
z
" id="DejaVuSans-100"/>
     <path id="DejaVuSans-32"/>
     <path d="M 19.671875 34.8125 
L 19.671875 8.109375 
L 35.5 8.109375 
Q 43.453125 8.109375 47.28125 11.40625 
Q 51.125 14.703125 51.125 21.484375 
Q 51.125 28.328125 47.28125 31.5625 
Q 43.453125 34.8125 35.5 34.8125 
z
M 19.671875 64.796875 
L 19.671875 42.828125 
L 34.28125 42.828125 
Q 41.5 42.828125 45.03125 45.53125 
Q 48.578125 48.25 48.578125 53.8125 
Q 48.578125 59.328125 45.03125 62.0625 
Q 41.5 64.796875 34.28125 64.796875 
z
M 9.8125 72.90625 
L 35.015625 72.90625 
Q 46.296875 72.90625 52.390625 68.21875 
Q 58.5 63.53125 58.5 54.890625 
Q 58.5 48.1875 55.375 44.234375 
Q 52.25 40.28125 46.1875 39.3125 
Q 53.46875 37.75 57.5 32.78125 
Q 61.53125 27.828125 61.53125 20.40625 
Q 61.53125 10.640625 54.890625 5.3125 
Q 48.25 0 35.984375 0 
L 9.8125 0 
z
" id="DejaVuSans-66"/>
     <path d="M 9.8125 72.90625 
L 19.671875 72.90625 
L 19.671875 43.015625 
L 55.515625 43.015625 
L 55.515625 72.90625 
L 65.375 72.90625 
L 65.375 0 
L 55.515625 0 
L 55.515625 34.71875 
L 19.671875 34.71875 
L 19.671875 0 
L 9.8125 0 
z
" id="DejaVuSans-72"/>
     <path d="M 9.8125 72.90625 
L 55.90625 72.90625 
L 55.90625 64.59375 
L 19.671875 64.59375 
L 19.671875 43.015625 
L 54.390625 43.015625 
L 54.390625 34.71875 
L 19.671875 34.71875 
L 19.671875 8.296875 
L 56.78125 8.296875 
L 56.78125 0 
L 9.8125 0 
z
" id="DejaVuSans-69"/>
     <path d="M 34.28125 27.484375 
Q 23.390625 27.484375 19.1875 25 
Q 14.984375 22.515625 14.984375 16.5 
Q 14.984375 11.71875 18.140625 8.90625 
Q 21.296875 6.109375 26.703125 6.109375 
Q 34.1875 6.109375 38.703125 11.40625 
Q 43.21875 16.703125 43.21875 25.484375 
L 43.21875 27.484375 
z
M 52.203125 31.203125 
L 52.203125 0 
L 43.21875 0 
L 43.21875 8.296875 
Q 40.140625 3.328125 35.546875 0.953125 
Q 30.953125 -1.421875 24.3125 -1.421875 
Q 15.921875 -1.421875 10.953125 3.296875 
Q 6 8.015625 6 15.921875 
Q 6 25.140625 12.171875 29.828125 
Q 18.359375 34.515625 30.609375 34.515625 
L 43.21875 34.515625 
L 43.21875 35.40625 
Q 43.21875 41.609375 39.140625 45 
Q 35.0625 48.390625 27.6875 48.390625 
Q 23 48.390625 18.546875 47.265625 
Q 14.109375 46.140625 10.015625 43.890625 
L 10.015625 52.203125 
Q 14.9375 54.109375 19.578125 55.046875 
Q 24.21875 56 28.609375 56 
Q 40.484375 56 46.34375 49.84375 
Q 52.203125 43.703125 52.203125 31.203125 
z
" id="DejaVuSans-97"/>
     <path d="M 28.609375 0 
L 0.78125 72.90625 
L 11.078125 72.90625 
L 34.1875 11.53125 
L 57.328125 72.90625 
L 67.578125 72.90625 
L 39.796875 0 
z
" id="DejaVuSans-86"/>
     <path d="M 53.515625 70.515625 
L 53.515625 60.890625 
Q 47.90625 63.578125 42.921875 64.890625 
Q 37.9375 66.21875 33.296875 66.21875 
Q 25.25 66.21875 20.875 63.09375 
Q 16.5 59.96875 16.5 54.203125 
Q 16.5 49.359375 19.40625 46.890625 
Q 22.3125 44.4375 30.421875 42.921875 
L 36.375 41.703125 
Q 47.40625 39.59375 52.65625 34.296875 
Q 57.90625 29 57.90625 20.125 
Q 57.90625 9.515625 50.796875 4.046875 
Q 43.703125 -1.421875 29.984375 -1.421875 
Q 24.8125 -1.421875 18.96875 -0.25 
Q 13.140625 0.921875 6.890625 3.21875 
L 6.890625 13.375 
Q 12.890625 10.015625 18.65625 8.296875 
Q 24.421875 6.59375 29.984375 6.59375 
Q 38.421875 6.59375 43.015625 9.90625 
Q 47.609375 13.234375 47.609375 19.390625 
Q 47.609375 24.75 44.3125 27.78125 
Q 41.015625 30.8125 33.5 32.328125 
L 27.484375 33.5 
Q 16.453125 35.6875 11.515625 40.375 
Q 6.59375 45.0625 6.59375 53.421875 
Q 6.59375 63.09375 13.40625 68.65625 
Q 20.21875 74.21875 32.171875 74.21875 
Q 37.3125 74.21875 42.625 73.28125 
Q 47.953125 72.359375 53.515625 70.515625 
z
" id="DejaVuSans-83"/>
     <path d="M 44.390625 34.1875 
Q 47.5625 33.109375 50.5625 29.59375 
Q 53.5625 26.078125 56.59375 19.921875 
L 66.609375 0 
L 56 0 
L 46.6875 18.703125 
Q 43.0625 26.03125 39.671875 28.421875 
Q 36.28125 30.8125 30.421875 30.8125 
L 19.671875 30.8125 
L 19.671875 0 
L 9.8125 0 
L 9.8125 72.90625 
L 32.078125 72.90625 
Q 44.578125 72.90625 50.734375 67.671875 
Q 56.890625 62.453125 56.890625 51.90625 
Q 56.890625 45.015625 53.6875 40.46875 
Q 50.484375 35.9375 44.390625 34.1875 
z
M 19.671875 64.796875 
L 19.671875 38.921875 
L 32.078125 38.921875 
Q 39.203125 38.921875 42.84375 42.21875 
Q 46.484375 45.515625 46.484375 51.90625 
Q 46.484375 58.296875 42.84375 61.546875 
Q 39.203125 64.796875 32.078125 64.796875 
z
" id="DejaVuSans-82"/>
     <path d="M 4.203125 54.6875 
L 13.1875 54.6875 
L 24.421875 12.015625 
L 35.59375 54.6875 
L 46.1875 54.6875 
L 57.421875 12.015625 
L 68.609375 54.6875 
L 77.59375 54.6875 
L 63.28125 0 
L 52.6875 0 
L 40.921875 44.828125 
L 29.109375 0 
L 18.5 0 
z
" id="DejaVuSans-119"/>
     <path d="M 9.8125 72.90625 
L 19.671875 72.90625 
L 19.671875 8.296875 
L 55.171875 8.296875 
L 55.171875 0 
L 9.8125 0 
z
" id="DejaVuSans-76"/>
    </defs>
    <g transform="translate(585.158125 20.88)scale(0.12 -0.12)">
     <use xlink:href="#DejaVuSans-67"/>
     <use x="69.824219" xlink:href="#DejaVuSans-111"/>
     <use x="131.005859" xlink:href="#DejaVuSans-114"/>
     <use x="172.103516" xlink:href="#DejaVuSans-114"/>
     <use x="213.185547" xlink:href="#DejaVuSans-101"/>
     <use x="274.708984" xlink:href="#DejaVuSans-99"/>
     <use x="329.689453" xlink:href="#DejaVuSans-116"/>
     <use x="368.898438" xlink:href="#DejaVuSans-101"/>
     <use x="430.421875" xlink:href="#DejaVuSans-100"/>
     <use x="493.898438" xlink:href="#DejaVuSans-32"/>
     <use x="525.685547" xlink:href="#DejaVuSans-66"/>
     <use x="594.289062" xlink:href="#DejaVuSans-72"/>
     <use x="669.484375" xlink:href="#DejaVuSans-69"/>
     <use x="732.667969" xlink:href="#DejaVuSans-32"/>
     <use x="764.455078" xlink:href="#DejaVuSans-100"/>
     <use x="827.931641" xlink:href="#DejaVuSans-97"/>
     <use x="889.210938" xlink:href="#DejaVuSans-116"/>
     <use x="928.419922" xlink:href="#DejaVuSans-97"/>
     <use x="989.699219" xlink:href="#DejaVuSans-32"/>
     <use x="1021.486328" xlink:href="#DejaVuSans-86"/>
     <use x="1089.894531" xlink:href="#DejaVuSans-83"/>
     <use x="1153.371094" xlink:href="#DejaVuSans-32"/>
     <use x="1185.158203" xlink:href="#DejaVuSans-82"/>
     <use x="1254.609375" xlink:href="#DejaVuSans-97"/>
     <use x="1315.888672" xlink:href="#DejaVuSans-119"/>
     <use x="1397.675781" xlink:href="#DejaVuSans-32"/>
     <use x="1429.462891" xlink:href="#DejaVuSans-66"/>
     <use x="1498.066406" xlink:href="#DejaVuSans-76"/>
     <use x="1553.779297" xlink:href="#DejaVuSans-69"/>
     <use x="1616.962891" xlink:href="#DejaVuSans-32"/>
     <use x="1648.75" xlink:href="#DejaVuSans-100"/>
     <use x="1712.226562" xlink:href="#DejaVuSans-97"/>
     <use x="1773.505859" xlink:href="#DejaVuSans-116"/>
     <use x="1812.714844" xlink:href="#DejaVuSans-97"/>
    </g>
   </g>
   <g id="legend_1">
    <g id="patch_7">
     <path d="M 78.84 64.514375 
L 160.2275 64.514375 
Q 162.2275 64.514375 162.2275 62.514375 
L 162.2275 33.88 
Q 162.2275 31.88 160.2275 31.88 
L 78.84 31.88 
Q 76.84 31.88 76.84 33.88 
L 76.84 62.514375 
Q 76.84 64.514375 78.84 64.514375 
z
" style="fill:#ffffff;opacity:0.8;stroke:#cccccc;stroke-linejoin:miter;"/>
    </g>
    <g id="line2d_27">
     <path d="M 80.84 39.978437 
L 100.84 39.978437 
" style="fill:none;stroke:#1f77b4;stroke-linecap:square;stroke-width:1.5;"/>
    </g>
    <g id="line2d_28"/>
    <g id="text_15">
     <!-- NEW_BHE -->
     <defs>
      <path d="M 9.8125 72.90625 
L 23.09375 72.90625 
L 55.421875 11.921875 
L 55.421875 72.90625 
L 64.984375 72.90625 
L 64.984375 0 
L 51.703125 0 
L 19.390625 60.984375 
L 19.390625 0 
L 9.8125 0 
z
" id="DejaVuSans-78"/>
      <path d="M 3.328125 72.90625 
L 13.28125 72.90625 
L 28.609375 11.28125 
L 43.890625 72.90625 
L 54.984375 72.90625 
L 70.3125 11.28125 
L 85.59375 72.90625 
L 95.609375 72.90625 
L 77.296875 0 
L 64.890625 0 
L 49.515625 63.28125 
L 33.984375 0 
L 21.578125 0 
z
" id="DejaVuSans-87"/>
      <path d="M 50.984375 -16.609375 
L 50.984375 -23.578125 
L -0.984375 -23.578125 
L -0.984375 -16.609375 
z
" id="DejaVuSans-95"/>
     </defs>
     <g transform="translate(108.84 43.478437)scale(0.1 -0.1)">
      <use xlink:href="#DejaVuSans-78"/>
      <use x="74.804688" xlink:href="#DejaVuSans-69"/>
      <use x="137.988281" xlink:href="#DejaVuSans-87"/>
      <use x="236.865234" xlink:href="#DejaVuSans-95"/>
      <use x="286.865234" xlink:href="#DejaVuSans-66"/>
      <use x="355.46875" xlink:href="#DejaVuSans-72"/>
      <use x="430.664062" xlink:href="#DejaVuSans-69"/>
     </g>
    </g>
    <g id="line2d_29">
     <path d="M 80.84 54.934687 
L 100.84 54.934687 
" style="fill:none;stroke:#ff7f0e;stroke-linecap:square;stroke-width:1.5;"/>
    </g>
    <g id="line2d_30"/>
    <g id="text_16">
     <!-- BLE -->
     <g transform="translate(108.84 58.434687)scale(0.1 -0.1)">
      <use xlink:href="#DejaVuSans-66"/>
      <use x="68.603516" xlink:href="#DejaVuSans-76"/>
      <use x="124.316406" xlink:href="#DejaVuSans-69"/>
     </g>
    </g>
   </g>
  </g>
 </g>
 <defs>
  <clipPath id="p683c236047">
   <rect height="632.84" width="1251.52" x="71.84" y="26.88"/>
  </clipPath>
 </defs>
</svg>
