<?xml version="1.0" encoding="utf-8" standalone="no"?>
<!DOCTYPE svg PUBLIC "-//W3C//DTD SVG 1.1//EN"
  "http://www.w3.org/Graphics/SVG/1.1/DTD/svg11.dtd">
<!-- Created with matplotlib (https://matplotlib.org/) -->
<svg height="687.6pt" version="1.1" viewBox="0 0 1334.16 687.6" width="1334.16pt" xmlns="http://www.w3.org/2000/svg" xmlns:xlink="http://www.w3.org/1999/xlink">
 <defs>
  <style type="text/css">
*{stroke-linecap:butt;stroke-linejoin:round;}
  </style>
 </defs>
 <g id="figure_1">
  <g id="patch_1">
   <path d="M 0 687.6 
L 1334.16 687.6 
L 1334.16 0 
L 0 0 
z
" style="fill:#ffffff;"/>
  </g>
  <g id="axes_1">
   <g id="patch_2">
    <path d="M 71.84 659.72 
L 1323.36 659.72 
L 1323.36 26.88 
L 71.84 26.88 
z
" style="fill:#ffffff;"/>
   </g>
   <g id="matplotlib.axis_1">
    <g id="xtick_1">
     <g id="line2d_1">
      <path clip-path="url(#p1a2868534d)" d="M 128.727273 659.72 
L 128.727273 26.88 
" style="fill:none;stroke:#b0b0b0;stroke-linecap:square;stroke-width:0.8;"/>
     </g>
     <g id="line2d_2">
      <defs>
       <path d="M 0 0 
L 0 3.5 
" id="m4e487eb340" style="stroke:#000000;stroke-width:0.8;"/>
      </defs>
      <g>
       <use style="stroke:#000000;stroke-width:0.8;" x="128.727273" xlink:href="#m4e487eb340" y="659.72"/>
      </g>
     </g>
     <g id="text_1">
      <!-- 0 -->
      <defs>
       <path d="M 31.78125 66.40625 
Q 24.171875 66.40625 20.328125 58.90625 
Q 16.5 51.421875 16.5 36.375 
Q 16.5 21.390625 20.328125 13.890625 
Q 24.171875 6.390625 31.78125 6.390625 
Q 39.453125 6.390625 43.28125 13.890625 
Q 47.125 21.390625 47.125 36.375 
Q 47.125 51.421875 43.28125 58.90625 
Q 39.453125 66.40625 31.78125 66.40625 
z
M 31.78125 74.21875 
Q 44.046875 74.21875 50.515625 64.515625 
Q 56.984375 54.828125 56.984375 36.375 
Q 56.984375 17.96875 50.515625 8.265625 
Q 44.046875 -1.421875 31.78125 -1.421875 
Q 19.53125 -1.421875 13.0625 8.265625 
Q 6.59375 17.96875 6.59375 36.375 
Q 6.59375 54.828125 13.0625 64.515625 
Q 19.53125 74.21875 31.78125 74.21875 
z
" id="DejaVuSans-48"/>
      </defs>
      <g transform="translate(125.546023 674.318438)scale(0.1 -0.1)">
       <use xlink:href="#DejaVuSans-48"/>
      </g>
     </g>
    </g>
    <g id="xtick_2">
     <g id="line2d_3">
      <path clip-path="url(#p1a2868534d)" d="M 356.504141 659.72 
L 356.504141 26.88 
" style="fill:none;stroke:#b0b0b0;stroke-linecap:square;stroke-width:0.8;"/>
     </g>
     <g id="line2d_4">
      <g>
       <use style="stroke:#000000;stroke-width:0.8;" x="356.504141" xlink:href="#m4e487eb340" y="659.72"/>
      </g>
     </g>
     <g id="text_2">
      <!-- 200 -->
      <defs>
       <path d="M 19.1875 8.296875 
L 53.609375 8.296875 
L 53.609375 0 
L 7.328125 0 
L 7.328125 8.296875 
Q 12.9375 14.109375 22.625 23.890625 
Q 32.328125 33.6875 34.8125 36.53125 
Q 39.546875 41.84375 41.421875 45.53125 
Q 43.3125 49.21875 43.3125 52.78125 
Q 43.3125 58.59375 39.234375 62.25 
Q 35.15625 65.921875 28.609375 65.921875 
Q 23.96875 65.921875 18.8125 64.3125 
Q 13.671875 62.703125 7.8125 59.421875 
L 7.8125 69.390625 
Q 13.765625 71.78125 18.9375 73 
Q 24.125 74.21875 28.421875 74.21875 
Q 39.75 74.21875 46.484375 68.546875 
Q 53.21875 62.890625 53.21875 53.421875 
Q 53.21875 48.921875 51.53125 44.890625 
Q 49.859375 40.875 45.40625 35.40625 
Q 44.1875 33.984375 37.640625 27.21875 
Q 31.109375 20.453125 19.1875 8.296875 
z
" id="DejaVuSans-50"/>
      </defs>
      <g transform="translate(346.960391 674.318438)scale(0.1 -0.1)">
       <use xlink:href="#DejaVuSans-50"/>
       <use x="63.623047" xlink:href="#DejaVuSans-48"/>
       <use x="127.246094" xlink:href="#DejaVuSans-48"/>
      </g>
     </g>
    </g>
    <g id="xtick_3">
     <g id="line2d_5">
      <path clip-path="url(#p1a2868534d)" d="M 584.281008 659.72 
L 584.281008 26.88 
" style="fill:none;stroke:#b0b0b0;stroke-linecap:square;stroke-width:0.8;"/>
     </g>
     <g id="line2d_6">
      <g>
       <use style="stroke:#000000;stroke-width:0.8;" x="584.281008" xlink:href="#m4e487eb340" y="659.72"/>
      </g>
     </g>
     <g id="text_3">
      <!-- 400 -->
      <defs>
       <path d="M 37.796875 64.3125 
L 12.890625 25.390625 
L 37.796875 25.390625 
z
M 35.203125 72.90625 
L 47.609375 72.90625 
L 47.609375 25.390625 
L 58.015625 25.390625 
L 58.015625 17.1875 
L 47.609375 17.1875 
L 47.609375 0 
L 37.796875 0 
L 37.796875 17.1875 
L 4.890625 17.1875 
L 4.890625 26.703125 
z
" id="DejaVuSans-52"/>
      </defs>
      <g transform="translate(574.737258 674.318438)scale(0.1 -0.1)">
       <use xlink:href="#DejaVuSans-52"/>
       <use x="63.623047" xlink:href="#DejaVuSans-48"/>
       <use x="127.246094" xlink:href="#DejaVuSans-48"/>
      </g>
     </g>
    </g>
    <g id="xtick_4">
     <g id="line2d_7">
      <path clip-path="url(#p1a2868534d)" d="M 812.057876 659.72 
L 812.057876 26.88 
" style="fill:none;stroke:#b0b0b0;stroke-linecap:square;stroke-width:0.8;"/>
     </g>
     <g id="line2d_8">
      <g>
       <use style="stroke:#000000;stroke-width:0.8;" x="812.057876" xlink:href="#m4e487eb340" y="659.72"/>
      </g>
     </g>
     <g id="text_4">
      <!-- 600 -->
      <defs>
       <path d="M 33.015625 40.375 
Q 26.375 40.375 22.484375 35.828125 
Q 18.609375 31.296875 18.609375 23.390625 
Q 18.609375 15.53125 22.484375 10.953125 
Q 26.375 6.390625 33.015625 6.390625 
Q 39.65625 6.390625 43.53125 10.953125 
Q 47.40625 15.53125 47.40625 23.390625 
Q 47.40625 31.296875 43.53125 35.828125 
Q 39.65625 40.375 33.015625 40.375 
z
M 52.59375 71.296875 
L 52.59375 62.3125 
Q 48.875 64.0625 45.09375 64.984375 
Q 41.3125 65.921875 37.59375 65.921875 
Q 27.828125 65.921875 22.671875 59.328125 
Q 17.53125 52.734375 16.796875 39.40625 
Q 19.671875 43.65625 24.015625 45.921875 
Q 28.375 48.1875 33.59375 48.1875 
Q 44.578125 48.1875 50.953125 41.515625 
Q 57.328125 34.859375 57.328125 23.390625 
Q 57.328125 12.15625 50.6875 5.359375 
Q 44.046875 -1.421875 33.015625 -1.421875 
Q 20.359375 -1.421875 13.671875 8.265625 
Q 6.984375 17.96875 6.984375 36.375 
Q 6.984375 53.65625 15.1875 63.9375 
Q 23.390625 74.21875 37.203125 74.21875 
Q 40.921875 74.21875 44.703125 73.484375 
Q 48.484375 72.75 52.59375 71.296875 
z
" id="DejaVuSans-54"/>
      </defs>
      <g transform="translate(802.514126 674.318438)scale(0.1 -0.1)">
       <use xlink:href="#DejaVuSans-54"/>
       <use x="63.623047" xlink:href="#DejaVuSans-48"/>
       <use x="127.246094" xlink:href="#DejaVuSans-48"/>
      </g>
     </g>
    </g>
    <g id="xtick_5">
     <g id="line2d_9">
      <path clip-path="url(#p1a2868534d)" d="M 1039.834744 659.72 
L 1039.834744 26.88 
" style="fill:none;stroke:#b0b0b0;stroke-linecap:square;stroke-width:0.8;"/>
     </g>
     <g id="line2d_10">
      <g>
       <use style="stroke:#000000;stroke-width:0.8;" x="1039.834744" xlink:href="#m4e487eb340" y="659.72"/>
      </g>
     </g>
     <g id="text_5">
      <!-- 800 -->
      <defs>
       <path d="M 31.78125 34.625 
Q 24.75 34.625 20.71875 30.859375 
Q 16.703125 27.09375 16.703125 20.515625 
Q 16.703125 13.921875 20.71875 10.15625 
Q 24.75 6.390625 31.78125 6.390625 
Q 38.8125 6.390625 42.859375 10.171875 
Q 46.921875 13.96875 46.921875 20.515625 
Q 46.921875 27.09375 42.890625 30.859375 
Q 38.875 34.625 31.78125 34.625 
z
M 21.921875 38.8125 
Q 15.578125 40.375 12.03125 44.71875 
Q 8.5 49.078125 8.5 55.328125 
Q 8.5 64.0625 14.71875 69.140625 
Q 20.953125 74.21875 31.78125 74.21875 
Q 42.671875 74.21875 48.875 69.140625 
Q 55.078125 64.0625 55.078125 55.328125 
Q 55.078125 49.078125 51.53125 44.71875 
Q 48 40.375 41.703125 38.8125 
Q 48.828125 37.15625 52.796875 32.3125 
Q 56.78125 27.484375 56.78125 20.515625 
Q 56.78125 9.90625 50.3125 4.234375 
Q 43.84375 -1.421875 31.78125 -1.421875 
Q 19.734375 -1.421875 13.25 4.234375 
Q 6.78125 9.90625 6.78125 20.515625 
Q 6.78125 27.484375 10.78125 32.3125 
Q 14.796875 37.15625 21.921875 38.8125 
z
M 18.3125 54.390625 
Q 18.3125 48.734375 21.84375 45.5625 
Q 25.390625 42.390625 31.78125 42.390625 
Q 38.140625 42.390625 41.71875 45.5625 
Q 45.3125 48.734375 45.3125 54.390625 
Q 45.3125 60.0625 41.71875 63.234375 
Q 38.140625 66.40625 31.78125 66.40625 
Q 25.390625 66.40625 21.84375 63.234375 
Q 18.3125 60.0625 18.3125 54.390625 
z
" id="DejaVuSans-56"/>
      </defs>
      <g transform="translate(1030.290994 674.318438)scale(0.1 -0.1)">
       <use xlink:href="#DejaVuSans-56"/>
       <use x="63.623047" xlink:href="#DejaVuSans-48"/>
       <use x="127.246094" xlink:href="#DejaVuSans-48"/>
      </g>
     </g>
    </g>
    <g id="xtick_6">
     <g id="line2d_11">
      <path clip-path="url(#p1a2868534d)" d="M 1267.611612 659.72 
L 1267.611612 26.88 
" style="fill:none;stroke:#b0b0b0;stroke-linecap:square;stroke-width:0.8;"/>
     </g>
     <g id="line2d_12">
      <g>
       <use style="stroke:#000000;stroke-width:0.8;" x="1267.611612" xlink:href="#m4e487eb340" y="659.72"/>
      </g>
     </g>
     <g id="text_6">
      <!-- 1000 -->
      <defs>
       <path d="M 12.40625 8.296875 
L 28.515625 8.296875 
L 28.515625 63.921875 
L 10.984375 60.40625 
L 10.984375 69.390625 
L 28.421875 72.90625 
L 38.28125 72.90625 
L 38.28125 8.296875 
L 54.390625 8.296875 
L 54.390625 0 
L 12.40625 0 
z
" id="DejaVuSans-49"/>
      </defs>
      <g transform="translate(1254.886612 674.318438)scale(0.1 -0.1)">
       <use xlink:href="#DejaVuSans-49"/>
       <use x="63.623047" xlink:href="#DejaVuSans-48"/>
       <use x="127.246094" xlink:href="#DejaVuSans-48"/>
       <use x="190.869141" xlink:href="#DejaVuSans-48"/>
      </g>
     </g>
    </g>
   </g>
   <g id="matplotlib.axis_2">
    <g id="ytick_1">
     <g id="line2d_13">
      <path clip-path="url(#p1a2868534d)" d="M 71.84 543.729499 
L 1323.36 543.729499 
" style="fill:none;stroke:#b0b0b0;stroke-linecap:square;stroke-width:0.8;"/>
     </g>
     <g id="line2d_14">
      <defs>
       <path d="M 0 0 
L -3.5 0 
" id="mf26c9b94c2" style="stroke:#000000;stroke-width:0.8;"/>
      </defs>
      <g>
       <use style="stroke:#000000;stroke-width:0.8;" x="71.84" xlink:href="#mf26c9b94c2" y="543.729499"/>
      </g>
     </g>
     <g id="text_7">
      <!-- −10000 -->
      <defs>
       <path d="M 10.59375 35.5 
L 73.1875 35.5 
L 73.1875 27.203125 
L 10.59375 27.203125 
z
" id="DejaVuSans-8722"/>
      </defs>
      <g transform="translate(24.647812 547.528718)scale(0.1 -0.1)">
       <use xlink:href="#DejaVuSans-8722"/>
       <use x="83.789062" xlink:href="#DejaVuSans-49"/>
       <use x="147.412109" xlink:href="#DejaVuSans-48"/>
       <use x="211.035156" xlink:href="#DejaVuSans-48"/>
       <use x="274.658203" xlink:href="#DejaVuSans-48"/>
       <use x="338.28125" xlink:href="#DejaVuSans-48"/>
      </g>
     </g>
    </g>
    <g id="ytick_2">
     <g id="line2d_15">
      <path clip-path="url(#p1a2868534d)" d="M 71.84 417.890734 
L 1323.36 417.890734 
" style="fill:none;stroke:#b0b0b0;stroke-linecap:square;stroke-width:0.8;"/>
     </g>
     <g id="line2d_16">
      <g>
       <use style="stroke:#000000;stroke-width:0.8;" x="71.84" xlink:href="#mf26c9b94c2" y="417.890734"/>
      </g>
     </g>
     <g id="text_8">
      <!-- −5000 -->
      <defs>
       <path d="M 10.796875 72.90625 
L 49.515625 72.90625 
L 49.515625 64.59375 
L 19.828125 64.59375 
L 19.828125 46.734375 
Q 21.96875 47.46875 24.109375 47.828125 
Q 26.265625 48.1875 28.421875 48.1875 
Q 40.625 48.1875 47.75 41.5 
Q 54.890625 34.8125 54.890625 23.390625 
Q 54.890625 11.625 47.5625 5.09375 
Q 40.234375 -1.421875 26.90625 -1.421875 
Q 22.3125 -1.421875 17.546875 -0.640625 
Q 12.796875 0.140625 7.71875 1.703125 
L 7.71875 11.625 
Q 12.109375 9.234375 16.796875 8.0625 
Q 21.484375 6.890625 26.703125 6.890625 
Q 35.15625 6.890625 40.078125 11.328125 
Q 45.015625 15.765625 45.015625 23.390625 
Q 45.015625 31 40.078125 35.4375 
Q 35.15625 39.890625 26.703125 39.890625 
Q 22.75 39.890625 18.8125 39.015625 
Q 14.890625 38.140625 10.796875 36.28125 
z
" id="DejaVuSans-53"/>
      </defs>
      <g transform="translate(31.010312 421.689952)scale(0.1 -0.1)">
       <use xlink:href="#DejaVuSans-8722"/>
       <use x="83.789062" xlink:href="#DejaVuSans-53"/>
       <use x="147.412109" xlink:href="#DejaVuSans-48"/>
       <use x="211.035156" xlink:href="#DejaVuSans-48"/>
       <use x="274.658203" xlink:href="#DejaVuSans-48"/>
      </g>
     </g>
    </g>
    <g id="ytick_3">
     <g id="line2d_17">
      <path clip-path="url(#p1a2868534d)" d="M 71.84 292.051968 
L 1323.36 292.051968 
" style="fill:none;stroke:#b0b0b0;stroke-linecap:square;stroke-width:0.8;"/>
     </g>
     <g id="line2d_18">
      <g>
       <use style="stroke:#000000;stroke-width:0.8;" x="71.84" xlink:href="#mf26c9b94c2" y="292.051968"/>
      </g>
     </g>
     <g id="text_9">
      <!-- 0 -->
      <g transform="translate(58.4775 295.851187)scale(0.1 -0.1)">
       <use xlink:href="#DejaVuSans-48"/>
      </g>
     </g>
    </g>
    <g id="ytick_4">
     <g id="line2d_19">
      <path clip-path="url(#p1a2868534d)" d="M 71.84 166.213202 
L 1323.36 166.213202 
" style="fill:none;stroke:#b0b0b0;stroke-linecap:square;stroke-width:0.8;"/>
     </g>
     <g id="line2d_20">
      <g>
       <use style="stroke:#000000;stroke-width:0.8;" x="71.84" xlink:href="#mf26c9b94c2" y="166.213202"/>
      </g>
     </g>
     <g id="text_10">
      <!-- 5000 -->
      <g transform="translate(39.39 170.012421)scale(0.1 -0.1)">
       <use xlink:href="#DejaVuSans-53"/>
       <use x="63.623047" xlink:href="#DejaVuSans-48"/>
       <use x="127.246094" xlink:href="#DejaVuSans-48"/>
       <use x="190.869141" xlink:href="#DejaVuSans-48"/>
      </g>
     </g>
    </g>
    <g id="ytick_5">
     <g id="line2d_21">
      <path clip-path="url(#p1a2868534d)" d="M 71.84 40.374436 
L 1323.36 40.374436 
" style="fill:none;stroke:#b0b0b0;stroke-linecap:square;stroke-width:0.8;"/>
     </g>
     <g id="line2d_22">
      <g>
       <use style="stroke:#000000;stroke-width:0.8;" x="71.84" xlink:href="#mf26c9b94c2" y="40.374436"/>
      </g>
     </g>
     <g id="text_11">
      <!-- 10000 -->
      <g transform="translate(33.0275 44.173655)scale(0.1 -0.1)">
       <use xlink:href="#DejaVuSans-49"/>
       <use x="63.623047" xlink:href="#DejaVuSans-48"/>
       <use x="127.246094" xlink:href="#DejaVuSans-48"/>
       <use x="190.869141" xlink:href="#DejaVuSans-48"/>
       <use x="254.492188" xlink:href="#DejaVuSans-48"/>
      </g>
     </g>
    </g>
    <g id="text_12">
     <!-- count -->
     <defs>
      <path d="M 48.78125 52.59375 
L 48.78125 44.1875 
Q 44.96875 46.296875 41.140625 47.34375 
Q 37.3125 48.390625 33.40625 48.390625 
Q 24.65625 48.390625 19.8125 42.84375 
Q 14.984375 37.3125 14.984375 27.296875 
Q 14.984375 17.28125 19.8125 11.734375 
Q 24.65625 6.203125 33.40625 6.203125 
Q 37.3125 6.203125 41.140625 7.25 
Q 44.96875 8.296875 48.78125 10.40625 
L 48.78125 2.09375 
Q 45.015625 0.34375 40.984375 -0.53125 
Q 36.96875 -1.421875 32.421875 -1.421875 
Q 20.0625 -1.421875 12.78125 6.34375 
Q 5.515625 14.109375 5.515625 27.296875 
Q 5.515625 40.671875 12.859375 48.328125 
Q 20.21875 56 33.015625 56 
Q 37.15625 56 41.109375 55.140625 
Q 45.0625 54.296875 48.78125 52.59375 
z
" id="DejaVuSans-99"/>
      <path d="M 30.609375 48.390625 
Q 23.390625 48.390625 19.1875 42.75 
Q 14.984375 37.109375 14.984375 27.296875 
Q 14.984375 17.484375 19.15625 11.84375 
Q 23.34375 6.203125 30.609375 6.203125 
Q 37.796875 6.203125 41.984375 11.859375 
Q 46.1875 17.53125 46.1875 27.296875 
Q 46.1875 37.015625 41.984375 42.703125 
Q 37.796875 48.390625 30.609375 48.390625 
z
M 30.609375 56 
Q 42.328125 56 49.015625 48.375 
Q 55.71875 40.765625 55.71875 27.296875 
Q 55.71875 13.875 49.015625 6.21875 
Q 42.328125 -1.421875 30.609375 -1.421875 
Q 18.84375 -1.421875 12.171875 6.21875 
Q 5.515625 13.875 5.515625 27.296875 
Q 5.515625 40.765625 12.171875 48.375 
Q 18.84375 56 30.609375 56 
z
" id="DejaVuSans-111"/>
      <path d="M 8.5 21.578125 
L 8.5 54.6875 
L 17.484375 54.6875 
L 17.484375 21.921875 
Q 17.484375 14.15625 20.5 10.265625 
Q 23.53125 6.390625 29.59375 6.390625 
Q 36.859375 6.390625 41.078125 11.03125 
Q 45.3125 15.671875 45.3125 23.6875 
L 45.3125 54.6875 
L 54.296875 54.6875 
L 54.296875 0 
L 45.3125 0 
L 45.3125 8.40625 
Q 42.046875 3.421875 37.71875 1 
Q 33.40625 -1.421875 27.6875 -1.421875 
Q 18.265625 -1.421875 13.375 4.4375 
Q 8.5 10.296875 8.5 21.578125 
z
M 31.109375 56 
z
" id="DejaVuSans-117"/>
      <path d="M 54.890625 33.015625 
L 54.890625 0 
L 45.90625 0 
L 45.90625 32.71875 
Q 45.90625 40.484375 42.875 44.328125 
Q 39.84375 48.1875 33.796875 48.1875 
Q 26.515625 48.1875 22.3125 43.546875 
Q 18.109375 38.921875 18.109375 30.90625 
L 18.109375 0 
L 9.078125 0 
L 9.078125 54.6875 
L 18.109375 54.6875 
L 18.109375 46.1875 
Q 21.34375 51.125 25.703125 53.5625 
Q 30.078125 56 35.796875 56 
Q 45.21875 56 50.046875 50.171875 
Q 54.890625 44.34375 54.890625 33.015625 
z
" id="DejaVuSans-110"/>
      <path d="M 18.3125 70.21875 
L 18.3125 54.6875 
L 36.8125 54.6875 
L 36.8125 47.703125 
L 18.3125 47.703125 
L 18.3125 18.015625 
Q 18.3125 11.328125 20.140625 9.421875 
Q 21.96875 7.515625 27.59375 7.515625 
L 36.8125 7.515625 
L 36.8125 0 
L 27.59375 0 
Q 17.1875 0 13.234375 3.875 
Q 9.28125 7.765625 9.28125 18.015625 
L 9.28125 47.703125 
L 2.6875 47.703125 
L 2.6875 54.6875 
L 9.28125 54.6875 
L 9.28125 70.21875 
z
" id="DejaVuSans-116"/>
     </defs>
     <g transform="translate(18.568125 357.40625)rotate(-90)scale(0.1 -0.1)">
      <use xlink:href="#DejaVuSans-99"/>
      <use x="54.980469" xlink:href="#DejaVuSans-111"/>
      <use x="116.162109" xlink:href="#DejaVuSans-117"/>
      <use x="179.541016" xlink:href="#DejaVuSans-110"/>
      <use x="242.919922" xlink:href="#DejaVuSans-116"/>
     </g>
    </g>
   </g>
   <g id="line2d_23">
    <path clip-path="url(#p1a2868534d)" d="M 128.727273 389.197322 
L 129.866157 394.854747 
L 131.005041 423.718588 
L 132.143926 401.888419 
L 133.28281 326.927778 
L 134.421694 230.896062 
L 135.560579 154.286134 
L 136.699463 124.735716 
L 137.838347 158.26961 
L 138.977232 178.088784 
L 140.116116 172.59406 
L 141.255 269.466181 
L 142.393885 407.85938 
L 143.532769 434.097612 
L 144.671653 385.212574 
L 145.810538 362.291882 
L 146.949422 353.986398 
L 148.088306 359.506193 
L 149.227191 291.451634 
L 150.366075 169.764008 
L 151.50496 164.718261 
L 152.643844 191.690341 
L 153.782728 197.071176 
L 154.921613 207.031781 
L 156.060497 210.129781 
L 157.199381 289.029462 
L 158.338266 381.846261 
L 159.47715 360.280862 
L 160.616034 367.129242 
L 161.754919 408.055113 
L 162.893803 349.307349 
L 164.032687 281.680502 
L 166.310456 118.546839 
L 167.44934 114.642542 
L 168.588225 141.460296 
L 169.727109 194.77573 
L 170.865993 263.678264 
L 172.004878 319.825028 
L 173.143762 399.076395 
L 174.282646 440.952316 
L 175.421531 393.952518 
L 176.560415 355.745618 
L 177.699299 331.836003 
L 178.838184 289.811775 
L 179.977068 255.409578 
L 181.115952 201.712515 
L 182.254837 139.572958 
L 183.393721 144.61075 
L 184.532605 188.212424 
L 185.67149 208.403349 
L 186.810374 247.894218 
L 189.088143 404.379735 
L 190.227027 398.922101 
L 191.365911 316.688021 
L 192.504796 253.439259 
L 193.64368 247.366969 
L 194.782564 278.405725 
L 195.921449 238.955672 
L 197.060333 191.055832 
L 198.199217 247.405852 
L 199.338102 318.030116 
L 200.476986 336.970218 
L 201.61587 342.774848 
L 202.754755 313.335342 
L 203.893639 303.257994 
L 205.032523 308.43173 
L 206.171408 250.967873 
L 207.310292 216.998281 
L 208.449176 226.430399 
L 209.588061 233.318067 
L 210.726945 242.543194 
L 213.004714 356.617103 
L 214.143598 360.346937 
L 215.282482 371.796493 
L 216.421367 361.396599 
L 218.699135 259.663988 
L 219.83802 219.020954 
L 220.976904 201.445096 
L 222.115789 233.162349 
L 223.254673 226.257859 
L 224.393557 224.467836 
L 225.532442 287.542487 
L 226.671326 304.418382 
L 227.81021 338.944148 
L 228.949095 388.129656 
L 230.087979 372.521954 
L 231.226863 361.167358 
L 232.365748 353.58752 
L 233.504632 323.866467 
L 234.643516 270.110658 
L 235.782401 207.261782 
L 236.921285 197.368652 
L 238.060169 182.847697 
L 239.199054 197.774979 
L 240.337938 297.045632 
L 241.476822 336.935857 
L 242.615707 369.873519 
L 243.754591 421.268994 
L 244.893475 406.271866 
L 247.171244 309.968784 
L 248.310128 285.176 
L 249.449013 257.006294 
L 250.587897 222.563348 
L 251.726781 197.863904 
L 252.865666 238.807168 
L 254.00455 294.428681 
L 255.143434 277.497991 
L 256.282319 318.390987 
L 257.421203 391.945578 
L 258.560087 415.811898 
L 259.698972 423.395787 
L 261.97674 279.349558 
L 263.115625 283.75158 
L 264.254509 266.156523 
L 265.393393 204.408117 
L 266.532278 166.614028 
L 267.671162 199.754256 
L 268.810046 277.257552 
L 269.948931 312.458037 
L 271.087815 339.23549 
L 272.226699 422.688594 
L 273.365584 428.759337 
L 274.504468 420.922332 
L 275.643352 444.318357 
L 277.921121 322.615346 
L 279.060005 239.637538 
L 280.19889 232.40409 
L 281.337774 238.681913 
L 282.476658 164.86751 
L 283.615543 178.277384 
L 284.754427 202.383037 
L 285.893311 301.444809 
L 287.032196 415.723929 
L 288.17108 414.168971 
L 289.309965 433.026379 
L 290.448849 468.828429 
L 291.587733 438.910734 
L 292.726618 334.864506 
L 293.865502 217.344945 
L 295.004386 163.822016 
L 296.143271 236.206897 
L 297.282155 263.278447 
L 298.421039 224.228989 
L 299.559924 263.400105 
L 300.698808 319.890018 
L 301.837692 402.294475 
L 302.976577 413.027898 
L 304.115461 344.000977 
L 305.254345 337.560081 
L 306.39323 337.640065 
L 307.532114 309.393688 
L 308.670998 291.135257 
L 309.809883 262.893977 
L 310.948767 255.360567 
L 312.087651 279.184587 
L 313.226536 271.891421 
L 314.36542 278.311723 
L 315.504304 292.552419 
L 316.643189 318.636465 
L 317.782073 338.66352 
L 318.920957 327.070217 
L 320.059842 313.504099 
L 321.198726 314.846551 
L 322.33761 375.10507 
L 323.476495 332.383367 
L 324.615379 239.422503 
L 325.754263 266.050411 
L 326.893148 295.69194 
L 328.032032 271.984109 
L 329.170916 254.967798 
L 330.309801 276.918366 
L 331.448685 320.943253 
L 332.587569 343.450036 
L 333.726454 297.933132 
L 334.865338 236.377373 
L 336.004222 233.384528 
L 337.143107 277.854681 
L 338.281991 309.381625 
L 339.420875 329.258027 
L 340.55976 324.802145 
L 341.698644 357.211471 
L 342.837528 426.02038 
L 343.976413 375.699989 
L 347.393066 176.970347 
L 348.53195 233.430544 
L 350.809719 224.833817 
L 351.948603 298.928832 
L 353.087487 314.894543 
L 355.365256 357.31375 
L 356.504141 300.236408 
L 357.643025 272.97222 
L 358.781909 297.919262 
L 359.920794 331.833908 
L 361.059678 376.686073 
L 362.198562 347.599589 
L 363.337447 313.626324 
L 364.476331 318.837706 
L 365.615215 257.585678 
L 366.7541 215.162066 
L 367.892984 197.963121 
L 369.031868 188.793786 
L 370.170753 221.442133 
L 371.309637 301.200254 
L 372.448521 372.507155 
L 373.587406 339.116249 
L 374.72629 334.52988 
L 375.865174 331.081192 
L 377.004059 274.143868 
L 378.142943 244.404145 
L 379.281827 225.897025 
L 380.420712 235.377447 
L 381.559596 253.318619 
L 383.837365 325.428385 
L 384.976249 315.748887 
L 386.115133 291.437985 
L 387.254018 349.462698 
L 388.392902 436.898508 
L 389.531786 338.295464 
L 390.670671 182.737252 
L 391.809555 165.332327 
L 392.948439 199.852196 
L 394.087324 219.711235 
L 395.226208 222.674319 
L 396.365092 247.537001 
L 397.503977 349.333715 
L 398.642861 401.884163 
L 400.92063 284.899185 
L 402.059514 273.710326 
L 403.198398 254.670606 
L 404.337283 246.810362 
L 405.476167 293.024871 
L 406.615051 295.011814 
L 407.753936 337.236867 
L 408.89282 344.004898 
L 410.031704 239.658471 
L 411.170589 212.709659 
L 412.309473 197.069747 
L 413.448357 187.752412 
L 414.587242 226.325431 
L 416.86501 296.201032 
L 418.003895 353.774033 
L 419.142779 345.528985 
L 420.281663 318.209918 
L 421.420548 344.740363 
L 422.559432 278.607018 
L 423.698316 246.677327 
L 424.837201 227.388656 
L 425.976085 180.235354 
L 427.11497 204.728989 
L 428.253854 196.812351 
L 429.392738 258.945463 
L 430.531623 341.792773 
L 431.670507 315.305868 
L 432.809391 258.368889 
L 433.948276 262.758203 
L 435.08716 371.376609 
L 436.226044 391.946044 
L 437.364929 312.073409 
L 438.503813 280.968556 
L 439.642697 305.911117 
L 440.781582 327.737975 
L 443.05935 181.043616 
L 444.198235 165.396408 
L 445.337119 184.364735 
L 446.476003 184.457943 
L 447.614888 184.755685 
L 448.753772 257.643858 
L 449.892656 316.240469 
L 451.031541 400.440254 
L 452.170425 425.293304 
L 453.309309 387.058194 
L 454.448194 369.617521 
L 455.587078 362.826073 
L 456.725962 316.01025 
L 457.864847 186.047177 
L 459.003731 180.514136 
L 460.142615 181.013477 
L 461.2815 146.9705 
L 462.420384 186.69675 
L 463.559268 222.029555 
L 465.837037 427.669159 
L 466.975921 447.077461 
L 468.114806 449.661608 
L 469.25369 402.985413 
L 470.392574 300.122808 
L 471.531459 307.063245 
L 472.670343 295.451282 
L 473.809227 142.672288 
L 474.948112 90.548685 
L 476.086996 155.21808 
L 477.22588 240.477628 
L 478.364765 285.802361 
L 480.642533 433.57559 
L 481.781418 463.578528 
L 482.920302 501.980727 
L 484.059186 408.780685 
L 485.198071 247.474485 
L 486.336955 201.451673 
L 487.475839 214.402298 
L 488.614724 212.567389 
L 489.753608 199.372154 
L 490.892492 223.865058 
L 493.170261 430.531302 
L 494.309146 422.525968 
L 495.44803 383.516077 
L 496.586914 359.805541 
L 497.725799 316.176958 
L 498.864683 320.019216 
L 500.003567 269.749947 
L 501.142452 210.395892 
L 502.281336 252.306385 
L 503.42022 256.56443 
L 504.559105 284.001328 
L 505.697989 335.834491 
L 506.836873 350.640889 
L 509.114642 444.290232 
L 510.253526 374.243537 
L 511.392411 263.73193 
L 512.531295 312.55565 
L 513.670179 313.715166 
L 514.809064 220.199269 
L 515.947948 219.933844 
L 517.086832 246.823856 
L 518.225717 297.378514 
L 519.364601 314.160551 
L 520.503485 288.472627 
L 521.64237 273.345263 
L 522.781254 280.750057 
L 523.920138 383.486231 
L 525.059023 431.382283 
L 526.197907 396.301008 
L 527.336791 406.215897 
L 528.475676 406.809426 
L 529.61456 336.511809 
L 530.753444 214.980537 
L 531.892329 147.10138 
L 533.031213 167.571804 
L 534.170097 158.03193 
L 535.308982 91.579537 
L 536.447866 204.942692 
L 537.58675 449.372469 
L 538.725635 529.64919 
L 539.864519 523.127148 
L 541.003403 490.026154 
L 542.142288 371.728037 
L 545.558941 96.877089 
L 547.836709 183.490067 
L 548.975594 229.152135 
L 550.114478 372.105087 
L 551.253362 457.190885 
L 552.392247 466.278262 
L 553.531131 412.140653 
L 554.670015 344.854022 
L 555.8089 254.504807 
L 556.947784 123.837383 
L 558.086668 129.930838 
L 559.225553 225.385065 
L 560.364437 306.350052 
L 561.503322 278.502557 
L 562.642206 214.44701 
L 563.78109 288.098401 
L 564.919975 307.972895 
L 566.058859 297.831674 
L 567.197743 383.132419 
L 568.336628 431.955828 
L 569.475512 379.672044 
L 570.614396 299.886852 
L 571.753281 242.229518 
L 572.892165 200.395841 
L 574.031049 208.384933 
L 575.169934 227.917042 
L 576.308818 254.029071 
L 577.447702 245.693838 
L 578.586587 214.87273 
L 580.864355 349.730491 
L 582.00324 355.119452 
L 583.142124 399.366445 
L 584.281008 419.7184 
L 585.419893 377.273671 
L 586.558777 293.963418 
L 587.697661 195.265925 
L 588.836546 168.606313 
L 591.114314 123.597361 
L 592.253199 179.048263 
L 594.530967 347.851274 
L 595.669852 412.439106 
L 596.808736 466.086076 
L 597.94762 459.328275 
L 599.086505 380.354357 
L 601.364273 173.186 
L 603.642042 77.824309 
L 604.780926 67.087104 
L 605.919811 196.152656 
L 607.058695 266.236104 
L 608.197579 344.046918 
L 609.336464 469.723788 
L 610.475348 452.824679 
L 611.614232 404.026375 
L 612.753117 370.954157 
L 613.892001 324.472158 
L 615.030885 269.667661 
L 616.16977 171.806124 
L 617.308654 94.250249 
L 618.447538 130.614585 
L 619.586423 232.190762 
L 620.725307 270.825884 
L 621.864191 281.782806 
L 623.003076 298.580842 
L 624.14196 319.264593 
L 625.280844 349.391798 
L 626.419729 330.113521 
L 627.558613 273.706419 
L 628.697497 265.527135 
L 629.836382 270.920837 
L 630.975266 250.724962 
L 632.114151 244.448883 
L 633.253035 269.373145 
L 634.391919 302.764124 
L 635.530804 298.677063 
L 636.669688 320.046246 
L 637.808572 306.693217 
L 638.947457 252.764909 
L 640.086341 227.511675 
L 641.225225 214.225308 
L 642.36411 266.325557 
L 643.502994 276.674528 
L 644.641878 284.371394 
L 645.780763 337.998545 
L 646.919647 321.464132 
L 648.058531 283.092967 
L 649.197416 236.583923 
L 650.3363 205.819008 
L 651.475184 225.586316 
L 652.614069 238.612342 
L 653.752953 300.1946 
L 654.891837 416.208861 
L 656.030722 418.684599 
L 658.30849 321.833142 
L 659.447375 256.132209 
L 660.586259 242.411152 
L 661.725143 214.008803 
L 662.864028 222.193285 
L 664.002912 250.775437 
L 665.141796 246.817532 
L 666.280681 287.107507 
L 667.419565 302.729452 
L 668.558449 282.959543 
L 669.697334 282.354381 
L 670.836218 307.99495 
L 671.975102 342.258693 
L 673.113987 316.467395 
L 674.252871 273.375621 
L 675.391755 317.771111 
L 676.53064 344.355889 
L 677.669524 304.497085 
L 678.808408 301.201037 
L 679.947293 276.889811 
L 681.086177 244.683675 
L 682.225061 264.818558 
L 683.363946 253.669239 
L 684.50283 263.303221 
L 685.641714 292.524269 
L 686.780599 263.835697 
L 687.919483 305.859237 
L 689.058367 338.399978 
L 690.197252 304.87796 
L 691.336136 303.15899 
L 692.47502 271.559695 
L 693.613905 299.843968 
L 694.752789 340.235474 
L 695.891673 301.484802 
L 697.030558 289.310429 
L 698.169442 262.356347 
L 699.308327 243.743119 
L 700.447211 302.657291 
L 701.586095 311.610119 
L 702.72498 295.582223 
L 703.863864 346.101993 
L 705.002748 365.25391 
L 706.141633 328.886798 
L 707.280517 231.237267 
L 708.419401 209.53977 
L 709.558286 253.875715 
L 710.69717 248.004324 
L 711.836054 314.14659 
L 712.974939 336.847047 
L 714.113823 314.105028 
L 715.252707 337.444916 
L 717.530476 256.272106 
L 718.66936 274.917549 
L 719.808245 275.344533 
L 720.947129 283.122186 
L 722.086013 313.235111 
L 723.224898 319.26746 
L 724.363782 338.189882 
L 725.502666 371.556389 
L 726.641551 362.657173 
L 727.780435 285.752047 
L 728.919319 236.762434 
L 730.058204 200.527377 
L 731.197088 159.373433 
L 732.335972 199.664165 
L 733.474857 261.58177 
L 734.613741 307.159211 
L 735.752625 338.930374 
L 736.89151 362.102546 
L 738.030394 396.970079 
L 739.169278 372.675248 
L 740.308163 310.155752 
L 741.447047 309.31481 
L 742.585931 267.717489 
L 743.724816 240.402378 
L 744.8637 270.843303 
L 746.002584 239.236653 
L 747.141469 266.714066 
L 748.280353 246.255209 
L 749.419237 208.559732 
L 750.558122 348.529552 
L 751.697006 382.196118 
L 752.83589 344.665394 
L 753.974775 386.457716 
L 756.252543 221.108727 
L 757.391428 214.739023 
L 758.530312 218.150401 
L 759.669196 275.614455 
L 760.808081 310.214579 
L 761.946965 304.721556 
L 763.085849 256.992075 
L 764.224734 221.521642 
L 765.363618 260.298482 
L 766.502503 327.70125 
L 767.641387 379.517404 
L 768.780271 391.514292 
L 769.919156 363.956353 
L 771.05804 318.635116 
L 772.196924 322.202287 
L 773.335809 271.197764 
L 774.474693 190.337307 
L 775.613577 223.357901 
L 776.752462 293.255466 
L 777.891346 333.812334 
L 779.03023 322.905124 
L 780.169115 334.44552 
L 781.307999 388.969103 
L 782.446883 365.130788 
L 783.585768 296.644425 
L 784.724652 268.843487 
L 785.863536 252.72436 
L 787.002421 230.340274 
L 788.141305 230.129757 
L 789.280189 293.663433 
L 790.419074 341.727684 
L 791.557958 314.090253 
L 792.696842 338.609894 
L 793.835727 345.974701 
L 794.974611 324.875658 
L 796.113495 339.573961 
L 797.25238 302.945767 
L 798.391264 304.757041 
L 799.530148 297.170631 
L 800.669033 275.369217 
L 801.807917 321.450402 
L 802.946801 320.028439 
L 804.085686 327.105883 
L 805.22457 345.573261 
L 806.363454 320.956596 
L 807.502339 306.231244 
L 808.641223 238.59643 
L 809.780107 204.914999 
L 810.918992 275.262534 
L 812.057876 312.72203 
L 813.19676 345.37167 
L 814.335645 386.768109 
L 815.474529 389.665473 
L 816.613413 386.029978 
L 817.752298 367.086982 
L 818.891182 325.888465 
L 820.030066 292.042656 
L 821.168951 279.44189 
L 822.307835 268.293462 
L 823.446719 281.754604 
L 824.585604 327.267637 
L 825.724488 308.801623 
L 826.863372 286.688361 
L 828.002257 366.426988 
L 829.141141 405.792934 
L 830.280025 394.556619 
L 831.41891 398.332532 
L 832.557794 337.754486 
L 833.696678 251.153932 
L 834.835563 213.270231 
L 835.974447 218.316388 
L 837.113332 238.065709 
L 838.252216 262.105131 
L 839.3911 316.823984 
L 840.529985 362.282741 
L 842.807753 316.401449 
L 843.946638 349.435018 
L 845.085522 414.419402 
L 846.224406 404.620783 
L 847.363291 318.547812 
L 848.502175 298.715691 
L 849.641059 292.587867 
L 850.779944 253.402804 
L 851.918828 244.861983 
L 853.057712 225.674321 
L 854.196597 215.183509 
L 855.335481 234.678639 
L 856.474365 244.657719 
L 857.61325 280.554577 
L 858.752134 323.315988 
L 859.891018 371.95471 
L 861.029903 431.751035 
L 862.168787 432.445428 
L 863.307671 358.293656 
L 864.446556 243.962389 
L 865.58544 207.320847 
L 866.724324 232.485029 
L 867.863209 219.4288 
L 869.002093 209.526645 
L 870.140977 263.85907 
L 871.279862 348.558069 
L 872.418746 347.423897 
L 873.55763 295.117819 
L 874.696515 258.879407 
L 875.835399 258.733179 
L 876.974283 261.303391 
L 878.113168 237.658117 
L 879.252052 258.226671 
L 880.390936 309.092065 
L 881.529821 337.801704 
L 883.807589 291.928937 
L 884.946474 228.153406 
L 886.085358 145.819608 
L 887.224242 161.264916 
L 888.363127 197.495068 
L 889.502011 263.277485 
L 890.640895 351.780046 
L 891.77978 398.098799 
L 892.918664 409.117235 
L 894.057548 378.591434 
L 896.335317 206.701493 
L 897.474201 167.898807 
L 898.613086 111.125699 
L 899.75197 124.884119 
L 900.890854 179.506927 
L 902.029739 201.946878 
L 903.168623 277.904256 
L 904.307508 344.012532 
L 905.446392 386.170376 
L 906.585276 387.89726 
L 907.724161 328.413836 
L 908.863045 285.017452 
L 910.001929 205.541624 
L 911.140814 141.205223 
L 912.279698 111.06313 
L 913.418582 154.209624 
L 914.557467 255.03437 
L 915.696351 268.941299 
L 917.97412 352.641447 
L 919.113004 374.338513 
L 920.251888 370.509347 
L 921.390773 299.049987 
L 922.529657 267.874355 
L 923.668541 259.951665 
L 924.807426 265.300396 
L 925.94631 255.661259 
L 928.224079 204.22857 
L 929.362963 190.251803 
L 930.501847 234.022823 
L 931.640732 253.858611 
L 932.779616 282.855939 
L 933.9185 334.865121 
L 935.057385 365.689758 
L 936.196269 358.939381 
L 937.335153 320.337 
L 938.474038 309.608045 
L 939.612922 282.283758 
L 940.751806 241.043904 
L 941.890691 241.792995 
L 943.029575 233.782461 
L 944.168459 240.918851 
L 945.307344 297.296149 
L 946.446228 303.698236 
L 947.585112 316.574862 
L 948.723997 353.411861 
L 949.862881 371.970737 
L 951.001765 382.19025 
L 953.279534 231.208967 
L 954.418418 207.309756 
L 955.557303 229.041425 
L 956.696187 269.220056 
L 957.835071 261.149812 
L 958.973956 286.436072 
L 960.11284 376.569365 
L 961.251724 434.856425 
L 962.390609 359.499742 
L 963.529493 261.191229 
L 964.668377 305.884343 
L 965.807262 368.117286 
L 966.946146 313.770853 
L 968.08503 245.844569 
L 970.362799 352.546468 
L 971.501684 302.2009 
L 972.640568 244.886352 
L 973.779452 212.672353 
L 974.918337 252.15208 
L 976.057221 340.266515 
L 977.196105 365.101343 
L 978.33499 370.453882 
L 979.473874 409.362753 
L 980.612758 439.426624 
L 981.751643 398.920824 
L 982.890527 306.040474 
L 984.029411 256.556961 
L 985.168296 268.306799 
L 986.30718 293.454159 
L 988.584949 207.002762 
L 990.862717 284.88016 
L 993.140486 388.374328 
L 994.27937 402.900794 
L 995.418255 424.127553 
L 996.557139 395.353499 
L 997.696023 275.946797 
L 998.834908 181.868682 
L 999.973792 201.97474 
L 1001.112676 284.832916 
L 1002.251561 341.001699 
L 1003.390445 385.425375 
L 1004.529329 447.500446 
L 1005.668214 460.247193 
L 1006.807098 396.70568 
L 1007.945982 258.952461 
L 1009.084867 159.135266 
L 1010.223751 204.100659 
L 1011.362635 268.032565 
L 1012.50152 257.194934 
L 1013.640404 258.92864 
L 1014.779288 307.809727 
L 1015.918173 379.28914 
L 1017.057057 419.393936 
L 1019.334826 367.562605 
L 1020.47371 328.350401 
L 1021.612594 295.059993 
L 1022.751479 250.236598 
L 1023.890363 187.393936 
L 1025.029247 211.08146 
L 1026.168132 277.814518 
L 1027.307016 337.022945 
L 1028.4459 347.646899 
L 1029.584785 340.167194 
L 1030.723669 344.906579 
L 1031.862553 292.61581 
L 1033.001438 231.016422 
L 1034.140322 206.491624 
L 1035.279206 233.999255 
L 1036.418091 314.617076 
L 1037.556975 351.6154 
L 1038.695859 350.319984 
L 1039.834744 370.000773 
L 1040.973628 329.654706 
L 1042.112513 258.228111 
L 1043.251397 215.018219 
L 1044.390281 201.612473 
L 1045.529166 232.801608 
L 1046.66805 255.211512 
L 1047.806934 328.97874 
L 1048.945819 410.935594 
L 1050.084703 374.112208 
L 1051.223587 323.327432 
L 1052.362472 283.742531 
L 1053.501356 218.473953 
L 1054.64024 195.801961 
L 1055.779125 182.029117 
L 1056.918009 189.502278 
L 1058.056893 257.391888 
L 1059.195778 316.04721 
L 1060.334662 333.822524 
L 1061.473546 322.922302 
L 1062.612431 325.054738 
L 1063.751315 288.523896 
L 1064.890199 211.602351 
L 1066.029084 227.298417 
L 1067.167968 269.603305 
L 1068.306852 277.448748 
L 1069.445737 317.87415 
L 1070.584621 341.280066 
L 1071.723505 314.483424 
L 1072.86239 241.967164 
L 1074.001274 199.891824 
L 1075.140158 129.982153 
L 1076.279043 89.251687 
L 1077.417927 228.670057 
L 1078.556811 277.01396 
L 1079.695696 299.31764 
L 1080.83458 402.745685 
L 1081.973464 423.621632 
L 1083.112349 384.654486 
L 1084.251233 276.21084 
L 1085.390117 188.804809 
L 1087.667886 83.660246 
L 1088.80677 121.406609 
L 1089.945655 134.430079 
L 1091.084539 221.589298 
L 1092.223423 411.861491 
L 1093.362308 417.074002 
L 1094.501192 488.032585 
L 1095.640076 443.179154 
L 1096.778961 178.209622 
L 1097.917845 186.224208 
L 1100.195614 104.67539 
L 1101.334498 172.094628 
L 1102.473382 203.285204 
L 1103.612267 364.51191 
L 1104.751151 298.663701 
L 1105.890035 190.204114 
L 1107.02892 284.804161 
L 1108.167804 281.532309 
L 1110.445573 306.230904 
L 1111.584457 293.930143 
L 1112.723342 332.658745 
L 1113.862226 257.593036 
L 1115.00111 171.381469 
L 1116.139995 141.177543 
L 1117.278879 167.887308 
L 1118.417763 288.132535 
L 1119.556648 305.147131 
L 1120.695532 338.817084 
L 1121.834416 365.883371 
L 1122.973301 288.973797 
L 1124.112185 333.516737 
L 1125.251069 315.773159 
L 1126.389954 196.740623 
L 1127.528838 237.806153 
L 1128.667722 299.440123 
L 1129.806607 283.64699 
L 1130.945491 255.425339 
L 1132.084375 218.880705 
L 1133.22326 209.878753 
L 1134.362144 235.655522 
L 1135.501028 308.36921 
L 1136.639913 334.04387 
L 1137.778797 347.212379 
L 1138.917681 421.703474 
L 1140.056566 364.959406 
L 1141.19545 255.869576 
L 1142.334334 202.790299 
L 1143.473219 211.615632 
L 1144.612103 317.701232 
L 1145.750987 361.948562 
L 1146.889872 358.685783 
L 1148.028756 360.623674 
L 1149.16764 338.353804 
L 1150.306525 303.959336 
L 1151.445409 210.735781 
L 1152.584293 98.735638 
L 1153.723178 145.248465 
L 1154.862062 345.575458 
L 1156.000946 466.324392 
L 1157.139831 459.470523 
L 1158.278715 433.691398 
L 1159.417599 431.625451 
L 1160.556484 359.392577 
L 1161.695368 172.900974 
L 1162.834252 80.020147 
L 1165.112021 287.854469 
L 1166.250905 325.093583 
L 1167.38979 415.412134 
L 1168.528674 538.132106 
L 1169.667558 541.241373 
L 1171.945327 319.346285 
L 1173.084211 274.671038 
L 1174.223096 195.254099 
L 1175.36198 55.645455 
L 1176.500865 83.730801 
L 1177.639749 271.727127 
L 1178.778633 389.567748 
L 1179.917518 413.089161 
L 1181.056402 504.766163 
L 1182.195286 630.954545 
L 1183.334171 524.472224 
L 1184.473055 276.077068 
L 1185.611939 111.869834 
L 1186.750824 70.935531 
L 1187.889708 129.087424 
L 1189.028592 170.421523 
L 1190.167477 292.708966 
L 1191.306361 511.244293 
L 1192.445245 578.639395 
L 1193.58413 552.845443 
L 1194.723014 471.967088 
L 1195.861898 294.474487 
L 1198.139667 179.869862 
L 1199.278551 86.31911 
L 1200.417436 115.678257 
L 1201.55632 160.994059 
L 1202.695204 365.323619 
L 1203.834089 536.202617 
L 1204.972973 518.942538 
L 1206.111857 504.793403 
L 1207.250742 410.64785 
L 1208.389626 332.476481 
L 1209.52851 224.769679 
L 1210.667395 82.720644 
L 1211.806279 135.386534 
L 1212.945163 268.183878 
L 1214.084048 355.927244 
L 1215.222932 416.439918 
L 1216.361816 464.284866 
L 1217.500701 462.064613 
L 1218.639585 328.111201 
L 1219.778469 224.730867 
L 1220.917354 192.831711 
L 1222.056238 136.809369 
L 1223.195122 166.928157 
L 1224.334007 245.456661 
L 1225.472891 337.341889 
L 1226.611775 451.585895 
L 1227.75066 471.06789 
L 1230.028428 373.722955 
L 1231.167313 304.567925 
L 1232.306197 284.280136 
L 1233.445081 247.861944 
L 1234.583966 186.07449 
L 1235.72285 241.806524 
L 1236.861734 257.312594 
L 1238.000619 227.249037 
L 1239.139503 261.419953 
L 1240.278387 272.367148 
L 1241.417272 293.565102 
L 1242.556156 329.821104 
L 1243.69504 359.882249 
L 1244.833925 431.764693 
L 1245.972809 429.622976 
L 1247.111694 318.43963 
L 1248.250578 230.264463 
L 1249.389462 180.766016 
L 1250.528347 145.152009 
L 1251.667231 95.289353 
L 1252.806115 157.262479 
L 1253.945 343.915321 
L 1255.083884 456.573789 
L 1256.222768 477.464501 
L 1258.500537 369.068996 
L 1259.639421 288.458574 
L 1260.778306 168.311657 
L 1261.91719 97.414382 
L 1263.056074 84.562966 
L 1264.194959 188.893564 
L 1265.333843 317.264373 
L 1266.472727 345.041388 
L 1266.472727 345.041388 
" style="fill:none;stroke:#1f77b4;stroke-linecap:square;stroke-width:1.5;"/>
   </g>
   <g id="line2d_24">
    <path clip-path="url(#p1a2868534d)" d="M 128.727273 363.545827 
L 129.866157 363.464407 
L 131.005041 389.194129 
L 132.143926 389.182918 
L 133.28281 344.257443 
L 134.421694 262.329129 
L 135.560579 189.597069 
L 136.699463 169.0799 
L 137.838347 206.034512 
L 138.977232 219.260928 
L 140.116116 186.741796 
L 141.255 246.834278 
L 142.393885 364.825011 
L 143.532769 382.212012 
L 144.671653 332.73733 
L 145.810538 313.855205 
L 146.949422 332.806841 
L 148.088306 371.920582 
L 149.227191 328.818591 
L 150.366075 212.913512 
L 151.50496 194.477356 
L 152.643844 213.52753 
L 153.782728 208.434127 
L 154.921613 220.781228 
L 156.060497 219.893672 
L 157.199381 284.236743 
L 158.338266 373.344055 
L 159.47715 376.046966 
L 160.616034 388.81877 
L 161.754919 399.542205 
L 162.893803 348.165054 
L 164.032687 286.632201 
L 165.171572 197.280475 
L 166.310456 123.936878 
L 167.44934 137.129509 
L 168.588225 170.181307 
L 169.727109 217.284275 
L 170.865993 280.930973 
L 172.004878 326.189475 
L 173.143762 395.123991 
L 174.282646 426.325439 
L 175.421531 373.163358 
L 176.560415 336.531038 
L 177.699299 327.005146 
L 178.838184 311.925735 
L 179.977068 281.874002 
L 181.115952 220.514165 
L 182.254837 165.92819 
L 183.393721 174.077632 
L 184.532605 213.816872 
L 185.67149 232.212292 
L 186.810374 259.752514 
L 187.949258 325.837241 
L 189.088143 407.399321 
L 190.227027 390.90008 
L 191.365911 311.898887 
L 192.504796 268.814189 
L 193.64368 268.926278 
L 194.782564 292.122801 
L 195.921449 250.993139 
L 197.060333 219.039028 
L 198.199217 269.165662 
L 199.338102 324.22337 
L 200.476986 322.128891 
L 202.754755 290.92899 
L 203.893639 282.366634 
L 205.032523 290.032025 
L 206.171408 264.574328 
L 207.310292 255.899735 
L 208.449176 270.105971 
L 209.588061 257.722958 
L 210.726945 269.42927 
L 211.865829 323.058605 
L 213.004714 343.845792 
L 214.143598 346.506918 
L 215.282482 363.315978 
L 216.421367 351.223116 
L 217.560251 294.23368 
L 218.699135 256.41608 
L 219.83802 228.852478 
L 220.976904 206.274924 
L 222.115789 238.644702 
L 223.254673 222.563543 
L 224.393557 223.678931 
L 225.532442 286.494497 
L 226.671326 298.662731 
L 227.81021 324.896461 
L 228.949095 357.795097 
L 230.087979 354.938187 
L 231.226863 353.826593 
L 232.365748 345.887501 
L 233.504632 319.461605 
L 235.782401 223.335826 
L 236.921285 221.507101 
L 238.060169 203.635377 
L 239.199054 202.632145 
L 240.337938 282.720148 
L 241.476822 316.952907 
L 242.615707 334.126294 
L 243.754591 375.187036 
L 244.893475 374.475683 
L 246.03236 348.295401 
L 247.171244 318.477195 
L 248.310128 306.445995 
L 249.449013 275.784051 
L 250.587897 213.344102 
L 251.726781 190.201434 
L 252.865666 234.610735 
L 254.00455 261.378159 
L 255.143434 234.120872 
L 256.282319 283.43893 
L 257.421203 371.973512 
L 258.560087 401.953848 
L 259.698972 415.957121 
L 260.837856 361.212449 
L 261.97674 298.199834 
L 263.115625 295.056255 
L 264.254509 272.010488 
L 266.532278 148.645433 
L 267.671162 175.825239 
L 268.810046 248.737351 
L 271.087815 280.267442 
L 272.226699 364.717241 
L 273.365584 403.32609 
L 274.504468 418.746689 
L 275.643352 446.479444 
L 276.782237 410.352028 
L 277.921121 360.278147 
L 279.060005 281.087431 
L 280.19889 268.634619 
L 281.337774 251.349323 
L 282.476658 155.222319 
L 283.615543 153.285379 
L 284.754427 184.663027 
L 287.032196 341.851168 
L 288.17108 360.161766 
L 289.309965 418.847304 
L 290.448849 468.83865 
L 291.587733 440.8692 
L 293.865502 255.191578 
L 295.004386 199.377334 
L 296.143271 242.170359 
L 297.282155 244.788607 
L 298.421039 193.277897 
L 299.559924 239.645478 
L 300.698808 304.94607 
L 301.837692 379.125526 
L 302.976577 396.001413 
L 304.115461 375.538243 
L 305.254345 391.44375 
L 306.39323 363.804038 
L 307.532114 322.957264 
L 308.670998 301.833843 
L 309.809883 255.540594 
L 310.948767 228.291076 
L 312.087651 247.213648 
L 313.226536 245.545161 
L 314.36542 255.443966 
L 315.504304 282.869375 
L 316.643189 334.569113 
L 317.782073 358.631202 
L 318.920957 344.645818 
L 320.059842 351.584605 
L 321.198726 355.594257 
L 322.33761 391.428016 
L 323.476495 337.12081 
L 324.615379 245.822047 
L 325.754263 263.064184 
L 326.893148 285.805147 
L 328.032032 257.704403 
L 329.170916 234.19353 
L 330.309801 260.790525 
L 331.448685 314.471971 
L 332.587569 348.779931 
L 333.726454 322.62955 
L 334.865338 291.56364 
L 336.004222 296.063256 
L 337.143107 330.520648 
L 338.281991 354.436049 
L 339.420875 347.43946 
L 340.55976 318.455407 
L 341.698644 332.777945 
L 342.837528 384.840973 
L 343.976413 342.37853 
L 346.254181 237.255169 
L 347.393066 213.520468 
L 348.53195 278.037228 
L 349.670834 263.825174 
L 350.809719 266.822035 
L 351.948603 342.126185 
L 354.226372 330.709471 
L 355.365256 354.952466 
L 356.504141 328.365784 
L 357.643025 314.896162 
L 358.781909 331.853497 
L 361.059678 379.095531 
L 362.198562 334.54904 
L 363.337447 295.475522 
L 364.476331 282.515399 
L 365.615215 222.043732 
L 366.7541 224.661408 
L 367.892984 256.936285 
L 369.031868 263.822174 
L 370.170753 291.393188 
L 371.309637 358.376734 
L 372.448521 396.221443 
L 373.587406 325.434443 
L 374.72629 308.111792 
L 375.865174 296.980859 
L 377.004059 222.129205 
L 378.142943 216.77298 
L 380.420712 284.410968 
L 381.559596 307.698593 
L 382.69848 343.096339 
L 383.837365 370.783841 
L 384.976249 347.916392 
L 386.115133 303.768725 
L 387.254018 331.84412 
L 388.392902 383.249554 
L 389.531786 280.333297 
L 390.670671 162.124747 
L 391.809555 177.035128 
L 392.948439 225.191306 
L 394.087324 252.809384 
L 395.226208 261.231661 
L 396.365092 294.944943 
L 397.503977 378.763577 
L 398.642861 390.997935 
L 399.781745 318.306534 
L 400.92063 256.659809 
L 402.059514 239.899572 
L 403.198398 238.162812 
L 404.337283 239.972871 
L 405.476167 275.617165 
L 406.615051 304.173248 
L 407.753936 364.972433 
L 408.89282 362.365464 
L 410.031704 277.109848 
L 411.170589 265.617611 
L 412.309473 218.260825 
L 413.448357 152.563644 
L 414.587242 173.632259 
L 415.726126 201.111474 
L 416.86501 210.616437 
L 418.003895 277.293984 
L 419.142779 336.27796 
L 420.281663 366.196648 
L 421.420548 399.068733 
L 422.559432 349.316628 
L 423.698316 305.693884 
L 424.837201 233.46341 
L 425.976085 149.828961 
L 427.11497 160.276327 
L 428.253854 144.507978 
L 429.392738 198.747304 
L 430.531623 297.729259 
L 431.670507 296.657453 
L 432.809391 273.632504 
L 433.948276 299.391189 
L 435.08716 382.544201 
L 436.226044 376.705989 
L 437.364929 308.719662 
L 438.503813 282.433168 
L 439.642697 273.538007 
L 440.781582 276.129441 
L 441.920466 212.689495 
L 443.05935 162.926911 
L 444.198235 173.565818 
L 445.337119 202.443141 
L 446.476003 190.427241 
L 447.614888 188.262789 
L 448.753772 265.648568 
L 451.031541 373.498745 
L 452.170425 364.350742 
L 453.309309 332.783302 
L 454.448194 329.151972 
L 455.587078 327.50103 
L 456.725962 299.741256 
L 457.864847 198.898439 
L 459.003731 197.028334 
L 460.142615 192.398716 
L 461.2815 168.365354 
L 462.420384 202.218866 
L 463.559268 223.442953 
L 464.698153 326.118663 
L 465.837037 405.953973 
L 466.975921 399.966706 
L 468.114806 415.014156 
L 469.25369 375.144233 
L 470.392574 273.337835 
L 471.531459 284.063648 
L 472.670343 264.343305 
L 473.809227 129.013419 
L 474.948112 92.62022 
L 476.086996 156.840402 
L 477.22588 244.51294 
L 478.364765 296.306531 
L 479.503649 360.194834 
L 480.642533 441.397892 
L 481.781418 491.975652 
L 482.920302 516.157793 
L 484.059186 387.72557 
L 485.198071 217.145078 
L 486.336955 188.878724 
L 487.475839 199.610074 
L 488.614724 191.725162 
L 489.753608 210.988476 
L 490.892492 249.581054 
L 492.031377 320.623732 
L 493.170261 408.076826 
L 494.309146 401.834519 
L 495.44803 357.908246 
L 496.586914 334.382371 
L 497.725799 304.861865 
L 498.864683 335.213859 
L 500.003567 300.985882 
L 501.142452 248.549309 
L 502.281336 297.160127 
L 503.42022 296.862576 
L 504.559105 311.131507 
L 505.697989 337.805199 
L 506.836873 319.228352 
L 507.975758 354.715659 
L 509.114642 410.712415 
L 510.253526 343.623314 
L 511.392411 239.953054 
L 512.531295 291.079035 
L 513.670179 305.497161 
L 514.809064 246.060351 
L 515.947948 261.059611 
L 517.086832 294.6055 
L 518.225717 347.07148 
L 519.364601 362.063585 
L 520.503485 333.356747 
L 521.64237 291.096746 
L 522.781254 259.313241 
L 523.920138 333.844424 
L 525.059023 382.079094 
L 526.197907 351.363758 
L 527.336791 378.452582 
L 528.475676 426.307273 
L 529.61456 388.366264 
L 530.753444 286.731829 
L 531.892329 212.742684 
L 533.031213 212.189096 
L 534.170097 188.025247 
L 535.308982 94.086151 
L 536.447866 197.88308 
L 537.58675 423.057659 
L 538.725635 479.566057 
L 539.864519 493.347618 
L 541.003403 490.136074 
L 545.558941 141.112885 
L 546.697825 171.48585 
L 547.836709 187.767629 
L 548.975594 224.571259 
L 550.114478 353.012617 
L 551.253362 430.725813 
L 552.392247 457.426257 
L 553.531131 425.537001 
L 554.670015 355.881924 
L 556.947784 188.063501 
L 558.086668 209.582487 
L 559.225553 269.266716 
L 560.364437 309.998054 
L 561.503322 252.349622 
L 562.642206 176.873824 
L 563.78109 246.598803 
L 564.919975 264.874099 
L 566.058859 266.824929 
L 567.197743 386.967494 
L 568.336628 466.237242 
L 569.475512 431.44004 
L 570.614396 366.394966 
L 572.892165 222.585364 
L 574.031049 202.29818 
L 575.169934 220.044588 
L 576.308818 263.297312 
L 578.586587 181.426203 
L 579.725471 281.088983 
L 580.864355 350.202631 
L 582.00324 351.094908 
L 583.142124 379.850842 
L 584.281008 397.427509 
L 585.419893 373.278357 
L 586.558777 325.004815 
L 587.697661 255.689228 
L 588.836546 214.078429 
L 591.114314 149.032779 
L 592.253199 160.646809 
L 593.392083 208.495254 
L 594.530967 295.244973 
L 595.669852 372.949587 
L 596.808736 430.471222 
L 597.94762 452.88284 
L 599.086505 418.528722 
L 600.225389 322.228883 
L 601.364273 201.290356 
L 602.503158 144.216329 
L 603.642042 77.671805 
L 604.780926 65.082058 
L 605.919811 192.949064 
L 608.197579 319.532282 
L 609.336464 426.755161 
L 610.475348 417.347513 
L 611.614232 375.395977 
L 612.753117 344.75523 
L 613.892001 319.034852 
L 615.030885 288.681321 
L 616.16977 206.127105 
L 617.308654 133.115673 
L 618.447538 154.842367 
L 619.586423 224.265918 
L 620.725307 242.659203 
L 621.864191 244.737828 
L 623.003076 258.261665 
L 624.14196 286.221094 
L 625.280844 322.094131 
L 626.419729 328.964352 
L 627.558613 299.248149 
L 628.697497 296.334924 
L 629.836382 296.186946 
L 630.975266 254.843944 
L 632.114151 236.840879 
L 633.253035 253.020251 
L 634.391919 265.924881 
L 635.530804 251.688238 
L 636.669688 269.82154 
L 637.808572 253.017502 
L 638.947457 218.655015 
L 640.086341 224.461051 
L 641.225225 233.38487 
L 642.36411 297.610041 
L 643.502994 308.758164 
L 644.641878 323.401415 
L 645.780763 376.476198 
L 646.919647 334.010221 
L 649.197416 193.663732 
L 650.3363 157.84716 
L 651.475184 178.718619 
L 652.614069 193.432942 
L 653.752953 262.492033 
L 654.891837 395.789762 
L 656.030722 422.331185 
L 657.169606 406.751881 
L 658.30849 367.948784 
L 659.447375 291.837496 
L 660.586259 268.791866 
L 661.725143 214.913701 
L 662.864028 197.480017 
L 664.002912 216.709636 
L 665.141796 205.849498 
L 666.280681 242.825383 
L 667.419565 272.397599 
L 668.558449 272.804813 
L 669.697334 297.277776 
L 670.836218 342.847439 
L 671.975102 378.702388 
L 673.113987 339.578182 
L 674.252871 271.392284 
L 675.391755 299.404292 
L 676.53064 312.448301 
L 677.669524 249.403217 
L 678.808408 239.917146 
L 679.947293 241.860291 
L 681.086177 248.72273 
L 682.225061 289.952615 
L 683.363946 298.859073 
L 684.50283 327.086731 
L 685.641714 333.789541 
L 686.780599 286.28547 
L 687.919483 322.717285 
L 689.058367 310.91981 
L 690.197252 243.742436 
L 691.336136 255.316126 
L 692.47502 253.467369 
L 693.613905 297.950892 
L 694.752789 337.532604 
L 695.891673 325.210709 
L 697.030558 336.446825 
L 698.169442 301.448758 
L 699.308327 274.11624 
L 700.447211 309.475813 
L 701.586095 297.836156 
L 702.72498 290.039426 
L 703.863864 341.225256 
L 705.002748 332.999832 
L 706.141633 298.382476 
L 707.280517 243.09657 
L 708.419401 223.891137 
L 709.558286 253.9707 
L 710.69717 265.178235 
L 711.836054 343.086748 
L 712.974939 362.799981 
L 714.113823 329.257134 
L 715.252707 349.169648 
L 716.391592 317.212835 
L 717.530476 261.61953 
L 718.66936 268.34999 
L 719.808245 284.48522 
L 720.947129 291.986286 
L 722.086013 310.835454 
L 723.224898 341.448356 
L 724.363782 367.682549 
L 725.502666 363.124799 
L 726.641551 362.244558 
L 727.780435 316.793787 
L 728.919319 247.844443 
L 730.058204 192.635894 
L 731.197088 179.572107 
L 732.335972 241.960159 
L 733.474857 268.59326 
L 734.613741 290.520077 
L 735.752625 332.738026 
L 736.89151 346.439779 
L 738.030394 372.844904 
L 739.169278 373.896682 
L 740.308163 337.440038 
L 741.447047 326.105279 
L 742.585931 299.27597 
L 743.724816 316.885749 
L 744.8637 320.843545 
L 746.002584 231.471584 
L 747.141469 248.311023 
L 748.280353 235.714914 
L 749.419237 200.186873 
L 750.558122 312.524198 
L 751.697006 353.091245 
L 752.83589 352.012682 
L 753.974775 381.045593 
L 756.252543 246.93356 
L 757.391428 220.012225 
L 758.530312 233.812031 
L 759.669196 304.242025 
L 760.808081 323.966915 
L 761.946965 316.30206 
L 764.224734 230.107336 
L 765.363618 259.975198 
L 766.502503 306.228979 
L 767.641387 344.943408 
L 768.780271 359.9021 
L 769.919156 334.335648 
L 771.05804 317.497777 
L 772.196924 342.984091 
L 773.335809 290.971828 
L 774.474693 232.620904 
L 775.613577 275.121327 
L 776.752462 303.188068 
L 777.891346 305.784868 
L 779.03023 283.039867 
L 780.169115 277.674146 
L 781.307999 321.215428 
L 782.446883 322.139981 
L 783.585768 291.528978 
L 784.724652 290.133383 
L 785.863536 297.302871 
L 787.002421 280.967804 
L 788.141305 270.219207 
L 789.280189 326.678125 
L 790.419074 348.616723 
L 791.557958 289.306037 
L 792.696842 287.471529 
L 794.974611 276.094567 
L 796.113495 294.218539 
L 797.25238 280.860191 
L 798.391264 314.684432 
L 799.530148 325.124064 
L 800.669033 321.940716 
L 801.807917 359.251134 
L 804.085686 310.448414 
L 805.22457 317.069283 
L 807.502339 253.717001 
L 808.641223 201.972863 
L 809.780107 195.523471 
L 810.918992 279.751452 
L 812.057876 332.151988 
L 814.335645 399.23912 
L 815.474529 378.147968 
L 816.613413 340.560986 
L 817.752298 343.676731 
L 818.891182 316.064038 
L 820.030066 272.990574 
L 821.168951 276.87337 
L 822.307835 281.92643 
L 824.585604 341.701874 
L 825.724488 303.333034 
L 826.863372 284.122335 
L 828.002257 342.1868 
L 829.141141 378.740469 
L 830.280025 385.149524 
L 831.41891 370.306432 
L 832.557794 310.048225 
L 833.696678 272.422953 
L 835.974447 240.18964 
L 837.113332 252.309739 
L 838.252216 271.38655 
L 839.3911 284.41029 
L 840.529985 307.315682 
L 841.668869 312.636667 
L 842.807753 312.525075 
L 843.946638 345.976737 
L 845.085522 413.8701 
L 846.224406 428.700516 
L 847.363291 352.362911 
L 848.502175 317.07863 
L 849.641059 296.187854 
L 850.779944 253.882315 
L 851.918828 260.69359 
L 853.057712 246.006507 
L 854.196597 224.982142 
L 855.335481 237.845407 
L 856.474365 246.259171 
L 857.61325 278.78502 
L 858.752134 306.997097 
L 859.891018 354.490264 
L 861.029903 426.062995 
L 862.168787 415.628342 
L 864.446556 261.482258 
L 865.58544 255.191136 
L 866.724324 269.816597 
L 867.863209 255.357579 
L 869.002093 263.465619 
L 871.279862 350.895399 
L 872.418746 326.075058 
L 873.55763 262.223943 
L 874.696515 241.050418 
L 875.835399 260.494003 
L 876.974283 256.347395 
L 878.113168 235.514975 
L 879.252052 277.475227 
L 880.390936 349.972936 
L 881.529821 378.699645 
L 882.668705 345.841598 
L 883.807589 327.282885 
L 884.946474 265.528966 
L 886.085358 168.345974 
L 887.224242 165.473354 
L 888.363127 183.455136 
L 889.502011 229.234113 
L 890.640895 325.854104 
L 891.77978 390.217557 
L 892.918664 414.023047 
L 894.057548 398.072418 
L 895.196433 326.030207 
L 896.335317 261.442947 
L 897.474201 224.009389 
L 898.613086 163.554699 
L 899.75197 156.812351 
L 900.890854 194.723092 
L 902.029739 202.838613 
L 903.168623 247.676517 
L 904.307508 302.278843 
L 905.446392 347.980432 
L 906.585276 377.617034 
L 907.724161 361.883021 
L 908.863045 349.391048 
L 910.001929 289.338495 
L 911.140814 207.061066 
L 912.279698 137.783572 
L 913.418582 153.119379 
L 914.557467 222.400796 
L 915.696351 208.472722 
L 916.835235 249.8033 
L 917.97412 327.94852 
L 919.113004 389.785116 
L 920.251888 407.879882 
L 921.390773 351.747553 
L 922.529657 329.6801 
L 923.668541 311.869364 
L 924.807426 286.006239 
L 925.94631 241.471055 
L 927.085194 205.035104 
L 928.224079 178.53608 
L 929.362963 173.551334 
L 930.501847 242.271968 
L 931.640732 282.754193 
L 933.9185 348.617035 
L 935.057385 354.927546 
L 936.196269 335.648856 
L 937.335153 282.209563 
L 938.474038 266.152934 
L 939.612922 261.323987 
L 940.751806 255.181835 
L 941.890691 261.339664 
L 943.029575 257.114927 
L 944.168459 280.180351 
L 945.307344 322.016801 
L 946.446228 304.255847 
L 947.585112 298.946443 
L 948.723997 331.734431 
L 949.862881 348.587743 
L 951.001765 338.32623 
L 952.14065 265.684468 
L 953.279534 204.11788 
L 954.418418 194.102655 
L 955.557303 235.66278 
L 956.696187 290.567836 
L 957.835071 295.868812 
L 958.973956 318.823283 
L 960.11284 398.461356 
L 961.251724 430.807743 
L 963.529493 207.174485 
L 964.668377 239.914342 
L 965.807262 289.251969 
L 968.08503 228.61543 
L 970.362799 402.067089 
L 971.501684 363.658162 
L 972.640568 283.967412 
L 973.779452 238.347138 
L 974.918337 253.449916 
L 976.057221 277.295388 
L 977.196105 260.369908 
L 978.33499 272.430497 
L 979.473874 340.263361 
L 980.612758 391.223163 
L 981.751643 369.379564 
L 982.890527 320.372383 
L 984.029411 312.743433 
L 985.168296 327.829399 
L 986.30718 330.128249 
L 988.584949 216.550993 
L 989.723833 225.54132 
L 990.862717 246.753951 
L 992.001602 297.806835 
L 993.140486 338.294445 
L 994.27937 345.75921 
L 995.418255 373.453355 
L 996.557139 355.941676 
L 997.696023 255.873049 
L 998.834908 204.807546 
L 1001.112676 315.502855 
L 1002.251561 349.906431 
L 1003.390445 398.615966 
L 1004.529329 425.095552 
L 1005.668214 387.267 
L 1006.807098 312.678344 
L 1007.945982 203.843764 
L 1009.084867 151.253947 
L 1011.362635 306.360706 
L 1012.50152 310.666003 
L 1013.640404 312.939179 
L 1014.779288 324.732234 
L 1015.918173 347.909929 
L 1017.057057 348.817345 
L 1018.195941 328.074103 
L 1019.334826 330.95459 
L 1020.47371 297.473028 
L 1021.612594 286.656162 
L 1022.751479 279.456698 
L 1023.890363 236.148992 
L 1025.029247 255.072634 
L 1026.168132 311.925353 
L 1027.307016 360.590437 
L 1028.4459 354.563416 
L 1029.584785 337.108183 
L 1030.723669 322.269252 
L 1031.862553 254.314007 
L 1033.001438 198.077521 
L 1034.140322 185.891804 
L 1035.279206 228.917795 
L 1036.418091 306.73157 
L 1037.556975 340.230302 
L 1038.695859 359.843887 
L 1039.834744 394.135145 
L 1040.973628 366.455987 
L 1042.112513 308.135905 
L 1043.251397 269.018004 
L 1044.390281 251.176573 
L 1045.529166 263.044804 
L 1046.66805 256.022612 
L 1047.806934 297.867545 
L 1048.945819 364.102548 
L 1050.084703 334.076131 
L 1051.223587 309.450032 
L 1052.362472 290.953976 
L 1053.501356 241.064775 
L 1054.64024 246.683544 
L 1055.779125 237.286448 
L 1056.918009 217.226024 
L 1059.195778 302.14977 
L 1060.334662 317.07379 
L 1061.473546 307.137739 
L 1062.612431 310.286718 
L 1063.751315 294.109048 
L 1064.890199 227.349409 
L 1066.029084 263.789921 
L 1067.167968 315.207577 
L 1068.306852 300.974715 
L 1069.445737 336.313685 
L 1070.584621 345.033413 
L 1071.723505 310.46034 
L 1072.86239 241.141436 
L 1074.001274 194.584964 
L 1075.140158 156.61236 
L 1076.279043 133.206043 
L 1077.417927 247.599089 
L 1078.556811 301.276898 
L 1079.695696 332.814154 
L 1080.83458 406.883656 
L 1081.973464 384.714905 
L 1083.112349 340.334677 
L 1085.390117 222.830155 
L 1086.529002 143.48036 
L 1087.667886 84.596492 
L 1088.80677 151.117236 
L 1089.945655 187.042593 
L 1091.084539 262.169475 
L 1092.223423 411.338538 
L 1093.362308 395.690117 
L 1094.501192 480.613276 
L 1095.640076 454.648894 
L 1096.778961 196.21606 
L 1097.917845 193.759871 
L 1099.056729 139.343305 
L 1100.195614 124.496081 
L 1101.334498 219.845572 
L 1102.473382 194.306389 
L 1103.612267 295.415505 
L 1104.751151 262.635422 
L 1105.890035 208.055207 
L 1107.02892 293.334706 
L 1108.167804 288.415863 
L 1109.306689 347.337341 
L 1110.445573 354.61426 
L 1111.584457 304.582483 
L 1112.723342 321.819851 
L 1115.00111 152.623343 
L 1116.139995 136.835536 
L 1117.278879 182.646397 
L 1118.417763 295.172687 
L 1119.556648 314.64053 
L 1120.695532 383.383226 
L 1121.834416 404.206749 
L 1122.973301 276.74404 
L 1124.112185 291.162828 
L 1125.251069 283.233175 
L 1126.389954 164.057684 
L 1127.528838 177.544334 
L 1128.667722 255.921778 
L 1129.806607 318.520527 
L 1130.945491 333.928975 
L 1132.084375 273.755712 
L 1133.22326 252.478984 
L 1134.362144 289.749385 
L 1135.501028 320.869907 
L 1136.639913 288.980466 
L 1137.778797 295.066008 
L 1138.917681 355.623224 
L 1140.056566 291.395539 
L 1141.19545 218.155636 
L 1142.334334 216.845432 
L 1143.473219 262.464141 
L 1144.612103 349.015424 
L 1145.750987 367.087547 
L 1146.889872 364.536365 
L 1148.028756 355.794493 
L 1149.16764 325.122143 
L 1150.306525 312.460322 
L 1151.445409 244.841705 
L 1152.584293 120.215363 
L 1153.723178 129.540907 
L 1154.862062 292.452672 
L 1156.000946 388.905564 
L 1157.139831 376.232837 
L 1158.278715 381.062303 
L 1159.417599 427.48445 
L 1160.556484 394.005144 
L 1161.695368 264.703816 
L 1162.834252 209.315507 
L 1163.973137 273.809595 
L 1165.112021 304.246532 
L 1166.250905 282.399245 
L 1167.38979 320.289552 
L 1168.528674 385.465803 
L 1169.667558 383.030687 
L 1170.806443 347.156398 
L 1171.945327 339.252084 
L 1173.084211 357.922975 
L 1174.223096 325.649933 
L 1175.36198 220.426994 
L 1176.500865 218.36811 
L 1177.639749 300.29704 
L 1178.778633 297.678423 
L 1179.917518 249.094329 
L 1181.056402 309.25741 
L 1182.195286 450.360075 
L 1183.334171 437.285166 
L 1184.473055 309.779568 
L 1185.611939 260.460385 
L 1186.750824 305.346957 
L 1187.889708 331.645247 
L 1189.028592 254.675448 
L 1190.167477 258.745143 
L 1191.306361 378.668366 
L 1192.445245 373.260043 
L 1193.58413 328.470521 
L 1194.723014 329.673277 
L 1195.861898 285.956191 
L 1197.000783 326.346185 
L 1198.139667 335.901926 
L 1199.278551 262.236194 
L 1201.55632 209.710357 
L 1202.695204 332.728438 
L 1203.834089 410.257243 
L 1204.972973 351.823424 
L 1206.111857 375.06476 
L 1207.250742 343.241292 
L 1208.389626 307.070004 
L 1209.52851 255.321725 
L 1210.667395 163.274097 
L 1211.806279 226.578211 
L 1212.945163 328.771878 
L 1214.084048 368.324677 
L 1215.222932 397.447942 
L 1216.361816 407.945961 
L 1217.500701 381.400205 
L 1218.639585 250.887158 
L 1219.778469 174.719942 
L 1220.917354 187.627366 
L 1222.056238 164.520638 
L 1223.195122 216.501095 
L 1224.334007 304.474339 
L 1225.472891 383.855302 
L 1226.611775 473.695187 
L 1227.75066 454.076628 
L 1228.889544 360.631382 
L 1231.167313 242.285042 
L 1232.306197 237.656901 
L 1233.445081 235.482592 
L 1234.583966 229.841407 
L 1235.72285 315.819935 
L 1236.861734 291.953606 
L 1238.000619 234.888812 
L 1239.139503 263.97215 
L 1240.278387 234.59218 
L 1241.417272 210.350011 
L 1242.556156 253.284725 
L 1243.69504 340.704199 
L 1244.833925 446.664177 
L 1245.972809 441.371786 
L 1247.111694 357.340226 
L 1248.250578 305.398678 
L 1249.389462 241.558113 
L 1250.528347 166.732022 
L 1251.667231 79.928971 
L 1252.806115 108.244181 
L 1253.945 259.432473 
L 1255.083884 353.663769 
L 1256.222768 384.508359 
L 1257.361653 380.33957 
L 1258.500537 420.723269 
L 1259.639421 412.594004 
L 1260.778306 302.163962 
L 1261.91719 218.467247 
L 1263.056074 163.061558 
L 1264.194959 167.941356 
L 1265.333843 176.194663 
L 1266.472727 144.82805 
L 1266.472727 144.82805 
" style="fill:none;stroke:#ff7f0e;stroke-linecap:square;stroke-width:1.5;"/>
   </g>
   <g id="patch_3">
    <path d="M 71.84 659.72 
L 71.84 26.88 
" style="fill:none;stroke:#000000;stroke-linecap:square;stroke-linejoin:miter;stroke-width:0.8;"/>
   </g>
   <g id="patch_4">
    <path d="M 1323.36 659.72 
L 1323.36 26.88 
" style="fill:none;stroke:#000000;stroke-linecap:square;stroke-linejoin:miter;stroke-width:0.8;"/>
   </g>
   <g id="patch_5">
    <path d="M 71.84 659.72 
L 1323.36 659.72 
" style="fill:none;stroke:#000000;stroke-linecap:square;stroke-linejoin:miter;stroke-width:0.8;"/>
   </g>
   <g id="patch_6">
    <path d="M 71.84 26.88 
L 1323.36 26.88 
" style="fill:none;stroke:#000000;stroke-linecap:square;stroke-linejoin:miter;stroke-width:0.8;"/>
   </g>
   <g id="text_13">
    <!-- Raw data BHN &amp; BLN -->
    <defs>
     <path d="M 44.390625 34.1875 
Q 47.5625 33.109375 50.5625 29.59375 
Q 53.5625 26.078125 56.59375 19.921875 
L 66.609375 0 
L 56 0 
L 46.6875 18.703125 
Q 43.0625 26.03125 39.671875 28.421875 
Q 36.28125 30.8125 30.421875 30.8125 
L 19.671875 30.8125 
L 19.671875 0 
L 9.8125 0 
L 9.8125 72.90625 
L 32.078125 72.90625 
Q 44.578125 72.90625 50.734375 67.671875 
Q 56.890625 62.453125 56.890625 51.90625 
Q 56.890625 45.015625 53.6875 40.46875 
Q 50.484375 35.9375 44.390625 34.1875 
z
M 19.671875 64.796875 
L 19.671875 38.921875 
L 32.078125 38.921875 
Q 39.203125 38.921875 42.84375 42.21875 
Q 46.484375 45.515625 46.484375 51.90625 
Q 46.484375 58.296875 42.84375 61.546875 
Q 39.203125 64.796875 32.078125 64.796875 
z
" id="DejaVuSans-82"/>
     <path d="M 34.28125 27.484375 
Q 23.390625 27.484375 19.1875 25 
Q 14.984375 22.515625 14.984375 16.5 
Q 14.984375 11.71875 18.140625 8.90625 
Q 21.296875 6.109375 26.703125 6.109375 
Q 34.1875 6.109375 38.703125 11.40625 
Q 43.21875 16.703125 43.21875 25.484375 
L 43.21875 27.484375 
z
M 52.203125 31.203125 
L 52.203125 0 
L 43.21875 0 
L 43.21875 8.296875 
Q 40.140625 3.328125 35.546875 0.953125 
Q 30.953125 -1.421875 24.3125 -1.421875 
Q 15.921875 -1.421875 10.953125 3.296875 
Q 6 8.015625 6 15.921875 
Q 6 25.140625 12.171875 29.828125 
Q 18.359375 34.515625 30.609375 34.515625 
L 43.21875 34.515625 
L 43.21875 35.40625 
Q 43.21875 41.609375 39.140625 45 
Q 35.0625 48.390625 27.6875 48.390625 
Q 23 48.390625 18.546875 47.265625 
Q 14.109375 46.140625 10.015625 43.890625 
L 10.015625 52.203125 
Q 14.9375 54.109375 19.578125 55.046875 
Q 24.21875 56 28.609375 56 
Q 40.484375 56 46.34375 49.84375 
Q 52.203125 43.703125 52.203125 31.203125 
z
" id="DejaVuSans-97"/>
     <path d="M 4.203125 54.6875 
L 13.1875 54.6875 
L 24.421875 12.015625 
L 35.59375 54.6875 
L 46.1875 54.6875 
L 57.421875 12.015625 
L 68.609375 54.6875 
L 77.59375 54.6875 
L 63.28125 0 
L 52.6875 0 
L 40.921875 44.828125 
L 29.109375 0 
L 18.5 0 
z
" id="DejaVuSans-119"/>
     <path id="DejaVuSans-32"/>
     <path d="M 45.40625 46.390625 
L 45.40625 75.984375 
L 54.390625 75.984375 
L 54.390625 0 
L 45.40625 0 
L 45.40625 8.203125 
Q 42.578125 3.328125 38.25 0.953125 
Q 33.9375 -1.421875 27.875 -1.421875 
Q 17.96875 -1.421875 11.734375 6.484375 
Q 5.515625 14.40625 5.515625 27.296875 
Q 5.515625 40.1875 11.734375 48.09375 
Q 17.96875 56 27.875 56 
Q 33.9375 56 38.25 53.625 
Q 42.578125 51.265625 45.40625 46.390625 
z
M 14.796875 27.296875 
Q 14.796875 17.390625 18.875 11.75 
Q 22.953125 6.109375 30.078125 6.109375 
Q 37.203125 6.109375 41.296875 11.75 
Q 45.40625 17.390625 45.40625 27.296875 
Q 45.40625 37.203125 41.296875 42.84375 
Q 37.203125 48.484375 30.078125 48.484375 
Q 22.953125 48.484375 18.875 42.84375 
Q 14.796875 37.203125 14.796875 27.296875 
z
" id="DejaVuSans-100"/>
     <path d="M 19.671875 34.8125 
L 19.671875 8.109375 
L 35.5 8.109375 
Q 43.453125 8.109375 47.28125 11.40625 
Q 51.125 14.703125 51.125 21.484375 
Q 51.125 28.328125 47.28125 31.5625 
Q 43.453125 34.8125 35.5 34.8125 
z
M 19.671875 64.796875 
L 19.671875 42.828125 
L 34.28125 42.828125 
Q 41.5 42.828125 45.03125 45.53125 
Q 48.578125 48.25 48.578125 53.8125 
Q 48.578125 59.328125 45.03125 62.0625 
Q 41.5 64.796875 34.28125 64.796875 
z
M 9.8125 72.90625 
L 35.015625 72.90625 
Q 46.296875 72.90625 52.390625 68.21875 
Q 58.5 63.53125 58.5 54.890625 
Q 58.5 48.1875 55.375 44.234375 
Q 52.25 40.28125 46.1875 39.3125 
Q 53.46875 37.75 57.5 32.78125 
Q 61.53125 27.828125 61.53125 20.40625 
Q 61.53125 10.640625 54.890625 5.3125 
Q 48.25 0 35.984375 0 
L 9.8125 0 
z
" id="DejaVuSans-66"/>
     <path d="M 9.8125 72.90625 
L 19.671875 72.90625 
L 19.671875 43.015625 
L 55.515625 43.015625 
L 55.515625 72.90625 
L 65.375 72.90625 
L 65.375 0 
L 55.515625 0 
L 55.515625 34.71875 
L 19.671875 34.71875 
L 19.671875 0 
L 9.8125 0 
z
" id="DejaVuSans-72"/>
     <path d="M 9.8125 72.90625 
L 23.09375 72.90625 
L 55.421875 11.921875 
L 55.421875 72.90625 
L 64.984375 72.90625 
L 64.984375 0 
L 51.703125 0 
L 19.390625 60.984375 
L 19.390625 0 
L 9.8125 0 
z
" id="DejaVuSans-78"/>
     <path d="M 24.3125 39.203125 
Q 19.875 35.25 17.796875 31.3125 
Q 15.71875 27.390625 15.71875 23.09375 
Q 15.71875 15.96875 20.890625 11.234375 
Q 26.078125 6.5 33.890625 6.5 
Q 38.53125 6.5 42.578125 8.03125 
Q 46.625 9.578125 50.203125 12.703125 
z
M 31.203125 44.671875 
L 56 19.28125 
Q 58.890625 23.640625 60.5 28.59375 
Q 62.109375 33.546875 62.40625 39.109375 
L 71.484375 39.109375 
Q 70.90625 32.671875 68.359375 26.359375 
Q 65.828125 20.0625 61.28125 13.921875 
L 74.90625 0 
L 62.59375 0 
L 55.609375 7.171875 
Q 50.53125 2.828125 44.96875 0.703125 
Q 39.40625 -1.421875 33.015625 -1.421875 
Q 21.234375 -1.421875 13.765625 5.296875 
Q 6.296875 12.015625 6.296875 22.515625 
Q 6.296875 28.765625 9.5625 34.25 
Q 12.84375 39.75 19.390625 44.578125 
Q 17.046875 47.65625 15.8125 50.703125 
Q 14.59375 53.765625 14.59375 56.6875 
Q 14.59375 64.59375 20.015625 69.40625 
Q 25.4375 74.21875 34.421875 74.21875 
Q 38.484375 74.21875 42.5 73.34375 
Q 46.53125 72.46875 50.6875 70.703125 
L 50.6875 61.8125 
Q 46.4375 64.109375 42.578125 65.296875 
Q 38.71875 66.5 35.40625 66.5 
Q 30.28125 66.5 27.078125 63.78125 
Q 23.875 61.078125 23.875 56.78125 
Q 23.875 54.296875 25.3125 51.78125 
Q 26.765625 49.265625 31.203125 44.671875 
z
" id="DejaVuSans-38"/>
     <path d="M 9.8125 72.90625 
L 19.671875 72.90625 
L 19.671875 8.296875 
L 55.171875 8.296875 
L 55.171875 0 
L 9.8125 0 
z
" id="DejaVuSans-76"/>
    </defs>
    <g transform="translate(633.961563 20.88)scale(0.12 -0.12)">
     <use xlink:href="#DejaVuSans-82"/>
     <use x="69.451172" xlink:href="#DejaVuSans-97"/>
     <use x="130.730469" xlink:href="#DejaVuSans-119"/>
     <use x="212.517578" xlink:href="#DejaVuSans-32"/>
     <use x="244.304688" xlink:href="#DejaVuSans-100"/>
     <use x="307.78125" xlink:href="#DejaVuSans-97"/>
     <use x="369.060547" xlink:href="#DejaVuSans-116"/>
     <use x="408.269531" xlink:href="#DejaVuSans-97"/>
     <use x="469.548828" xlink:href="#DejaVuSans-32"/>
     <use x="501.335938" xlink:href="#DejaVuSans-66"/>
     <use x="569.939453" xlink:href="#DejaVuSans-72"/>
     <use x="645.134766" xlink:href="#DejaVuSans-78"/>
     <use x="719.939453" xlink:href="#DejaVuSans-32"/>
     <use x="751.726562" xlink:href="#DejaVuSans-38"/>
     <use x="829.705078" xlink:href="#DejaVuSans-32"/>
     <use x="861.492188" xlink:href="#DejaVuSans-66"/>
     <use x="930.095703" xlink:href="#DejaVuSans-76"/>
     <use x="985.808594" xlink:href="#DejaVuSans-78"/>
    </g>
   </g>
   <g id="legend_1">
    <g id="patch_7">
     <path d="M 78.84 64.23625 
L 132.7025 64.23625 
Q 134.7025 64.23625 134.7025 62.23625 
L 134.7025 33.88 
Q 134.7025 31.88 132.7025 31.88 
L 78.84 31.88 
Q 76.84 31.88 76.84 33.88 
L 76.84 62.23625 
Q 76.84 64.23625 78.84 64.23625 
z
" style="fill:#ffffff;opacity:0.8;stroke:#cccccc;stroke-linejoin:miter;"/>
    </g>
    <g id="line2d_25">
     <path d="M 80.84 39.978438 
L 100.84 39.978438 
" style="fill:none;stroke:#1f77b4;stroke-linecap:square;stroke-width:1.5;"/>
    </g>
    <g id="line2d_26"/>
    <g id="text_14">
     <!-- BHN -->
     <g transform="translate(108.84 43.478438)scale(0.1 -0.1)">
      <use xlink:href="#DejaVuSans-66"/>
      <use x="68.603516" xlink:href="#DejaVuSans-72"/>
      <use x="143.798828" xlink:href="#DejaVuSans-78"/>
     </g>
    </g>
    <g id="line2d_27">
     <path d="M 80.84 54.656563 
L 100.84 54.656563 
" style="fill:none;stroke:#ff7f0e;stroke-linecap:square;stroke-width:1.5;"/>
    </g>
    <g id="line2d_28"/>
    <g id="text_15">
     <!-- BLN -->
     <g transform="translate(108.84 58.156563)scale(0.1 -0.1)">
      <use xlink:href="#DejaVuSans-66"/>
      <use x="68.603516" xlink:href="#DejaVuSans-76"/>
      <use x="124.316406" xlink:href="#DejaVuSans-78"/>
     </g>
    </g>
   </g>
  </g>
 </g>
 <defs>
  <clipPath id="p1a2868534d">
   <rect height="632.84" width="1251.52" x="71.84" y="26.88"/>
  </clipPath>
 </defs>
</svg>
