<?xml version="1.0" encoding="utf-8" standalone="no"?>
<!DOCTYPE svg PUBLIC "-//W3C//DTD SVG 1.1//EN"
  "http://www.w3.org/Graphics/SVG/1.1/DTD/svg11.dtd">
<!-- Created with matplotlib (https://matplotlib.org/) -->
<svg height="687.6pt" version="1.1" viewBox="0 0 1334.16 687.6" width="1334.16pt" xmlns="http://www.w3.org/2000/svg" xmlns:xlink="http://www.w3.org/1999/xlink">
 <defs>
  <style type="text/css">
*{stroke-linecap:butt;stroke-linejoin:round;}
  </style>
 </defs>
 <g id="figure_1">
  <g id="patch_1">
   <path d="M 0 687.6 
L 1334.16 687.6 
L 1334.16 0 
L 0 0 
z
" style="fill:#ffffff;"/>
  </g>
  <g id="axes_1">
   <g id="patch_2">
    <path d="M 65.54 659.72 
L 1323.36 659.72 
L 1323.36 26.88 
L 65.54 26.88 
z
" style="fill:#ffffff;"/>
   </g>
   <g id="matplotlib.axis_1">
    <g id="xtick_1">
     <g id="line2d_1">
      <path clip-path="url(#p4cbf58c951)" d="M 122.713636 659.72 
L 122.713636 26.88 
" style="fill:none;stroke:#b0b0b0;stroke-linecap:square;stroke-width:0.8;"/>
     </g>
     <g id="line2d_2">
      <defs>
       <path d="M 0 0 
L 0 3.5 
" id="m8c16cad4af" style="stroke:#000000;stroke-width:0.8;"/>
      </defs>
      <g>
       <use style="stroke:#000000;stroke-width:0.8;" x="122.713636" xlink:href="#m8c16cad4af" y="659.72"/>
      </g>
     </g>
     <g id="text_1">
      <!-- 0 -->
      <defs>
       <path d="M 31.78125 66.40625 
Q 24.171875 66.40625 20.328125 58.90625 
Q 16.5 51.421875 16.5 36.375 
Q 16.5 21.390625 20.328125 13.890625 
Q 24.171875 6.390625 31.78125 6.390625 
Q 39.453125 6.390625 43.28125 13.890625 
Q 47.125 21.390625 47.125 36.375 
Q 47.125 51.421875 43.28125 58.90625 
Q 39.453125 66.40625 31.78125 66.40625 
z
M 31.78125 74.21875 
Q 44.046875 74.21875 50.515625 64.515625 
Q 56.984375 54.828125 56.984375 36.375 
Q 56.984375 17.96875 50.515625 8.265625 
Q 44.046875 -1.421875 31.78125 -1.421875 
Q 19.53125 -1.421875 13.0625 8.265625 
Q 6.59375 17.96875 6.59375 36.375 
Q 6.59375 54.828125 13.0625 64.515625 
Q 19.53125 74.21875 31.78125 74.21875 
z
" id="DejaVuSans-48"/>
      </defs>
      <g transform="translate(119.532386 674.318438)scale(0.1 -0.1)">
       <use xlink:href="#DejaVuSans-48"/>
      </g>
     </g>
    </g>
    <g id="xtick_2">
     <g id="line2d_3">
      <path clip-path="url(#p4cbf58c951)" d="M 351.637105 659.72 
L 351.637105 26.88 
" style="fill:none;stroke:#b0b0b0;stroke-linecap:square;stroke-width:0.8;"/>
     </g>
     <g id="line2d_4">
      <g>
       <use style="stroke:#000000;stroke-width:0.8;" x="351.637105" xlink:href="#m8c16cad4af" y="659.72"/>
      </g>
     </g>
     <g id="text_2">
      <!-- 200 -->
      <defs>
       <path d="M 19.1875 8.296875 
L 53.609375 8.296875 
L 53.609375 0 
L 7.328125 0 
L 7.328125 8.296875 
Q 12.9375 14.109375 22.625 23.890625 
Q 32.328125 33.6875 34.8125 36.53125 
Q 39.546875 41.84375 41.421875 45.53125 
Q 43.3125 49.21875 43.3125 52.78125 
Q 43.3125 58.59375 39.234375 62.25 
Q 35.15625 65.921875 28.609375 65.921875 
Q 23.96875 65.921875 18.8125 64.3125 
Q 13.671875 62.703125 7.8125 59.421875 
L 7.8125 69.390625 
Q 13.765625 71.78125 18.9375 73 
Q 24.125 74.21875 28.421875 74.21875 
Q 39.75 74.21875 46.484375 68.546875 
Q 53.21875 62.890625 53.21875 53.421875 
Q 53.21875 48.921875 51.53125 44.890625 
Q 49.859375 40.875 45.40625 35.40625 
Q 44.1875 33.984375 37.640625 27.21875 
Q 31.109375 20.453125 19.1875 8.296875 
z
" id="DejaVuSans-50"/>
      </defs>
      <g transform="translate(342.093355 674.318438)scale(0.1 -0.1)">
       <use xlink:href="#DejaVuSans-50"/>
       <use x="63.623047" xlink:href="#DejaVuSans-48"/>
       <use x="127.246094" xlink:href="#DejaVuSans-48"/>
      </g>
     </g>
    </g>
    <g id="xtick_3">
     <g id="line2d_5">
      <path clip-path="url(#p4cbf58c951)" d="M 580.560574 659.72 
L 580.560574 26.88 
" style="fill:none;stroke:#b0b0b0;stroke-linecap:square;stroke-width:0.8;"/>
     </g>
     <g id="line2d_6">
      <g>
       <use style="stroke:#000000;stroke-width:0.8;" x="580.560574" xlink:href="#m8c16cad4af" y="659.72"/>
      </g>
     </g>
     <g id="text_3">
      <!-- 400 -->
      <defs>
       <path d="M 37.796875 64.3125 
L 12.890625 25.390625 
L 37.796875 25.390625 
z
M 35.203125 72.90625 
L 47.609375 72.90625 
L 47.609375 25.390625 
L 58.015625 25.390625 
L 58.015625 17.1875 
L 47.609375 17.1875 
L 47.609375 0 
L 37.796875 0 
L 37.796875 17.1875 
L 4.890625 17.1875 
L 4.890625 26.703125 
z
" id="DejaVuSans-52"/>
      </defs>
      <g transform="translate(571.016824 674.318438)scale(0.1 -0.1)">
       <use xlink:href="#DejaVuSans-52"/>
       <use x="63.623047" xlink:href="#DejaVuSans-48"/>
       <use x="127.246094" xlink:href="#DejaVuSans-48"/>
      </g>
     </g>
    </g>
    <g id="xtick_4">
     <g id="line2d_7">
      <path clip-path="url(#p4cbf58c951)" d="M 809.484043 659.72 
L 809.484043 26.88 
" style="fill:none;stroke:#b0b0b0;stroke-linecap:square;stroke-width:0.8;"/>
     </g>
     <g id="line2d_8">
      <g>
       <use style="stroke:#000000;stroke-width:0.8;" x="809.484043" xlink:href="#m8c16cad4af" y="659.72"/>
      </g>
     </g>
     <g id="text_4">
      <!-- 600 -->
      <defs>
       <path d="M 33.015625 40.375 
Q 26.375 40.375 22.484375 35.828125 
Q 18.609375 31.296875 18.609375 23.390625 
Q 18.609375 15.53125 22.484375 10.953125 
Q 26.375 6.390625 33.015625 6.390625 
Q 39.65625 6.390625 43.53125 10.953125 
Q 47.40625 15.53125 47.40625 23.390625 
Q 47.40625 31.296875 43.53125 35.828125 
Q 39.65625 40.375 33.015625 40.375 
z
M 52.59375 71.296875 
L 52.59375 62.3125 
Q 48.875 64.0625 45.09375 64.984375 
Q 41.3125 65.921875 37.59375 65.921875 
Q 27.828125 65.921875 22.671875 59.328125 
Q 17.53125 52.734375 16.796875 39.40625 
Q 19.671875 43.65625 24.015625 45.921875 
Q 28.375 48.1875 33.59375 48.1875 
Q 44.578125 48.1875 50.953125 41.515625 
Q 57.328125 34.859375 57.328125 23.390625 
Q 57.328125 12.15625 50.6875 5.359375 
Q 44.046875 -1.421875 33.015625 -1.421875 
Q 20.359375 -1.421875 13.671875 8.265625 
Q 6.984375 17.96875 6.984375 36.375 
Q 6.984375 53.65625 15.1875 63.9375 
Q 23.390625 74.21875 37.203125 74.21875 
Q 40.921875 74.21875 44.703125 73.484375 
Q 48.484375 72.75 52.59375 71.296875 
z
" id="DejaVuSans-54"/>
      </defs>
      <g transform="translate(799.940293 674.318438)scale(0.1 -0.1)">
       <use xlink:href="#DejaVuSans-54"/>
       <use x="63.623047" xlink:href="#DejaVuSans-48"/>
       <use x="127.246094" xlink:href="#DejaVuSans-48"/>
      </g>
     </g>
    </g>
    <g id="xtick_5">
     <g id="line2d_9">
      <path clip-path="url(#p4cbf58c951)" d="M 1038.407512 659.72 
L 1038.407512 26.88 
" style="fill:none;stroke:#b0b0b0;stroke-linecap:square;stroke-width:0.8;"/>
     </g>
     <g id="line2d_10">
      <g>
       <use style="stroke:#000000;stroke-width:0.8;" x="1038.407512" xlink:href="#m8c16cad4af" y="659.72"/>
      </g>
     </g>
     <g id="text_5">
      <!-- 800 -->
      <defs>
       <path d="M 31.78125 34.625 
Q 24.75 34.625 20.71875 30.859375 
Q 16.703125 27.09375 16.703125 20.515625 
Q 16.703125 13.921875 20.71875 10.15625 
Q 24.75 6.390625 31.78125 6.390625 
Q 38.8125 6.390625 42.859375 10.171875 
Q 46.921875 13.96875 46.921875 20.515625 
Q 46.921875 27.09375 42.890625 30.859375 
Q 38.875 34.625 31.78125 34.625 
z
M 21.921875 38.8125 
Q 15.578125 40.375 12.03125 44.71875 
Q 8.5 49.078125 8.5 55.328125 
Q 8.5 64.0625 14.71875 69.140625 
Q 20.953125 74.21875 31.78125 74.21875 
Q 42.671875 74.21875 48.875 69.140625 
Q 55.078125 64.0625 55.078125 55.328125 
Q 55.078125 49.078125 51.53125 44.71875 
Q 48 40.375 41.703125 38.8125 
Q 48.828125 37.15625 52.796875 32.3125 
Q 56.78125 27.484375 56.78125 20.515625 
Q 56.78125 9.90625 50.3125 4.234375 
Q 43.84375 -1.421875 31.78125 -1.421875 
Q 19.734375 -1.421875 13.25 4.234375 
Q 6.78125 9.90625 6.78125 20.515625 
Q 6.78125 27.484375 10.78125 32.3125 
Q 14.796875 37.15625 21.921875 38.8125 
z
M 18.3125 54.390625 
Q 18.3125 48.734375 21.84375 45.5625 
Q 25.390625 42.390625 31.78125 42.390625 
Q 38.140625 42.390625 41.71875 45.5625 
Q 45.3125 48.734375 45.3125 54.390625 
Q 45.3125 60.0625 41.71875 63.234375 
Q 38.140625 66.40625 31.78125 66.40625 
Q 25.390625 66.40625 21.84375 63.234375 
Q 18.3125 60.0625 18.3125 54.390625 
z
" id="DejaVuSans-56"/>
      </defs>
      <g transform="translate(1028.863762 674.318438)scale(0.1 -0.1)">
       <use xlink:href="#DejaVuSans-56"/>
       <use x="63.623047" xlink:href="#DejaVuSans-48"/>
       <use x="127.246094" xlink:href="#DejaVuSans-48"/>
      </g>
     </g>
    </g>
    <g id="xtick_6">
     <g id="line2d_11">
      <path clip-path="url(#p4cbf58c951)" d="M 1267.330981 659.72 
L 1267.330981 26.88 
" style="fill:none;stroke:#b0b0b0;stroke-linecap:square;stroke-width:0.8;"/>
     </g>
     <g id="line2d_12">
      <g>
       <use style="stroke:#000000;stroke-width:0.8;" x="1267.330981" xlink:href="#m8c16cad4af" y="659.72"/>
      </g>
     </g>
     <g id="text_6">
      <!-- 1000 -->
      <defs>
       <path d="M 12.40625 8.296875 
L 28.515625 8.296875 
L 28.515625 63.921875 
L 10.984375 60.40625 
L 10.984375 69.390625 
L 28.421875 72.90625 
L 38.28125 72.90625 
L 38.28125 8.296875 
L 54.390625 8.296875 
L 54.390625 0 
L 12.40625 0 
z
" id="DejaVuSans-49"/>
      </defs>
      <g transform="translate(1254.605981 674.318438)scale(0.1 -0.1)">
       <use xlink:href="#DejaVuSans-49"/>
       <use x="63.623047" xlink:href="#DejaVuSans-48"/>
       <use x="127.246094" xlink:href="#DejaVuSans-48"/>
       <use x="190.869141" xlink:href="#DejaVuSans-48"/>
      </g>
     </g>
    </g>
   </g>
   <g id="matplotlib.axis_2">
    <g id="ytick_1">
     <g id="line2d_13">
      <path clip-path="url(#p4cbf58c951)" d="M 65.54 615.281843 
L 1323.36 615.281843 
" style="fill:none;stroke:#b0b0b0;stroke-linecap:square;stroke-width:0.8;"/>
     </g>
     <g id="line2d_14">
      <defs>
       <path d="M 0 0 
L -3.5 0 
" id="mb402f53625" style="stroke:#000000;stroke-width:0.8;"/>
      </defs>
      <g>
       <use style="stroke:#000000;stroke-width:0.8;" x="65.54" xlink:href="#mb402f53625" y="615.281843"/>
      </g>
     </g>
     <g id="text_7">
      <!-- −1500 -->
      <defs>
       <path d="M 10.59375 35.5 
L 73.1875 35.5 
L 73.1875 27.203125 
L 10.59375 27.203125 
z
" id="DejaVuSans-8722"/>
       <path d="M 10.796875 72.90625 
L 49.515625 72.90625 
L 49.515625 64.59375 
L 19.828125 64.59375 
L 19.828125 46.734375 
Q 21.96875 47.46875 24.109375 47.828125 
Q 26.265625 48.1875 28.421875 48.1875 
Q 40.625 48.1875 47.75 41.5 
Q 54.890625 34.8125 54.890625 23.390625 
Q 54.890625 11.625 47.5625 5.09375 
Q 40.234375 -1.421875 26.90625 -1.421875 
Q 22.3125 -1.421875 17.546875 -0.640625 
Q 12.796875 0.140625 7.71875 1.703125 
L 7.71875 11.625 
Q 12.109375 9.234375 16.796875 8.0625 
Q 21.484375 6.890625 26.703125 6.890625 
Q 35.15625 6.890625 40.078125 11.328125 
Q 45.015625 15.765625 45.015625 23.390625 
Q 45.015625 31 40.078125 35.4375 
Q 35.15625 39.890625 26.703125 39.890625 
Q 22.75 39.890625 18.8125 39.015625 
Q 14.890625 38.140625 10.796875 36.28125 
z
" id="DejaVuSans-53"/>
      </defs>
      <g transform="translate(24.710312 619.081062)scale(0.1 -0.1)">
       <use xlink:href="#DejaVuSans-8722"/>
       <use x="83.789062" xlink:href="#DejaVuSans-49"/>
       <use x="147.412109" xlink:href="#DejaVuSans-53"/>
       <use x="211.035156" xlink:href="#DejaVuSans-48"/>
       <use x="274.658203" xlink:href="#DejaVuSans-48"/>
      </g>
     </g>
    </g>
    <g id="ytick_2">
     <g id="line2d_15">
      <path clip-path="url(#p4cbf58c951)" d="M 65.54 524.135011 
L 1323.36 524.135011 
" style="fill:none;stroke:#b0b0b0;stroke-linecap:square;stroke-width:0.8;"/>
     </g>
     <g id="line2d_16">
      <g>
       <use style="stroke:#000000;stroke-width:0.8;" x="65.54" xlink:href="#mb402f53625" y="524.135011"/>
      </g>
     </g>
     <g id="text_8">
      <!-- −1000 -->
      <g transform="translate(24.710312 527.93423)scale(0.1 -0.1)">
       <use xlink:href="#DejaVuSans-8722"/>
       <use x="83.789062" xlink:href="#DejaVuSans-49"/>
       <use x="147.412109" xlink:href="#DejaVuSans-48"/>
       <use x="211.035156" xlink:href="#DejaVuSans-48"/>
       <use x="274.658203" xlink:href="#DejaVuSans-48"/>
      </g>
     </g>
    </g>
    <g id="ytick_3">
     <g id="line2d_17">
      <path clip-path="url(#p4cbf58c951)" d="M 65.54 432.98818 
L 1323.36 432.98818 
" style="fill:none;stroke:#b0b0b0;stroke-linecap:square;stroke-width:0.8;"/>
     </g>
     <g id="line2d_18">
      <g>
       <use style="stroke:#000000;stroke-width:0.8;" x="65.54" xlink:href="#mb402f53625" y="432.98818"/>
      </g>
     </g>
     <g id="text_9">
      <!-- −500 -->
      <g transform="translate(31.072812 436.787398)scale(0.1 -0.1)">
       <use xlink:href="#DejaVuSans-8722"/>
       <use x="83.789062" xlink:href="#DejaVuSans-53"/>
       <use x="147.412109" xlink:href="#DejaVuSans-48"/>
       <use x="211.035156" xlink:href="#DejaVuSans-48"/>
      </g>
     </g>
    </g>
    <g id="ytick_4">
     <g id="line2d_19">
      <path clip-path="url(#p4cbf58c951)" d="M 65.54 341.841348 
L 1323.36 341.841348 
" style="fill:none;stroke:#b0b0b0;stroke-linecap:square;stroke-width:0.8;"/>
     </g>
     <g id="line2d_20">
      <g>
       <use style="stroke:#000000;stroke-width:0.8;" x="65.54" xlink:href="#mb402f53625" y="341.841348"/>
      </g>
     </g>
     <g id="text_10">
      <!-- 0 -->
      <g transform="translate(52.1775 345.640567)scale(0.1 -0.1)">
       <use xlink:href="#DejaVuSans-48"/>
      </g>
     </g>
    </g>
    <g id="ytick_5">
     <g id="line2d_21">
      <path clip-path="url(#p4cbf58c951)" d="M 65.54 250.694517 
L 1323.36 250.694517 
" style="fill:none;stroke:#b0b0b0;stroke-linecap:square;stroke-width:0.8;"/>
     </g>
     <g id="line2d_22">
      <g>
       <use style="stroke:#000000;stroke-width:0.8;" x="65.54" xlink:href="#mb402f53625" y="250.694517"/>
      </g>
     </g>
     <g id="text_11">
      <!-- 500 -->
      <g transform="translate(39.4525 254.493735)scale(0.1 -0.1)">
       <use xlink:href="#DejaVuSans-53"/>
       <use x="63.623047" xlink:href="#DejaVuSans-48"/>
       <use x="127.246094" xlink:href="#DejaVuSans-48"/>
      </g>
     </g>
    </g>
    <g id="ytick_6">
     <g id="line2d_23">
      <path clip-path="url(#p4cbf58c951)" d="M 65.54 159.547685 
L 1323.36 159.547685 
" style="fill:none;stroke:#b0b0b0;stroke-linecap:square;stroke-width:0.8;"/>
     </g>
     <g id="line2d_24">
      <g>
       <use style="stroke:#000000;stroke-width:0.8;" x="65.54" xlink:href="#mb402f53625" y="159.547685"/>
      </g>
     </g>
     <g id="text_12">
      <!-- 1000 -->
      <g transform="translate(33.09 163.346904)scale(0.1 -0.1)">
       <use xlink:href="#DejaVuSans-49"/>
       <use x="63.623047" xlink:href="#DejaVuSans-48"/>
       <use x="127.246094" xlink:href="#DejaVuSans-48"/>
       <use x="190.869141" xlink:href="#DejaVuSans-48"/>
      </g>
     </g>
    </g>
    <g id="ytick_7">
     <g id="line2d_25">
      <path clip-path="url(#p4cbf58c951)" d="M 65.54 68.400853 
L 1323.36 68.400853 
" style="fill:none;stroke:#b0b0b0;stroke-linecap:square;stroke-width:0.8;"/>
     </g>
     <g id="line2d_26">
      <g>
       <use style="stroke:#000000;stroke-width:0.8;" x="65.54" xlink:href="#mb402f53625" y="68.400853"/>
      </g>
     </g>
     <g id="text_13">
      <!-- 1500 -->
      <g transform="translate(33.09 72.200072)scale(0.1 -0.1)">
       <use xlink:href="#DejaVuSans-49"/>
       <use x="63.623047" xlink:href="#DejaVuSans-53"/>
       <use x="127.246094" xlink:href="#DejaVuSans-48"/>
       <use x="190.869141" xlink:href="#DejaVuSans-48"/>
      </g>
     </g>
    </g>
    <g id="text_14">
     <!-- count -->
     <defs>
      <path d="M 48.78125 52.59375 
L 48.78125 44.1875 
Q 44.96875 46.296875 41.140625 47.34375 
Q 37.3125 48.390625 33.40625 48.390625 
Q 24.65625 48.390625 19.8125 42.84375 
Q 14.984375 37.3125 14.984375 27.296875 
Q 14.984375 17.28125 19.8125 11.734375 
Q 24.65625 6.203125 33.40625 6.203125 
Q 37.3125 6.203125 41.140625 7.25 
Q 44.96875 8.296875 48.78125 10.40625 
L 48.78125 2.09375 
Q 45.015625 0.34375 40.984375 -0.53125 
Q 36.96875 -1.421875 32.421875 -1.421875 
Q 20.0625 -1.421875 12.78125 6.34375 
Q 5.515625 14.109375 5.515625 27.296875 
Q 5.515625 40.671875 12.859375 48.328125 
Q 20.21875 56 33.015625 56 
Q 37.15625 56 41.109375 55.140625 
Q 45.0625 54.296875 48.78125 52.59375 
z
" id="DejaVuSans-99"/>
      <path d="M 30.609375 48.390625 
Q 23.390625 48.390625 19.1875 42.75 
Q 14.984375 37.109375 14.984375 27.296875 
Q 14.984375 17.484375 19.15625 11.84375 
Q 23.34375 6.203125 30.609375 6.203125 
Q 37.796875 6.203125 41.984375 11.859375 
Q 46.1875 17.53125 46.1875 27.296875 
Q 46.1875 37.015625 41.984375 42.703125 
Q 37.796875 48.390625 30.609375 48.390625 
z
M 30.609375 56 
Q 42.328125 56 49.015625 48.375 
Q 55.71875 40.765625 55.71875 27.296875 
Q 55.71875 13.875 49.015625 6.21875 
Q 42.328125 -1.421875 30.609375 -1.421875 
Q 18.84375 -1.421875 12.171875 6.21875 
Q 5.515625 13.875 5.515625 27.296875 
Q 5.515625 40.765625 12.171875 48.375 
Q 18.84375 56 30.609375 56 
z
" id="DejaVuSans-111"/>
      <path d="M 8.5 21.578125 
L 8.5 54.6875 
L 17.484375 54.6875 
L 17.484375 21.921875 
Q 17.484375 14.15625 20.5 10.265625 
Q 23.53125 6.390625 29.59375 6.390625 
Q 36.859375 6.390625 41.078125 11.03125 
Q 45.3125 15.671875 45.3125 23.6875 
L 45.3125 54.6875 
L 54.296875 54.6875 
L 54.296875 0 
L 45.3125 0 
L 45.3125 8.40625 
Q 42.046875 3.421875 37.71875 1 
Q 33.40625 -1.421875 27.6875 -1.421875 
Q 18.265625 -1.421875 13.375 4.4375 
Q 8.5 10.296875 8.5 21.578125 
z
M 31.109375 56 
z
" id="DejaVuSans-117"/>
      <path d="M 54.890625 33.015625 
L 54.890625 0 
L 45.90625 0 
L 45.90625 32.71875 
Q 45.90625 40.484375 42.875 44.328125 
Q 39.84375 48.1875 33.796875 48.1875 
Q 26.515625 48.1875 22.3125 43.546875 
Q 18.109375 38.921875 18.109375 30.90625 
L 18.109375 0 
L 9.078125 0 
L 9.078125 54.6875 
L 18.109375 54.6875 
L 18.109375 46.1875 
Q 21.34375 51.125 25.703125 53.5625 
Q 30.078125 56 35.796875 56 
Q 45.21875 56 50.046875 50.171875 
Q 54.890625 44.34375 54.890625 33.015625 
z
" id="DejaVuSans-110"/>
      <path d="M 18.3125 70.21875 
L 18.3125 54.6875 
L 36.8125 54.6875 
L 36.8125 47.703125 
L 18.3125 47.703125 
L 18.3125 18.015625 
Q 18.3125 11.328125 20.140625 9.421875 
Q 21.96875 7.515625 27.59375 7.515625 
L 36.8125 7.515625 
L 36.8125 0 
L 27.59375 0 
Q 17.1875 0 13.234375 3.875 
Q 9.28125 7.765625 9.28125 18.015625 
L 9.28125 47.703125 
L 2.6875 47.703125 
L 2.6875 54.6875 
L 9.28125 54.6875 
L 9.28125 70.21875 
z
" id="DejaVuSans-116"/>
     </defs>
     <g transform="translate(18.630625 357.40625)rotate(-90)scale(0.1 -0.1)">
      <use xlink:href="#DejaVuSans-99"/>
      <use x="54.980469" xlink:href="#DejaVuSans-111"/>
      <use x="116.162109" xlink:href="#DejaVuSans-117"/>
      <use x="179.541016" xlink:href="#DejaVuSans-110"/>
      <use x="242.919922" xlink:href="#DejaVuSans-116"/>
     </g>
    </g>
   </g>
   <g id="line2d_27">
    <path clip-path="url(#p4cbf58c951)" d="M 122.713636 505.487392 
L 123.858254 522.154907 
L 125.002871 526.548306 
L 126.147488 525.695915 
L 127.292106 517.256205 
L 128.436723 532.321793 
L 129.58134 524.03793 
L 130.725958 528.668744 
L 131.870575 532.523613 
L 133.015192 527.913644 
L 134.15981 541.115925 
L 135.304427 524.743235 
L 136.449044 520.644808 
L 137.593662 517.12791 
L 138.738279 512.202145 
L 139.882897 514.881005 
L 141.027514 514.336348 
L 142.172131 510.133728 
L 143.316749 492.709108 
L 144.461366 500.156283 
L 145.605983 500.285142 
L 146.750601 502.297447 
L 147.895218 508.640993 
L 149.039835 497.83195 
L 150.184453 499.659274 
L 151.32907 494.525164 
L 152.473687 484.80829 
L 153.618305 482.317173 
L 154.762922 489.150159 
L 155.907539 488.324394 
L 157.052157 474.348517 
L 158.196774 468.993651 
L 159.341391 456.023482 
L 160.486009 453.802039 
L 161.630626 461.623969 
L 162.775243 455.489105 
L 165.064478 436.168274 
L 166.209095 437.644212 
L 167.353713 435.420805 
L 168.49833 426.390313 
L 169.642947 421.177733 
L 170.787565 417.868732 
L 171.932182 409.768051 
L 173.0768 399.006892 
L 174.221417 395.898016 
L 175.366034 394.995059 
L 176.510652 386.543311 
L 177.655269 373.301312 
L 178.799886 376.590889 
L 179.944504 369.873848 
L 181.089121 368.360722 
L 182.233738 370.987334 
L 183.378356 359.685805 
L 184.522973 358.762072 
L 185.66759 343.492974 
L 186.812208 338.200102 
L 187.956825 343.10186 
L 189.101442 333.65733 
L 190.24606 342.972039 
L 191.390677 343.177541 
L 192.535294 327.574203 
L 193.679912 333.442555 
L 194.824529 323.324169 
L 195.969146 317.46657 
L 197.113764 324.701475 
L 198.258381 311.785617 
L 199.402998 311.476002 
L 200.547616 313.502727 
L 201.692233 311.871559 
L 202.83685 316.026478 
L 203.981468 310.894422 
L 205.126085 295.16424 
L 206.270703 295.188869 
L 207.41532 297.368753 
L 208.559937 297.329443 
L 209.704555 298.191302 
L 210.849172 282.88901 
L 211.993789 286.562753 
L 213.138407 294.969067 
L 214.283024 288.404345 
L 215.427641 284.750392 
L 216.572259 290.908981 
L 217.716876 294.72459 
L 218.861493 283.718292 
L 220.006111 275.231471 
L 222.295345 286.814647 
L 223.439963 276.296877 
L 224.58458 268.108321 
L 225.729197 276.345031 
L 226.873815 277.339375 
L 228.018432 263.614064 
L 229.163049 254.839955 
L 230.307667 253.731305 
L 233.741519 271.101051 
L 234.886136 266.70408 
L 236.030753 248.666214 
L 238.319988 232.956334 
L 239.464606 238.184702 
L 240.609223 247.769283 
L 241.75384 235.383263 
L 242.898458 241.732907 
L 244.043075 246.663651 
L 245.187692 232.824641 
L 246.33231 228.446098 
L 247.476927 221.569128 
L 248.621544 226.624653 
L 249.766162 222.602703 
L 250.910779 211.771797 
L 252.055396 209.600876 
L 253.200014 209.894252 
L 254.344631 212.572813 
L 255.489248 202.316105 
L 256.633866 203.219011 
L 257.778483 194.119538 
L 258.9231 195.789411 
L 260.067718 204.294089 
L 261.212335 191.434281 
L 262.356952 201.842348 
L 263.50157 205.173226 
L 264.646187 192.508913 
L 265.790804 188.761787 
L 266.935422 201.89551 
L 268.080039 198.900723 
L 269.224656 193.391511 
L 270.369274 192.805119 
L 271.513891 185.865464 
L 272.658509 200.756984 
L 273.803126 191.577421 
L 274.947743 190.491914 
L 276.092361 193.653877 
L 277.236978 185.503279 
L 278.381595 186.495123 
L 279.526213 185.036914 
L 280.67083 198.245308 
L 281.815447 199.279551 
L 282.960065 204.672423 
L 284.104682 193.837991 
L 285.249299 193.309147 
L 286.393917 230.011496 
L 287.538534 220.413387 
L 288.683151 217.661913 
L 289.827769 230.504323 
L 290.972386 211.806231 
L 292.117003 214.422099 
L 293.261621 225.647978 
L 294.406238 216.329161 
L 295.550855 214.751049 
L 296.695473 206.857142 
L 297.84009 209.354334 
L 298.984707 224.416965 
L 300.129325 212.001044 
L 302.418559 245.288711 
L 303.563177 235.503396 
L 304.707794 243.8704 
L 305.852412 243.618077 
L 306.997029 255.82734 
L 308.141646 255.342895 
L 309.286264 251.721214 
L 310.430881 264.253932 
L 311.575498 255.113501 
L 312.720116 265.712251 
L 313.864733 266.715451 
L 315.00935 263.633504 
L 316.153968 273.815755 
L 317.298585 269.212776 
L 318.443202 279.535128 
L 320.732437 289.339314 
L 321.877054 310.324323 
L 323.021672 295.177003 
L 324.166289 296.71859 
L 325.310906 315.485485 
L 326.455524 300.700608 
L 327.600141 315.143821 
L 328.744758 335.268643 
L 329.889376 327.167997 
L 331.033993 338.741365 
L 332.17861 360.201681 
L 333.323228 356.070585 
L 334.467845 356.407045 
L 335.612462 377.385227 
L 336.75708 370.626757 
L 337.901697 353.349812 
L 339.046314 369.47939 
L 340.190932 387.263234 
L 341.335549 394.265016 
L 342.480167 389.753288 
L 343.624784 407.636062 
L 344.769401 431.220349 
L 345.914019 420.140403 
L 347.058636 426.270619 
L 348.203253 439.726614 
L 349.347871 442.511097 
L 350.492488 444.650519 
L 351.637105 445.446906 
L 352.781723 462.51669 
L 353.92634 466.991322 
L 355.070957 466.806466 
L 356.215575 489.548967 
L 357.360192 491.068879 
L 358.504809 498.590452 
L 359.649427 504.56283 
L 360.794044 511.901395 
L 361.938661 530.420259 
L 363.083279 513.302436 
L 364.227896 506.0007 
L 365.372513 515.732714 
L 366.517131 531.900083 
L 367.661748 538.325574 
L 368.806365 551.996815 
L 369.950983 572.850854 
L 371.0956 564.599212 
L 372.240217 573.196008 
L 373.384835 582.669355 
L 374.529452 579.894041 
L 375.67407 584.095185 
L 376.818687 597.733886 
L 377.963304 601.309027 
L 379.107922 589.224806 
L 380.252539 603.236993 
L 381.397156 602.145719 
L 382.541774 595.76306 
L 383.686391 605.960364 
L 384.831008 601.889368 
L 385.975626 606.068801 
L 387.120243 603.344596 
L 388.26486 602.368138 
L 389.409478 619.938684 
L 390.554095 621.55393 
L 391.698712 619.024467 
L 392.84333 630.954545 
L 393.987947 626.204655 
L 395.132564 614.460211 
L 396.277182 611.373868 
L 397.421799 601.961463 
L 398.566416 598.625023 
L 399.711034 602.423913 
L 400.855651 606.847828 
L 402.000268 614.024697 
L 403.144886 617.225282 
L 405.43412 592.130392 
L 406.578738 587.500544 
L 407.723355 580.897996 
L 408.867973 572.747259 
L 410.01259 567.943105 
L 411.157207 572.834366 
L 412.301825 558.949891 
L 413.446442 557.92552 
L 414.591059 562.530737 
L 415.735677 542.094701 
L 416.880294 552.668062 
L 418.024911 549.666259 
L 420.314146 541.064391 
L 421.458763 525.460348 
L 422.603381 523.676445 
L 423.747998 516.616235 
L 424.892615 522.564625 
L 426.037233 495.727871 
L 427.18185 484.340729 
L 428.326467 497.772052 
L 429.471085 480.876495 
L 431.760319 467.599963 
L 432.904937 455.639755 
L 435.194171 428.137484 
L 436.338789 418.407939 
L 437.483406 420.918743 
L 438.628023 415.905399 
L 439.772641 400.564467 
L 440.917258 402.315202 
L 442.061876 390.118727 
L 443.206493 375.729016 
L 444.35111 374.287393 
L 445.495728 359.373786 
L 446.640345 357.43306 
L 447.784962 351.907568 
L 448.92958 341.301797 
L 450.074197 336.006735 
L 451.218814 324.555913 
L 452.363432 323.65197 
L 453.508049 300.676001 
L 454.652666 297.059897 
L 455.797284 298.551429 
L 456.941901 270.195718 
L 458.086518 262.645082 
L 459.231136 240.98048 
L 460.375753 235.975488 
L 461.52037 239.204562 
L 462.664988 220.811648 
L 463.809605 221.315477 
L 464.954222 212.668978 
L 466.09884 210.774016 
L 467.243457 215.055272 
L 468.388074 205.406305 
L 469.532692 191.966239 
L 470.677309 193.514984 
L 472.966544 148.556641 
L 474.111161 165.081776 
L 475.255779 147.40613 
L 476.400396 141.655248 
L 477.545013 131.308512 
L 478.689631 130.508086 
L 479.834248 142.35407 
L 480.978865 116.759475 
L 482.123483 133.671973 
L 483.2681 128.049969 
L 484.412717 114.791999 
L 485.557335 118.899588 
L 486.701952 98.386481 
L 487.846569 109.650718 
L 490.135804 72.972225 
L 491.280421 81.763377 
L 492.425039 61.862698 
L 493.569656 80.738465 
L 494.714273 73.648218 
L 495.858891 65.28601 
L 497.003508 85.466613 
L 498.148125 64.397712 
L 499.292743 81.789346 
L 500.43736 74.703318 
L 501.581977 62.764526 
L 502.726595 86.126879 
L 503.871212 65.094536 
L 505.015829 78.403197 
L 506.160447 87.100182 
L 507.305064 55.645455 
L 508.449681 63.360516 
L 509.594299 68.449868 
L 510.738916 75.659473 
L 511.883534 85.45635 
L 513.028151 81.793119 
L 514.172768 92.006617 
L 515.317386 89.821648 
L 516.462003 96.622216 
L 517.60662 105.480701 
L 518.751238 105.747 
L 519.895855 111.5078 
L 521.040472 111.286295 
L 522.18509 121.954304 
L 523.329707 121.636579 
L 524.474324 114.813826 
L 525.618942 130.034362 
L 526.763559 141.294366 
L 527.908176 142.261229 
L 529.052794 139.723746 
L 530.197411 155.675228 
L 531.342028 176.599607 
L 532.486646 160.364063 
L 533.631263 163.052075 
L 534.77588 169.885241 
L 535.920498 164.408444 
L 537.065115 176.073908 
L 538.209732 180.651753 
L 539.35435 197.736564 
L 540.498967 202.348613 
L 541.643584 212.104428 
L 542.788202 229.164702 
L 543.932819 223.337884 
L 545.077437 226.928346 
L 546.222054 224.567388 
L 547.366671 230.795249 
L 548.511289 231.344538 
L 549.655906 225.143836 
L 550.800523 230.52704 
L 551.945141 228.64733 
L 553.089758 234.087054 
L 554.234375 244.45569 
L 556.52361 257.898764 
L 557.668227 266.470146 
L 558.812845 271.964282 
L 561.102079 293.574012 
L 562.246697 293.534648 
L 563.391314 303.595134 
L 564.535931 305.133098 
L 565.680549 298.961376 
L 566.825166 320.659705 
L 567.969783 323.947347 
L 569.114401 315.514631 
L 570.259018 330.892641 
L 571.403635 335.232537 
L 572.548253 349.511198 
L 573.69287 354.750348 
L 574.837487 344.783644 
L 575.982105 364.401008 
L 577.126722 381.613212 
L 578.27134 394.336937 
L 579.415957 392.84749 
L 580.560574 400.916973 
L 581.705192 416.25962 
L 582.849809 404.919057 
L 585.139044 430.58825 
L 586.283661 418.762569 
L 587.428278 415.738842 
L 588.572896 431.634955 
L 589.717513 443.236065 
L 590.86213 446.011981 
L 592.006748 452.798703 
L 593.151365 453.779113 
L 594.295982 472.093443 
L 595.4406 479.01751 
L 596.585217 470.073279 
L 597.729834 486.484356 
L 600.019069 493.066506 
L 601.163686 500.333533 
L 602.308304 501.56973 
L 603.452921 509.162675 
L 604.597538 499.590013 
L 605.742156 500.84736 
L 606.886773 498.237487 
L 608.03139 522.729912 
L 609.176008 533.266548 
L 610.320625 503.572354 
L 611.465243 524.624426 
L 612.60986 519.99293 
L 613.754477 519.38051 
L 614.899095 522.4775 
L 616.043712 519.298709 
L 617.188329 544.836773 
L 618.332947 542.200141 
L 619.477564 537.225593 
L 620.622181 539.315239 
L 621.766799 539.451884 
L 622.911416 538.952858 
L 624.056033 541.24517 
L 625.200651 532.607751 
L 626.345268 538.14415 
L 627.489885 538.742787 
L 628.634503 529.002796 
L 629.77912 538.671671 
L 630.923737 527.485486 
L 632.068355 531.449949 
L 633.212972 537.878465 
L 634.357589 533.416984 
L 635.502207 533.123324 
L 636.646824 527.17846 
L 637.791441 512.897924 
L 638.936059 500.779167 
L 640.080676 514.787468 
L 641.225293 511.391139 
L 642.369911 504.96135 
L 643.514528 504.923519 
L 644.659146 501.745401 
L 645.803763 510.951208 
L 646.94838 505.953657 
L 648.092998 493.13105 
L 649.237615 493.543815 
L 650.382232 497.617758 
L 651.52685 483.174615 
L 652.671467 478.614784 
L 653.816084 469.274622 
L 654.960702 449.036381 
L 656.105319 448.926755 
L 657.249936 439.961572 
L 658.394554 440.901532 
L 659.539171 461.288441 
L 660.683788 447.043754 
L 661.828406 428.70242 
L 662.973023 428.821552 
L 664.11764 416.139608 
L 665.262258 406.318962 
L 666.406875 394.788809 
L 667.551492 387.348487 
L 668.69611 365.398986 
L 669.840727 357.933059 
L 670.985344 374.708102 
L 672.129962 364.003581 
L 673.274579 363.653596 
L 674.419196 356.287736 
L 675.563814 340.70175 
L 676.708431 341.557513 
L 677.853049 340.570144 
L 678.997666 322.377649 
L 680.142283 316.058105 
L 681.286901 321.769295 
L 682.431518 304.689145 
L 683.576135 296.944896 
L 684.720753 286.224389 
L 685.86537 278.009358 
L 687.009987 267.56097 
L 688.154605 262.309492 
L 689.299222 269.263117 
L 690.443839 253.593758 
L 691.588457 265.534575 
L 692.733074 248.238213 
L 693.877691 233.861235 
L 695.022309 247.064235 
L 696.166926 225.979168 
L 697.311543 229.467991 
L 698.456161 221.587795 
L 699.600778 221.001699 
L 700.745395 218.329341 
L 701.890013 208.798306 
L 703.03463 209.313027 
L 704.179247 198.209636 
L 705.323865 202.589409 
L 706.468482 186.444151 
L 707.613099 177.882898 
L 708.757717 185.094232 
L 709.902334 180.666814 
L 711.046951 171.614765 
L 712.191569 158.631061 
L 713.336186 160.141616 
L 714.480804 153.979965 
L 715.625421 142.729362 
L 716.770038 156.687738 
L 717.914656 158.451979 
L 719.059273 150.567898 
L 720.20389 168.320689 
L 721.348508 158.869412 
L 722.493125 143.003878 
L 723.637742 151.425946 
L 724.78236 133.853838 
L 725.926977 132.02374 
L 727.071594 148.657019 
L 728.216212 151.050269 
L 729.360829 148.808822 
L 730.505446 144.236498 
L 731.650064 152.65468 
L 732.794681 146.741524 
L 733.939298 146.510587 
L 735.083916 153.572727 
L 736.228533 148.322529 
L 737.37315 157.343009 
L 738.517768 164.209476 
L 739.662385 167.554265 
L 740.807002 169.28359 
L 741.95162 178.236607 
L 743.096237 180.009473 
L 744.240854 176.627364 
L 745.385472 190.85448 
L 746.530089 203.286192 
L 747.674707 208.415663 
L 748.819324 210.242688 
L 749.963941 215.86744 
L 751.108559 215.481461 
L 752.253176 211.431786 
L 753.397793 219.082313 
L 754.542411 230.69945 
L 755.687028 226.603184 
L 756.831645 239.403181 
L 757.976263 256.532731 
L 759.12088 255.248536 
L 760.265497 271.115074 
L 761.410115 280.796137 
L 762.554732 291.480554 
L 763.699349 298.468215 
L 764.843967 304.206434 
L 765.988584 314.650603 
L 767.133201 317.090707 
L 768.277819 321.467844 
L 769.422436 323.05492 
L 770.567053 336.287469 
L 771.711671 344.643219 
L 772.856288 346.840828 
L 774.000905 359.755415 
L 775.145523 367.253403 
L 776.29014 371.657724 
L 777.434757 386.336034 
L 778.579375 396.064621 
L 779.723992 401.536084 
L 780.86861 400.015689 
L 782.013227 407.8692 
L 783.157844 431.603799 
L 784.302462 412.412963 
L 785.447079 412.484463 
L 786.591696 436.216871 
L 787.736314 439.79494 
L 788.880931 463.67764 
L 790.025548 451.963821 
L 791.170166 450.640408 
L 792.314783 467.441632 
L 793.4594 455.865378 
L 794.604018 480.494393 
L 795.748635 482.223496 
L 796.893252 479.006135 
L 798.03787 497.184657 
L 799.182487 487.819151 
L 800.327104 495.559015 
L 801.471722 504.066284 
L 802.616339 508.289834 
L 803.760956 516.614002 
L 804.905574 512.223883 
L 806.050191 509.87773 
L 807.194808 509.330637 
L 808.339426 510.703311 
L 809.484043 502.096757 
L 810.62866 506.073435 
L 811.773278 524.913841 
L 812.917895 510.605845 
L 814.062513 511.748158 
L 815.20713 529.274837 
L 816.351747 516.02191 
L 817.496365 513.875944 
L 818.640982 513.153514 
L 819.785599 524.029689 
L 820.930217 527.831978 
L 822.074834 512.591852 
L 823.219451 525.55616 
L 824.364069 520.257436 
L 825.508686 522.393051 
L 826.653303 527.596314 
L 827.797921 511.017568 
L 828.942538 512.819853 
L 830.087155 506.943382 
L 831.231773 518.205983 
L 832.37639 521.479587 
L 833.521007 508.053346 
L 834.665625 518.641756 
L 835.810242 509.783145 
L 836.954859 504.704471 
L 838.099477 494.857151 
L 839.244094 490.800454 
L 840.388711 497.190417 
L 841.533329 488.579839 
L 842.677946 506.701798 
L 843.822563 497.243378 
L 844.967181 494.274811 
L 846.111798 495.614586 
L 847.256416 471.712649 
L 848.401033 469.841479 
L 849.54565 468.846578 
L 850.690268 476.051755 
L 851.834885 472.179079 
L 852.979502 465.836651 
L 854.12412 446.168045 
L 855.268737 436.029136 
L 856.413354 437.986041 
L 857.557972 438.01768 
L 858.702589 432.061157 
L 859.847206 402.379985 
L 860.991824 416.106088 
L 862.136441 426.460245 
L 863.281058 417.944093 
L 865.570293 408.079097 
L 866.71491 411.455939 
L 867.859528 405.698093 
L 869.004145 400.786791 
L 870.148762 390.24115 
L 871.29338 385.187203 
L 872.437997 384.553238 
L 873.582614 366.856776 
L 874.727232 361.70875 
L 875.871849 358.843398 
L 877.016466 343.842269 
L 878.161084 351.356262 
L 879.305701 349.630658 
L 880.450319 343.627126 
L 881.594936 348.012219 
L 882.739553 335.19045 
L 885.028788 300.479454 
L 886.173405 290.587433 
L 887.318023 292.492858 
L 888.46264 285.191355 
L 889.607257 273.826138 
L 890.751875 277.722482 
L 891.896492 281.142886 
L 893.041109 273.700251 
L 894.185727 274.220136 
L 895.330344 272.403062 
L 896.474961 263.304615 
L 897.619579 257.207304 
L 898.764196 258.321514 
L 899.908813 254.757878 
L 901.053431 236.448195 
L 902.198048 232.750253 
L 903.342665 225.979226 
L 904.487283 221.259548 
L 905.6319 226.956234 
L 906.776517 220.314639 
L 907.921135 209.627675 
L 909.065752 202.384576 
L 910.210369 216.769688 
L 911.354987 224.102575 
L 912.499604 217.972676 
L 913.644221 207.426287 
L 914.788839 202.475134 
L 915.933456 202.045089 
L 917.078074 203.121771 
L 918.222691 215.519454 
L 919.367308 211.429724 
L 920.511926 206.630589 
L 921.656543 198.458257 
L 922.80116 191.509813 
L 923.945778 194.537032 
L 925.090395 195.560632 
L 926.235012 199.307953 
L 927.37963 205.689717 
L 928.524247 209.597006 
L 929.668864 207.521836 
L 930.813482 205.038968 
L 931.958099 201.087605 
L 933.102716 209.346668 
L 934.247334 212.561448 
L 935.391951 206.76937 
L 937.681186 215.70343 
L 938.825803 217.537385 
L 939.97042 206.105259 
L 941.115038 216.272739 
L 942.259655 228.508208 
L 943.404272 218.171455 
L 944.54889 238.719321 
L 945.693507 240.726025 
L 946.838124 235.728827 
L 947.982742 243.682934 
L 949.127359 227.045998 
L 950.271977 238.984721 
L 951.416594 248.622946 
L 952.561211 246.705502 
L 953.705829 259.609345 
L 954.850446 255.288115 
L 955.995063 249.364316 
L 957.139681 242.072677 
L 958.284298 247.807786 
L 959.428915 262.021835 
L 960.573533 270.087861 
L 961.71815 272.379949 
L 962.862767 272.311665 
L 964.007385 288.071527 
L 965.152002 285.068461 
L 966.296619 285.429525 
L 967.441237 286.714965 
L 968.585854 278.314398 
L 969.730471 290.672147 
L 970.875089 289.03966 
L 972.019706 295.209753 
L 973.164323 297.271281 
L 974.308941 305.757019 
L 975.453558 315.613426 
L 976.598175 309.217364 
L 977.742793 334.797924 
L 980.032027 312.086402 
L 981.176645 322.398124 
L 982.321262 317.874548 
L 983.46588 330.020728 
L 984.610497 338.924766 
L 985.755114 334.106602 
L 986.899732 324.261124 
L 988.044349 333.585644 
L 989.188966 334.915968 
L 990.333584 339.627895 
L 991.478201 356.755353 
L 992.622818 338.367079 
L 993.767436 336.369166 
L 994.912053 350.950583 
L 996.05667 363.994212 
L 997.201288 368.190471 
L 998.345905 344.635109 
L 999.490522 365.070501 
L 1000.63514 374.984499 
L 1001.779757 356.779147 
L 1002.924374 368.756438 
L 1004.068992 362.234479 
L 1005.213609 361.305862 
L 1006.358226 365.073048 
L 1007.502844 375.713523 
L 1008.647461 389.592344 
L 1009.792078 383.643785 
L 1010.936696 391.327826 
L 1012.081313 382.790516 
L 1013.22593 373.085561 
L 1014.370548 372.2979 
L 1015.515165 377.629232 
L 1016.659783 384.575142 
L 1017.8044 375.685111 
L 1018.949017 389.492192 
L 1020.093635 390.287305 
L 1021.238252 390.146306 
L 1022.382869 403.086664 
L 1023.527487 396.041542 
L 1024.672104 399.069354 
L 1025.816721 400.724703 
L 1026.961339 396.926319 
L 1028.105956 399.687599 
L 1029.250573 390.683098 
L 1030.395191 383.567498 
L 1031.539808 404.823467 
L 1032.684425 404.387911 
L 1033.829043 391.569111 
L 1034.97366 408.735708 
L 1036.118277 408.105834 
L 1037.262895 413.208026 
L 1038.407512 413.094581 
L 1039.552129 404.167887 
L 1040.696747 412.898526 
L 1041.841364 411.63306 
L 1042.985981 413.42682 
L 1044.130599 402.937061 
L 1045.275216 410.692446 
L 1046.419833 414.759468 
L 1047.564451 400.729446 
L 1048.709068 414.922002 
L 1049.853686 404.771955 
L 1050.998303 406.577088 
L 1052.14292 413.314892 
L 1053.287538 408.50353 
L 1054.432155 412.244051 
L 1055.576772 408.297932 
L 1056.72139 420.048164 
L 1057.866007 410.398776 
L 1059.010624 403.178742 
L 1060.155242 406.382708 
L 1061.299859 386.496774 
L 1062.444476 392.69487 
L 1063.589094 408.8882 
L 1064.733711 393.500216 
L 1065.878328 388.624419 
L 1067.022946 384.59864 
L 1068.167563 384.983814 
L 1069.31218 390.174988 
L 1070.456798 385.129925 
L 1071.601415 389.728158 
L 1072.746032 384.647024 
L 1073.89065 392.796609 
L 1076.179884 384.057637 
L 1077.324502 387.663089 
L 1078.469119 387.35947 
L 1079.613736 383.631614 
L 1080.758354 367.087642 
L 1081.902971 369.711358 
L 1083.047588 361.293374 
L 1084.192206 368.914135 
L 1085.336823 373.580851 
L 1086.481441 373.05507 
L 1087.626058 379.878051 
L 1088.770675 375.696742 
L 1089.915293 387.408741 
L 1091.05991 376.656591 
L 1092.204527 376.270634 
L 1093.349145 386.63329 
L 1094.493762 373.857814 
L 1095.638379 366.672923 
L 1096.782997 369.743421 
L 1097.927614 367.134936 
L 1099.072231 371.943536 
L 1100.216849 372.450084 
L 1101.361466 356.778316 
L 1102.506083 381.408431 
L 1103.650701 383.696093 
L 1104.795318 364.899574 
L 1105.939935 374.306837 
L 1107.084553 360.790587 
L 1108.22917 365.984461 
L 1109.373787 368.479423 
L 1110.518405 366.747238 
L 1111.663022 373.657281 
L 1112.807639 359.337882 
L 1113.952257 365.906355 
L 1115.096874 376.007061 
L 1116.241491 368.001334 
L 1117.386109 364.355793 
L 1118.530726 365.648643 
L 1119.675344 365.622448 
L 1120.819961 358.760585 
L 1121.964578 353.177661 
L 1123.109196 350.090475 
L 1124.253813 348.523314 
L 1125.39843 367.256945 
L 1126.543048 362.766806 
L 1127.687665 365.75262 
L 1128.832282 366.646229 
L 1129.9769 346.326786 
L 1131.121517 361.618956 
L 1132.266134 358.642534 
L 1133.410752 359.328787 
L 1134.555369 364.814163 
L 1135.699986 370.995409 
L 1136.844604 366.369774 
L 1137.989221 345.729552 
L 1139.133838 372.366667 
L 1140.278456 374.264835 
L 1141.423073 361.726234 
L 1142.56769 373.599253 
L 1143.712308 371.07189 
L 1144.856925 363.038743 
L 1146.001542 364.20707 
L 1147.14616 368.89908 
L 1148.290777 363.010911 
L 1149.435394 381.85567 
L 1150.580012 374.951121 
L 1151.724629 357.119844 
L 1152.869247 384.673505 
L 1154.013864 377.766094 
L 1155.158481 374.275888 
L 1156.303099 381.446429 
L 1157.447716 374.899718 
L 1158.592333 374.807855 
L 1159.736951 363.029623 
L 1160.881568 358.777713 
L 1162.026185 359.300524 
L 1163.170803 357.629024 
L 1164.31542 361.366479 
L 1165.460037 355.45203 
L 1166.604655 354.367136 
L 1167.749272 354.728362 
L 1168.893889 339.273458 
L 1170.038507 334.164932 
L 1171.183124 332.974161 
L 1172.327741 335.754506 
L 1173.472359 317.09134 
L 1174.616976 316.242174 
L 1175.761593 322.769161 
L 1176.906211 303.972767 
L 1178.050828 316.989154 
L 1179.195445 290.847046 
L 1180.340063 290.844465 
L 1181.48468 311.833377 
L 1182.629297 283.187904 
L 1183.773915 293.320129 
L 1184.918532 287.89198 
L 1186.06315 285.700355 
L 1187.207767 290.228581 
L 1188.352384 265.392378 
L 1189.497002 281.911228 
L 1190.641619 277.649516 
L 1191.786236 258.660816 
L 1192.930854 277.973505 
L 1194.075471 274.983764 
L 1195.220088 269.243058 
L 1196.364706 278.238132 
L 1197.509323 257.733173 
L 1198.65394 257.827428 
L 1199.798558 262.433831 
L 1200.943175 241.995242 
L 1202.087792 239.114715 
L 1203.23241 236.908475 
L 1204.377027 247.909153 
L 1205.521644 248.37249 
L 1206.666262 250.833193 
L 1207.810879 263.474823 
L 1208.955496 254.400985 
L 1210.100114 251.217151 
L 1211.244731 250.507315 
L 1212.389348 247.350599 
L 1213.533966 249.71848 
L 1214.678583 253.84519 
L 1215.8232 254.651067 
L 1216.967818 252.42272 
L 1218.112435 254.074141 
L 1219.257053 251.768588 
L 1220.40167 239.538507 
L 1221.546287 253.397162 
L 1222.690905 260.037072 
L 1223.835522 248.211546 
L 1224.980139 256.899381 
L 1226.124757 256.562424 
L 1227.269374 257.535039 
L 1228.413991 264.795947 
L 1229.558609 259.130127 
L 1230.703226 260.325699 
L 1231.847843 270.133385 
L 1232.992461 265.675227 
L 1234.137078 256.201761 
L 1235.281695 263.937443 
L 1236.426313 276.845876 
L 1237.57093 279.15222 
L 1238.715547 285.364777 
L 1239.860165 292.66452 
L 1241.004782 291.329202 
L 1242.149399 292.218945 
L 1243.294017 281.453657 
L 1244.438634 285.597325 
L 1245.583251 301.835234 
L 1246.727869 289.061568 
L 1247.872486 284.623563 
L 1249.017103 292.917064 
L 1250.161721 293.980268 
L 1251.306338 306.516948 
L 1252.450956 307.196458 
L 1254.74019 329.54922 
L 1255.884808 325.416255 
L 1257.029425 340.261197 
L 1258.174042 323.431503 
L 1259.31866 317.742164 
L 1260.463277 324.271066 
L 1261.607894 315.72144 
L 1262.752512 333.11254 
L 1263.897129 333.993867 
L 1265.041746 325.533409 
L 1266.186364 332.067097 
L 1266.186364 332.067097 
" style="fill:none;stroke:#1f77b4;stroke-linecap:square;stroke-width:1.5;"/>
   </g>
   <g id="line2d_28">
    <path clip-path="url(#p4cbf58c951)" d="M 122.713636 287.618717 
L 123.858254 270.92159 
L 125.002871 273.416974 
L 126.147488 273.682052 
L 127.292106 267.485146 
L 128.436723 250.73472 
L 129.58134 248.88638 
L 130.725958 255.721642 
L 131.870575 237.960882 
L 133.015192 238.72915 
L 134.15981 243.081872 
L 135.304427 226.513133 
L 136.449044 221.269215 
L 137.593662 239.898946 
L 138.738279 226.389563 
L 139.882897 226.259525 
L 141.027514 227.600368 
L 142.172131 213.866445 
L 143.316749 218.548348 
L 144.461366 209.488016 
L 145.605983 224.434359 
L 146.750601 223.152963 
L 147.895218 209.755753 
L 149.039835 215.485691 
L 151.32907 208.175151 
L 152.473687 197.592139 
L 153.618305 189.556302 
L 154.762922 189.728709 
L 155.907539 182.781515 
L 157.052157 194.05464 
L 158.196774 207.890929 
L 159.341391 204.833805 
L 160.486009 209.102171 
L 161.630626 215.436658 
L 162.775243 211.573677 
L 163.919861 202.14912 
L 165.064478 199.542404 
L 166.209095 205.687254 
L 167.353713 210.973476 
L 168.49833 211.12286 
L 169.642947 222.082519 
L 170.787565 218.392534 
L 171.932182 220.613123 
L 173.0768 233.573883 
L 174.221417 225.360353 
L 175.366034 229.65729 
L 176.510652 223.822546 
L 177.655269 223.250405 
L 178.799886 224.90257 
L 179.944504 218.664715 
L 181.089121 231.335759 
L 182.233738 237.193241 
L 183.378356 235.737428 
L 185.66759 231.704756 
L 186.812208 237.037669 
L 187.956825 246.553395 
L 189.101442 245.766298 
L 190.24606 251.508046 
L 191.390677 246.349988 
L 192.535294 244.276185 
L 193.679912 263.838437 
L 194.824529 254.834205 
L 195.969146 259.077663 
L 197.113764 262.510375 
L 198.258381 248.659269 
L 199.402998 252.520933 
L 201.692233 245.906254 
L 202.83685 250.00948 
L 203.981468 250.445162 
L 205.126085 258.091578 
L 206.270703 256.93164 
L 207.41532 260.162347 
L 208.559937 272.661743 
L 209.704555 256.824623 
L 210.849172 260.91706 
L 211.993789 260.622663 
L 213.138407 258.952991 
L 214.283024 276.038261 
L 215.427641 270.377891 
L 216.572259 268.532909 
L 217.716876 267.512291 
L 218.861493 276.615313 
L 220.006111 276.860749 
L 221.150728 275.70803 
L 222.295345 284.680164 
L 223.439963 281.209417 
L 224.58458 280.763288 
L 225.729197 293.286914 
L 226.873815 296.118746 
L 228.018432 285.266907 
L 229.163049 299.913767 
L 230.307667 304.080482 
L 231.452284 297.386402 
L 232.596901 296.684149 
L 233.741519 287.434862 
L 234.886136 300.763823 
L 236.030753 305.091028 
L 237.175371 308.595589 
L 238.319988 327.083114 
L 239.464606 325.629607 
L 240.609223 327.833818 
L 241.75384 335.728508 
L 242.898458 330.476021 
L 244.043075 326.132717 
L 245.187692 332.713912 
L 246.33231 341.973082 
L 247.476927 353.101642 
L 248.621544 361.012284 
L 249.766162 355.045298 
L 250.910779 363.626897 
L 252.055396 369.067366 
L 253.200014 357.836575 
L 254.344631 360.605647 
L 255.489248 358.988376 
L 256.633866 370.34254 
L 257.778483 373.441374 
L 258.9231 365.680675 
L 260.067718 384.714948 
L 261.212335 380.174728 
L 262.356952 380.798594 
L 263.50157 394.309604 
L 264.646187 389.440246 
L 265.790804 393.326828 
L 266.935422 400.663185 
L 268.080039 402.008902 
L 269.224656 393.970088 
L 270.369274 403.39409 
L 271.513891 405.323387 
L 272.658509 402.868049 
L 273.803126 408.364904 
L 274.947743 407.925213 
L 276.092361 405.327242 
L 277.236978 395.620752 
L 278.381595 405.580428 
L 279.526213 402.286965 
L 280.67083 409.123623 
L 281.815447 410.695985 
L 282.960065 399.282714 
L 284.104682 412.60873 
L 285.249299 403.960318 
L 286.393917 407.76479 
L 287.538534 402.098592 
L 288.683151 400.181834 
L 289.827769 423.413188 
L 290.972386 412.149041 
L 292.117003 408.395523 
L 293.261621 407.60792 
L 294.406238 406.104069 
L 295.550855 410.363346 
L 296.695473 402.981842 
L 297.84009 413.748563 
L 298.984707 413.379249 
L 300.129325 411.558439 
L 301.273942 414.789391 
L 302.418559 404.25709 
L 303.563177 411.972655 
L 304.707794 410.08482 
L 305.852412 396.035321 
L 306.997029 400.350834 
L 308.141646 398.764657 
L 309.286264 395.77184 
L 310.430881 402.178682 
L 311.575498 399.028086 
L 312.720116 400.976222 
L 313.864733 405.705194 
L 315.00935 413.122391 
L 316.153968 417.398335 
L 317.298585 418.631901 
L 318.443202 411.181968 
L 319.58782 401.071069 
L 320.732437 411.343842 
L 321.877054 414.078656 
L 323.021672 409.517242 
L 324.166289 410.091498 
L 325.310906 412.765697 
L 326.455524 419.622157 
L 327.600141 425.500684 
L 328.744758 417.517962 
L 329.889376 412.623525 
L 331.033993 425.065856 
L 332.17861 424.868621 
L 333.323228 421.764736 
L 334.467845 402.937941 
L 335.612462 404.053507 
L 336.75708 423.749011 
L 337.901697 429.134931 
L 339.046314 436.450853 
L 340.190932 421.241889 
L 341.335549 422.97753 
L 342.480167 422.45926 
L 343.624784 412.586751 
L 345.914019 403.54793 
L 347.058636 409.94945 
L 348.203253 406.778425 
L 349.347871 415.864433 
L 350.492488 416.721931 
L 351.637105 416.788894 
L 352.781723 415.373131 
L 353.92634 408.936399 
L 355.070957 411.989943 
L 356.215575 409.161895 
L 357.360192 410.685591 
L 358.504809 406.377073 
L 359.649427 395.709372 
L 360.794044 383.197053 
L 361.938661 390.425081 
L 363.083279 395.949962 
L 364.227896 392.650496 
L 365.372513 393.007308 
L 366.517131 391.163406 
L 367.661748 392.211675 
L 368.806365 386.732945 
L 369.950983 384.2656 
L 371.0956 368.932809 
L 372.240217 374.871214 
L 373.384835 379.871318 
L 374.529452 359.572361 
L 375.67407 352.101812 
L 376.818687 347.00691 
L 377.963304 344.930838 
L 379.107922 332.865718 
L 380.252539 344.853726 
L 381.397156 349.267553 
L 382.541774 337.741875 
L 383.686391 353.835688 
L 384.831008 348.589058 
L 385.975626 344.930381 
L 387.120243 334.202638 
L 388.26486 313.053355 
L 389.409478 306.935978 
L 390.554095 303.891479 
L 391.698712 303.105059 
L 392.84333 292.310248 
L 393.987947 301.245589 
L 395.132564 308.467467 
L 396.277182 296.81236 
L 397.421799 289.132738 
L 398.566416 280.283371 
L 399.711034 286.80491 
L 400.855651 269.463414 
L 402.000268 254.144771 
L 403.144886 264.463053 
L 404.289503 264.437295 
L 405.43412 266.596153 
L 406.578738 262.260682 
L 407.723355 259.533662 
L 408.867973 241.867079 
L 410.01259 241.314584 
L 411.157207 246.564611 
L 412.301825 226.583519 
L 413.446442 230.256631 
L 414.591059 231.71294 
L 415.735677 227.437356 
L 416.880294 222.638996 
L 418.024911 211.599497 
L 419.169529 203.851887 
L 420.314146 210.054136 
L 421.458763 210.385916 
L 422.603381 197.14709 
L 423.747998 193.737408 
L 424.892615 195.53813 
L 426.037233 188.752067 
L 427.18185 186.572414 
L 428.326467 191.004251 
L 429.471085 175.292368 
L 430.615702 178.113601 
L 431.760319 186.674545 
L 432.904937 190.743911 
L 434.049554 189.748184 
L 435.194171 170.940955 
L 436.338789 184.402196 
L 437.483406 191.066355 
L 438.628023 181.108137 
L 439.772641 182.328084 
L 440.917258 177.867446 
L 442.061876 171.499513 
L 443.206493 180.505429 
L 444.35111 183.583015 
L 445.495728 183.074968 
L 446.640345 185.554008 
L 447.784962 177.294535 
L 448.92958 180.885073 
L 450.074197 176.574752 
L 451.218814 181.837254 
L 452.363432 192.057697 
L 453.508049 193.442717 
L 454.652666 203.493103 
L 455.797284 202.557361 
L 456.941901 208.924244 
L 458.086518 213.747705 
L 459.231136 222.814264 
L 460.375753 214.463819 
L 461.52037 212.935135 
L 462.664988 225.899767 
L 463.809605 219.170318 
L 464.954222 235.708048 
L 466.09884 233.149895 
L 467.243457 227.895421 
L 468.388074 241.554264 
L 470.677309 248.060362 
L 471.821926 254.870685 
L 472.966544 270.86809 
L 474.111161 263.469391 
L 475.255779 260.692287 
L 476.400396 273.866353 
L 477.545013 277.364374 
L 478.689631 281.539811 
L 479.834248 286.36908 
L 480.978865 283.938689 
L 482.123483 288.830939 
L 483.2681 305.828267 
L 484.412717 305.121731 
L 485.557335 299.478112 
L 486.701952 315.600407 
L 487.846569 316.912299 
L 488.991187 313.216775 
L 490.135804 336.239107 
L 491.280421 344.218165 
L 492.425039 336.918597 
L 493.569656 340.660865 
L 494.714273 347.913504 
L 495.858891 357.842164 
L 497.003508 354.57468 
L 498.148125 358.623619 
L 499.292743 367.598713 
L 500.43736 352.644158 
L 501.581977 361.882844 
L 502.726595 380.182448 
L 503.871212 371.375605 
L 505.015829 379.380688 
L 506.160447 395.760083 
L 508.449681 412.878844 
L 509.594299 417.452364 
L 510.738916 417.579019 
L 511.883534 408.381109 
L 513.028151 404.510575 
L 514.172768 410.101037 
L 515.317386 407.628556 
L 516.462003 408.831563 
L 518.751238 425.973952 
L 519.895855 425.160627 
L 521.040472 427.959113 
L 522.18509 438.5548 
L 523.329707 440.191995 
L 524.474324 452.526016 
L 526.763559 449.145462 
L 527.908176 445.361134 
L 529.052794 435.946637 
L 530.197411 446.911312 
L 531.342028 448.181356 
L 532.486646 459.436003 
L 533.631263 469.586822 
L 535.920498 486.002011 
L 538.209732 492.755565 
L 539.35435 486.581143 
L 540.498967 485.586556 
L 541.643584 481.714097 
L 542.788202 487.252303 
L 543.932819 482.526528 
L 545.077437 483.650851 
L 546.222054 496.890796 
L 547.366671 495.307209 
L 548.511289 503.050032 
L 549.655906 514.792081 
L 550.800523 523.224192 
L 553.089758 534.84384 
L 554.234375 535.960553 
L 555.378993 542.703538 
L 556.52361 547.713544 
L 557.668227 546.021838 
L 558.812845 549.321648 
L 559.957462 550.993295 
L 561.102079 557.543197 
L 562.246697 546.572962 
L 563.391314 545.193478 
L 564.535931 553.811965 
L 565.680549 558.471158 
L 566.825166 565.751138 
L 567.969783 558.34709 
L 569.114401 556.820613 
L 570.259018 551.65667 
L 571.403635 558.755047 
L 572.548253 559.782274 
L 573.69287 554.215535 
L 574.837487 557.333007 
L 575.982105 553.070804 
L 577.126722 553.862594 
L 578.27134 541.611096 
L 579.415957 549.738907 
L 580.560574 548.173008 
L 581.705192 542.2474 
L 582.849809 545.733699 
L 583.994426 533.93674 
L 585.139044 544.655056 
L 586.283661 544.87606 
L 587.428278 542.827963 
L 588.572896 536.432169 
L 589.717513 538.742856 
L 590.86213 537.999676 
L 592.006748 520.671904 
L 593.151365 526.037667 
L 594.295982 514.625804 
L 595.4406 512.806176 
L 596.585217 513.095912 
L 597.729834 501.079751 
L 598.874452 500.831571 
L 600.019069 492.603332 
L 601.163686 487.415802 
L 602.308304 478.716941 
L 603.452921 473.79697 
L 604.597538 478.274026 
L 606.886773 480.884618 
L 608.03139 469.79488 
L 609.176008 460.410054 
L 610.320625 461.286888 
L 611.465243 456.312079 
L 612.60986 462.174473 
L 613.754477 457.001134 
L 614.899095 443.302468 
L 616.043712 433.554558 
L 617.188329 416.874809 
L 618.332947 421.470132 
L 619.477564 412.937161 
L 620.622181 412.505696 
L 621.766799 415.609937 
L 622.911416 385.551191 
L 624.056033 384.386772 
L 625.200651 386.078004 
L 626.345268 380.489157 
L 627.489885 382.921312 
L 628.634503 365.856298 
L 629.77912 357.190091 
L 630.923737 368.132515 
L 632.068355 372.221246 
L 633.212972 353.177313 
L 634.357589 339.732546 
L 635.502207 338.168713 
L 636.646824 325.149088 
L 637.791441 319.700344 
L 638.936059 325.884539 
L 640.080676 327.541932 
L 641.225293 309.754494 
L 642.369911 305.438283 
L 643.514528 304.118223 
L 644.659146 291.352253 
L 645.803763 296.208977 
L 646.94838 287.27271 
L 648.092998 271.449572 
L 649.237615 269.772305 
L 650.382232 262.417934 
L 651.52685 257.464296 
L 652.671467 258.423237 
L 653.816084 258.64783 
L 654.960702 262.465763 
L 656.105319 264.020806 
L 657.249936 250.474095 
L 658.394554 253.164875 
L 659.539171 247.896596 
L 660.683788 227.039199 
L 661.828406 236.297661 
L 662.973023 237.395024 
L 664.11764 227.008258 
L 665.262258 228.467906 
L 666.406875 233.500665 
L 667.551492 236.250491 
L 668.69611 226.747906 
L 669.840727 229.065118 
L 672.129962 239.225494 
L 673.274579 239.08676 
L 674.419196 225.355079 
L 675.563814 231.47312 
L 676.708431 232.408685 
L 677.853049 225.459967 
L 680.142283 227.874232 
L 681.286901 234.104254 
L 683.576135 236.197747 
L 684.720753 240.118738 
L 687.009987 236.400358 
L 688.154605 243.295022 
L 691.588457 252.457706 
L 692.733074 253.22903 
L 693.877691 256.876295 
L 695.022309 250.393651 
L 696.166926 254.196587 
L 697.311543 263.647426 
L 698.456161 266.364984 
L 699.600778 263.282985 
L 700.745395 262.481072 
L 701.890013 268.190184 
L 703.03463 270.87241 
L 704.179247 280.66665 
L 705.323865 285.861463 
L 706.468482 290.189449 
L 707.613099 296.545761 
L 708.757717 295.536826 
L 709.902334 304.616521 
L 711.046951 309.82561 
L 712.191569 300.527021 
L 713.336186 310.190321 
L 714.480804 323.851996 
L 715.625421 326.312438 
L 716.770038 330.843661 
L 717.914656 317.292013 
L 719.059273 327.135021 
L 720.20389 343.113892 
L 721.348508 332.743445 
L 722.493125 348.525999 
L 723.637742 355.177905 
L 724.78236 355.142429 
L 725.926977 368.002644 
L 727.071594 358.187315 
L 728.216212 354.408749 
L 729.360829 367.233349 
L 730.505446 367.425836 
L 731.650064 364.718935 
L 732.794681 371.401706 
L 733.939298 372.821121 
L 735.083916 373.450083 
L 736.228533 373.313616 
L 737.37315 368.849834 
L 738.517768 370.960231 
L 739.662385 378.713845 
L 740.807002 381.164571 
L 741.95162 376.330296 
L 743.096237 373.773614 
L 745.385472 373.052642 
L 746.530089 369.079304 
L 747.674707 359.468545 
L 748.819324 364.491841 
L 749.963941 366.458448 
L 752.253176 371.534649 
L 753.397793 364.582358 
L 754.542411 368.58825 
L 755.687028 365.980842 
L 756.831645 353.388494 
L 757.976263 345.486325 
L 759.12088 341.409642 
L 760.265497 334.581286 
L 761.410115 326.528359 
L 762.554732 325.902319 
L 763.699349 322.421425 
L 764.843967 322.635508 
L 765.988584 316.382959 
L 767.133201 315.352881 
L 768.277819 316.508016 
L 769.422436 303.279361 
L 772.856288 290.431698 
L 774.000905 283.107833 
L 775.145523 277.473416 
L 776.29014 282.084754 
L 777.434757 273.655111 
L 778.579375 271.977652 
L 779.723992 271.097079 
L 780.86861 266.68466 
L 782.013227 273.203193 
L 783.157844 260.169853 
L 784.302462 253.329047 
L 785.447079 258.223188 
L 786.591696 249.365518 
L 787.736314 237.24763 
L 790.025548 236.896789 
L 791.170166 230.345927 
L 792.314783 230.514763 
L 793.4594 218.536908 
L 794.604018 222.069126 
L 795.748635 223.393935 
L 796.893252 211.105766 
L 798.03787 217.212765 
L 799.182487 215.29532 
L 800.327104 214.221946 
L 801.471722 210.380127 
L 802.616339 208.165833 
L 803.760956 213.266781 
L 804.905574 211.815959 
L 806.050191 212.634098 
L 807.194808 212.778977 
L 808.339426 215.859482 
L 809.484043 205.28195 
L 810.62866 205.882141 
L 811.773278 209.409105 
L 812.917895 198.551971 
L 814.062513 207.495049 
L 815.20713 212.641139 
L 816.351747 215.54552 
L 817.496365 206.954901 
L 818.640982 201.59193 
L 819.785599 215.853879 
L 820.930217 221.842574 
L 822.074834 220.540125 
L 823.219451 224.377573 
L 824.364069 227.44915 
L 825.508686 226.192163 
L 826.653303 230.072705 
L 827.797921 231.033141 
L 830.087155 231.672496 
L 831.231773 239.262374 
L 832.37639 245.244747 
L 833.521007 240.344102 
L 834.665625 243.565043 
L 835.810242 251.057636 
L 836.954859 255.507525 
L 838.099477 251.990127 
L 839.244094 257.980475 
L 840.388711 261.692027 
L 841.533329 261.045089 
L 842.677946 266.940857 
L 843.822563 261.232883 
L 844.967181 269.405095 
L 846.111798 275.224703 
L 847.256416 282.351625 
L 848.401033 295.044123 
L 849.54565 297.335493 
L 850.690268 306.058815 
L 851.834885 289.440834 
L 852.979502 294.933894 
L 854.12412 322.538509 
L 855.268737 319.880452 
L 856.413354 335.280828 
L 857.557972 340.890929 
L 858.702589 339.893429 
L 859.847206 356.173387 
L 860.991824 358.320252 
L 862.136441 366.873934 
L 863.281058 367.99428 
L 864.425676 367.659257 
L 865.570293 368.067985 
L 866.71491 362.023246 
L 867.859528 375.559568 
L 869.004145 382.214432 
L 870.148762 384.358478 
L 871.29338 390.743837 
L 872.437997 391.905128 
L 873.582614 405.942905 
L 874.727232 423.826013 
L 875.871849 418.88042 
L 877.016466 421.25527 
L 878.161084 432.147169 
L 879.305701 431.190512 
L 880.450319 434.548857 
L 881.594936 444.949909 
L 882.739553 456.421879 
L 883.884171 454.577667 
L 885.028788 461.366985 
L 886.173405 477.224168 
L 887.318023 481.762951 
L 888.46264 483.953587 
L 889.607257 483.870173 
L 890.751875 484.454812 
L 891.896492 490.706105 
L 893.041109 501.719747 
L 894.185727 508.727772 
L 895.330344 503.247533 
L 896.474961 500.030631 
L 897.619579 514.068243 
L 898.764196 506.060568 
L 899.908813 506.849854 
L 901.053431 521.171849 
L 902.198048 521.323588 
L 903.342665 527.846319 
L 904.487283 526.183911 
L 905.6319 532.38139 
L 906.776517 536.138467 
L 907.921135 538.965662 
L 909.065752 542.325175 
L 910.210369 544.762463 
L 911.354987 531.24174 
L 912.499604 520.217236 
L 913.644221 532.414964 
L 914.788839 529.777756 
L 915.933456 527.84861 
L 917.078074 519.431746 
L 918.222691 514.782502 
L 919.367308 508.042355 
L 920.511926 507.889171 
L 921.656543 508.371003 
L 922.80116 503.727833 
L 923.945778 512.059351 
L 925.090395 507.835639 
L 926.235012 506.526964 
L 927.37963 503.735194 
L 928.524247 503.095372 
L 929.668864 501.668274 
L 930.813482 490.154343 
L 931.958099 482.513426 
L 933.102716 479.340989 
L 934.247334 476.907118 
L 935.391951 471.602012 
L 936.536568 465.67242 
L 937.681186 455.554468 
L 938.825803 451.430376 
L 939.97042 448.80428 
L 941.115038 445.476676 
L 942.259655 436.450297 
L 943.404272 429.086465 
L 944.54889 424.052153 
L 945.693507 415.535883 
L 946.838124 415.130995 
L 947.982742 412.533028 
L 949.127359 407.09647 
L 950.271977 397.480888 
L 951.416594 395.302807 
L 952.561211 391.715166 
L 953.705829 386.765067 
L 954.850446 386.237233 
L 955.995063 379.946581 
L 957.139681 378.841828 
L 958.284298 374.865463 
L 959.428915 363.091002 
L 960.573533 360.274291 
L 962.862767 349.182235 
L 964.007385 348.888442 
L 965.152002 331.365663 
L 966.296619 334.479305 
L 967.441237 338.193929 
L 968.585854 320.969095 
L 969.730471 322.941871 
L 970.875089 326.27586 
L 972.019706 315.862029 
L 973.164323 304.344148 
L 974.308941 308.979284 
L 975.453558 309.876161 
L 976.598175 302.851358 
L 978.88741 293.716344 
L 980.032027 295.115911 
L 981.176645 294.32437 
L 982.321262 291.413096 
L 983.46588 285.734992 
L 986.899732 260.120363 
L 988.044349 264.135669 
L 989.188966 263.741673 
L 990.333584 259.081367 
L 991.478201 256.0338 
L 992.622818 253.831566 
L 993.767436 254.600821 
L 994.912053 241.747659 
L 996.05667 241.5422 
L 997.201288 242.099642 
L 998.345905 237.657112 
L 999.490522 244.159574 
L 1000.63514 228.254679 
L 1001.779757 232.278637 
L 1002.924374 242.674658 
L 1004.068992 231.974482 
L 1005.213609 234.578902 
L 1006.358226 218.496064 
L 1007.502844 208.726954 
L 1008.647461 212.963733 
L 1009.792078 199.90845 
L 1010.936696 199.536629 
L 1012.081313 203.549152 
L 1014.370548 205.743119 
L 1015.515165 204.735769 
L 1016.659783 208.133362 
L 1017.8044 202.163796 
L 1018.949017 202.196855 
L 1020.093635 211.625842 
L 1021.238252 215.796933 
L 1022.382869 217.747649 
L 1024.672104 208.957856 
L 1025.816721 211.33632 
L 1026.961339 211.557442 
L 1028.105956 214.712605 
L 1029.250573 221.423355 
L 1030.395191 220.095149 
L 1031.539808 213.858256 
L 1032.684425 216.503952 
L 1033.829043 224.158089 
L 1034.97366 221.59219 
L 1036.118277 219.897943 
L 1037.262895 224.069874 
L 1038.407512 233.199649 
L 1039.552129 234.211514 
L 1040.696747 238.844606 
L 1041.841364 249.849303 
L 1042.985981 245.495512 
L 1044.130599 256.408861 
L 1045.275216 252.681608 
L 1046.419833 247.700624 
L 1047.564451 251.551812 
L 1048.709068 252.471574 
L 1049.853686 264.900676 
L 1050.998303 261.92114 
L 1052.14292 269.13832 
L 1053.287538 279.046478 
L 1054.432155 275.055974 
L 1055.576772 271.964353 
L 1056.72139 274.765774 
L 1057.866007 274.661237 
L 1059.010624 283.221929 
L 1060.155242 295.142717 
L 1061.299859 288.072808 
L 1062.444476 290.604517 
L 1063.589094 297.405608 
L 1064.733711 300.444616 
L 1065.878328 317.057003 
L 1067.022946 316.669159 
L 1068.167563 312.742127 
L 1069.31218 324.759685 
L 1070.456798 329.247014 
L 1071.601415 330.748995 
L 1072.746032 328.644154 
L 1073.89065 338.830915 
L 1075.035267 335.801462 
L 1077.324502 351.994908 
L 1078.469119 334.259873 
L 1079.613736 350.120756 
L 1080.758354 349.707558 
L 1081.902971 350.044213 
L 1083.047588 369.038907 
L 1084.192206 365.192752 
L 1085.336823 365.785752 
L 1086.481441 357.76279 
L 1087.626058 358.62168 
L 1088.770675 360.184782 
L 1089.915293 362.428551 
L 1091.05991 373.220134 
L 1092.204527 372.910561 
L 1093.349145 380.50838 
L 1094.493762 382.125357 
L 1095.638379 385.126763 
L 1096.782997 386.596988 
L 1097.927614 380.12891 
L 1099.072231 386.784013 
L 1100.216849 387.484928 
L 1101.361466 379.554317 
L 1102.506083 379.055727 
L 1103.650701 389.335761 
L 1104.795318 392.82546 
L 1105.939935 391.176793 
L 1107.084553 403.923587 
L 1108.22917 401.184562 
L 1109.373787 407.849436 
L 1110.518405 411.416572 
L 1111.663022 412.701208 
L 1112.807639 423.252946 
L 1113.952257 409.053427 
L 1115.096874 404.622589 
L 1116.241491 410.364276 
L 1117.386109 410.883285 
L 1118.530726 417.824605 
L 1119.675344 425.955707 
L 1120.819961 417.301025 
L 1121.964578 416.795293 
L 1123.109196 427.761739 
L 1124.253813 427.587316 
L 1125.39843 433.129568 
L 1126.543048 429.854508 
L 1127.687665 423.786739 
L 1128.832282 425.061543 
L 1129.9769 425.5504 
L 1131.121517 418.10509 
L 1132.266134 409.441237 
L 1133.410752 413.948508 
L 1134.555369 412.548937 
L 1135.699986 417.62789 
L 1136.844604 431.842282 
L 1137.989221 427.631695 
L 1139.133838 418.504588 
L 1140.278456 430.447081 
L 1141.423073 426.906827 
L 1142.56769 419.862282 
L 1143.712308 428.797131 
L 1144.856925 418.759654 
L 1146.001542 419.777006 
L 1147.14616 423.600879 
L 1148.290777 417.944121 
L 1149.435394 424.634646 
L 1150.580012 425.337169 
L 1152.869247 413.15586 
L 1154.013864 409.113893 
L 1155.158481 415.218056 
L 1156.303099 418.22562 
L 1157.447716 418.234676 
L 1158.592333 422.514728 
L 1160.881568 424.913427 
L 1162.026185 422.413471 
L 1163.170803 419.240703 
L 1164.31542 421.15656 
L 1165.460037 410.062759 
L 1166.604655 402.1657 
L 1167.749272 407.408196 
L 1168.893889 409.58209 
L 1170.038507 412.371534 
L 1171.183124 415.754825 
L 1172.327741 424.014428 
L 1173.472359 424.793945 
L 1174.616976 421.920689 
L 1175.761593 412.644576 
L 1176.906211 407.219188 
L 1178.050828 425.607067 
L 1179.195445 425.425396 
L 1180.340063 422.337026 
L 1181.48468 423.610076 
L 1182.629297 414.039255 
L 1183.773915 418.36775 
L 1184.918532 414.624865 
L 1186.06315 416.701637 
L 1187.207767 420.104776 
L 1188.352384 414.029722 
L 1189.497002 406.675788 
L 1190.641619 400.239723 
L 1191.786236 410.475559 
L 1192.930854 408.146942 
L 1194.075471 405.137431 
L 1195.220088 400.035665 
L 1196.364706 395.780806 
L 1197.509323 396.65124 
L 1198.65394 396.024932 
L 1199.798558 402.55786 
L 1200.943175 404.538161 
L 1202.087792 411.43641 
L 1203.23241 409.461004 
L 1204.377027 396.030066 
L 1205.521644 396.625945 
L 1206.666262 393.579677 
L 1207.810879 380.554526 
L 1208.955496 379.398497 
L 1210.100114 382.555544 
L 1211.244731 383.428717 
L 1212.389348 379.939183 
L 1213.533966 380.119783 
L 1214.678583 378.830521 
L 1215.8232 373.250127 
L 1218.112435 386.536933 
L 1219.257053 378.465633 
L 1220.40167 372.777234 
L 1221.546287 375.135955 
L 1222.690905 368.065172 
L 1223.835522 366.936353 
L 1224.980139 372.992564 
L 1226.124757 372.369587 
L 1227.269374 371.021715 
L 1228.413991 361.799874 
L 1229.558609 354.288045 
L 1230.703226 349.152135 
L 1231.847843 339.145013 
L 1232.992461 355.273189 
L 1234.137078 355.797634 
L 1235.281695 349.82962 
L 1236.426313 351.210641 
L 1237.57093 329.575855 
L 1238.715547 335.173914 
L 1239.860165 333.408997 
L 1241.004782 328.106382 
L 1242.149399 326.556172 
L 1243.294017 319.31309 
L 1244.438634 323.062832 
L 1245.583251 318.081243 
L 1246.727869 315.412586 
L 1247.872486 322.15664 
L 1249.017103 325.811722 
L 1250.161721 310.695121 
L 1251.306338 306.113342 
L 1252.450956 305.272917 
L 1253.595573 295.859465 
L 1255.884808 285.032647 
L 1257.029425 282.775814 
L 1258.174042 284.915909 
L 1259.31866 282.702409 
L 1260.463277 284.884992 
L 1261.607894 289.886146 
L 1262.752512 276.093405 
L 1263.897129 268.509685 
L 1265.041746 266.938753 
L 1266.186364 266.16645 
L 1266.186364 266.16645 
" style="fill:none;stroke:#ff7f0e;stroke-linecap:square;stroke-width:1.5;"/>
   </g>
   <g id="patch_3">
    <path d="M 65.54 659.72 
L 65.54 26.88 
" style="fill:none;stroke:#000000;stroke-linecap:square;stroke-linejoin:miter;stroke-width:0.8;"/>
   </g>
   <g id="patch_4">
    <path d="M 1323.36 659.72 
L 1323.36 26.88 
" style="fill:none;stroke:#000000;stroke-linecap:square;stroke-linejoin:miter;stroke-width:0.8;"/>
   </g>
   <g id="patch_5">
    <path d="M 65.54 659.72 
L 1323.36 659.72 
" style="fill:none;stroke:#000000;stroke-linecap:square;stroke-linejoin:miter;stroke-width:0.8;"/>
   </g>
   <g id="patch_6">
    <path d="M 65.54 26.88 
L 1323.36 26.88 
" style="fill:none;stroke:#000000;stroke-linecap:square;stroke-linejoin:miter;stroke-width:0.8;"/>
   </g>
   <g id="text_15">
    <!-- Raw data BHE &amp; BLE -->
    <defs>
     <path d="M 44.390625 34.1875 
Q 47.5625 33.109375 50.5625 29.59375 
Q 53.5625 26.078125 56.59375 19.921875 
L 66.609375 0 
L 56 0 
L 46.6875 18.703125 
Q 43.0625 26.03125 39.671875 28.421875 
Q 36.28125 30.8125 30.421875 30.8125 
L 19.671875 30.8125 
L 19.671875 0 
L 9.8125 0 
L 9.8125 72.90625 
L 32.078125 72.90625 
Q 44.578125 72.90625 50.734375 67.671875 
Q 56.890625 62.453125 56.890625 51.90625 
Q 56.890625 45.015625 53.6875 40.46875 
Q 50.484375 35.9375 44.390625 34.1875 
z
M 19.671875 64.796875 
L 19.671875 38.921875 
L 32.078125 38.921875 
Q 39.203125 38.921875 42.84375 42.21875 
Q 46.484375 45.515625 46.484375 51.90625 
Q 46.484375 58.296875 42.84375 61.546875 
Q 39.203125 64.796875 32.078125 64.796875 
z
" id="DejaVuSans-82"/>
     <path d="M 34.28125 27.484375 
Q 23.390625 27.484375 19.1875 25 
Q 14.984375 22.515625 14.984375 16.5 
Q 14.984375 11.71875 18.140625 8.90625 
Q 21.296875 6.109375 26.703125 6.109375 
Q 34.1875 6.109375 38.703125 11.40625 
Q 43.21875 16.703125 43.21875 25.484375 
L 43.21875 27.484375 
z
M 52.203125 31.203125 
L 52.203125 0 
L 43.21875 0 
L 43.21875 8.296875 
Q 40.140625 3.328125 35.546875 0.953125 
Q 30.953125 -1.421875 24.3125 -1.421875 
Q 15.921875 -1.421875 10.953125 3.296875 
Q 6 8.015625 6 15.921875 
Q 6 25.140625 12.171875 29.828125 
Q 18.359375 34.515625 30.609375 34.515625 
L 43.21875 34.515625 
L 43.21875 35.40625 
Q 43.21875 41.609375 39.140625 45 
Q 35.0625 48.390625 27.6875 48.390625 
Q 23 48.390625 18.546875 47.265625 
Q 14.109375 46.140625 10.015625 43.890625 
L 10.015625 52.203125 
Q 14.9375 54.109375 19.578125 55.046875 
Q 24.21875 56 28.609375 56 
Q 40.484375 56 46.34375 49.84375 
Q 52.203125 43.703125 52.203125 31.203125 
z
" id="DejaVuSans-97"/>
     <path d="M 4.203125 54.6875 
L 13.1875 54.6875 
L 24.421875 12.015625 
L 35.59375 54.6875 
L 46.1875 54.6875 
L 57.421875 12.015625 
L 68.609375 54.6875 
L 77.59375 54.6875 
L 63.28125 0 
L 52.6875 0 
L 40.921875 44.828125 
L 29.109375 0 
L 18.5 0 
z
" id="DejaVuSans-119"/>
     <path id="DejaVuSans-32"/>
     <path d="M 45.40625 46.390625 
L 45.40625 75.984375 
L 54.390625 75.984375 
L 54.390625 0 
L 45.40625 0 
L 45.40625 8.203125 
Q 42.578125 3.328125 38.25 0.953125 
Q 33.9375 -1.421875 27.875 -1.421875 
Q 17.96875 -1.421875 11.734375 6.484375 
Q 5.515625 14.40625 5.515625 27.296875 
Q 5.515625 40.1875 11.734375 48.09375 
Q 17.96875 56 27.875 56 
Q 33.9375 56 38.25 53.625 
Q 42.578125 51.265625 45.40625 46.390625 
z
M 14.796875 27.296875 
Q 14.796875 17.390625 18.875 11.75 
Q 22.953125 6.109375 30.078125 6.109375 
Q 37.203125 6.109375 41.296875 11.75 
Q 45.40625 17.390625 45.40625 27.296875 
Q 45.40625 37.203125 41.296875 42.84375 
Q 37.203125 48.484375 30.078125 48.484375 
Q 22.953125 48.484375 18.875 42.84375 
Q 14.796875 37.203125 14.796875 27.296875 
z
" id="DejaVuSans-100"/>
     <path d="M 19.671875 34.8125 
L 19.671875 8.109375 
L 35.5 8.109375 
Q 43.453125 8.109375 47.28125 11.40625 
Q 51.125 14.703125 51.125 21.484375 
Q 51.125 28.328125 47.28125 31.5625 
Q 43.453125 34.8125 35.5 34.8125 
z
M 19.671875 64.796875 
L 19.671875 42.828125 
L 34.28125 42.828125 
Q 41.5 42.828125 45.03125 45.53125 
Q 48.578125 48.25 48.578125 53.8125 
Q 48.578125 59.328125 45.03125 62.0625 
Q 41.5 64.796875 34.28125 64.796875 
z
M 9.8125 72.90625 
L 35.015625 72.90625 
Q 46.296875 72.90625 52.390625 68.21875 
Q 58.5 63.53125 58.5 54.890625 
Q 58.5 48.1875 55.375 44.234375 
Q 52.25 40.28125 46.1875 39.3125 
Q 53.46875 37.75 57.5 32.78125 
Q 61.53125 27.828125 61.53125 20.40625 
Q 61.53125 10.640625 54.890625 5.3125 
Q 48.25 0 35.984375 0 
L 9.8125 0 
z
" id="DejaVuSans-66"/>
     <path d="M 9.8125 72.90625 
L 19.671875 72.90625 
L 19.671875 43.015625 
L 55.515625 43.015625 
L 55.515625 72.90625 
L 65.375 72.90625 
L 65.375 0 
L 55.515625 0 
L 55.515625 34.71875 
L 19.671875 34.71875 
L 19.671875 0 
L 9.8125 0 
z
" id="DejaVuSans-72"/>
     <path d="M 9.8125 72.90625 
L 55.90625 72.90625 
L 55.90625 64.59375 
L 19.671875 64.59375 
L 19.671875 43.015625 
L 54.390625 43.015625 
L 54.390625 34.71875 
L 19.671875 34.71875 
L 19.671875 8.296875 
L 56.78125 8.296875 
L 56.78125 0 
L 9.8125 0 
z
" id="DejaVuSans-69"/>
     <path d="M 24.3125 39.203125 
Q 19.875 35.25 17.796875 31.3125 
Q 15.71875 27.390625 15.71875 23.09375 
Q 15.71875 15.96875 20.890625 11.234375 
Q 26.078125 6.5 33.890625 6.5 
Q 38.53125 6.5 42.578125 8.03125 
Q 46.625 9.578125 50.203125 12.703125 
z
M 31.203125 44.671875 
L 56 19.28125 
Q 58.890625 23.640625 60.5 28.59375 
Q 62.109375 33.546875 62.40625 39.109375 
L 71.484375 39.109375 
Q 70.90625 32.671875 68.359375 26.359375 
Q 65.828125 20.0625 61.28125 13.921875 
L 74.90625 0 
L 62.59375 0 
L 55.609375 7.171875 
Q 50.53125 2.828125 44.96875 0.703125 
Q 39.40625 -1.421875 33.015625 -1.421875 
Q 21.234375 -1.421875 13.765625 5.296875 
Q 6.296875 12.015625 6.296875 22.515625 
Q 6.296875 28.765625 9.5625 34.25 
Q 12.84375 39.75 19.390625 44.578125 
Q 17.046875 47.65625 15.8125 50.703125 
Q 14.59375 53.765625 14.59375 56.6875 
Q 14.59375 64.59375 20.015625 69.40625 
Q 25.4375 74.21875 34.421875 74.21875 
Q 38.484375 74.21875 42.5 73.34375 
Q 46.53125 72.46875 50.6875 70.703125 
L 50.6875 61.8125 
Q 46.4375 64.109375 42.578125 65.296875 
Q 38.71875 66.5 35.40625 66.5 
Q 30.28125 66.5 27.078125 63.78125 
Q 23.875 61.078125 23.875 56.78125 
Q 23.875 54.296875 25.3125 51.78125 
Q 26.765625 49.265625 31.203125 44.671875 
z
" id="DejaVuSans-38"/>
     <path d="M 9.8125 72.90625 
L 19.671875 72.90625 
L 19.671875 8.296875 
L 55.171875 8.296875 
L 55.171875 0 
L 9.8125 0 
z
" id="DejaVuSans-76"/>
    </defs>
    <g transform="translate(632.206563 20.88)scale(0.12 -0.12)">
     <use xlink:href="#DejaVuSans-82"/>
     <use x="69.451172" xlink:href="#DejaVuSans-97"/>
     <use x="130.730469" xlink:href="#DejaVuSans-119"/>
     <use x="212.517578" xlink:href="#DejaVuSans-32"/>
     <use x="244.304688" xlink:href="#DejaVuSans-100"/>
     <use x="307.78125" xlink:href="#DejaVuSans-97"/>
     <use x="369.060547" xlink:href="#DejaVuSans-116"/>
     <use x="408.269531" xlink:href="#DejaVuSans-97"/>
     <use x="469.548828" xlink:href="#DejaVuSans-32"/>
     <use x="501.335938" xlink:href="#DejaVuSans-66"/>
     <use x="569.939453" xlink:href="#DejaVuSans-72"/>
     <use x="645.134766" xlink:href="#DejaVuSans-69"/>
     <use x="708.318359" xlink:href="#DejaVuSans-32"/>
     <use x="740.105469" xlink:href="#DejaVuSans-38"/>
     <use x="818.083984" xlink:href="#DejaVuSans-32"/>
     <use x="849.871094" xlink:href="#DejaVuSans-66"/>
     <use x="918.474609" xlink:href="#DejaVuSans-76"/>
     <use x="974.1875" xlink:href="#DejaVuSans-69"/>
    </g>
   </g>
   <g id="legend_1">
    <g id="patch_7">
     <path d="M 72.54 64.23625 
L 125.24 64.23625 
Q 127.24 64.23625 127.24 62.23625 
L 127.24 33.88 
Q 127.24 31.88 125.24 31.88 
L 72.54 31.88 
Q 70.54 31.88 70.54 33.88 
L 70.54 62.23625 
Q 70.54 64.23625 72.54 64.23625 
z
" style="fill:#ffffff;opacity:0.8;stroke:#cccccc;stroke-linejoin:miter;"/>
    </g>
    <g id="line2d_29">
     <path d="M 74.54 39.978438 
L 94.54 39.978438 
" style="fill:none;stroke:#1f77b4;stroke-linecap:square;stroke-width:1.5;"/>
    </g>
    <g id="line2d_30"/>
    <g id="text_16">
     <!-- BHE -->
     <g transform="translate(102.54 43.478438)scale(0.1 -0.1)">
      <use xlink:href="#DejaVuSans-66"/>
      <use x="68.603516" xlink:href="#DejaVuSans-72"/>
      <use x="143.798828" xlink:href="#DejaVuSans-69"/>
     </g>
    </g>
    <g id="line2d_31">
     <path d="M 74.54 54.656563 
L 94.54 54.656563 
" style="fill:none;stroke:#ff7f0e;stroke-linecap:square;stroke-width:1.5;"/>
    </g>
    <g id="line2d_32"/>
    <g id="text_17">
     <!-- BLE -->
     <g transform="translate(102.54 58.156563)scale(0.1 -0.1)">
      <use xlink:href="#DejaVuSans-66"/>
      <use x="68.603516" xlink:href="#DejaVuSans-76"/>
      <use x="124.316406" xlink:href="#DejaVuSans-69"/>
     </g>
    </g>
   </g>
  </g>
 </g>
 <defs>
  <clipPath id="p4cbf58c951">
   <rect height="632.84" width="1257.82" x="65.54" y="26.88"/>
  </clipPath>
 </defs>
</svg>
