<?xml version="1.0" encoding="utf-8" standalone="no"?>
<!DOCTYPE svg PUBLIC "-//W3C//DTD SVG 1.1//EN"
  "http://www.w3.org/Graphics/SVG/1.1/DTD/svg11.dtd">
<!-- Created with matplotlib (https://matplotlib.org/) -->
<svg height="687.6pt" version="1.1" viewBox="0 0 1334.16 687.6" width="1334.16pt" xmlns="http://www.w3.org/2000/svg" xmlns:xlink="http://www.w3.org/1999/xlink">
 <defs>
  <style type="text/css">
*{stroke-linecap:butt;stroke-linejoin:round;}
  </style>
 </defs>
 <g id="figure_1">
  <g id="patch_1">
   <path d="M 0 687.6 
L 1334.16 687.6 
L 1334.16 0 
L 0 0 
z
" style="fill:#ffffff;"/>
  </g>
  <g id="axes_1">
   <g id="patch_2">
    <path d="M 71.84 659.72 
L 1323.36 659.72 
L 1323.36 26.88 
L 71.84 26.88 
z
" style="fill:#ffffff;"/>
   </g>
   <g id="matplotlib.axis_1">
    <g id="xtick_1">
     <g id="line2d_1">
      <path clip-path="url(#pd5a59cebca)" d="M 128.727273 659.72 
L 128.727273 26.88 
" style="fill:none;stroke:#b0b0b0;stroke-linecap:square;stroke-width:0.8;"/>
     </g>
     <g id="line2d_2">
      <defs>
       <path d="M 0 0 
L 0 3.5 
" id="mbab809d27b" style="stroke:#000000;stroke-width:0.8;"/>
      </defs>
      <g>
       <use style="stroke:#000000;stroke-width:0.8;" x="128.727273" xlink:href="#mbab809d27b" y="659.72"/>
      </g>
     </g>
     <g id="text_1">
      <!-- 0 -->
      <defs>
       <path d="M 31.78125 66.40625 
Q 24.171875 66.40625 20.328125 58.90625 
Q 16.5 51.421875 16.5 36.375 
Q 16.5 21.390625 20.328125 13.890625 
Q 24.171875 6.390625 31.78125 6.390625 
Q 39.453125 6.390625 43.28125 13.890625 
Q 47.125 21.390625 47.125 36.375 
Q 47.125 51.421875 43.28125 58.90625 
Q 39.453125 66.40625 31.78125 66.40625 
z
M 31.78125 74.21875 
Q 44.046875 74.21875 50.515625 64.515625 
Q 56.984375 54.828125 56.984375 36.375 
Q 56.984375 17.96875 50.515625 8.265625 
Q 44.046875 -1.421875 31.78125 -1.421875 
Q 19.53125 -1.421875 13.0625 8.265625 
Q 6.59375 17.96875 6.59375 36.375 
Q 6.59375 54.828125 13.0625 64.515625 
Q 19.53125 74.21875 31.78125 74.21875 
z
" id="DejaVuSans-48"/>
      </defs>
      <g transform="translate(125.546023 674.318438)scale(0.1 -0.1)">
       <use xlink:href="#DejaVuSans-48"/>
      </g>
     </g>
    </g>
    <g id="xtick_2">
     <g id="line2d_3">
      <path clip-path="url(#pd5a59cebca)" d="M 356.504141 659.72 
L 356.504141 26.88 
" style="fill:none;stroke:#b0b0b0;stroke-linecap:square;stroke-width:0.8;"/>
     </g>
     <g id="line2d_4">
      <g>
       <use style="stroke:#000000;stroke-width:0.8;" x="356.504141" xlink:href="#mbab809d27b" y="659.72"/>
      </g>
     </g>
     <g id="text_2">
      <!-- 200 -->
      <defs>
       <path d="M 19.1875 8.296875 
L 53.609375 8.296875 
L 53.609375 0 
L 7.328125 0 
L 7.328125 8.296875 
Q 12.9375 14.109375 22.625 23.890625 
Q 32.328125 33.6875 34.8125 36.53125 
Q 39.546875 41.84375 41.421875 45.53125 
Q 43.3125 49.21875 43.3125 52.78125 
Q 43.3125 58.59375 39.234375 62.25 
Q 35.15625 65.921875 28.609375 65.921875 
Q 23.96875 65.921875 18.8125 64.3125 
Q 13.671875 62.703125 7.8125 59.421875 
L 7.8125 69.390625 
Q 13.765625 71.78125 18.9375 73 
Q 24.125 74.21875 28.421875 74.21875 
Q 39.75 74.21875 46.484375 68.546875 
Q 53.21875 62.890625 53.21875 53.421875 
Q 53.21875 48.921875 51.53125 44.890625 
Q 49.859375 40.875 45.40625 35.40625 
Q 44.1875 33.984375 37.640625 27.21875 
Q 31.109375 20.453125 19.1875 8.296875 
z
" id="DejaVuSans-50"/>
      </defs>
      <g transform="translate(346.960391 674.318438)scale(0.1 -0.1)">
       <use xlink:href="#DejaVuSans-50"/>
       <use x="63.623047" xlink:href="#DejaVuSans-48"/>
       <use x="127.246094" xlink:href="#DejaVuSans-48"/>
      </g>
     </g>
    </g>
    <g id="xtick_3">
     <g id="line2d_5">
      <path clip-path="url(#pd5a59cebca)" d="M 584.281008 659.72 
L 584.281008 26.88 
" style="fill:none;stroke:#b0b0b0;stroke-linecap:square;stroke-width:0.8;"/>
     </g>
     <g id="line2d_6">
      <g>
       <use style="stroke:#000000;stroke-width:0.8;" x="584.281008" xlink:href="#mbab809d27b" y="659.72"/>
      </g>
     </g>
     <g id="text_3">
      <!-- 400 -->
      <defs>
       <path d="M 37.796875 64.3125 
L 12.890625 25.390625 
L 37.796875 25.390625 
z
M 35.203125 72.90625 
L 47.609375 72.90625 
L 47.609375 25.390625 
L 58.015625 25.390625 
L 58.015625 17.1875 
L 47.609375 17.1875 
L 47.609375 0 
L 37.796875 0 
L 37.796875 17.1875 
L 4.890625 17.1875 
L 4.890625 26.703125 
z
" id="DejaVuSans-52"/>
      </defs>
      <g transform="translate(574.737258 674.318438)scale(0.1 -0.1)">
       <use xlink:href="#DejaVuSans-52"/>
       <use x="63.623047" xlink:href="#DejaVuSans-48"/>
       <use x="127.246094" xlink:href="#DejaVuSans-48"/>
      </g>
     </g>
    </g>
    <g id="xtick_4">
     <g id="line2d_7">
      <path clip-path="url(#pd5a59cebca)" d="M 812.057876 659.72 
L 812.057876 26.88 
" style="fill:none;stroke:#b0b0b0;stroke-linecap:square;stroke-width:0.8;"/>
     </g>
     <g id="line2d_8">
      <g>
       <use style="stroke:#000000;stroke-width:0.8;" x="812.057876" xlink:href="#mbab809d27b" y="659.72"/>
      </g>
     </g>
     <g id="text_4">
      <!-- 600 -->
      <defs>
       <path d="M 33.015625 40.375 
Q 26.375 40.375 22.484375 35.828125 
Q 18.609375 31.296875 18.609375 23.390625 
Q 18.609375 15.53125 22.484375 10.953125 
Q 26.375 6.390625 33.015625 6.390625 
Q 39.65625 6.390625 43.53125 10.953125 
Q 47.40625 15.53125 47.40625 23.390625 
Q 47.40625 31.296875 43.53125 35.828125 
Q 39.65625 40.375 33.015625 40.375 
z
M 52.59375 71.296875 
L 52.59375 62.3125 
Q 48.875 64.0625 45.09375 64.984375 
Q 41.3125 65.921875 37.59375 65.921875 
Q 27.828125 65.921875 22.671875 59.328125 
Q 17.53125 52.734375 16.796875 39.40625 
Q 19.671875 43.65625 24.015625 45.921875 
Q 28.375 48.1875 33.59375 48.1875 
Q 44.578125 48.1875 50.953125 41.515625 
Q 57.328125 34.859375 57.328125 23.390625 
Q 57.328125 12.15625 50.6875 5.359375 
Q 44.046875 -1.421875 33.015625 -1.421875 
Q 20.359375 -1.421875 13.671875 8.265625 
Q 6.984375 17.96875 6.984375 36.375 
Q 6.984375 53.65625 15.1875 63.9375 
Q 23.390625 74.21875 37.203125 74.21875 
Q 40.921875 74.21875 44.703125 73.484375 
Q 48.484375 72.75 52.59375 71.296875 
z
" id="DejaVuSans-54"/>
      </defs>
      <g transform="translate(802.514126 674.318438)scale(0.1 -0.1)">
       <use xlink:href="#DejaVuSans-54"/>
       <use x="63.623047" xlink:href="#DejaVuSans-48"/>
       <use x="127.246094" xlink:href="#DejaVuSans-48"/>
      </g>
     </g>
    </g>
    <g id="xtick_5">
     <g id="line2d_9">
      <path clip-path="url(#pd5a59cebca)" d="M 1039.834744 659.72 
L 1039.834744 26.88 
" style="fill:none;stroke:#b0b0b0;stroke-linecap:square;stroke-width:0.8;"/>
     </g>
     <g id="line2d_10">
      <g>
       <use style="stroke:#000000;stroke-width:0.8;" x="1039.834744" xlink:href="#mbab809d27b" y="659.72"/>
      </g>
     </g>
     <g id="text_5">
      <!-- 800 -->
      <defs>
       <path d="M 31.78125 34.625 
Q 24.75 34.625 20.71875 30.859375 
Q 16.703125 27.09375 16.703125 20.515625 
Q 16.703125 13.921875 20.71875 10.15625 
Q 24.75 6.390625 31.78125 6.390625 
Q 38.8125 6.390625 42.859375 10.171875 
Q 46.921875 13.96875 46.921875 20.515625 
Q 46.921875 27.09375 42.890625 30.859375 
Q 38.875 34.625 31.78125 34.625 
z
M 21.921875 38.8125 
Q 15.578125 40.375 12.03125 44.71875 
Q 8.5 49.078125 8.5 55.328125 
Q 8.5 64.0625 14.71875 69.140625 
Q 20.953125 74.21875 31.78125 74.21875 
Q 42.671875 74.21875 48.875 69.140625 
Q 55.078125 64.0625 55.078125 55.328125 
Q 55.078125 49.078125 51.53125 44.71875 
Q 48 40.375 41.703125 38.8125 
Q 48.828125 37.15625 52.796875 32.3125 
Q 56.78125 27.484375 56.78125 20.515625 
Q 56.78125 9.90625 50.3125 4.234375 
Q 43.84375 -1.421875 31.78125 -1.421875 
Q 19.734375 -1.421875 13.25 4.234375 
Q 6.78125 9.90625 6.78125 20.515625 
Q 6.78125 27.484375 10.78125 32.3125 
Q 14.796875 37.15625 21.921875 38.8125 
z
M 18.3125 54.390625 
Q 18.3125 48.734375 21.84375 45.5625 
Q 25.390625 42.390625 31.78125 42.390625 
Q 38.140625 42.390625 41.71875 45.5625 
Q 45.3125 48.734375 45.3125 54.390625 
Q 45.3125 60.0625 41.71875 63.234375 
Q 38.140625 66.40625 31.78125 66.40625 
Q 25.390625 66.40625 21.84375 63.234375 
Q 18.3125 60.0625 18.3125 54.390625 
z
" id="DejaVuSans-56"/>
      </defs>
      <g transform="translate(1030.290994 674.318438)scale(0.1 -0.1)">
       <use xlink:href="#DejaVuSans-56"/>
       <use x="63.623047" xlink:href="#DejaVuSans-48"/>
       <use x="127.246094" xlink:href="#DejaVuSans-48"/>
      </g>
     </g>
    </g>
    <g id="xtick_6">
     <g id="line2d_11">
      <path clip-path="url(#pd5a59cebca)" d="M 1267.611612 659.72 
L 1267.611612 26.88 
" style="fill:none;stroke:#b0b0b0;stroke-linecap:square;stroke-width:0.8;"/>
     </g>
     <g id="line2d_12">
      <g>
       <use style="stroke:#000000;stroke-width:0.8;" x="1267.611612" xlink:href="#mbab809d27b" y="659.72"/>
      </g>
     </g>
     <g id="text_6">
      <!-- 1000 -->
      <defs>
       <path d="M 12.40625 8.296875 
L 28.515625 8.296875 
L 28.515625 63.921875 
L 10.984375 60.40625 
L 10.984375 69.390625 
L 28.421875 72.90625 
L 38.28125 72.90625 
L 38.28125 8.296875 
L 54.390625 8.296875 
L 54.390625 0 
L 12.40625 0 
z
" id="DejaVuSans-49"/>
      </defs>
      <g transform="translate(1254.886612 674.318438)scale(0.1 -0.1)">
       <use xlink:href="#DejaVuSans-49"/>
       <use x="63.623047" xlink:href="#DejaVuSans-48"/>
       <use x="127.246094" xlink:href="#DejaVuSans-48"/>
       <use x="190.869141" xlink:href="#DejaVuSans-48"/>
      </g>
     </g>
    </g>
   </g>
   <g id="matplotlib.axis_2">
    <g id="ytick_1">
     <g id="line2d_13">
      <path clip-path="url(#pd5a59cebca)" d="M 71.84 658.10371 
L 1323.36 658.10371 
" style="fill:none;stroke:#b0b0b0;stroke-linecap:square;stroke-width:0.8;"/>
     </g>
     <g id="line2d_14">
      <defs>
       <path d="M 0 0 
L -3.5 0 
" id="mbc4814b2bb" style="stroke:#000000;stroke-width:0.8;"/>
      </defs>
      <g>
       <use style="stroke:#000000;stroke-width:0.8;" x="71.84" xlink:href="#mbc4814b2bb" y="658.10371"/>
      </g>
     </g>
     <g id="text_7">
      <!-- −30000 -->
      <defs>
       <path d="M 10.59375 35.5 
L 73.1875 35.5 
L 73.1875 27.203125 
L 10.59375 27.203125 
z
" id="DejaVuSans-8722"/>
       <path d="M 40.578125 39.3125 
Q 47.65625 37.796875 51.625 33 
Q 55.609375 28.21875 55.609375 21.1875 
Q 55.609375 10.40625 48.1875 4.484375 
Q 40.765625 -1.421875 27.09375 -1.421875 
Q 22.515625 -1.421875 17.65625 -0.515625 
Q 12.796875 0.390625 7.625 2.203125 
L 7.625 11.71875 
Q 11.71875 9.328125 16.59375 8.109375 
Q 21.484375 6.890625 26.8125 6.890625 
Q 36.078125 6.890625 40.9375 10.546875 
Q 45.796875 14.203125 45.796875 21.1875 
Q 45.796875 27.640625 41.28125 31.265625 
Q 36.765625 34.90625 28.71875 34.90625 
L 20.21875 34.90625 
L 20.21875 43.015625 
L 29.109375 43.015625 
Q 36.375 43.015625 40.234375 45.921875 
Q 44.09375 48.828125 44.09375 54.296875 
Q 44.09375 59.90625 40.109375 62.90625 
Q 36.140625 65.921875 28.71875 65.921875 
Q 24.65625 65.921875 20.015625 65.03125 
Q 15.375 64.15625 9.8125 62.3125 
L 9.8125 71.09375 
Q 15.4375 72.65625 20.34375 73.4375 
Q 25.25 74.21875 29.59375 74.21875 
Q 40.828125 74.21875 47.359375 69.109375 
Q 53.90625 64.015625 53.90625 55.328125 
Q 53.90625 49.265625 50.4375 45.09375 
Q 46.96875 40.921875 40.578125 39.3125 
z
" id="DejaVuSans-51"/>
      </defs>
      <g transform="translate(24.647812 661.902929)scale(0.1 -0.1)">
       <use xlink:href="#DejaVuSans-8722"/>
       <use x="83.789062" xlink:href="#DejaVuSans-51"/>
       <use x="147.412109" xlink:href="#DejaVuSans-48"/>
       <use x="211.035156" xlink:href="#DejaVuSans-48"/>
       <use x="274.658203" xlink:href="#DejaVuSans-48"/>
       <use x="338.28125" xlink:href="#DejaVuSans-48"/>
      </g>
     </g>
    </g>
    <g id="ytick_2">
     <g id="line2d_15">
      <path clip-path="url(#pd5a59cebca)" d="M 71.84 550.454828 
L 1323.36 550.454828 
" style="fill:none;stroke:#b0b0b0;stroke-linecap:square;stroke-width:0.8;"/>
     </g>
     <g id="line2d_16">
      <g>
       <use style="stroke:#000000;stroke-width:0.8;" x="71.84" xlink:href="#mbc4814b2bb" y="550.454828"/>
      </g>
     </g>
     <g id="text_8">
      <!-- −20000 -->
      <g transform="translate(24.647812 554.254047)scale(0.1 -0.1)">
       <use xlink:href="#DejaVuSans-8722"/>
       <use x="83.789062" xlink:href="#DejaVuSans-50"/>
       <use x="147.412109" xlink:href="#DejaVuSans-48"/>
       <use x="211.035156" xlink:href="#DejaVuSans-48"/>
       <use x="274.658203" xlink:href="#DejaVuSans-48"/>
       <use x="338.28125" xlink:href="#DejaVuSans-48"/>
      </g>
     </g>
    </g>
    <g id="ytick_3">
     <g id="line2d_17">
      <path clip-path="url(#pd5a59cebca)" d="M 71.84 442.805947 
L 1323.36 442.805947 
" style="fill:none;stroke:#b0b0b0;stroke-linecap:square;stroke-width:0.8;"/>
     </g>
     <g id="line2d_18">
      <g>
       <use style="stroke:#000000;stroke-width:0.8;" x="71.84" xlink:href="#mbc4814b2bb" y="442.805947"/>
      </g>
     </g>
     <g id="text_9">
      <!-- −10000 -->
      <g transform="translate(24.647812 446.605166)scale(0.1 -0.1)">
       <use xlink:href="#DejaVuSans-8722"/>
       <use x="83.789062" xlink:href="#DejaVuSans-49"/>
       <use x="147.412109" xlink:href="#DejaVuSans-48"/>
       <use x="211.035156" xlink:href="#DejaVuSans-48"/>
       <use x="274.658203" xlink:href="#DejaVuSans-48"/>
       <use x="338.28125" xlink:href="#DejaVuSans-48"/>
      </g>
     </g>
    </g>
    <g id="ytick_4">
     <g id="line2d_19">
      <path clip-path="url(#pd5a59cebca)" d="M 71.84 335.157066 
L 1323.36 335.157066 
" style="fill:none;stroke:#b0b0b0;stroke-linecap:square;stroke-width:0.8;"/>
     </g>
     <g id="line2d_20">
      <g>
       <use style="stroke:#000000;stroke-width:0.8;" x="71.84" xlink:href="#mbc4814b2bb" y="335.157066"/>
      </g>
     </g>
     <g id="text_10">
      <!-- 0 -->
      <g transform="translate(58.4775 338.956284)scale(0.1 -0.1)">
       <use xlink:href="#DejaVuSans-48"/>
      </g>
     </g>
    </g>
    <g id="ytick_5">
     <g id="line2d_21">
      <path clip-path="url(#pd5a59cebca)" d="M 71.84 227.508184 
L 1323.36 227.508184 
" style="fill:none;stroke:#b0b0b0;stroke-linecap:square;stroke-width:0.8;"/>
     </g>
     <g id="line2d_22">
      <g>
       <use style="stroke:#000000;stroke-width:0.8;" x="71.84" xlink:href="#mbc4814b2bb" y="227.508184"/>
      </g>
     </g>
     <g id="text_11">
      <!-- 10000 -->
      <g transform="translate(33.0275 231.307403)scale(0.1 -0.1)">
       <use xlink:href="#DejaVuSans-49"/>
       <use x="63.623047" xlink:href="#DejaVuSans-48"/>
       <use x="127.246094" xlink:href="#DejaVuSans-48"/>
       <use x="190.869141" xlink:href="#DejaVuSans-48"/>
       <use x="254.492188" xlink:href="#DejaVuSans-48"/>
      </g>
     </g>
    </g>
    <g id="ytick_6">
     <g id="line2d_23">
      <path clip-path="url(#pd5a59cebca)" d="M 71.84 119.859303 
L 1323.36 119.859303 
" style="fill:none;stroke:#b0b0b0;stroke-linecap:square;stroke-width:0.8;"/>
     </g>
     <g id="line2d_24">
      <g>
       <use style="stroke:#000000;stroke-width:0.8;" x="71.84" xlink:href="#mbc4814b2bb" y="119.859303"/>
      </g>
     </g>
     <g id="text_12">
      <!-- 20000 -->
      <g transform="translate(33.0275 123.658521)scale(0.1 -0.1)">
       <use xlink:href="#DejaVuSans-50"/>
       <use x="63.623047" xlink:href="#DejaVuSans-48"/>
       <use x="127.246094" xlink:href="#DejaVuSans-48"/>
       <use x="190.869141" xlink:href="#DejaVuSans-48"/>
       <use x="254.492188" xlink:href="#DejaVuSans-48"/>
      </g>
     </g>
    </g>
    <g id="text_13">
     <!-- count -->
     <defs>
      <path d="M 48.78125 52.59375 
L 48.78125 44.1875 
Q 44.96875 46.296875 41.140625 47.34375 
Q 37.3125 48.390625 33.40625 48.390625 
Q 24.65625 48.390625 19.8125 42.84375 
Q 14.984375 37.3125 14.984375 27.296875 
Q 14.984375 17.28125 19.8125 11.734375 
Q 24.65625 6.203125 33.40625 6.203125 
Q 37.3125 6.203125 41.140625 7.25 
Q 44.96875 8.296875 48.78125 10.40625 
L 48.78125 2.09375 
Q 45.015625 0.34375 40.984375 -0.53125 
Q 36.96875 -1.421875 32.421875 -1.421875 
Q 20.0625 -1.421875 12.78125 6.34375 
Q 5.515625 14.109375 5.515625 27.296875 
Q 5.515625 40.671875 12.859375 48.328125 
Q 20.21875 56 33.015625 56 
Q 37.15625 56 41.109375 55.140625 
Q 45.0625 54.296875 48.78125 52.59375 
z
" id="DejaVuSans-99"/>
      <path d="M 30.609375 48.390625 
Q 23.390625 48.390625 19.1875 42.75 
Q 14.984375 37.109375 14.984375 27.296875 
Q 14.984375 17.484375 19.15625 11.84375 
Q 23.34375 6.203125 30.609375 6.203125 
Q 37.796875 6.203125 41.984375 11.859375 
Q 46.1875 17.53125 46.1875 27.296875 
Q 46.1875 37.015625 41.984375 42.703125 
Q 37.796875 48.390625 30.609375 48.390625 
z
M 30.609375 56 
Q 42.328125 56 49.015625 48.375 
Q 55.71875 40.765625 55.71875 27.296875 
Q 55.71875 13.875 49.015625 6.21875 
Q 42.328125 -1.421875 30.609375 -1.421875 
Q 18.84375 -1.421875 12.171875 6.21875 
Q 5.515625 13.875 5.515625 27.296875 
Q 5.515625 40.765625 12.171875 48.375 
Q 18.84375 56 30.609375 56 
z
" id="DejaVuSans-111"/>
      <path d="M 8.5 21.578125 
L 8.5 54.6875 
L 17.484375 54.6875 
L 17.484375 21.921875 
Q 17.484375 14.15625 20.5 10.265625 
Q 23.53125 6.390625 29.59375 6.390625 
Q 36.859375 6.390625 41.078125 11.03125 
Q 45.3125 15.671875 45.3125 23.6875 
L 45.3125 54.6875 
L 54.296875 54.6875 
L 54.296875 0 
L 45.3125 0 
L 45.3125 8.40625 
Q 42.046875 3.421875 37.71875 1 
Q 33.40625 -1.421875 27.6875 -1.421875 
Q 18.265625 -1.421875 13.375 4.4375 
Q 8.5 10.296875 8.5 21.578125 
z
M 31.109375 56 
z
" id="DejaVuSans-117"/>
      <path d="M 54.890625 33.015625 
L 54.890625 0 
L 45.90625 0 
L 45.90625 32.71875 
Q 45.90625 40.484375 42.875 44.328125 
Q 39.84375 48.1875 33.796875 48.1875 
Q 26.515625 48.1875 22.3125 43.546875 
Q 18.109375 38.921875 18.109375 30.90625 
L 18.109375 0 
L 9.078125 0 
L 9.078125 54.6875 
L 18.109375 54.6875 
L 18.109375 46.1875 
Q 21.34375 51.125 25.703125 53.5625 
Q 30.078125 56 35.796875 56 
Q 45.21875 56 50.046875 50.171875 
Q 54.890625 44.34375 54.890625 33.015625 
z
" id="DejaVuSans-110"/>
      <path d="M 18.3125 70.21875 
L 18.3125 54.6875 
L 36.8125 54.6875 
L 36.8125 47.703125 
L 18.3125 47.703125 
L 18.3125 18.015625 
Q 18.3125 11.328125 20.140625 9.421875 
Q 21.96875 7.515625 27.59375 7.515625 
L 36.8125 7.515625 
L 36.8125 0 
L 27.59375 0 
Q 17.1875 0 13.234375 3.875 
Q 9.28125 7.765625 9.28125 18.015625 
L 9.28125 47.703125 
L 2.6875 47.703125 
L 2.6875 54.6875 
L 9.28125 54.6875 
L 9.28125 70.21875 
z
" id="DejaVuSans-116"/>
     </defs>
     <g transform="translate(18.568125 357.40625)rotate(-90)scale(0.1 -0.1)">
      <use xlink:href="#DejaVuSans-99"/>
      <use x="54.980469" xlink:href="#DejaVuSans-111"/>
      <use x="116.162109" xlink:href="#DejaVuSans-117"/>
      <use x="179.541016" xlink:href="#DejaVuSans-110"/>
      <use x="242.919922" xlink:href="#DejaVuSans-116"/>
     </g>
    </g>
   </g>
   <g id="line2d_25">
    <path clip-path="url(#pd5a59cebca)" d="M 128.727273 309.692906 
L 129.866157 303.638973 
L 131.005041 302.68034 
L 132.143926 328.096993 
L 133.28281 367.396156 
L 134.421694 368.516013 
L 135.560579 371.468227 
L 136.699463 384.55764 
L 137.838347 377.343435 
L 138.977232 374.639947 
L 140.116116 347.054259 
L 141.255 302.266731 
L 142.393885 285.619042 
L 143.532769 282.0741 
L 144.671653 280.218786 
L 145.810538 279.735044 
L 146.949422 307.624909 
L 148.088306 356.275189 
L 149.227191 386.602208 
L 150.366075 384.144422 
L 151.50496 365.433362 
L 152.643844 352.193567 
L 153.782728 337.234306 
L 154.921613 345.515127 
L 156.060497 344.152058 
L 157.199381 322.444149 
L 158.338266 329.338072 
L 159.47715 361.671853 
L 160.616034 365.647968 
L 161.754919 335.635882 
L 162.893803 339.188458 
L 164.032687 343.281332 
L 165.171572 335.049687 
L 166.310456 328.344782 
L 167.44934 341.673823 
L 168.588225 362.066876 
L 169.727109 346.735895 
L 170.865993 350.966326 
L 172.004878 343.964802 
L 173.143762 330.492497 
L 174.282646 334.613326 
L 175.421531 322.653744 
L 176.560415 319.177954 
L 177.699299 328.435564 
L 178.838184 361.616562 
L 179.977068 375.137963 
L 181.115952 351.900558 
L 182.254837 354.693022 
L 183.393721 358.994593 
L 184.532605 355.234092 
L 185.67149 357.366176 
L 186.810374 341.478582 
L 187.949258 338.511525 
L 189.088143 344.173376 
L 190.227027 334.917033 
L 191.365911 338.825759 
L 192.504796 351.659933 
L 193.64368 356.212797 
L 194.782564 350.356117 
L 195.921449 353.744581 
L 197.060333 363.758523 
L 198.199217 350.86651 
L 199.338102 342.21506 
L 200.476986 322.200328 
L 201.61587 294.281596 
L 202.754755 309.643857 
L 203.893639 310.374943 
L 205.032523 312.143298 
L 207.310292 377.578314 
L 208.449176 390.077637 
L 209.588061 360.790861 
L 210.726945 361.461561 
L 211.865829 360.115183 
L 213.004714 325.768808 
L 214.143598 325.416224 
L 215.282482 328.689901 
L 216.421367 324.944949 
L 217.560251 322.638232 
L 218.699135 331.329318 
L 219.83802 336.913077 
L 220.976904 337.019557 
L 222.115789 336.527403 
L 223.254673 327.185738 
L 224.393557 325.688673 
L 225.532442 327.91843 
L 226.671326 332.694513 
L 227.81021 315.025453 
L 228.949095 304.618854 
L 230.087979 320.539974 
L 231.226863 330.150638 
L 232.365748 335.471062 
L 233.504632 332.612986 
L 234.643516 335.470926 
L 235.782401 346.294322 
L 236.921285 360.446585 
L 238.060169 352.164606 
L 239.199054 325.640185 
L 240.337938 320.944061 
L 241.476822 311.651532 
L 242.615707 293.553198 
L 243.754591 291.56407 
L 244.893475 304.063705 
L 247.171244 350.198997 
L 248.310128 363.189246 
L 249.449013 351.039207 
L 250.587897 323.388479 
L 251.726781 318.048973 
L 252.865666 318.683207 
L 255.143434 277.187099 
L 256.282319 287.259188 
L 257.421203 316.569509 
L 258.560087 325.373877 
L 259.698972 335.752862 
L 260.837856 355.931174 
L 261.97674 358.323912 
L 263.115625 352.48422 
L 264.254509 343.27692 
L 265.393393 330.423808 
L 266.532278 309.623028 
L 267.671162 291.446103 
L 268.810046 292.454329 
L 269.948931 282.006161 
L 271.087815 264.554476 
L 272.226699 268.651644 
L 273.365584 311.834992 
L 274.504468 343.175229 
L 275.643352 346.063266 
L 276.782237 375.29647 
L 277.921121 386.993261 
L 279.060005 384.001066 
L 280.19889 379.407939 
L 281.337774 352.98875 
L 282.476658 314.389459 
L 283.615543 291.323972 
L 284.754427 301.898192 
L 285.893311 285.813641 
L 287.032196 253.216743 
L 288.17108 273.279056 
L 289.309965 323.205331 
L 290.448849 353.419539 
L 291.587733 354.207007 
L 292.726618 353.563647 
L 293.865502 376.188492 
L 295.004386 372.171478 
L 296.143271 334.898952 
L 297.282155 313.446306 
L 298.421039 296.036027 
L 299.559924 299.384367 
L 300.698808 315.840622 
L 301.837692 308.512836 
L 302.976577 320.319902 
L 304.115461 378.265759 
L 305.254345 405.7278 
L 306.39323 375.931237 
L 307.532114 358.779384 
L 308.670998 345.665779 
L 310.948767 305.204716 
L 312.087651 291.005417 
L 313.226536 298.69216 
L 314.36542 303.272154 
L 315.504304 323.375291 
L 316.643189 355.164437 
L 317.782073 360.503938 
L 318.920957 359.560703 
L 320.059842 382.28422 
L 321.198726 391.310712 
L 322.33761 361.99089 
L 323.476495 343.041377 
L 324.615379 340.776805 
L 328.032032 313.951296 
L 329.170916 307.250437 
L 330.309801 313.649431 
L 331.448685 325.086748 
L 332.587569 344.729372 
L 334.865338 398.463318 
L 336.004222 405.528682 
L 337.143107 396.657689 
L 338.281991 392.309717 
L 340.55976 333.425567 
L 341.698644 307.083909 
L 342.837528 293.289386 
L 343.976413 306.956706 
L 345.115297 314.448671 
L 346.254181 338.273184 
L 347.393066 366.262682 
L 348.53195 386.746224 
L 349.670834 374.328424 
L 350.809719 374.88303 
L 351.948603 391.283845 
L 354.226372 332.942718 
L 355.365256 339.219664 
L 356.504141 370.018658 
L 357.643025 385.201379 
L 358.781909 381.631806 
L 362.198562 329.659566 
L 363.337447 314.359194 
L 364.476331 294.925369 
L 365.615215 287.958293 
L 366.7541 337.291843 
L 367.892984 396.139012 
L 369.031868 422.946433 
L 370.170753 416.976662 
L 371.309637 399.517382 
L 372.448521 374.623223 
L 373.587406 327.976028 
L 374.72629 303.868715 
L 375.865174 295.878235 
L 377.004059 268.923952 
L 378.142943 295.88577 
L 379.281827 361.294411 
L 380.420712 387.892944 
L 381.559596 401.425091 
L 382.69848 402.570208 
L 383.837365 392.045181 
L 384.976249 379.551098 
L 386.115133 351.857408 
L 388.392902 278.149079 
L 389.531786 273.399861 
L 390.670671 308.005605 
L 392.948439 357.390044 
L 394.087324 375.196565 
L 395.226208 371.606646 
L 396.365092 387.818347 
L 397.503977 371.124756 
L 398.642861 332.816425 
L 399.781745 313.365124 
L 400.92063 298.649155 
L 402.059514 296.677466 
L 403.198398 308.20444 
L 404.337283 322.103164 
L 405.476167 315.786874 
L 407.753936 369.635789 
L 408.89282 365.398387 
L 410.031704 377.523869 
L 411.170589 392.123548 
L 412.309473 363.457794 
L 413.448357 288.23747 
L 414.587242 258.896825 
L 415.726126 255.744932 
L 416.86501 228.738629 
L 418.003895 242.359654 
L 419.142779 325.045574 
L 420.281663 393.25722 
L 421.420548 406.317106 
L 422.559432 423.119833 
L 423.698316 406.323369 
L 425.976085 290.016726 
L 427.11497 268.553235 
L 428.253854 265.72312 
L 429.392738 249.454038 
L 430.531623 278.85544 
L 431.670507 312.43987 
L 432.809391 352.267807 
L 433.948276 376.746665 
L 435.08716 351.604138 
L 436.226044 332.103233 
L 437.364929 330.779505 
L 438.503813 333.00468 
L 439.642697 300.021554 
L 440.781582 276.211778 
L 441.920466 286.918671 
L 443.05935 301.699224 
L 444.198235 330.421368 
L 445.337119 347.670529 
L 446.476003 339.183953 
L 447.614888 327.474357 
L 448.753772 332.189861 
L 449.892656 341.847758 
L 451.031541 310.017362 
L 452.170425 274.801718 
L 453.309309 278.253243 
L 454.448194 286.399471 
L 455.587078 297.337416 
L 456.725962 319.580647 
L 457.864847 346.059681 
L 459.003731 345.786788 
L 460.142615 340.170064 
L 461.2815 349.07112 
L 462.420384 344.207955 
L 463.559268 330.994257 
L 464.698153 329.075135 
L 465.837037 315.52037 
L 466.975921 291.87796 
L 468.114806 304.508818 
L 469.25369 312.830811 
L 470.392574 307.511775 
L 471.531459 303.323041 
L 472.670343 299.775125 
L 473.809227 312.786713 
L 474.948112 321.272322 
L 476.086996 319.433009 
L 477.22588 331.504068 
L 478.364765 351.089035 
L 479.503649 339.367504 
L 480.642533 349.341261 
L 481.781418 383.735151 
L 482.920302 370.399876 
L 484.059186 330.623156 
L 485.198071 298.393823 
L 486.336955 310.739429 
L 487.475839 314.35643 
L 488.614724 300.682706 
L 489.753608 345.999751 
L 490.892492 360.293781 
L 492.031377 322.649466 
L 493.170261 314.980689 
L 494.309146 322.122638 
L 495.44803 309.049947 
L 496.586914 307.450165 
L 500.003567 373.655735 
L 501.142452 379.602814 
L 502.281336 386.247213 
L 503.42022 384.879189 
L 504.559105 368.57832 
L 505.697989 341.192344 
L 506.836873 302.394881 
L 507.975758 287.171397 
L 509.114642 299.756331 
L 510.253526 308.83161 
L 511.392411 309.189995 
L 512.531295 306.937308 
L 513.670179 327.002406 
L 514.809064 361.728201 
L 515.947948 378.345584 
L 517.086832 390.604 
L 518.225717 395.301802 
L 519.364601 398.271756 
L 520.503485 389.85715 
L 521.64237 362.011206 
L 522.781254 313.311241 
L 523.920138 272.010854 
L 525.059023 287.113518 
L 526.197907 291.197563 
L 527.336791 302.725203 
L 528.475676 365.100333 
L 529.61456 410.642408 
L 530.753444 419.284647 
L 531.892329 405.726404 
L 533.031213 388.016215 
L 535.308982 327.298758 
L 536.447866 313.189636 
L 537.58675 301.475817 
L 538.725635 301.108605 
L 539.864519 309.275631 
L 541.003403 348.284609 
L 542.142288 393.906188 
L 543.281172 384.42984 
L 544.420056 365.904688 
L 545.558941 377.612932 
L 546.697825 361.228906 
L 547.836709 332.049287 
L 548.975594 322.981101 
L 550.114478 307.180877 
L 551.253362 313.96416 
L 552.392247 341.221285 
L 553.531131 360.436423 
L 554.670015 357.023089 
L 555.8089 358.166754 
L 556.947784 401.81022 
L 558.086668 416.824766 
L 559.225553 385.033872 
L 561.503322 308.183751 
L 562.642206 282.634684 
L 563.78109 278.068751 
L 566.058859 289.716273 
L 568.336628 391.338773 
L 570.614396 423.360701 
L 571.753281 398.293801 
L 574.031049 322.89679 
L 575.169934 315.188367 
L 576.308818 345.966484 
L 577.447702 303.808106 
L 578.586587 284.82022 
L 579.725471 324.004433 
L 580.864355 336.089106 
L 582.00324 338.706595 
L 583.142124 316.615821 
L 584.281008 315.579504 
L 585.419893 341.229526 
L 587.697661 407.27772 
L 588.836546 385.741489 
L 589.97543 366.651584 
L 591.114314 356.165561 
L 592.253199 301.99486 
L 593.392083 260.348773 
L 594.530967 266.86023 
L 595.669852 291.262071 
L 596.808736 306.023794 
L 597.94762 337.774878 
L 599.086505 394.220178 
L 600.225389 394.74994 
L 601.364273 363.429202 
L 602.503158 346.033661 
L 603.642042 321.928255 
L 604.780926 310.477906 
L 605.919811 315.378133 
L 607.058695 319.070195 
L 608.197579 302.995942 
L 609.336464 295.843775 
L 610.475348 303.143126 
L 611.614232 308.412001 
L 612.753117 315.070246 
L 613.892001 331.244723 
L 615.030885 357.54079 
L 616.16977 373.274889 
L 617.308654 371.652929 
L 618.447538 349.889945 
L 619.586423 320.370661 
L 620.725307 295.105143 
L 621.864191 287.037059 
L 623.003076 286.550672 
L 624.14196 289.578725 
L 625.280844 305.579303 
L 627.558613 365.511047 
L 628.697497 375.817298 
L 629.836382 367.035884 
L 630.975266 339.120751 
L 632.114151 321.931968 
L 633.253035 310.483339 
L 634.391919 289.929027 
L 635.530804 278.957785 
L 637.808572 268.579744 
L 638.947457 287.666607 
L 640.086341 325.425545 
L 641.225225 352.789871 
L 642.36411 364.934312 
L 644.641878 384.936832 
L 645.780763 383.306435 
L 646.919647 359.825501 
L 648.058531 312.225907 
L 649.197416 277.782567 
L 650.3363 267.917514 
L 651.475184 271.633958 
L 652.614069 274.163817 
L 653.752953 281.01922 
L 654.891837 312.166721 
L 657.169606 389.984515 
L 658.30849 399.145516 
L 659.447375 380.529935 
L 660.586259 366.231006 
L 661.725143 335.308145 
L 662.864028 297.972409 
L 664.002912 285.933697 
L 665.141796 279.584903 
L 666.280681 275.653703 
L 668.558449 321.565799 
L 669.697334 346.216545 
L 670.836218 377.808373 
L 671.975102 384.257295 
L 673.113987 368.712194 
L 675.391755 311.600463 
L 676.53064 301.95721 
L 677.669524 275.807504 
L 678.808408 254.051875 
L 679.947293 289.190513 
L 681.086177 329.161965 
L 682.225061 362.331125 
L 683.363946 390.34029 
L 684.50283 405.536574 
L 685.641714 395.798047 
L 686.780599 362.295102 
L 687.919483 352.301263 
L 689.058367 315.820714 
L 690.197252 260.78112 
L 691.336136 271.32092 
L 692.47502 311.344996 
L 694.752789 337.353817 
L 695.891673 368.524361 
L 697.030558 389.894189 
L 698.169442 388.361947 
L 699.308327 369.08388 
L 700.447211 339.357066 
L 701.586095 322.937704 
L 702.72498 330.248377 
L 703.863864 326.399034 
L 705.002748 306.986969 
L 706.141633 306.952062 
L 707.280517 340.027994 
L 708.419401 349.098176 
L 709.558286 336.108696 
L 710.69717 349.114482 
L 711.836054 364.713032 
L 712.974939 374.848847 
L 714.113823 359.763257 
L 715.252707 350.268573 
L 716.391592 364.932691 
L 718.66936 319.103279 
L 719.808245 348.60869 
L 720.947129 347.292797 
L 722.086013 327.885165 
L 723.224898 365.340582 
L 724.363782 370.81936 
L 725.502666 334.221766 
L 726.641551 342.733779 
L 727.780435 373.470903 
L 728.919319 348.839555 
L 730.058204 318.326214 
L 731.197088 350.577571 
L 732.335972 377.512304 
L 734.613741 311.831147 
L 735.752625 332.549792 
L 736.89151 323.363527 
L 738.030394 309.228735 
L 739.169278 345.05043 
L 740.308163 367.130289 
L 741.447047 361.498587 
L 742.585931 373.243705 
L 743.724816 422.087547 
L 744.8637 401.672045 
L 746.002584 327.545539 
L 747.141469 305.196681 
L 748.280353 325.160248 
L 749.419237 318.020794 
L 750.558122 278.949938 
L 752.83589 345.918672 
L 753.974775 333.60147 
L 755.113659 355.400654 
L 756.252543 361.024478 
L 757.391428 341.472341 
L 758.530312 342.213514 
L 759.669196 365.377066 
L 760.808081 357.818421 
L 761.946965 344.392249 
L 763.085849 361.500923 
L 764.224734 340.947366 
L 765.363618 328.223513 
L 766.502503 316.92004 
L 767.641387 293.569529 
L 768.780271 302.287489 
L 769.919156 306.357224 
L 771.05804 338.288659 
L 772.196924 360.726108 
L 773.335809 359.340081 
L 774.474693 382.956321 
L 775.613577 389.582133 
L 776.752462 350.895401 
L 777.891346 302.489307 
L 779.03023 292.399031 
L 780.169115 266.899776 
L 781.307999 255.042054 
L 783.585768 323.769639 
L 784.724652 363.76439 
L 785.863536 385.901211 
L 787.002421 393.551294 
L 788.141305 383.726084 
L 789.280189 371.333347 
L 790.419074 351.718248 
L 791.557958 305.163003 
L 792.696842 275.64105 
L 793.835727 265.890205 
L 794.974611 270.406065 
L 796.113495 281.8107 
L 797.25238 310.052419 
L 798.391264 347.55164 
L 800.669033 388.605504 
L 801.807917 389.271276 
L 802.946801 353.914572 
L 804.085686 322.422578 
L 806.363454 290.081492 
L 807.502339 276.933115 
L 808.641223 283.906146 
L 810.918992 340.142108 
L 812.057876 357.905973 
L 813.19676 360.39755 
L 814.335645 359.037214 
L 815.474529 330.377588 
L 816.613413 290.691792 
L 818.891182 324.882126 
L 820.030066 320.684858 
L 821.168951 326.00423 
L 822.307835 345.983696 
L 823.446719 377.523447 
L 825.724488 330.588163 
L 826.863372 335.818515 
L 828.002257 307.481374 
L 829.141141 310.679671 
L 830.280025 329.059395 
L 831.41891 310.750384 
L 832.557794 308.095334 
L 833.696678 358.352555 
L 834.835563 383.37167 
L 835.974447 355.341482 
L 837.113332 349.408004 
L 838.252216 341.266887 
L 839.3911 299.637962 
L 840.529985 268.618905 
L 842.807753 333.950535 
L 843.946638 330.887676 
L 845.085522 347.201242 
L 846.224406 372.228288 
L 847.363291 383.393457 
L 848.502175 364.353926 
L 849.641059 338.968851 
L 850.779944 332.659816 
L 851.918828 350.066363 
L 853.057712 357.564227 
L 854.196597 339.362678 
L 855.335481 332.899115 
L 856.474365 334.387932 
L 857.61325 334.25262 
L 858.752134 315.814186 
L 859.891018 315.805397 
L 861.029903 337.856248 
L 862.168787 320.966556 
L 863.307671 320.643115 
L 864.446556 355.740542 
L 865.58544 381.286851 
L 866.724324 385.525928 
L 867.863209 371.44154 
L 869.002093 391.384168 
L 870.140977 390.469869 
L 871.279862 338.715772 
L 872.418746 315.201389 
L 873.55763 298.832627 
L 874.696515 305.928408 
L 875.835399 332.158439 
L 876.974283 327.162084 
L 878.113168 324.1537 
L 880.390936 384.880674 
L 881.529821 388.503991 
L 883.807589 376.096836 
L 884.946474 381.910091 
L 886.085358 356.49367 
L 887.224242 327.280156 
L 888.363127 309.010706 
L 889.502011 285.690146 
L 890.640895 303.590667 
L 891.77978 330.841585 
L 892.918664 352.046909 
L 894.057548 368.852023 
L 895.196433 383.243205 
L 896.335317 394.612861 
L 897.474201 397.916341 
L 898.613086 390.605913 
L 899.75197 359.06036 
L 902.029739 328.60236 
L 903.168623 293.588004 
L 904.307508 284.155671 
L 905.446392 290.684234 
L 906.585276 327.109642 
L 907.724161 384.525895 
L 908.863045 415.71488 
L 910.001929 433.219053 
L 911.140814 409.588374 
L 912.279698 359.28426 
L 913.418582 319.07231 
L 914.557467 287.355868 
L 915.696351 263.676261 
L 916.835235 255.210017 
L 917.97412 303.712392 
L 919.113004 357.292405 
L 920.251888 387.525793 
L 921.390773 402.09729 
L 922.529657 409.542298 
L 923.668541 402.589291 
L 924.807426 358.483745 
L 925.94631 320.320216 
L 927.085194 295.99622 
L 928.224079 299.871352 
L 929.362963 304.622356 
L 930.501847 328.263223 
L 931.640732 371.272589 
L 932.779616 371.63523 
L 933.9185 355.518652 
L 935.057385 332.147056 
L 936.196269 313.775739 
L 937.335153 291.45302 
L 938.474038 281.086429 
L 939.612922 309.182421 
L 940.751806 340.342956 
L 941.890691 359.00235 
L 943.029575 363.711878 
L 944.168459 371.439292 
L 945.307344 372.234512 
L 946.446228 338.110209 
L 947.585112 312.655474 
L 948.723997 316.285239 
L 949.862881 306.271615 
L 951.001765 287.847257 
L 952.14065 287.344202 
L 953.279534 299.026884 
L 954.418418 312.329659 
L 955.557303 331.45029 
L 956.696187 356.720233 
L 957.835071 377.634308 
L 958.973956 378.194027 
L 960.11284 361.184911 
L 961.251724 341.934638 
L 962.390609 300.405514 
L 963.529493 267.127833 
L 964.668377 249.721 
L 965.807262 237.187656 
L 969.223915 346.356758 
L 970.362799 399.336186 
L 971.501684 413.706937 
L 972.640568 389.289248 
L 974.918337 330.073653 
L 976.057221 267.479741 
L 977.196105 211.410968 
L 978.33499 215.990152 
L 979.473874 254.984957 
L 981.751643 309.02969 
L 984.029411 397.549989 
L 985.168296 411.396612 
L 986.30718 381.422918 
L 988.584949 344.351055 
L 989.723833 301.820191 
L 990.862717 289.198164 
L 992.001602 282.323903 
L 993.140486 280.348484 
L 994.27937 275.988189 
L 995.418255 279.848712 
L 996.557139 302.051117 
L 997.696023 309.597797 
L 999.973792 392.174155 
L 1002.251561 352.240968 
L 1003.390445 352.800624 
L 1004.529329 323.153107 
L 1005.668214 265.115947 
L 1006.807098 242.26405 
L 1007.945982 266.276127 
L 1009.084867 313.694918 
L 1010.223751 354.734503 
L 1011.362635 378.767242 
L 1012.50152 398.846522 
L 1013.640404 399.289486 
L 1014.779288 360.175537 
L 1015.918173 299.142795 
L 1017.057057 262.244567 
L 1018.195941 264.954889 
L 1020.47371 305.047282 
L 1021.612594 329.482129 
L 1022.751479 366.475764 
L 1023.890363 386.502634 
L 1025.029247 383.132073 
L 1026.168132 377.358161 
L 1027.307016 367.217589 
L 1028.4459 348.663142 
L 1030.723669 314.113964 
L 1031.862553 292.159019 
L 1033.001438 291.311954 
L 1034.140322 301.773939 
L 1035.279206 317.233541 
L 1036.418091 323.310037 
L 1037.556975 328.489153 
L 1038.695859 351.964339 
L 1039.834744 365.779189 
L 1040.973628 386.186251 
L 1042.112513 400.592912 
L 1043.251397 398.7967 
L 1044.390281 387.929572 
L 1045.529166 368.035882 
L 1046.66805 335.838287 
L 1047.806934 296.071803 
L 1048.945819 285.49384 
L 1050.084703 292.853064 
L 1051.223587 320.573805 
L 1052.362472 345.290266 
L 1053.501356 357.269863 
L 1054.64024 388.389869 
L 1055.779125 398.071361 
L 1058.056893 331.038817 
L 1059.195778 319.178779 
L 1060.334662 319.941958 
L 1061.473546 317.24766 
L 1062.612431 319.860786 
L 1063.751315 342.434003 
L 1064.890199 347.331737 
L 1066.029084 372.048221 
L 1067.167968 394.284882 
L 1068.306852 364.434055 
L 1069.445737 354.032315 
L 1070.584621 345.841706 
L 1071.723505 334.817965 
L 1072.86239 334.263648 
L 1074.001274 319.315367 
L 1075.140158 355.201388 
L 1076.279043 374.139133 
L 1077.417927 343.054572 
L 1078.556811 365.621247 
L 1079.695696 379.214398 
L 1080.83458 346.798816 
L 1081.973464 302.949106 
L 1083.112349 288.944334 
L 1084.251233 343.05182 
L 1085.390117 372.50169 
L 1086.529002 332.137146 
L 1087.667886 318.715091 
L 1088.80677 354.012859 
L 1089.945655 383.436988 
L 1091.084539 377.838885 
L 1092.223423 340.227014 
L 1093.362308 318.620192 
L 1094.501192 336.985398 
L 1095.640076 371.010484 
L 1096.778961 361.558073 
L 1097.917845 330.570737 
L 1099.056729 323.300313 
L 1100.195614 336.940743 
L 1101.334498 377.247766 
L 1102.473382 323.824395 
L 1103.612267 245.572823 
L 1105.890035 348.424054 
L 1107.02892 339.3387 
L 1108.167804 341.377018 
L 1109.306689 394.302487 
L 1110.445573 405.372563 
L 1111.584457 354.224511 
L 1112.723342 326.171634 
L 1113.862226 308.527062 
L 1115.00111 303.251356 
L 1117.278879 332.898187 
L 1118.417763 340.805405 
L 1119.556648 346.282158 
L 1120.695532 389.390277 
L 1121.834416 399.846979 
L 1122.973301 321.072679 
L 1124.112185 282.950103 
L 1125.251069 302.199282 
L 1126.389954 291.244764 
L 1127.528838 250.845883 
L 1128.667722 270.493903 
L 1129.806607 376.354346 
L 1130.945491 432.41147 
L 1132.084375 404.408907 
L 1133.22326 379.846201 
L 1134.362144 393.422334 
L 1135.501028 359.117575 
L 1136.639913 283.886764 
L 1137.778797 271.228496 
L 1140.056566 252.828883 
L 1141.19545 286.493004 
L 1142.334334 343.080189 
L 1143.473219 387.245018 
L 1144.612103 375.174877 
L 1145.750987 349.473058 
L 1146.889872 349.605443 
L 1149.16764 324.031449 
L 1150.306525 349.250784 
L 1151.445409 371.10525 
L 1152.584293 354.619124 
L 1153.723178 299.080503 
L 1154.862062 262.169985 
L 1156.000946 259.147667 
L 1157.139831 244.868124 
L 1158.278715 274.906509 
L 1159.417599 338.69798 
L 1160.556484 387.253554 
L 1161.695368 444.664889 
L 1162.834252 477.384928 
L 1163.973137 439.810936 
L 1166.250905 290.493094 
L 1168.528674 162.775958 
L 1169.667558 156.873808 
L 1170.806443 244.911214 
L 1171.945327 360.841838 
L 1173.084211 433.864983 
L 1174.223096 493.750152 
L 1175.36198 525.619167 
L 1176.500865 485.522982 
L 1177.639749 374.123043 
L 1178.778633 230.135416 
L 1179.917518 138.760065 
L 1181.056402 105.907568 
L 1182.195286 131.622601 
L 1183.334171 248.003794 
L 1185.611939 503.458295 
L 1186.750824 607.8185 
L 1187.889708 580.952435 
L 1190.167477 288.365596 
L 1191.306361 182.245258 
L 1192.445245 103.289471 
L 1193.58413 75.909122 
L 1194.723014 174.01055 
L 1195.861898 321.765932 
L 1197.000783 439.18334 
L 1198.139667 527.805113 
L 1199.278551 538.234382 
L 1200.417436 477.671175 
L 1201.55632 389.305309 
L 1203.834089 195.863518 
L 1204.972973 151.231879 
L 1206.111857 189.10739 
L 1207.250742 257.18267 
L 1208.389626 310.722213 
L 1209.52851 371.251323 
L 1210.667395 421.73818 
L 1211.806279 432.733972 
L 1212.945163 403.305508 
L 1215.222932 316.823951 
L 1216.361816 277.980954 
L 1217.500701 253.988627 
L 1218.639585 246.529995 
L 1219.778469 269.159489 
L 1220.917354 320.58643 
L 1222.056238 359.030625 
L 1224.334007 400.524019 
L 1225.472891 394.659493 
L 1226.611775 374.80611 
L 1227.75066 330.84706 
L 1228.889544 273.167869 
L 1230.028428 259.987526 
L 1231.167313 258.911924 
L 1232.306197 274.909321 
L 1233.445081 321.504202 
L 1234.583966 377.711664 
L 1235.72285 414.165255 
L 1236.861734 385.037564 
L 1238.000619 338.092805 
L 1239.139503 329.028927 
L 1240.278387 294.137898 
L 1241.417272 228.130725 
L 1242.556156 240.855969 
L 1243.69504 312.333543 
L 1244.833925 357.520832 
L 1245.972809 367.172485 
L 1247.111694 389.16305 
L 1248.250578 428.29213 
L 1249.389462 409.254266 
L 1250.528347 351.569847 
L 1252.806115 255.994878 
L 1253.945 225.660813 
L 1255.083884 219.865207 
L 1256.222768 232.937221 
L 1257.361653 286.594417 
L 1258.500537 404.902066 
L 1259.639421 490.275558 
L 1260.778306 498.578989 
L 1261.91719 477.270826 
L 1263.056074 415.786131 
L 1264.194959 302.524952 
L 1265.333843 165.397309 
L 1266.472727 89.275795 
L 1266.472727 89.275795 
" style="fill:none;stroke:#1f77b4;stroke-linecap:square;stroke-width:1.5;"/>
   </g>
   <g id="line2d_26">
    <path clip-path="url(#pd5a59cebca)" d="M 128.727273 296.788866 
L 129.866157 287.866829 
L 131.005041 287.011148 
L 132.143926 319.37695 
L 133.28281 359.094414 
L 134.421694 379.600446 
L 135.560579 391.628262 
L 136.699463 400.528119 
L 137.838347 395.552307 
L 138.977232 391.934455 
L 140.116116 357.143477 
L 141.255 301.735284 
L 142.393885 271.389877 
L 143.532769 264.636229 
L 144.671653 271.05845 
L 145.810538 274.258753 
L 146.949422 305.939169 
L 149.227191 386.601958 
L 150.366075 398.247724 
L 151.50496 376.1917 
L 152.643844 367.069255 
L 153.782728 353.905127 
L 154.921613 357.084022 
L 156.060497 350.152904 
L 157.199381 320.268514 
L 158.338266 317.916887 
L 159.47715 352.968943 
L 160.616034 351.680318 
L 161.754919 318.360096 
L 162.893803 334.880422 
L 164.032687 345.530917 
L 165.171572 343.252257 
L 166.310456 354.640728 
L 167.44934 374.292791 
L 168.588225 376.770073 
L 169.727109 359.618439 
L 170.865993 354.571938 
L 172.004878 339.131037 
L 173.143762 317.113034 
L 174.282646 307.761008 
L 175.421531 309.400119 
L 176.560415 309.729521 
L 177.699299 329.038767 
L 178.838184 364.713724 
L 179.977068 370.544442 
L 181.115952 368.925086 
L 182.254837 378.988828 
L 183.393721 374.005833 
L 185.67149 367.452204 
L 186.810374 345.798214 
L 187.949258 331.191118 
L 189.088143 327.43504 
L 190.227027 321.728114 
L 191.365911 333.367121 
L 192.504796 359.837092 
L 193.64368 361.590435 
L 194.782564 351.49667 
L 195.921449 359.128645 
L 197.060333 375.564993 
L 198.199217 360.78029 
L 199.338102 334.64024 
L 201.61587 290.678339 
L 202.754755 307.117045 
L 203.893639 310.627522 
L 205.032523 311.325738 
L 206.171408 355.515233 
L 207.310292 391.064689 
L 208.449176 389.261062 
L 209.588061 369.229271 
L 210.726945 370.241721 
L 211.865829 351.589244 
L 213.004714 316.839583 
L 214.143598 313.845439 
L 215.282482 318.878581 
L 216.421367 319.562627 
L 217.560251 317.266177 
L 218.699135 336.697005 
L 219.83802 350.287768 
L 220.976904 347.249062 
L 222.115789 345.020604 
L 223.254673 337.647173 
L 224.393557 337.836915 
L 225.532442 328.571485 
L 226.671326 326.342129 
L 227.81021 313.00519 
L 228.949095 291.46814 
L 230.087979 308.305124 
L 231.226863 323.086276 
L 232.365748 322.188523 
L 233.504632 329.119474 
L 234.643516 344.893347 
L 235.782401 359.092456 
L 236.921285 368.879686 
L 238.060169 367.276017 
L 240.337938 315.722486 
L 241.476822 305.443177 
L 242.615707 287.038583 
L 243.754591 271.031859 
L 244.893475 290.097311 
L 246.03236 321.192856 
L 247.171244 347.054909 
L 248.310128 365.297322 
L 249.449013 356.502194 
L 250.587897 331.374623 
L 251.726781 332.22082 
L 252.865666 328.55045 
L 254.00455 294.884593 
L 255.143434 282.701349 
L 256.282319 290.59334 
L 257.421203 303.336841 
L 258.560087 309.289457 
L 259.698972 317.096865 
L 260.837856 348.128439 
L 261.97674 358.327275 
L 263.115625 345.565215 
L 264.254509 347.35772 
L 265.393393 346.459706 
L 266.532278 324.363199 
L 268.810046 296.944214 
L 269.948931 275.300824 
L 271.087815 261.886316 
L 272.226699 255.129213 
L 273.365584 296.414318 
L 274.504468 324.739326 
L 275.643352 325.894391 
L 276.782237 362.726917 
L 277.921121 382.17583 
L 279.060005 390.552937 
L 280.19889 379.908978 
L 283.615543 309.298563 
L 284.754427 319.478501 
L 285.893311 284.566205 
L 287.032196 238.102311 
L 288.17108 264.735743 
L 289.309965 306.305518 
L 290.448849 324.015408 
L 291.587733 333.071106 
L 292.726618 349.589446 
L 293.865502 386.494012 
L 295.004386 388.548975 
L 296.143271 340.359037 
L 297.282155 316.767957 
L 298.421039 304.497931 
L 299.559924 305.477232 
L 300.698808 313.686194 
L 301.837692 292.755396 
L 302.976577 308.826939 
L 304.115461 373.828231 
L 305.254345 394.81956 
L 306.39323 363.723006 
L 307.532114 351.70519 
L 308.670998 347.566472 
L 309.809883 329.197554 
L 310.948767 304.904163 
L 312.087651 297.255878 
L 313.226536 305.507438 
L 314.36542 305.208556 
L 315.504304 325.778309 
L 316.643189 352.002843 
L 317.782073 351.874459 
L 318.920957 354.200973 
L 320.059842 378.725471 
L 321.198726 382.910027 
L 322.33761 349.195189 
L 323.476495 337.574022 
L 324.615379 347.50837 
L 326.893148 319.819104 
L 328.032032 321.144194 
L 329.170916 315.53181 
L 330.309801 313.07863 
L 331.448685 322.409834 
L 332.587569 339.45471 
L 333.726454 369.207501 
L 334.865338 404.972784 
L 336.004222 411.803271 
L 337.143107 395.797416 
L 338.281991 382.734858 
L 341.698644 297.642135 
L 342.837528 278.215124 
L 343.976413 294.520139 
L 345.115297 318.751093 
L 346.254181 347.843595 
L 347.393066 385.183283 
L 348.53195 388.803179 
L 349.670834 380.757781 
L 350.809719 386.970028 
L 351.948603 382.238528 
L 353.087487 356.625999 
L 354.226372 322.384229 
L 355.365256 330.216543 
L 356.504141 372.871845 
L 357.643025 386.766306 
L 358.781909 374.388693 
L 359.920794 356.714253 
L 361.059678 330.026351 
L 362.198562 320.17235 
L 363.337447 313.56735 
L 364.476331 287.024697 
L 365.615215 298.682983 
L 367.892984 412.496108 
L 369.031868 432.057963 
L 370.170753 419.252298 
L 371.309637 397.115032 
L 372.448521 353.54799 
L 373.587406 317.307565 
L 374.72629 301.180296 
L 377.004059 277.854927 
L 378.142943 309.030932 
L 379.281827 372.168036 
L 380.420712 398.638688 
L 381.559596 400.07559 
L 382.69848 396.940617 
L 383.837365 384.723376 
L 384.976249 368.637022 
L 386.115133 348.730139 
L 388.392902 259.700578 
L 389.531786 274.236203 
L 390.670671 325.312034 
L 391.809555 357.586791 
L 392.948439 372.074261 
L 394.087324 379.380135 
L 395.226208 383.841082 
L 396.365092 391.518919 
L 397.503977 356.219509 
L 398.642861 314.125916 
L 399.781745 306.821673 
L 400.92063 301.62996 
L 402.059514 300.942217 
L 403.198398 318.507008 
L 404.337283 328.479934 
L 405.476167 315.597856 
L 406.615051 343.762263 
L 407.753936 363.470827 
L 408.89282 355.543679 
L 410.031704 384.457507 
L 411.170589 401.480612 
L 412.309473 368.484056 
L 413.448357 300.909751 
L 414.587242 272.893954 
L 415.726126 266.27287 
L 416.86501 232.409554 
L 418.003895 238.069654 
L 419.142779 325.814768 
L 420.281663 390.693891 
L 421.420548 395.203945 
L 422.559432 425.119576 
L 423.698316 405.90031 
L 424.837201 346.852419 
L 425.976085 307.493995 
L 427.11497 284.880179 
L 428.253854 281.532031 
L 429.392738 261.163497 
L 430.531623 275.927988 
L 432.809391 359.007784 
L 433.948276 379.743964 
L 435.08716 336.41735 
L 436.226044 314.015575 
L 437.364929 332.841979 
L 438.503813 334.116876 
L 439.642697 294.38941 
L 440.781582 272.3585 
L 443.05935 322.020927 
L 444.198235 353.543983 
L 445.337119 363.028735 
L 446.476003 350.588952 
L 447.614888 344.980599 
L 448.753772 341.792424 
L 449.892656 333.238676 
L 451.031541 290.608824 
L 452.170425 260.942841 
L 453.309309 266.499683 
L 454.448194 279.664955 
L 455.587078 289.257757 
L 456.725962 321.057822 
L 457.864847 365.520513 
L 459.003731 354.439818 
L 460.142615 358.405726 
L 461.2815 373.202424 
L 462.420384 355.520679 
L 463.559268 341.406904 
L 464.698153 320.968484 
L 466.975921 273.046916 
L 468.114806 281.860864 
L 469.25369 299.865046 
L 470.392574 307.226067 
L 471.531459 304.156938 
L 472.670343 303.661528 
L 473.809227 335.477394 
L 474.948112 350.890824 
L 476.086996 341.994175 
L 477.22588 342.235718 
L 478.364765 346.745394 
L 479.503649 330.2644 
L 480.642533 331.983288 
L 481.781418 354.701906 
L 482.920302 336.05605 
L 484.059186 307.932182 
L 485.198071 310.637746 
L 486.336955 327.206428 
L 487.475839 322.574931 
L 488.614724 319.541685 
L 489.753608 358.551321 
L 490.892492 366.85117 
L 492.031377 316.370945 
L 493.170261 293.710568 
L 494.309146 305.904524 
L 495.44803 300.10106 
L 496.586914 298.995878 
L 500.003567 376.015979 
L 501.142452 389.362966 
L 502.281336 389.587074 
L 503.42022 385.329364 
L 504.559105 366.655334 
L 505.697989 331.668335 
L 506.836873 291.842291 
L 507.975758 273.574586 
L 509.114642 282.701938 
L 510.253526 302.704599 
L 511.392411 313.481883 
L 512.531295 304.736661 
L 513.670179 330.433525 
L 514.809064 373.943165 
L 515.947948 385.573689 
L 517.086832 392.780152 
L 518.225717 390.364234 
L 519.364601 390.667551 
L 520.503485 387.629302 
L 521.64237 360.052534 
L 523.920138 262.829353 
L 525.059023 266.900891 
L 526.197907 278.842256 
L 527.336791 294.83511 
L 529.61456 399.998016 
L 530.753444 429.430146 
L 531.892329 422.833001 
L 533.031213 396.876682 
L 534.170097 378.928079 
L 535.308982 354.463001 
L 536.447866 321.417429 
L 537.58675 282.500492 
L 538.725635 262.871734 
L 539.864519 282.377871 
L 541.003403 324.834518 
L 542.142288 376.473909 
L 543.281172 382.710915 
L 544.420056 379.827258 
L 545.558941 405.097701 
L 546.697825 378.26189 
L 547.836709 347.780639 
L 548.975594 330.77343 
L 550.114478 297.502026 
L 551.253362 290.867922 
L 552.392247 315.26678 
L 553.531131 348.12293 
L 554.670015 347.63459 
L 555.8089 363.209995 
L 556.947784 426.260036 
L 558.086668 436.98835 
L 560.364437 336.306608 
L 561.503322 307.837962 
L 563.78109 283.923538 
L 564.919975 283.004582 
L 566.058859 296.333091 
L 567.197743 328.990916 
L 568.336628 369.365618 
L 569.475512 397.066216 
L 570.614396 412.953144 
L 571.753281 402.404404 
L 572.892165 368.397124 
L 574.031049 330.97994 
L 575.169934 331.455076 
L 576.308818 346.571872 
L 577.447702 312.015281 
L 578.586587 300.95156 
L 579.725471 324.996426 
L 580.864355 330.775247 
L 582.00324 325.991266 
L 583.142124 302.00831 
L 584.281008 300.504646 
L 585.419893 328.210126 
L 586.558777 378.617634 
L 587.697661 418.774629 
L 588.836546 395.36497 
L 589.97543 385.640235 
L 591.114314 378.022967 
L 592.253199 314.883904 
L 593.392083 265.145674 
L 594.530967 264.618351 
L 595.669852 277.910884 
L 596.808736 280.383495 
L 597.94762 319.360079 
L 599.086505 383.178394 
L 600.225389 390.775321 
L 601.364273 377.214061 
L 602.503158 368.345909 
L 603.642042 353.264747 
L 607.058695 322.686694 
L 609.336464 270.475246 
L 610.475348 284.394704 
L 611.614232 296.19652 
L 612.753117 300.563565 
L 613.892001 331.324044 
L 615.030885 365.667499 
L 616.16977 387.660241 
L 617.308654 395.444384 
L 618.447538 371.175712 
L 619.586423 326.957822 
L 620.725307 299.88671 
L 621.864191 289.846507 
L 623.003076 286.211285 
L 624.14196 290.131767 
L 625.280844 299.710055 
L 627.558613 368.349767 
L 628.697497 375.699178 
L 629.836382 368.641852 
L 630.975266 343.114404 
L 633.253035 313.059341 
L 634.391919 290.481522 
L 635.530804 280.60163 
L 636.669688 272.552451 
L 637.808572 272.506092 
L 638.947457 299.053831 
L 640.086341 340.309572 
L 641.225225 363.414614 
L 642.36411 367.121563 
L 643.502994 376.707502 
L 644.641878 382.234829 
L 645.780763 373.580783 
L 646.919647 349.767677 
L 648.058531 311.848371 
L 649.197416 289.102362 
L 650.3363 284.948695 
L 651.475184 283.497848 
L 652.614069 283.604581 
L 653.752953 286.193032 
L 654.891837 296.815579 
L 656.030722 335.539283 
L 657.169606 378.774208 
L 658.30849 389.245685 
L 659.447375 383.255325 
L 660.586259 368.708191 
L 661.725143 342.626627 
L 662.864028 308.828005 
L 664.002912 294.519501 
L 665.141796 289.040336 
L 666.280681 282.577791 
L 668.558449 323.768528 
L 669.697334 351.397754 
L 670.836218 375.289607 
L 671.975102 372.000779 
L 673.113987 362.8276 
L 675.391755 309.121294 
L 676.53064 296.729805 
L 677.669524 271.544693 
L 678.808408 260.720985 
L 679.947293 295.866105 
L 681.086177 343.284382 
L 682.225061 364.008195 
L 683.363946 393.24143 
L 684.50283 412.606471 
L 685.641714 384.119561 
L 686.780599 365.084898 
L 687.919483 349.276866 
L 689.058367 301.611525 
L 690.197252 263.087255 
L 691.336136 275.194787 
L 692.47502 316.680502 
L 693.613905 329.008583 
L 694.752789 331.455646 
L 695.891673 365.766081 
L 697.030558 389.381136 
L 698.169442 387.554018 
L 699.308327 373.179457 
L 700.447211 337.308999 
L 701.586095 318.693772 
L 702.72498 328.985473 
L 703.863864 320.735434 
L 705.002748 293.911694 
L 706.141633 304.279198 
L 707.280517 355.248255 
L 708.419401 359.069252 
L 709.558286 336.917419 
L 710.69717 356.357865 
L 711.836054 366.180852 
L 712.974939 362.074673 
L 715.252707 344.455636 
L 716.391592 360.765488 
L 717.530476 345.826325 
L 718.66936 321.241617 
L 719.808245 350.449931 
L 720.947129 347.108426 
L 722.086013 327.900541 
L 723.224898 363.155546 
L 724.363782 360.999121 
L 725.502666 318.701508 
L 726.641551 334.201223 
L 727.780435 372.964704 
L 730.058204 332.98014 
L 731.197088 369.808321 
L 732.335972 389.841137 
L 733.474857 344.008692 
L 734.613741 311.13146 
L 735.752625 326.219976 
L 736.89151 312.318979 
L 738.030394 295.914489 
L 739.169278 333.898769 
L 740.308163 366.20971 
L 741.447047 355.145023 
L 742.585931 378.144885 
L 743.724816 426.556719 
L 744.8637 396.433396 
L 746.002584 333.27889 
L 747.141469 310.41456 
L 748.280353 330.786877 
L 749.419237 327.714177 
L 750.558122 277.599454 
L 751.697006 299.279348 
L 752.83589 339.169727 
L 753.974775 324.22848 
L 755.113659 351.583469 
L 756.252543 372.11597 
L 757.391428 346.938609 
L 758.530312 356.031242 
L 759.669196 368.292187 
L 760.808081 345.151082 
L 761.946965 348.886809 
L 763.085849 364.269608 
L 764.224734 347.074077 
L 765.363618 334.450954 
L 766.502503 308.172184 
L 767.641387 286.144543 
L 768.780271 290.607776 
L 769.919156 299.948394 
L 771.05804 334.46316 
L 772.196924 357.23132 
L 773.335809 363.113626 
L 774.474693 392.130286 
L 775.613577 398.364365 
L 776.752462 344.298648 
L 777.891346 296.167169 
L 779.03023 287.351628 
L 780.169115 263.765993 
L 781.307999 246.90995 
L 782.446883 283.635561 
L 783.585768 331.274625 
L 784.724652 363.526166 
L 785.863536 391.332611 
L 787.002421 399.827744 
L 789.280189 370.20528 
L 790.419074 340.078494 
L 791.557958 300.755672 
L 792.696842 270.895974 
L 793.835727 260.841729 
L 794.974611 273.305127 
L 796.113495 279.341833 
L 797.25238 309.654562 
L 798.391264 347.47413 
L 799.530148 371.104694 
L 800.669033 389.209487 
L 801.807917 376.372753 
L 802.946801 349.569702 
L 804.085686 312.4001 
L 805.22457 296.817887 
L 806.363454 291.968117 
L 807.502339 275.141665 
L 808.641223 299.513109 
L 809.780107 328.539118 
L 810.918992 340.324222 
L 812.057876 356.852456 
L 813.19676 353.902232 
L 814.335645 343.668082 
L 816.613413 276.59396 
L 817.752298 303.507353 
L 818.891182 322.199262 
L 820.030066 316.786961 
L 821.168951 331.29994 
L 822.307835 356.615225 
L 823.446719 371.784238 
L 824.585604 347.094505 
L 825.724488 330.271353 
L 826.863372 330.642554 
L 828.002257 297.542575 
L 829.141141 295.650218 
L 830.280025 315.063295 
L 831.41891 295.781739 
L 832.557794 306.076836 
L 833.696678 367.183619 
L 834.835563 391.525534 
L 835.974447 364.646897 
L 837.113332 355.650877 
L 838.252216 344.394886 
L 839.3911 291.310434 
L 840.529985 263.55951 
L 841.668869 301.045113 
L 842.807753 332.765555 
L 843.946638 323.055206 
L 845.085522 326.756241 
L 846.224406 359.868547 
L 847.363291 376.482223 
L 848.502175 358.398896 
L 849.641059 336.314987 
L 850.779944 339.683363 
L 851.918828 357.598726 
L 853.057712 363.488847 
L 854.196597 351.469917 
L 855.335481 341.865731 
L 856.474365 341.88896 
L 857.61325 330.727123 
L 858.752134 312.771509 
L 859.891018 307.990174 
L 861.029903 314.562373 
L 862.168787 303.610824 
L 863.307671 311.373291 
L 864.446556 366.383795 
L 865.58544 394.315211 
L 866.724324 383.99751 
L 867.863209 383.308042 
L 869.002093 402.779632 
L 870.140977 385.32907 
L 871.279862 329.44713 
L 872.418746 303.966393 
L 873.55763 301.734061 
L 874.696515 316.832741 
L 875.835399 335.140027 
L 876.974283 334.770425 
L 878.113168 335.727601 
L 880.390936 380.464073 
L 881.529821 381.734824 
L 882.668705 373.494991 
L 883.807589 375.0325 
L 884.946474 389.249721 
L 886.085358 373.074418 
L 887.224242 344.651876 
L 888.363127 321.717247 
L 889.502011 291.779146 
L 890.640895 298.751281 
L 891.77978 318.691367 
L 892.918664 333.210107 
L 894.057548 354.716542 
L 895.196433 382.973486 
L 896.335317 407.751143 
L 897.474201 412.671067 
L 898.613086 409.25785 
L 899.75197 380.245758 
L 900.890854 358.372653 
L 902.029739 339.691801 
L 903.168623 295.263882 
L 904.307508 279.993524 
L 905.446392 281.637467 
L 906.585276 319.260614 
L 907.724161 378.168584 
L 908.863045 412.954423 
L 910.001929 444.287036 
L 911.140814 422.871059 
L 914.557467 293.110836 
L 915.696351 267.922746 
L 916.835235 258.576871 
L 919.113004 348.270055 
L 921.390773 401.481191 
L 922.529657 408.605598 
L 923.668541 399.616776 
L 925.94631 320.389552 
L 927.085194 309.501404 
L 928.224079 311.725802 
L 929.362963 319.818392 
L 931.640732 373.600916 
L 932.779616 373.061134 
L 933.9185 347.524464 
L 935.057385 317.254293 
L 936.196269 301.057258 
L 937.335153 289.083893 
L 938.474038 283.491648 
L 939.612922 311.864654 
L 940.751806 356.613423 
L 941.890691 363.559552 
L 943.029575 368.400098 
L 944.168459 381.789929 
L 945.307344 362.019095 
L 946.446228 335.033462 
L 947.585112 311.246332 
L 948.723997 303.443978 
L 949.862881 297.051319 
L 951.001765 279.318872 
L 952.14065 288.533306 
L 953.279534 309.841231 
L 955.557303 345.427332 
L 956.696187 362.99758 
L 957.835071 377.950192 
L 958.973956 372.401676 
L 960.11284 350.193913 
L 961.251724 316.536122 
L 962.390609 288.6323 
L 963.529493 276.646957 
L 964.668377 248.049569 
L 965.807262 236.050587 
L 966.946146 275.701644 
L 968.08503 320.456105 
L 969.223915 351.403174 
L 970.362799 389.897489 
L 971.501684 406.87097 
L 972.640568 387.591076 
L 973.779452 372.420315 
L 974.918337 332.641879 
L 976.057221 254.288649 
L 977.196105 206.25243 
L 978.33499 213.12193 
L 979.473874 246.30762 
L 980.612758 266.819804 
L 981.751643 297.337902 
L 982.890527 357.134676 
L 984.029411 403.594381 
L 985.168296 408.022819 
L 986.30718 377.578175 
L 987.446064 367.07087 
L 988.584949 352.776931 
L 989.723833 310.131228 
L 990.862717 287.301832 
L 992.001602 280.738156 
L 994.27937 258.913441 
L 995.418255 267.477081 
L 996.557139 287.491881 
L 997.696023 318.747037 
L 998.834908 373.824682 
L 999.973792 403.12918 
L 1001.112676 367.660477 
L 1002.251561 342.00471 
L 1003.390445 340.260226 
L 1004.529329 292.865548 
L 1005.668214 238.723028 
L 1006.807098 233.780941 
L 1007.945982 278.782737 
L 1009.084867 339.602708 
L 1010.223751 369.018858 
L 1011.362635 381.754084 
L 1012.50152 403.670591 
L 1013.640404 400.149623 
L 1014.779288 350.369351 
L 1015.918173 284.484599 
L 1017.057057 242.867491 
L 1018.195941 253.051889 
L 1019.334826 284.386325 
L 1020.47371 301.945757 
L 1021.612594 328.065352 
L 1022.751479 377.195545 
L 1023.890363 404.005889 
L 1025.029247 389.5063 
L 1027.307016 355.608675 
L 1029.584785 325.745317 
L 1030.723669 305.212115 
L 1031.862553 295.356618 
L 1033.001438 299.693912 
L 1034.140322 318.01756 
L 1035.279206 329.110585 
L 1036.418091 321.721646 
L 1037.556975 320.045368 
L 1042.112513 398.960458 
L 1043.251397 408.71591 
L 1044.390281 398.04127 
L 1045.529166 371.837678 
L 1046.66805 336.254098 
L 1047.806934 291.146387 
L 1048.945819 268.869158 
L 1050.084703 287.461734 
L 1051.223587 319.670973 
L 1053.501356 371.28884 
L 1054.64024 402.135568 
L 1055.779125 407.723098 
L 1056.918009 373.360953 
L 1058.056893 335.642127 
L 1059.195778 314.942252 
L 1060.334662 314.026526 
L 1061.473546 311.246695 
L 1062.612431 316.957648 
L 1063.751315 345.792315 
L 1064.890199 359.628377 
L 1066.029084 383.087186 
L 1067.167968 390.006679 
L 1068.306852 363.42323 
L 1069.445737 352.467378 
L 1070.584621 336.519769 
L 1071.723505 330.490775 
L 1072.86239 338.002514 
L 1074.001274 336.629607 
L 1075.140158 381.767981 
L 1076.279043 397.425102 
L 1077.417927 355.275154 
L 1078.556811 367.890039 
L 1079.695696 369.405623 
L 1081.973464 282.611913 
L 1083.112349 278.678111 
L 1084.251233 351.570001 
L 1085.390117 386.221113 
L 1086.529002 352.079494 
L 1087.667886 351.266345 
L 1088.80677 381.858186 
L 1089.945655 405.548774 
L 1091.084539 378.664947 
L 1092.223423 320.348443 
L 1093.362308 301.197914 
L 1094.501192 308.606369 
L 1095.640076 352.979371 
L 1096.778961 373.077524 
L 1097.917845 344.428639 
L 1099.056729 345.714703 
L 1100.195614 368.894103 
L 1101.334498 395.414317 
L 1102.473382 326.585261 
L 1103.612267 239.396448 
L 1105.890035 362.701599 
L 1107.02892 338.696136 
L 1108.167804 346.130582 
L 1109.306689 397.49761 
L 1110.445573 396.849121 
L 1111.584457 345.103016 
L 1112.723342 318.31847 
L 1113.862226 317.355302 
L 1115.00111 322.27635 
L 1116.139995 340.937071 
L 1117.278879 353.017666 
L 1118.417763 338.646376 
L 1119.556648 347.905662 
L 1120.695532 385.152548 
L 1121.834416 378.682207 
L 1122.973301 319.235785 
L 1124.112185 280.226397 
L 1125.251069 298.925408 
L 1126.389954 305.261964 
L 1127.528838 262.018027 
L 1128.667722 281.288997 
L 1129.806607 382.182272 
L 1130.945491 434.212489 
L 1132.084375 406.949626 
L 1133.22326 389.380223 
L 1134.362144 400.134302 
L 1135.501028 345.060173 
L 1136.639913 280.447343 
L 1137.778797 266.787161 
L 1138.917681 242.631209 
L 1140.056566 251.240753 
L 1141.19545 297.695158 
L 1142.334334 360.161379 
L 1143.473219 398.3993 
L 1144.612103 364.289573 
L 1145.750987 338.719551 
L 1146.889872 338.200739 
L 1148.028756 323.208601 
L 1149.16764 318.61706 
L 1150.306525 350.524233 
L 1151.445409 386.685462 
L 1152.584293 375.266796 
L 1154.862062 259.859546 
L 1156.000946 232.651591 
L 1157.139831 225.860133 
L 1158.278715 265.303725 
L 1160.556484 380.37168 
L 1161.695368 464.020102 
L 1162.834252 500.420738 
L 1163.973137 444.062089 
L 1165.112021 351.002514 
L 1168.528674 131.077598 
L 1169.667558 134.558423 
L 1170.806443 239.565789 
L 1171.945327 365.206889 
L 1173.084211 439.840841 
L 1174.223096 502.054307 
L 1175.36198 552.214835 
L 1176.500865 501.053966 
L 1178.778633 213.319104 
L 1179.917518 126.340879 
L 1181.056402 82.267642 
L 1182.195286 99.349832 
L 1183.334171 231.389973 
L 1184.473055 391.032256 
L 1185.611939 531.765258 
L 1186.750824 630.954545 
L 1187.889708 582.382851 
L 1191.306361 149.333414 
L 1192.445245 70.93078 
L 1193.58413 55.645455 
L 1194.723014 169.178942 
L 1195.861898 336.99591 
L 1197.000783 448.266187 
L 1198.139667 536.695369 
L 1199.278551 555.278146 
L 1200.417436 486.690388 
L 1201.55632 394.906603 
L 1202.695204 272.167879 
L 1203.834089 164.227346 
L 1204.972973 124.459887 
L 1206.111857 169.958316 
L 1207.250742 254.951287 
L 1208.389626 311.785353 
L 1209.52851 386.367212 
L 1210.667395 451.186373 
L 1211.806279 448.323066 
L 1212.945163 398.432913 
L 1214.084048 340.209366 
L 1216.361816 254.1352 
L 1217.500701 232.190862 
L 1218.639585 248.625278 
L 1219.778469 286.009534 
L 1220.917354 341.868337 
L 1222.056238 380.333234 
L 1223.195122 398.556937 
L 1224.334007 405.697421 
L 1225.472891 380.84472 
L 1226.611775 344.6148 
L 1228.889544 256.067645 
L 1230.028428 248.876031 
L 1231.167313 265.303614 
L 1232.306197 285.983774 
L 1233.445081 327.415309 
L 1234.583966 396.488183 
L 1235.72285 421.661356 
L 1236.861734 378.119457 
L 1238.000619 345.790251 
L 1239.139503 334.198033 
L 1240.278387 293.204501 
L 1241.417272 233.77788 
L 1242.556156 241.897581 
L 1243.69504 309.151086 
L 1244.833925 339.980836 
L 1245.972809 345.077824 
L 1247.111694 386.563121 
L 1248.250578 432.486925 
L 1249.389462 415.839678 
L 1250.528347 368.344284 
L 1251.667231 328.297523 
L 1253.945 223.988534 
L 1255.083884 200.94606 
L 1256.222768 214.769046 
L 1257.361653 279.551265 
L 1258.500537 397.890809 
L 1259.639421 488.488178 
L 1260.778306 505.639174 
L 1261.91719 493.556571 
L 1263.056074 436.28935 
L 1265.333843 160.086425 
L 1266.472727 96.243032 
L 1266.472727 96.243032 
" style="fill:none;stroke:#ff7f0e;stroke-linecap:square;stroke-width:1.5;"/>
   </g>
   <g id="patch_3">
    <path d="M 71.84 659.72 
L 71.84 26.88 
" style="fill:none;stroke:#000000;stroke-linecap:square;stroke-linejoin:miter;stroke-width:0.8;"/>
   </g>
   <g id="patch_4">
    <path d="M 1323.36 659.72 
L 1323.36 26.88 
" style="fill:none;stroke:#000000;stroke-linecap:square;stroke-linejoin:miter;stroke-width:0.8;"/>
   </g>
   <g id="patch_5">
    <path d="M 71.84 659.72 
L 1323.36 659.72 
" style="fill:none;stroke:#000000;stroke-linecap:square;stroke-linejoin:miter;stroke-width:0.8;"/>
   </g>
   <g id="patch_6">
    <path d="M 71.84 26.88 
L 1323.36 26.88 
" style="fill:none;stroke:#000000;stroke-linecap:square;stroke-linejoin:miter;stroke-width:0.8;"/>
   </g>
   <g id="text_14">
    <!-- Raw data BHE &amp; BLE -->
    <defs>
     <path d="M 44.390625 34.1875 
Q 47.5625 33.109375 50.5625 29.59375 
Q 53.5625 26.078125 56.59375 19.921875 
L 66.609375 0 
L 56 0 
L 46.6875 18.703125 
Q 43.0625 26.03125 39.671875 28.421875 
Q 36.28125 30.8125 30.421875 30.8125 
L 19.671875 30.8125 
L 19.671875 0 
L 9.8125 0 
L 9.8125 72.90625 
L 32.078125 72.90625 
Q 44.578125 72.90625 50.734375 67.671875 
Q 56.890625 62.453125 56.890625 51.90625 
Q 56.890625 45.015625 53.6875 40.46875 
Q 50.484375 35.9375 44.390625 34.1875 
z
M 19.671875 64.796875 
L 19.671875 38.921875 
L 32.078125 38.921875 
Q 39.203125 38.921875 42.84375 42.21875 
Q 46.484375 45.515625 46.484375 51.90625 
Q 46.484375 58.296875 42.84375 61.546875 
Q 39.203125 64.796875 32.078125 64.796875 
z
" id="DejaVuSans-82"/>
     <path d="M 34.28125 27.484375 
Q 23.390625 27.484375 19.1875 25 
Q 14.984375 22.515625 14.984375 16.5 
Q 14.984375 11.71875 18.140625 8.90625 
Q 21.296875 6.109375 26.703125 6.109375 
Q 34.1875 6.109375 38.703125 11.40625 
Q 43.21875 16.703125 43.21875 25.484375 
L 43.21875 27.484375 
z
M 52.203125 31.203125 
L 52.203125 0 
L 43.21875 0 
L 43.21875 8.296875 
Q 40.140625 3.328125 35.546875 0.953125 
Q 30.953125 -1.421875 24.3125 -1.421875 
Q 15.921875 -1.421875 10.953125 3.296875 
Q 6 8.015625 6 15.921875 
Q 6 25.140625 12.171875 29.828125 
Q 18.359375 34.515625 30.609375 34.515625 
L 43.21875 34.515625 
L 43.21875 35.40625 
Q 43.21875 41.609375 39.140625 45 
Q 35.0625 48.390625 27.6875 48.390625 
Q 23 48.390625 18.546875 47.265625 
Q 14.109375 46.140625 10.015625 43.890625 
L 10.015625 52.203125 
Q 14.9375 54.109375 19.578125 55.046875 
Q 24.21875 56 28.609375 56 
Q 40.484375 56 46.34375 49.84375 
Q 52.203125 43.703125 52.203125 31.203125 
z
" id="DejaVuSans-97"/>
     <path d="M 4.203125 54.6875 
L 13.1875 54.6875 
L 24.421875 12.015625 
L 35.59375 54.6875 
L 46.1875 54.6875 
L 57.421875 12.015625 
L 68.609375 54.6875 
L 77.59375 54.6875 
L 63.28125 0 
L 52.6875 0 
L 40.921875 44.828125 
L 29.109375 0 
L 18.5 0 
z
" id="DejaVuSans-119"/>
     <path id="DejaVuSans-32"/>
     <path d="M 45.40625 46.390625 
L 45.40625 75.984375 
L 54.390625 75.984375 
L 54.390625 0 
L 45.40625 0 
L 45.40625 8.203125 
Q 42.578125 3.328125 38.25 0.953125 
Q 33.9375 -1.421875 27.875 -1.421875 
Q 17.96875 -1.421875 11.734375 6.484375 
Q 5.515625 14.40625 5.515625 27.296875 
Q 5.515625 40.1875 11.734375 48.09375 
Q 17.96875 56 27.875 56 
Q 33.9375 56 38.25 53.625 
Q 42.578125 51.265625 45.40625 46.390625 
z
M 14.796875 27.296875 
Q 14.796875 17.390625 18.875 11.75 
Q 22.953125 6.109375 30.078125 6.109375 
Q 37.203125 6.109375 41.296875 11.75 
Q 45.40625 17.390625 45.40625 27.296875 
Q 45.40625 37.203125 41.296875 42.84375 
Q 37.203125 48.484375 30.078125 48.484375 
Q 22.953125 48.484375 18.875 42.84375 
Q 14.796875 37.203125 14.796875 27.296875 
z
" id="DejaVuSans-100"/>
     <path d="M 19.671875 34.8125 
L 19.671875 8.109375 
L 35.5 8.109375 
Q 43.453125 8.109375 47.28125 11.40625 
Q 51.125 14.703125 51.125 21.484375 
Q 51.125 28.328125 47.28125 31.5625 
Q 43.453125 34.8125 35.5 34.8125 
z
M 19.671875 64.796875 
L 19.671875 42.828125 
L 34.28125 42.828125 
Q 41.5 42.828125 45.03125 45.53125 
Q 48.578125 48.25 48.578125 53.8125 
Q 48.578125 59.328125 45.03125 62.0625 
Q 41.5 64.796875 34.28125 64.796875 
z
M 9.8125 72.90625 
L 35.015625 72.90625 
Q 46.296875 72.90625 52.390625 68.21875 
Q 58.5 63.53125 58.5 54.890625 
Q 58.5 48.1875 55.375 44.234375 
Q 52.25 40.28125 46.1875 39.3125 
Q 53.46875 37.75 57.5 32.78125 
Q 61.53125 27.828125 61.53125 20.40625 
Q 61.53125 10.640625 54.890625 5.3125 
Q 48.25 0 35.984375 0 
L 9.8125 0 
z
" id="DejaVuSans-66"/>
     <path d="M 9.8125 72.90625 
L 19.671875 72.90625 
L 19.671875 43.015625 
L 55.515625 43.015625 
L 55.515625 72.90625 
L 65.375 72.90625 
L 65.375 0 
L 55.515625 0 
L 55.515625 34.71875 
L 19.671875 34.71875 
L 19.671875 0 
L 9.8125 0 
z
" id="DejaVuSans-72"/>
     <path d="M 9.8125 72.90625 
L 55.90625 72.90625 
L 55.90625 64.59375 
L 19.671875 64.59375 
L 19.671875 43.015625 
L 54.390625 43.015625 
L 54.390625 34.71875 
L 19.671875 34.71875 
L 19.671875 8.296875 
L 56.78125 8.296875 
L 56.78125 0 
L 9.8125 0 
z
" id="DejaVuSans-69"/>
     <path d="M 24.3125 39.203125 
Q 19.875 35.25 17.796875 31.3125 
Q 15.71875 27.390625 15.71875 23.09375 
Q 15.71875 15.96875 20.890625 11.234375 
Q 26.078125 6.5 33.890625 6.5 
Q 38.53125 6.5 42.578125 8.03125 
Q 46.625 9.578125 50.203125 12.703125 
z
M 31.203125 44.671875 
L 56 19.28125 
Q 58.890625 23.640625 60.5 28.59375 
Q 62.109375 33.546875 62.40625 39.109375 
L 71.484375 39.109375 
Q 70.90625 32.671875 68.359375 26.359375 
Q 65.828125 20.0625 61.28125 13.921875 
L 74.90625 0 
L 62.59375 0 
L 55.609375 7.171875 
Q 50.53125 2.828125 44.96875 0.703125 
Q 39.40625 -1.421875 33.015625 -1.421875 
Q 21.234375 -1.421875 13.765625 5.296875 
Q 6.296875 12.015625 6.296875 22.515625 
Q 6.296875 28.765625 9.5625 34.25 
Q 12.84375 39.75 19.390625 44.578125 
Q 17.046875 47.65625 15.8125 50.703125 
Q 14.59375 53.765625 14.59375 56.6875 
Q 14.59375 64.59375 20.015625 69.40625 
Q 25.4375 74.21875 34.421875 74.21875 
Q 38.484375 74.21875 42.5 73.34375 
Q 46.53125 72.46875 50.6875 70.703125 
L 50.6875 61.8125 
Q 46.4375 64.109375 42.578125 65.296875 
Q 38.71875 66.5 35.40625 66.5 
Q 30.28125 66.5 27.078125 63.78125 
Q 23.875 61.078125 23.875 56.78125 
Q 23.875 54.296875 25.3125 51.78125 
Q 26.765625 49.265625 31.203125 44.671875 
z
" id="DejaVuSans-38"/>
     <path d="M 9.8125 72.90625 
L 19.671875 72.90625 
L 19.671875 8.296875 
L 55.171875 8.296875 
L 55.171875 0 
L 9.8125 0 
z
" id="DejaVuSans-76"/>
    </defs>
    <g transform="translate(635.356563 20.88)scale(0.12 -0.12)">
     <use xlink:href="#DejaVuSans-82"/>
     <use x="69.451172" xlink:href="#DejaVuSans-97"/>
     <use x="130.730469" xlink:href="#DejaVuSans-119"/>
     <use x="212.517578" xlink:href="#DejaVuSans-32"/>
     <use x="244.304688" xlink:href="#DejaVuSans-100"/>
     <use x="307.78125" xlink:href="#DejaVuSans-97"/>
     <use x="369.060547" xlink:href="#DejaVuSans-116"/>
     <use x="408.269531" xlink:href="#DejaVuSans-97"/>
     <use x="469.548828" xlink:href="#DejaVuSans-32"/>
     <use x="501.335938" xlink:href="#DejaVuSans-66"/>
     <use x="569.939453" xlink:href="#DejaVuSans-72"/>
     <use x="645.134766" xlink:href="#DejaVuSans-69"/>
     <use x="708.318359" xlink:href="#DejaVuSans-32"/>
     <use x="740.105469" xlink:href="#DejaVuSans-38"/>
     <use x="818.083984" xlink:href="#DejaVuSans-32"/>
     <use x="849.871094" xlink:href="#DejaVuSans-66"/>
     <use x="918.474609" xlink:href="#DejaVuSans-76"/>
     <use x="974.1875" xlink:href="#DejaVuSans-69"/>
    </g>
   </g>
   <g id="legend_1">
    <g id="patch_7">
     <path d="M 78.84 64.23625 
L 131.54 64.23625 
Q 133.54 64.23625 133.54 62.23625 
L 133.54 33.88 
Q 133.54 31.88 131.54 31.88 
L 78.84 31.88 
Q 76.84 31.88 76.84 33.88 
L 76.84 62.23625 
Q 76.84 64.23625 78.84 64.23625 
z
" style="fill:#ffffff;opacity:0.8;stroke:#cccccc;stroke-linejoin:miter;"/>
    </g>
    <g id="line2d_27">
     <path d="M 80.84 39.978438 
L 100.84 39.978438 
" style="fill:none;stroke:#1f77b4;stroke-linecap:square;stroke-width:1.5;"/>
    </g>
    <g id="line2d_28"/>
    <g id="text_15">
     <!-- BHE -->
     <g transform="translate(108.84 43.478438)scale(0.1 -0.1)">
      <use xlink:href="#DejaVuSans-66"/>
      <use x="68.603516" xlink:href="#DejaVuSans-72"/>
      <use x="143.798828" xlink:href="#DejaVuSans-69"/>
     </g>
    </g>
    <g id="line2d_29">
     <path d="M 80.84 54.656563 
L 100.84 54.656563 
" style="fill:none;stroke:#ff7f0e;stroke-linecap:square;stroke-width:1.5;"/>
    </g>
    <g id="line2d_30"/>
    <g id="text_16">
     <!-- BLE -->
     <g transform="translate(108.84 58.156563)scale(0.1 -0.1)">
      <use xlink:href="#DejaVuSans-66"/>
      <use x="68.603516" xlink:href="#DejaVuSans-76"/>
      <use x="124.316406" xlink:href="#DejaVuSans-69"/>
     </g>
    </g>
   </g>
  </g>
 </g>
 <defs>
  <clipPath id="pd5a59cebca">
   <rect height="632.84" width="1251.52" x="71.84" y="26.88"/>
  </clipPath>
 </defs>
</svg>
