<?xml version="1.0" encoding="utf-8" standalone="no"?>
<!DOCTYPE svg PUBLIC "-//W3C//DTD SVG 1.1//EN"
  "http://www.w3.org/Graphics/SVG/1.1/DTD/svg11.dtd">
<!-- Created with matplotlib (https://matplotlib.org/) -->
<svg height="687.6pt" version="1.1" viewBox="0 0 1334.16 687.6" width="1334.16pt" xmlns="http://www.w3.org/2000/svg" xmlns:xlink="http://www.w3.org/1999/xlink">
 <defs>
  <style type="text/css">
*{stroke-linecap:butt;stroke-linejoin:round;}
  </style>
 </defs>
 <g id="figure_1">
  <g id="patch_1">
   <path d="M 0 687.6 
L 1334.16 687.6 
L 1334.16 0 
L 0 0 
z
" style="fill:#ffffff;"/>
  </g>
  <g id="axes_1">
   <g id="patch_2">
    <path d="M 65.54 659.72 
L 1323.36 659.72 
L 1323.36 26.88 
L 65.54 26.88 
z
" style="fill:#ffffff;"/>
   </g>
   <g id="matplotlib.axis_1">
    <g id="xtick_1">
     <g id="line2d_1">
      <path clip-path="url(#pf578835628)" d="M 122.713636 659.72 
L 122.713636 26.88 
" style="fill:none;stroke:#b0b0b0;stroke-linecap:square;stroke-width:0.8;"/>
     </g>
     <g id="line2d_2">
      <defs>
       <path d="M 0 0 
L 0 3.5 
" id="m01c46d7998" style="stroke:#000000;stroke-width:0.8;"/>
      </defs>
      <g>
       <use style="stroke:#000000;stroke-width:0.8;" x="122.713636" xlink:href="#m01c46d7998" y="659.72"/>
      </g>
     </g>
     <g id="text_1">
      <!-- 0 -->
      <defs>
       <path d="M 31.78125 66.40625 
Q 24.171875 66.40625 20.328125 58.90625 
Q 16.5 51.421875 16.5 36.375 
Q 16.5 21.390625 20.328125 13.890625 
Q 24.171875 6.390625 31.78125 6.390625 
Q 39.453125 6.390625 43.28125 13.890625 
Q 47.125 21.390625 47.125 36.375 
Q 47.125 51.421875 43.28125 58.90625 
Q 39.453125 66.40625 31.78125 66.40625 
z
M 31.78125 74.21875 
Q 44.046875 74.21875 50.515625 64.515625 
Q 56.984375 54.828125 56.984375 36.375 
Q 56.984375 17.96875 50.515625 8.265625 
Q 44.046875 -1.421875 31.78125 -1.421875 
Q 19.53125 -1.421875 13.0625 8.265625 
Q 6.59375 17.96875 6.59375 36.375 
Q 6.59375 54.828125 13.0625 64.515625 
Q 19.53125 74.21875 31.78125 74.21875 
z
" id="DejaVuSans-48"/>
      </defs>
      <g transform="translate(119.532386 674.318438)scale(0.1 -0.1)">
       <use xlink:href="#DejaVuSans-48"/>
      </g>
     </g>
    </g>
    <g id="xtick_2">
     <g id="line2d_3">
      <path clip-path="url(#pf578835628)" d="M 351.637105 659.72 
L 351.637105 26.88 
" style="fill:none;stroke:#b0b0b0;stroke-linecap:square;stroke-width:0.8;"/>
     </g>
     <g id="line2d_4">
      <g>
       <use style="stroke:#000000;stroke-width:0.8;" x="351.637105" xlink:href="#m01c46d7998" y="659.72"/>
      </g>
     </g>
     <g id="text_2">
      <!-- 200 -->
      <defs>
       <path d="M 19.1875 8.296875 
L 53.609375 8.296875 
L 53.609375 0 
L 7.328125 0 
L 7.328125 8.296875 
Q 12.9375 14.109375 22.625 23.890625 
Q 32.328125 33.6875 34.8125 36.53125 
Q 39.546875 41.84375 41.421875 45.53125 
Q 43.3125 49.21875 43.3125 52.78125 
Q 43.3125 58.59375 39.234375 62.25 
Q 35.15625 65.921875 28.609375 65.921875 
Q 23.96875 65.921875 18.8125 64.3125 
Q 13.671875 62.703125 7.8125 59.421875 
L 7.8125 69.390625 
Q 13.765625 71.78125 18.9375 73 
Q 24.125 74.21875 28.421875 74.21875 
Q 39.75 74.21875 46.484375 68.546875 
Q 53.21875 62.890625 53.21875 53.421875 
Q 53.21875 48.921875 51.53125 44.890625 
Q 49.859375 40.875 45.40625 35.40625 
Q 44.1875 33.984375 37.640625 27.21875 
Q 31.109375 20.453125 19.1875 8.296875 
z
" id="DejaVuSans-50"/>
      </defs>
      <g transform="translate(342.093355 674.318438)scale(0.1 -0.1)">
       <use xlink:href="#DejaVuSans-50"/>
       <use x="63.623047" xlink:href="#DejaVuSans-48"/>
       <use x="127.246094" xlink:href="#DejaVuSans-48"/>
      </g>
     </g>
    </g>
    <g id="xtick_3">
     <g id="line2d_5">
      <path clip-path="url(#pf578835628)" d="M 580.560574 659.72 
L 580.560574 26.88 
" style="fill:none;stroke:#b0b0b0;stroke-linecap:square;stroke-width:0.8;"/>
     </g>
     <g id="line2d_6">
      <g>
       <use style="stroke:#000000;stroke-width:0.8;" x="580.560574" xlink:href="#m01c46d7998" y="659.72"/>
      </g>
     </g>
     <g id="text_3">
      <!-- 400 -->
      <defs>
       <path d="M 37.796875 64.3125 
L 12.890625 25.390625 
L 37.796875 25.390625 
z
M 35.203125 72.90625 
L 47.609375 72.90625 
L 47.609375 25.390625 
L 58.015625 25.390625 
L 58.015625 17.1875 
L 47.609375 17.1875 
L 47.609375 0 
L 37.796875 0 
L 37.796875 17.1875 
L 4.890625 17.1875 
L 4.890625 26.703125 
z
" id="DejaVuSans-52"/>
      </defs>
      <g transform="translate(571.016824 674.318438)scale(0.1 -0.1)">
       <use xlink:href="#DejaVuSans-52"/>
       <use x="63.623047" xlink:href="#DejaVuSans-48"/>
       <use x="127.246094" xlink:href="#DejaVuSans-48"/>
      </g>
     </g>
    </g>
    <g id="xtick_4">
     <g id="line2d_7">
      <path clip-path="url(#pf578835628)" d="M 809.484043 659.72 
L 809.484043 26.88 
" style="fill:none;stroke:#b0b0b0;stroke-linecap:square;stroke-width:0.8;"/>
     </g>
     <g id="line2d_8">
      <g>
       <use style="stroke:#000000;stroke-width:0.8;" x="809.484043" xlink:href="#m01c46d7998" y="659.72"/>
      </g>
     </g>
     <g id="text_4">
      <!-- 600 -->
      <defs>
       <path d="M 33.015625 40.375 
Q 26.375 40.375 22.484375 35.828125 
Q 18.609375 31.296875 18.609375 23.390625 
Q 18.609375 15.53125 22.484375 10.953125 
Q 26.375 6.390625 33.015625 6.390625 
Q 39.65625 6.390625 43.53125 10.953125 
Q 47.40625 15.53125 47.40625 23.390625 
Q 47.40625 31.296875 43.53125 35.828125 
Q 39.65625 40.375 33.015625 40.375 
z
M 52.59375 71.296875 
L 52.59375 62.3125 
Q 48.875 64.0625 45.09375 64.984375 
Q 41.3125 65.921875 37.59375 65.921875 
Q 27.828125 65.921875 22.671875 59.328125 
Q 17.53125 52.734375 16.796875 39.40625 
Q 19.671875 43.65625 24.015625 45.921875 
Q 28.375 48.1875 33.59375 48.1875 
Q 44.578125 48.1875 50.953125 41.515625 
Q 57.328125 34.859375 57.328125 23.390625 
Q 57.328125 12.15625 50.6875 5.359375 
Q 44.046875 -1.421875 33.015625 -1.421875 
Q 20.359375 -1.421875 13.671875 8.265625 
Q 6.984375 17.96875 6.984375 36.375 
Q 6.984375 53.65625 15.1875 63.9375 
Q 23.390625 74.21875 37.203125 74.21875 
Q 40.921875 74.21875 44.703125 73.484375 
Q 48.484375 72.75 52.59375 71.296875 
z
" id="DejaVuSans-54"/>
      </defs>
      <g transform="translate(799.940293 674.318438)scale(0.1 -0.1)">
       <use xlink:href="#DejaVuSans-54"/>
       <use x="63.623047" xlink:href="#DejaVuSans-48"/>
       <use x="127.246094" xlink:href="#DejaVuSans-48"/>
      </g>
     </g>
    </g>
    <g id="xtick_5">
     <g id="line2d_9">
      <path clip-path="url(#pf578835628)" d="M 1038.407512 659.72 
L 1038.407512 26.88 
" style="fill:none;stroke:#b0b0b0;stroke-linecap:square;stroke-width:0.8;"/>
     </g>
     <g id="line2d_10">
      <g>
       <use style="stroke:#000000;stroke-width:0.8;" x="1038.407512" xlink:href="#m01c46d7998" y="659.72"/>
      </g>
     </g>
     <g id="text_5">
      <!-- 800 -->
      <defs>
       <path d="M 31.78125 34.625 
Q 24.75 34.625 20.71875 30.859375 
Q 16.703125 27.09375 16.703125 20.515625 
Q 16.703125 13.921875 20.71875 10.15625 
Q 24.75 6.390625 31.78125 6.390625 
Q 38.8125 6.390625 42.859375 10.171875 
Q 46.921875 13.96875 46.921875 20.515625 
Q 46.921875 27.09375 42.890625 30.859375 
Q 38.875 34.625 31.78125 34.625 
z
M 21.921875 38.8125 
Q 15.578125 40.375 12.03125 44.71875 
Q 8.5 49.078125 8.5 55.328125 
Q 8.5 64.0625 14.71875 69.140625 
Q 20.953125 74.21875 31.78125 74.21875 
Q 42.671875 74.21875 48.875 69.140625 
Q 55.078125 64.0625 55.078125 55.328125 
Q 55.078125 49.078125 51.53125 44.71875 
Q 48 40.375 41.703125 38.8125 
Q 48.828125 37.15625 52.796875 32.3125 
Q 56.78125 27.484375 56.78125 20.515625 
Q 56.78125 9.90625 50.3125 4.234375 
Q 43.84375 -1.421875 31.78125 -1.421875 
Q 19.734375 -1.421875 13.25 4.234375 
Q 6.78125 9.90625 6.78125 20.515625 
Q 6.78125 27.484375 10.78125 32.3125 
Q 14.796875 37.15625 21.921875 38.8125 
z
M 18.3125 54.390625 
Q 18.3125 48.734375 21.84375 45.5625 
Q 25.390625 42.390625 31.78125 42.390625 
Q 38.140625 42.390625 41.71875 45.5625 
Q 45.3125 48.734375 45.3125 54.390625 
Q 45.3125 60.0625 41.71875 63.234375 
Q 38.140625 66.40625 31.78125 66.40625 
Q 25.390625 66.40625 21.84375 63.234375 
Q 18.3125 60.0625 18.3125 54.390625 
z
" id="DejaVuSans-56"/>
      </defs>
      <g transform="translate(1028.863762 674.318438)scale(0.1 -0.1)">
       <use xlink:href="#DejaVuSans-56"/>
       <use x="63.623047" xlink:href="#DejaVuSans-48"/>
       <use x="127.246094" xlink:href="#DejaVuSans-48"/>
      </g>
     </g>
    </g>
    <g id="xtick_6">
     <g id="line2d_11">
      <path clip-path="url(#pf578835628)" d="M 1267.330981 659.72 
L 1267.330981 26.88 
" style="fill:none;stroke:#b0b0b0;stroke-linecap:square;stroke-width:0.8;"/>
     </g>
     <g id="line2d_12">
      <g>
       <use style="stroke:#000000;stroke-width:0.8;" x="1267.330981" xlink:href="#m01c46d7998" y="659.72"/>
      </g>
     </g>
     <g id="text_6">
      <!-- 1000 -->
      <defs>
       <path d="M 12.40625 8.296875 
L 28.515625 8.296875 
L 28.515625 63.921875 
L 10.984375 60.40625 
L 10.984375 69.390625 
L 28.421875 72.90625 
L 38.28125 72.90625 
L 38.28125 8.296875 
L 54.390625 8.296875 
L 54.390625 0 
L 12.40625 0 
z
" id="DejaVuSans-49"/>
      </defs>
      <g transform="translate(1254.605981 674.318438)scale(0.1 -0.1)">
       <use xlink:href="#DejaVuSans-49"/>
       <use x="63.623047" xlink:href="#DejaVuSans-48"/>
       <use x="127.246094" xlink:href="#DejaVuSans-48"/>
       <use x="190.869141" xlink:href="#DejaVuSans-48"/>
      </g>
     </g>
    </g>
   </g>
   <g id="matplotlib.axis_2">
    <g id="ytick_1">
     <g id="line2d_13">
      <path clip-path="url(#pf578835628)" d="M 65.54 649.17628 
L 1323.36 649.17628 
" style="fill:none;stroke:#b0b0b0;stroke-linecap:square;stroke-width:0.8;"/>
     </g>
     <g id="line2d_14">
      <defs>
       <path d="M 0 0 
L -3.5 0 
" id="mba39bc1939" style="stroke:#000000;stroke-width:0.8;"/>
      </defs>
      <g>
       <use style="stroke:#000000;stroke-width:0.8;" x="65.54" xlink:href="#mba39bc1939" y="649.17628"/>
      </g>
     </g>
     <g id="text_7">
      <!-- −2000 -->
      <defs>
       <path d="M 10.59375 35.5 
L 73.1875 35.5 
L 73.1875 27.203125 
L 10.59375 27.203125 
z
" id="DejaVuSans-8722"/>
      </defs>
      <g transform="translate(24.710313 652.975499)scale(0.1 -0.1)">
       <use xlink:href="#DejaVuSans-8722"/>
       <use x="83.789062" xlink:href="#DejaVuSans-50"/>
       <use x="147.412109" xlink:href="#DejaVuSans-48"/>
       <use x="211.035156" xlink:href="#DejaVuSans-48"/>
       <use x="274.658203" xlink:href="#DejaVuSans-48"/>
      </g>
     </g>
    </g>
    <g id="ytick_2">
     <g id="line2d_15">
      <path clip-path="url(#pf578835628)" d="M 65.54 571.505847 
L 1323.36 571.505847 
" style="fill:none;stroke:#b0b0b0;stroke-linecap:square;stroke-width:0.8;"/>
     </g>
     <g id="line2d_16">
      <g>
       <use style="stroke:#000000;stroke-width:0.8;" x="65.54" xlink:href="#mba39bc1939" y="571.505847"/>
      </g>
     </g>
     <g id="text_8">
      <!-- −1500 -->
      <defs>
       <path d="M 10.796875 72.90625 
L 49.515625 72.90625 
L 49.515625 64.59375 
L 19.828125 64.59375 
L 19.828125 46.734375 
Q 21.96875 47.46875 24.109375 47.828125 
Q 26.265625 48.1875 28.421875 48.1875 
Q 40.625 48.1875 47.75 41.5 
Q 54.890625 34.8125 54.890625 23.390625 
Q 54.890625 11.625 47.5625 5.09375 
Q 40.234375 -1.421875 26.90625 -1.421875 
Q 22.3125 -1.421875 17.546875 -0.640625 
Q 12.796875 0.140625 7.71875 1.703125 
L 7.71875 11.625 
Q 12.109375 9.234375 16.796875 8.0625 
Q 21.484375 6.890625 26.703125 6.890625 
Q 35.15625 6.890625 40.078125 11.328125 
Q 45.015625 15.765625 45.015625 23.390625 
Q 45.015625 31 40.078125 35.4375 
Q 35.15625 39.890625 26.703125 39.890625 
Q 22.75 39.890625 18.8125 39.015625 
Q 14.890625 38.140625 10.796875 36.28125 
z
" id="DejaVuSans-53"/>
      </defs>
      <g transform="translate(24.710313 575.305066)scale(0.1 -0.1)">
       <use xlink:href="#DejaVuSans-8722"/>
       <use x="83.789062" xlink:href="#DejaVuSans-49"/>
       <use x="147.412109" xlink:href="#DejaVuSans-53"/>
       <use x="211.035156" xlink:href="#DejaVuSans-48"/>
       <use x="274.658203" xlink:href="#DejaVuSans-48"/>
      </g>
     </g>
    </g>
    <g id="ytick_3">
     <g id="line2d_17">
      <path clip-path="url(#pf578835628)" d="M 65.54 493.835414 
L 1323.36 493.835414 
" style="fill:none;stroke:#b0b0b0;stroke-linecap:square;stroke-width:0.8;"/>
     </g>
     <g id="line2d_18">
      <g>
       <use style="stroke:#000000;stroke-width:0.8;" x="65.54" xlink:href="#mba39bc1939" y="493.835414"/>
      </g>
     </g>
     <g id="text_9">
      <!-- −1000 -->
      <g transform="translate(24.710313 497.634633)scale(0.1 -0.1)">
       <use xlink:href="#DejaVuSans-8722"/>
       <use x="83.789062" xlink:href="#DejaVuSans-49"/>
       <use x="147.412109" xlink:href="#DejaVuSans-48"/>
       <use x="211.035156" xlink:href="#DejaVuSans-48"/>
       <use x="274.658203" xlink:href="#DejaVuSans-48"/>
      </g>
     </g>
    </g>
    <g id="ytick_4">
     <g id="line2d_19">
      <path clip-path="url(#pf578835628)" d="M 65.54 416.164981 
L 1323.36 416.164981 
" style="fill:none;stroke:#b0b0b0;stroke-linecap:square;stroke-width:0.8;"/>
     </g>
     <g id="line2d_20">
      <g>
       <use style="stroke:#000000;stroke-width:0.8;" x="65.54" xlink:href="#mba39bc1939" y="416.164981"/>
      </g>
     </g>
     <g id="text_10">
      <!-- −500 -->
      <g transform="translate(31.072813 419.9642)scale(0.1 -0.1)">
       <use xlink:href="#DejaVuSans-8722"/>
       <use x="83.789062" xlink:href="#DejaVuSans-53"/>
       <use x="147.412109" xlink:href="#DejaVuSans-48"/>
       <use x="211.035156" xlink:href="#DejaVuSans-48"/>
      </g>
     </g>
    </g>
    <g id="ytick_5">
     <g id="line2d_21">
      <path clip-path="url(#pf578835628)" d="M 65.54 338.494549 
L 1323.36 338.494549 
" style="fill:none;stroke:#b0b0b0;stroke-linecap:square;stroke-width:0.8;"/>
     </g>
     <g id="line2d_22">
      <g>
       <use style="stroke:#000000;stroke-width:0.8;" x="65.54" xlink:href="#mba39bc1939" y="338.494549"/>
      </g>
     </g>
     <g id="text_11">
      <!-- 0 -->
      <g transform="translate(52.1775 342.293767)scale(0.1 -0.1)">
       <use xlink:href="#DejaVuSans-48"/>
      </g>
     </g>
    </g>
    <g id="ytick_6">
     <g id="line2d_23">
      <path clip-path="url(#pf578835628)" d="M 65.54 260.824116 
L 1323.36 260.824116 
" style="fill:none;stroke:#b0b0b0;stroke-linecap:square;stroke-width:0.8;"/>
     </g>
     <g id="line2d_24">
      <g>
       <use style="stroke:#000000;stroke-width:0.8;" x="65.54" xlink:href="#mba39bc1939" y="260.824116"/>
      </g>
     </g>
     <g id="text_12">
      <!-- 500 -->
      <g transform="translate(39.4525 264.623334)scale(0.1 -0.1)">
       <use xlink:href="#DejaVuSans-53"/>
       <use x="63.623047" xlink:href="#DejaVuSans-48"/>
       <use x="127.246094" xlink:href="#DejaVuSans-48"/>
      </g>
     </g>
    </g>
    <g id="ytick_7">
     <g id="line2d_25">
      <path clip-path="url(#pf578835628)" d="M 65.54 183.153683 
L 1323.36 183.153683 
" style="fill:none;stroke:#b0b0b0;stroke-linecap:square;stroke-width:0.8;"/>
     </g>
     <g id="line2d_26">
      <g>
       <use style="stroke:#000000;stroke-width:0.8;" x="65.54" xlink:href="#mba39bc1939" y="183.153683"/>
      </g>
     </g>
     <g id="text_13">
      <!-- 1000 -->
      <g transform="translate(33.09 186.952901)scale(0.1 -0.1)">
       <use xlink:href="#DejaVuSans-49"/>
       <use x="63.623047" xlink:href="#DejaVuSans-48"/>
       <use x="127.246094" xlink:href="#DejaVuSans-48"/>
       <use x="190.869141" xlink:href="#DejaVuSans-48"/>
      </g>
     </g>
    </g>
    <g id="ytick_8">
     <g id="line2d_27">
      <path clip-path="url(#pf578835628)" d="M 65.54 105.48325 
L 1323.36 105.48325 
" style="fill:none;stroke:#b0b0b0;stroke-linecap:square;stroke-width:0.8;"/>
     </g>
     <g id="line2d_28">
      <g>
       <use style="stroke:#000000;stroke-width:0.8;" x="65.54" xlink:href="#mba39bc1939" y="105.48325"/>
      </g>
     </g>
     <g id="text_14">
      <!-- 1500 -->
      <g transform="translate(33.09 109.282468)scale(0.1 -0.1)">
       <use xlink:href="#DejaVuSans-49"/>
       <use x="63.623047" xlink:href="#DejaVuSans-53"/>
       <use x="127.246094" xlink:href="#DejaVuSans-48"/>
       <use x="190.869141" xlink:href="#DejaVuSans-48"/>
      </g>
     </g>
    </g>
    <g id="ytick_9">
     <g id="line2d_29">
      <path clip-path="url(#pf578835628)" d="M 65.54 27.812817 
L 1323.36 27.812817 
" style="fill:none;stroke:#b0b0b0;stroke-linecap:square;stroke-width:0.8;"/>
     </g>
     <g id="line2d_30">
      <g>
       <use style="stroke:#000000;stroke-width:0.8;" x="65.54" xlink:href="#mba39bc1939" y="27.812817"/>
      </g>
     </g>
     <g id="text_15">
      <!-- 2000 -->
      <g transform="translate(33.09 31.612036)scale(0.1 -0.1)">
       <use xlink:href="#DejaVuSans-50"/>
       <use x="63.623047" xlink:href="#DejaVuSans-48"/>
       <use x="127.246094" xlink:href="#DejaVuSans-48"/>
       <use x="190.869141" xlink:href="#DejaVuSans-48"/>
      </g>
     </g>
    </g>
    <g id="text_16">
     <!-- count -->
     <defs>
      <path d="M 48.78125 52.59375 
L 48.78125 44.1875 
Q 44.96875 46.296875 41.140625 47.34375 
Q 37.3125 48.390625 33.40625 48.390625 
Q 24.65625 48.390625 19.8125 42.84375 
Q 14.984375 37.3125 14.984375 27.296875 
Q 14.984375 17.28125 19.8125 11.734375 
Q 24.65625 6.203125 33.40625 6.203125 
Q 37.3125 6.203125 41.140625 7.25 
Q 44.96875 8.296875 48.78125 10.40625 
L 48.78125 2.09375 
Q 45.015625 0.34375 40.984375 -0.53125 
Q 36.96875 -1.421875 32.421875 -1.421875 
Q 20.0625 -1.421875 12.78125 6.34375 
Q 5.515625 14.109375 5.515625 27.296875 
Q 5.515625 40.671875 12.859375 48.328125 
Q 20.21875 56 33.015625 56 
Q 37.15625 56 41.109375 55.140625 
Q 45.0625 54.296875 48.78125 52.59375 
z
" id="DejaVuSans-99"/>
      <path d="M 30.609375 48.390625 
Q 23.390625 48.390625 19.1875 42.75 
Q 14.984375 37.109375 14.984375 27.296875 
Q 14.984375 17.484375 19.15625 11.84375 
Q 23.34375 6.203125 30.609375 6.203125 
Q 37.796875 6.203125 41.984375 11.859375 
Q 46.1875 17.53125 46.1875 27.296875 
Q 46.1875 37.015625 41.984375 42.703125 
Q 37.796875 48.390625 30.609375 48.390625 
z
M 30.609375 56 
Q 42.328125 56 49.015625 48.375 
Q 55.71875 40.765625 55.71875 27.296875 
Q 55.71875 13.875 49.015625 6.21875 
Q 42.328125 -1.421875 30.609375 -1.421875 
Q 18.84375 -1.421875 12.171875 6.21875 
Q 5.515625 13.875 5.515625 27.296875 
Q 5.515625 40.765625 12.171875 48.375 
Q 18.84375 56 30.609375 56 
z
" id="DejaVuSans-111"/>
      <path d="M 8.5 21.578125 
L 8.5 54.6875 
L 17.484375 54.6875 
L 17.484375 21.921875 
Q 17.484375 14.15625 20.5 10.265625 
Q 23.53125 6.390625 29.59375 6.390625 
Q 36.859375 6.390625 41.078125 11.03125 
Q 45.3125 15.671875 45.3125 23.6875 
L 45.3125 54.6875 
L 54.296875 54.6875 
L 54.296875 0 
L 45.3125 0 
L 45.3125 8.40625 
Q 42.046875 3.421875 37.71875 1 
Q 33.40625 -1.421875 27.6875 -1.421875 
Q 18.265625 -1.421875 13.375 4.4375 
Q 8.5 10.296875 8.5 21.578125 
z
M 31.109375 56 
z
" id="DejaVuSans-117"/>
      <path d="M 54.890625 33.015625 
L 54.890625 0 
L 45.90625 0 
L 45.90625 32.71875 
Q 45.90625 40.484375 42.875 44.328125 
Q 39.84375 48.1875 33.796875 48.1875 
Q 26.515625 48.1875 22.3125 43.546875 
Q 18.109375 38.921875 18.109375 30.90625 
L 18.109375 0 
L 9.078125 0 
L 9.078125 54.6875 
L 18.109375 54.6875 
L 18.109375 46.1875 
Q 21.34375 51.125 25.703125 53.5625 
Q 30.078125 56 35.796875 56 
Q 45.21875 56 50.046875 50.171875 
Q 54.890625 44.34375 54.890625 33.015625 
z
" id="DejaVuSans-110"/>
      <path d="M 18.3125 70.21875 
L 18.3125 54.6875 
L 36.8125 54.6875 
L 36.8125 47.703125 
L 18.3125 47.703125 
L 18.3125 18.015625 
Q 18.3125 11.328125 20.140625 9.421875 
Q 21.96875 7.515625 27.59375 7.515625 
L 36.8125 7.515625 
L 36.8125 0 
L 27.59375 0 
Q 17.1875 0 13.234375 3.875 
Q 9.28125 7.765625 9.28125 18.015625 
L 9.28125 47.703125 
L 2.6875 47.703125 
L 2.6875 54.6875 
L 9.28125 54.6875 
L 9.28125 70.21875 
z
" id="DejaVuSans-116"/>
     </defs>
     <g transform="translate(18.630625 357.40625)rotate(-90)scale(0.1 -0.1)">
      <use xlink:href="#DejaVuSans-99"/>
      <use x="54.980469" xlink:href="#DejaVuSans-111"/>
      <use x="116.162109" xlink:href="#DejaVuSans-117"/>
      <use x="179.541016" xlink:href="#DejaVuSans-110"/>
      <use x="242.919922" xlink:href="#DejaVuSans-116"/>
     </g>
    </g>
   </g>
   <g id="line2d_31">
    <path clip-path="url(#pf578835628)" d="M 122.713636 379.448032 
L 123.858254 371.61795 
L 125.002871 379.278329 
L 126.147488 369.069994 
L 127.292106 363.427301 
L 128.436723 366.025775 
L 129.58134 351.383721 
L 130.725958 355.670635 
L 131.870575 350.61374 
L 133.015192 344.157933 
L 134.15981 346.590018 
L 135.304427 329.962613 
L 136.449044 332.338865 
L 137.593662 339.50334 
L 138.738279 328.070157 
L 139.882897 325.846465 
L 141.027514 319.394118 
L 142.172131 318.480215 
L 143.316749 311.465472 
L 144.461366 297.939456 
L 145.605983 317.697837 
L 146.750601 313.726058 
L 147.895218 305.130163 
L 149.039835 305.817134 
L 150.184453 296.385391 
L 151.32907 292.142395 
L 152.473687 280.239567 
L 153.618305 269.946688 
L 154.762922 267.177065 
L 155.907539 265.88256 
L 157.052157 261.126517 
L 158.196774 274.264319 
L 159.341391 269.717453 
L 160.486009 277.246802 
L 161.630626 276.287421 
L 162.775243 257.334353 
L 163.919861 268.656285 
L 165.064478 249.367516 
L 166.209095 251.964821 
L 167.353713 261.987164 
L 168.49833 261.76923 
L 169.642947 264.019956 
L 170.787565 250.015745 
L 171.932182 262.312544 
L 173.0768 261.851746 
L 174.221417 252.71351 
L 175.366034 250.617274 
L 176.510652 242.195279 
L 177.655269 242.632241 
L 178.799886 241.709447 
L 179.944504 234.123353 
L 181.089121 230.332041 
L 182.233738 234.952568 
L 183.378356 237.014449 
L 184.522973 228.195106 
L 185.66759 229.48073 
L 186.812208 239.322229 
L 187.956825 225.806571 
L 189.101442 234.469637 
L 190.24606 238.765791 
L 191.390677 218.204804 
L 192.535294 236.406499 
L 194.824529 246.069862 
L 195.969146 246.521146 
L 197.113764 233.545875 
L 198.258381 232.034939 
L 199.402998 222.976355 
L 200.547616 233.055634 
L 201.692233 215.500775 
L 202.83685 212.626198 
L 203.981468 229.002588 
L 205.126085 220.448785 
L 206.270703 230.715204 
L 207.41532 217.471555 
L 208.559937 223.202384 
L 209.704555 242.096725 
L 210.849172 219.166284 
L 211.993789 219.802798 
L 213.138407 227.81131 
L 214.283024 224.154258 
L 215.427641 229.993351 
L 216.572259 237.837196 
L 217.716876 235.850975 
L 218.861493 224.812284 
L 220.006111 234.512556 
L 221.150728 239.827493 
L 222.295345 240.896501 
L 223.439963 246.108525 
L 224.58458 233.628308 
L 226.873815 240.695911 
L 228.018432 231.154095 
L 229.163049 246.888364 
L 230.307667 252.844709 
L 231.452284 238.792384 
L 232.596901 237.323284 
L 233.741519 234.890514 
L 234.886136 236.569855 
L 236.030753 248.493432 
L 237.175371 251.223155 
L 238.319988 250.403499 
L 239.464606 258.374981 
L 240.609223 268.737445 
L 241.75384 271.170271 
L 242.898458 268.220937 
L 244.043075 271.067718 
L 245.187692 275.854834 
L 246.33231 259.137382 
L 247.476927 267.004292 
L 248.621544 286.127173 
L 249.766162 268.608403 
L 250.910779 278.752384 
L 252.055396 278.985858 
L 253.200014 277.422629 
L 254.344631 291.542452 
L 255.489248 275.752292 
L 256.633866 273.203017 
L 257.778483 281.176507 
L 258.9231 283.589473 
L 260.067718 286.885919 
L 261.212335 297.912445 
L 262.356952 298.534927 
L 263.50157 295.507522 
L 264.646187 306.217734 
L 265.790804 299.042925 
L 266.935422 304.363148 
L 268.080039 312.756381 
L 269.224656 299.210956 
L 270.369274 313.648254 
L 271.513891 314.967601 
L 272.658509 304.203555 
L 273.803126 315.523713 
L 274.947743 309.547697 
L 276.092361 309.148108 
L 277.236978 313.686856 
L 278.381595 306.957096 
L 279.526213 309.192142 
L 280.67083 317.656511 
L 281.815447 315.335508 
L 282.960065 307.010544 
L 284.104682 312.134467 
L 286.393917 330.727378 
L 287.538534 323.564822 
L 288.683151 324.610152 
L 289.827769 336.501282 
L 290.972386 326.638554 
L 292.117003 329.195762 
L 293.261621 324.669123 
L 294.406238 328.723998 
L 295.550855 339.247477 
L 296.695473 319.961738 
L 297.84009 328.07467 
L 298.984707 341.150706 
L 300.129325 325.709903 
L 301.273942 336.776987 
L 302.418559 350.415453 
L 303.563177 337.653801 
L 304.707794 343.666987 
L 305.852412 346.146253 
L 306.997029 341.537081 
L 308.141646 348.102731 
L 309.286264 346.377434 
L 311.575498 360.586027 
L 312.720116 359.73216 
L 313.864733 357.086356 
L 315.00935 359.584442 
L 316.153968 366.753335 
L 317.298585 371.103418 
L 318.443202 387.851727 
L 319.58782 380.830975 
L 320.732437 372.664625 
L 323.021672 385.106524 
L 324.166289 401.41617 
L 325.310906 395.644187 
L 326.455524 397.693727 
L 327.600141 407.463674 
L 328.744758 413.696835 
L 329.889376 415.587048 
L 331.033993 428.860079 
L 332.17861 433.886658 
L 333.323228 418.552455 
L 334.467845 428.296688 
L 335.612462 421.808765 
L 336.75708 431.5537 
L 337.901697 444.471078 
L 339.046314 439.210409 
L 340.190932 454.258463 
L 341.335549 458.235703 
L 342.480167 451.955588 
L 343.624784 455.159328 
L 344.769401 462.801214 
L 345.914019 464.189328 
L 347.058636 467.929024 
L 348.203253 470.274318 
L 349.347871 472.032485 
L 350.492488 475.971562 
L 351.637105 482.018393 
L 352.781723 485.822324 
L 353.92634 490.356533 
L 355.070957 486.578468 
L 356.215575 487.28847 
L 357.360192 508.538464 
L 358.504809 500.600503 
L 359.649427 495.288759 
L 360.794044 500.925058 
L 361.938661 487.659415 
L 363.083279 502.257702 
L 364.227896 510.498449 
L 365.372513 502.954736 
L 366.517131 506.728786 
L 367.661748 505.406985 
L 368.806365 512.601203 
L 369.950983 517.334883 
L 371.0956 521.059413 
L 373.384835 508.622786 
L 374.529452 509.600096 
L 375.67407 498.382096 
L 376.818687 496.761408 
L 377.963304 503.816788 
L 379.107922 493.591101 
L 380.252539 490.638541 
L 381.397156 506.185749 
L 382.541774 499.742298 
L 383.686391 500.138385 
L 384.831008 507.457616 
L 385.975626 499.772392 
L 387.120243 495.602333 
L 388.26486 482.457532 
L 389.409478 473.928636 
L 390.554095 468.189367 
L 391.698712 471.111552 
L 392.84333 470.035404 
L 393.987947 453.629083 
L 395.132564 465.94701 
L 396.277182 453.33419 
L 397.421799 437.689938 
L 398.566416 448.918036 
L 399.711034 436.021758 
L 400.855651 427.445479 
L 402.000268 420.914279 
L 403.144886 419.268447 
L 404.289503 410.889696 
L 405.43412 407.460334 
L 406.578738 402.25096 
L 407.723355 393.487676 
L 408.867973 382.970464 
L 410.01259 365.718447 
L 411.157207 377.257439 
L 412.301825 361.333337 
L 413.446442 362.85113 
L 414.591059 361.992136 
L 415.735677 337.286999 
L 416.880294 349.726603 
L 418.024911 340.036044 
L 419.169529 322.382615 
L 420.314146 311.091483 
L 421.458763 309.324967 
L 422.603381 302.717734 
L 423.747998 289.596003 
L 424.892615 293.098977 
L 426.037233 273.415423 
L 427.18185 271.188713 
L 428.326467 263.3931 
L 429.471085 241.808279 
L 430.615702 256.096699 
L 431.760319 246.4128 
L 432.904937 242.112183 
L 434.049554 239.967401 
L 435.194171 223.101141 
L 436.338789 218.587532 
L 437.483406 218.389891 
L 438.628023 218.396352 
L 439.772641 203.47256 
L 440.917258 201.309718 
L 442.061876 198.202803 
L 443.206493 196.62959 
L 444.35111 190.276778 
L 445.495728 175.024118 
L 446.640345 183.41111 
L 447.784962 172.494529 
L 448.92958 165.367782 
L 450.074197 174.596377 
L 451.218814 159.152942 
L 452.363432 158.35195 
L 453.508049 161.788981 
L 454.652666 158.323796 
L 455.797284 160.559809 
L 456.941901 158.838275 
L 458.086518 161.082234 
L 459.231136 149.895643 
L 460.375753 142.070038 
L 461.52037 144.989736 
L 462.664988 146.082186 
L 463.809605 138.377529 
L 464.954222 136.223692 
L 466.09884 148.76504 
L 467.243457 144.347761 
L 468.388074 153.779667 
L 469.532692 152.006782 
L 470.677309 137.864895 
L 471.821926 159.74483 
L 472.966544 148.012944 
L 474.111161 132.490776 
L 475.255779 145.553241 
L 476.400396 139.663684 
L 477.545013 140.958009 
L 478.689631 145.99552 
L 479.834248 144.41536 
L 480.978865 151.561533 
L 482.123483 161.801029 
L 483.2681 160.818084 
L 484.412717 162.882583 
L 485.557335 156.282349 
L 486.701952 157.958241 
L 487.846569 168.559928 
L 488.991187 160.288455 
L 490.135804 169.516728 
L 491.280421 169.239223 
L 492.425039 173.364362 
L 493.569656 180.984672 
L 494.714273 174.105267 
L 495.858891 188.956988 
L 497.003508 199.005814 
L 498.148125 196.914722 
L 499.292743 200.345535 
L 500.43736 195.824362 
L 501.581977 196.44751 
L 502.726595 208.009 
L 503.871212 205.700428 
L 506.160447 222.071418 
L 507.305064 228.32548 
L 508.449681 242.114177 
L 509.594299 247.600776 
L 510.738916 251.927735 
L 511.883534 246.267827 
L 513.028151 253.41057 
L 514.172768 258.422189 
L 515.317386 252.200826 
L 516.462003 263.077731 
L 517.60662 265.128754 
L 518.751238 269.029672 
L 521.040472 285.423774 
L 522.18509 296.388279 
L 523.329707 302.940616 
L 524.474324 308.734915 
L 525.618942 311.653623 
L 526.763559 328.292057 
L 527.908176 327.941889 
L 529.052794 327.808805 
L 530.197411 339.194166 
L 531.342028 334.519697 
L 532.486646 354.954683 
L 533.631263 370.337586 
L 534.77588 372.266125 
L 535.920498 376.455087 
L 537.065115 377.480874 
L 538.209732 399.436505 
L 539.35435 406.640416 
L 540.498967 405.219234 
L 541.643584 407.829921 
L 542.788202 404.255174 
L 543.932819 407.379905 
L 545.077437 426.765815 
L 546.222054 434.676737 
L 547.366671 420.629313 
L 548.511289 438.05995 
L 549.655906 449.878829 
L 550.800523 457.635928 
L 551.945141 479.489679 
L 553.089758 469.893342 
L 554.234375 477.54457 
L 555.378993 495.463562 
L 556.52361 495.038485 
L 557.668227 509.868757 
L 558.812845 513.627952 
L 559.957462 518.284661 
L 561.102079 530.530377 
L 562.246697 525.204447 
L 563.391314 522.741985 
L 564.535931 534.206221 
L 565.680549 547.832338 
L 566.825166 549.636571 
L 567.969783 549.473226 
L 569.114401 548.169069 
L 570.259018 549.122551 
L 571.403635 553.787403 
L 572.548253 566.62463 
L 573.69287 572.081289 
L 574.837487 570.086224 
L 575.982105 580.74559 
L 577.126722 570.483809 
L 578.27134 574.363569 
L 579.415957 595.439531 
L 580.560574 580.271166 
L 582.849809 600.384529 
L 583.994426 581.819959 
L 585.139044 606.533317 
L 587.428278 584.805858 
L 588.572896 605.704317 
L 589.717513 590.043204 
L 590.86213 605.789048 
L 592.006748 605.768642 
L 593.151365 594.157437 
L 594.295982 605.258782 
L 595.4406 599.670518 
L 596.585217 595.965129 
L 597.729834 593.92961 
L 598.874452 603.900935 
L 600.019069 587.128986 
L 601.163686 579.479008 
L 602.308304 586.77154 
L 603.452921 574.441828 
L 604.597538 576.13623 
L 605.742156 577.493731 
L 606.886773 590.289682 
L 608.03139 581.444879 
L 609.176008 574.430641 
L 610.320625 574.538648 
L 611.465243 563.047327 
L 612.60986 576.552469 
L 613.754477 566.866682 
L 614.899095 552.774705 
L 617.188329 552.773725 
L 618.332947 539.817576 
L 619.477564 525.015395 
L 620.622181 537.009245 
L 621.766799 526.943319 
L 622.911416 510.662771 
L 624.056033 499.98959 
L 625.200651 501.776615 
L 626.345268 503.088892 
L 627.489885 491.562371 
L 628.634503 491.149874 
L 629.77912 477.5003 
L 630.923737 475.80301 
L 632.068355 472.682976 
L 633.212972 473.382536 
L 634.357589 456.536321 
L 635.502207 426.99797 
L 636.646824 435.16171 
L 637.791441 421.430753 
L 638.936059 418.762195 
L 640.080676 424.201701 
L 641.225293 411.200331 
L 642.369911 403.893036 
L 643.514528 399.80704 
L 644.659146 404.341139 
L 645.803763 387.415769 
L 646.94838 376.016181 
L 648.092998 374.706647 
L 649.237615 362.684831 
L 650.382232 346.568075 
L 651.52685 337.957771 
L 652.671467 343.033851 
L 653.816084 328.038453 
L 654.960702 329.079939 
L 656.105319 318.897598 
L 657.249936 305.347037 
L 658.394554 318.342372 
L 659.539171 299.103671 
L 660.683788 293.914507 
L 661.828406 279.707741 
L 662.973023 281.384889 
L 664.11764 279.177842 
L 665.262258 249.83325 
L 666.406875 259.952336 
L 667.551492 244.227244 
L 668.69611 244.454853 
L 669.840727 245.144504 
L 670.985344 232.222583 
L 672.129962 230.891403 
L 673.274579 223.35714 
L 674.419196 235.03842 
L 675.563814 226.494657 
L 676.708431 226.807006 
L 677.853049 218.727582 
L 678.997666 197.336617 
L 680.142283 202.34846 
L 681.286901 202.957094 
L 682.431518 202.361211 
L 683.576135 203.656811 
L 684.720753 208.310767 
L 685.86537 194.513475 
L 687.009987 189.1524 
L 688.154605 200.821523 
L 689.299222 186.483608 
L 690.443839 184.120133 
L 691.588457 195.485545 
L 692.733074 195.069923 
L 695.022309 183.604453 
L 696.166926 182.504775 
L 697.311543 188.832029 
L 698.456161 185.687205 
L 699.600778 179.032653 
L 700.745395 182.89181 
L 701.890013 176.905445 
L 703.03463 178.815991 
L 704.179247 177.518481 
L 705.323865 181.67541 
L 706.468482 194.776581 
L 707.613099 188.256745 
L 708.757717 194.080184 
L 709.902334 194.578102 
L 711.046951 193.743235 
L 712.191569 201.399683 
L 713.336186 203.516748 
L 714.480804 204.093184 
L 715.625421 200.581314 
L 716.770038 202.284403 
L 717.914656 200.934757 
L 720.20389 224.844314 
L 721.348508 221.400175 
L 722.493125 228.967733 
L 723.637742 232.212316 
L 724.78236 233.564561 
L 725.926977 242.25408 
L 727.071594 239.702405 
L 728.216212 227.955445 
L 729.360829 242.922013 
L 730.505446 249.043598 
L 731.650064 227.196142 
L 732.794681 244.920945 
L 733.939298 260.894249 
L 736.228533 252.175792 
L 737.37315 253.054139 
L 738.517768 269.379074 
L 739.662385 268.094582 
L 740.807002 271.011336 
L 741.95162 276.617144 
L 743.096237 271.68076 
L 744.240854 273.966189 
L 745.385472 277.432461 
L 746.530089 278.525286 
L 747.674707 275.181741 
L 748.819324 276.56312 
L 749.963941 289.2401 
L 751.108559 293.28155 
L 752.253176 294.465773 
L 753.397793 298.538723 
L 754.542411 298.834295 
L 755.687028 304.184839 
L 756.831645 297.920845 
L 757.976263 292.645964 
L 759.12088 284.663837 
L 760.265497 283.082315 
L 761.410115 297.017274 
L 762.554732 289.744122 
L 763.699349 294.042457 
L 764.843967 296.547529 
L 765.988584 297.163401 
L 767.133201 303.43879 
L 768.277819 292.724546 
L 769.422436 292.317411 
L 770.567053 294.7028 
L 771.711671 291.079288 
L 772.856288 286.227539 
L 774.000905 289.970033 
L 775.145523 296.373458 
L 776.29014 292.971049 
L 777.434757 293.223429 
L 778.579375 299.916109 
L 779.723992 303.974722 
L 780.86861 302.120615 
L 782.013227 301.575343 
L 783.157844 306.728694 
L 784.302462 299.209561 
L 785.447079 298.532959 
L 786.591696 303.714421 
L 787.736314 295.308015 
L 788.880931 297.290343 
L 790.025548 295.724847 
L 791.170166 289.199149 
L 792.314783 290.102152 
L 793.4594 298.193727 
L 794.604018 291.996913 
L 795.748635 294.134499 
L 796.893252 311.671364 
L 798.03787 292.298021 
L 799.182487 289.173179 
L 800.327104 301.468303 
L 801.471722 309.119217 
L 802.616339 307.840627 
L 803.760956 294.101637 
L 804.905574 313.391637 
L 806.050191 300.452991 
L 807.194808 302.177293 
L 808.339426 310.449676 
L 809.484043 285.93482 
L 810.62866 314.668211 
L 811.773278 308.576434 
L 812.917895 293.237752 
L 814.062513 308.995831 
L 815.20713 310.36999 
L 816.351747 317.995486 
L 817.496365 309.508935 
L 818.640982 307.287553 
L 819.785599 314.645038 
L 820.930217 321.029944 
L 822.074834 334.569505 
L 823.219451 329.047672 
L 824.364069 321.586887 
L 825.508686 326.312545 
L 826.653303 323.116001 
L 827.797921 325.702432 
L 828.942538 333.578207 
L 830.087155 331.89856 
L 831.231773 333.656528 
L 832.37639 340.573998 
L 833.521007 328.336577 
L 834.665625 334.091541 
L 835.810242 350.68387 
L 836.954859 338.635097 
L 838.099477 338.302205 
L 839.244094 339.985524 
L 840.388711 350.801259 
L 841.533329 355.014799 
L 842.677946 353.906904 
L 843.822563 357.58282 
L 844.967181 342.964404 
L 846.111798 353.131949 
L 847.256416 356.411568 
L 848.401033 362.65116 
L 849.54565 380.156409 
L 850.690268 368.211891 
L 851.834885 365.825202 
L 852.979502 371.771941 
L 854.12412 382.41785 
L 855.268737 384.005192 
L 856.413354 377.131254 
L 857.557972 390.037349 
L 858.702589 392.279342 
L 859.847206 391.229687 
L 860.991824 397.844694 
L 862.136441 402.24596 
L 863.281058 414.28236 
L 864.425676 419.489163 
L 865.570293 404.178109 
L 866.71491 399.582087 
L 867.859528 411.163983 
L 869.004145 409.971903 
L 870.148762 415.978685 
L 871.29338 421.154923 
L 872.437997 413.605104 
L 873.582614 418.957862 
L 874.727232 423.193036 
L 875.871849 423.746348 
L 877.016466 427.612591 
L 878.161084 440.183522 
L 879.305701 436.568259 
L 880.450319 434.406016 
L 881.594936 454.12727 
L 882.739553 441.37743 
L 883.884171 446.722543 
L 885.028788 444.819338 
L 886.173405 431.318152 
L 887.318023 452.290896 
L 888.46264 444.876601 
L 889.607257 449.879427 
L 890.751875 458.49047 
L 891.896492 449.041681 
L 893.041109 458.489996 
L 894.185727 461.922418 
L 895.330344 462.128671 
L 896.474961 463.490982 
L 897.619579 456.496384 
L 898.764196 458.380001 
L 899.908813 458.92072 
L 901.053431 447.922694 
L 902.198048 456.020555 
L 903.342665 466.547389 
L 904.487283 459.553082 
L 905.6319 465.710529 
L 906.776517 470.073917 
L 907.921135 457.111493 
L 909.065752 465.591988 
L 910.210369 467.158754 
L 911.354987 456.990877 
L 912.499604 461.602905 
L 913.644221 447.659905 
L 914.788839 440.82911 
L 915.933456 446.385033 
L 917.078074 439.627051 
L 918.222691 440.668629 
L 919.367308 432.753107 
L 920.511926 427.175915 
L 921.656543 430.129235 
L 922.80116 421.317176 
L 923.945778 424.809739 
L 925.090395 419.730415 
L 926.235012 424.848498 
L 927.37963 429.287416 
L 928.524247 412.131131 
L 929.668864 417.178654 
L 930.813482 409.938325 
L 931.958099 410.217526 
L 933.102716 407.534435 
L 934.247334 392.51147 
L 935.391951 388.629355 
L 936.536568 389.111862 
L 937.681186 386.635305 
L 938.825803 365.0983 
L 939.97042 378.76448 
L 941.115038 376.214278 
L 942.259655 355.986108 
L 943.404272 368.172395 
L 944.54889 350.136468 
L 945.693507 349.777068 
L 946.838124 360.257983 
L 947.982742 327.433788 
L 949.127359 327.598228 
L 950.271977 351.43373 
L 951.416594 335.663141 
L 952.561211 329.251278 
L 953.705829 337.094767 
L 954.850446 322.971092 
L 955.995063 327.786704 
L 958.284298 311.964889 
L 959.428915 318.647749 
L 960.573533 303.410858 
L 961.71815 314.036328 
L 962.862767 312.702849 
L 964.007385 300.714398 
L 965.152002 304.093922 
L 966.296619 291.933887 
L 967.441237 282.010555 
L 968.585854 291.830435 
L 969.730471 293.855972 
L 970.875089 284.823415 
L 972.019706 286.488549 
L 973.164323 282.154339 
L 974.308941 283.019528 
L 975.453558 286.929391 
L 976.598175 284.15663 
L 977.742793 276.446936 
L 978.88741 275.424982 
L 980.032027 276.444027 
L 981.176645 268.58829 
L 982.321262 272.778445 
L 983.46588 274.259199 
L 984.610497 260.28146 
L 985.755114 254.732464 
L 986.899732 250.772377 
L 988.044349 250.033309 
L 989.188966 257.149174 
L 990.333584 252.608657 
L 991.478201 254.822848 
L 992.622818 251.806325 
L 993.767436 246.786311 
L 994.912053 246.401515 
L 996.05667 235.832994 
L 997.201288 232.836298 
L 998.345905 246.948858 
L 999.490522 247.354377 
L 1000.63514 231.898118 
L 1001.779757 244.041133 
L 1004.068992 238.289317 
L 1005.213609 239.521865 
L 1006.358226 224.10859 
L 1007.502844 228.659401 
L 1008.647461 226.702461 
L 1009.792078 218.755248 
L 1010.936696 216.935381 
L 1012.081313 226.089296 
L 1013.22593 222.630971 
L 1014.370548 220.417672 
L 1015.515165 222.620023 
L 1016.659783 210.910321 
L 1017.8044 218.599266 
L 1018.949017 224.121665 
L 1020.093635 232.129564 
L 1021.238252 232.147879 
L 1022.382869 231.311803 
L 1023.527487 239.277088 
L 1024.672104 235.279078 
L 1025.816721 245.379219 
L 1026.961339 240.388789 
L 1028.105956 233.787437 
L 1029.250573 249.164212 
L 1030.395191 239.499753 
L 1031.539808 234.031566 
L 1032.684425 252.951477 
L 1033.829043 253.439103 
L 1034.97366 252.899378 
L 1036.118277 251.519111 
L 1037.262895 250.396395 
L 1038.407512 262.360181 
L 1039.552129 269.408601 
L 1040.696747 278.573672 
L 1041.841364 280.002669 
L 1042.985981 283.572248 
L 1044.130599 289.67019 
L 1045.275216 288.584845 
L 1046.419833 284.369477 
L 1047.564451 281.253707 
L 1048.709068 288.525536 
L 1049.853686 291.023241 
L 1050.998303 289.358514 
L 1052.14292 300.170665 
L 1053.287538 317.244412 
L 1054.432155 302.471517 
L 1055.576772 306.094059 
L 1056.72139 317.736236 
L 1057.866007 303.820221 
L 1059.010624 326.762195 
L 1060.155242 327.291305 
L 1061.299859 319.426052 
L 1062.444476 319.945586 
L 1063.589094 311.158506 
L 1064.733711 336.004668 
L 1065.878328 339.595057 
L 1067.022946 340.340642 
L 1068.167563 350.405124 
L 1069.31218 342.740252 
L 1070.456798 347.873896 
L 1071.601415 355.304433 
L 1072.746032 358.230083 
L 1073.89065 357.711716 
L 1075.035267 364.252042 
L 1076.179884 366.158733 
L 1077.324502 364.3445 
L 1078.469119 370.849763 
L 1080.758354 363.252126 
L 1081.902971 367.064738 
L 1083.047588 377.943839 
L 1084.192206 377.317981 
L 1085.336823 379.923322 
L 1086.481441 384.737138 
L 1087.626058 375.029004 
L 1088.770675 380.91846 
L 1089.915293 385.242002 
L 1091.05991 392.937762 
L 1092.204527 406.49036 
L 1093.349145 396.363457 
L 1094.493762 397.556863 
L 1095.638379 402.36912 
L 1096.782997 398.150044 
L 1097.927614 405.364484 
L 1099.072231 402.092664 
L 1100.216849 395.704152 
L 1101.361466 393.179311 
L 1102.506083 400.354111 
L 1103.650701 409.729079 
L 1104.795318 410.378328 
L 1105.939935 410.223677 
L 1108.22917 427.006888 
L 1109.373787 419.214179 
L 1110.518405 426.929502 
L 1111.663022 422.752673 
L 1112.807639 424.490188 
L 1113.952257 440.201515 
L 1115.096874 418.998816 
L 1116.241491 423.668333 
L 1117.386109 433.811624 
L 1118.530726 426.782848 
L 1119.675344 436.300092 
L 1120.819961 431.566776 
L 1121.964578 427.868029 
L 1123.109196 431.437245 
L 1124.253813 440.662037 
L 1125.39843 446.491324 
L 1126.543048 441.696287 
L 1127.687665 440.069578 
L 1128.832282 437.383336 
L 1129.9769 442.994229 
L 1132.266134 415.379802 
L 1133.410752 431.520586 
L 1134.555369 429.832247 
L 1135.699986 432.284771 
L 1136.844604 447.452888 
L 1139.133838 436.341089 
L 1140.278456 441.608762 
L 1141.423073 449.408633 
L 1142.56769 443.914689 
L 1143.712308 441.909557 
L 1144.856925 445.420438 
L 1146.001542 436.387849 
L 1147.14616 440.893559 
L 1148.290777 442.452156 
L 1149.435394 446.658703 
L 1150.580012 445.937145 
L 1151.724629 430.972225 
L 1152.869247 426.986905 
L 1154.013864 431.947221 
L 1155.158481 450.451049 
L 1156.303099 435.748745 
L 1157.447716 436.291733 
L 1158.592333 450.669857 
L 1159.736951 417.456353 
L 1160.881568 427.905908 
L 1162.026185 440.565496 
L 1163.170803 418.987444 
L 1164.31542 422.356979 
L 1165.460037 427.249902 
L 1166.604655 420.472177 
L 1167.749272 417.532256 
L 1168.893889 411.277965 
L 1170.038507 410.223886 
L 1171.183124 413.438131 
L 1172.327741 406.416449 
L 1173.472359 415.776351 
L 1174.616976 411.949143 
L 1175.761593 402.086125 
L 1176.906211 394.944545 
L 1178.050828 388.911817 
L 1179.195445 403.973263 
L 1180.340063 399.708216 
L 1181.48468 394.468995 
L 1182.629297 395.318815 
L 1183.773915 384.334088 
L 1184.918532 382.073711 
L 1186.06315 381.685888 
L 1187.207767 380.206645 
L 1188.352384 378.282999 
L 1189.497002 368.747939 
L 1190.641619 374.00979 
L 1191.786236 366.081519 
L 1192.930854 356.54843 
L 1194.075471 370.833901 
L 1195.220088 360.025205 
L 1196.364706 351.527675 
L 1197.509323 349.244101 
L 1198.65394 341.513998 
L 1199.798558 349.299636 
L 1200.943175 352.841357 
L 1202.087792 348.7596 
L 1203.23241 341.42858 
L 1204.377027 343.487573 
L 1205.521644 339.656574 
L 1206.666262 329.669378 
L 1207.810879 332.220267 
L 1208.955496 320.92493 
L 1210.100114 324.2011 
L 1211.244731 335.005456 
L 1212.389348 322.221205 
L 1213.533966 320.082783 
L 1214.678583 324.427168 
L 1215.8232 323.276198 
L 1216.967818 319.558627 
L 1218.112435 314.123426 
L 1219.257053 318.489858 
L 1221.546287 308.144579 
L 1222.690905 319.731859 
L 1223.835522 308.936261 
L 1224.980139 312.091653 
L 1226.124757 328.440151 
L 1227.269374 322.705983 
L 1228.413991 308.594525 
L 1229.558609 306.402214 
L 1230.703226 311.466569 
L 1231.847843 296.197385 
L 1232.992461 300.379413 
L 1234.137078 299.238069 
L 1235.281695 299.669771 
L 1236.426313 297.95616 
L 1237.57093 292.945119 
L 1238.715547 298.651821 
L 1239.860165 278.969374 
L 1241.004782 295.394646 
L 1242.149399 305.035261 
L 1243.294017 282.738785 
L 1244.438634 281.04631 
L 1245.583251 279.733557 
L 1246.727869 284.748855 
L 1247.872486 284.882972 
L 1249.017103 283.349987 
L 1250.161721 289.679111 
L 1251.306338 281.914058 
L 1252.450956 277.323722 
L 1253.595573 276.725125 
L 1254.74019 282.282091 
L 1255.884808 281.415396 
L 1257.029425 269.137703 
L 1258.174042 268.134886 
L 1259.31866 264.443394 
L 1260.463277 269.918855 
L 1261.607894 269.592711 
L 1262.752512 259.221369 
L 1263.897129 256.402867 
L 1265.041746 250.503953 
L 1266.186364 256.908815 
L 1266.186364 256.908815 
" style="fill:none;stroke:#1f77b4;stroke-linecap:square;stroke-width:1.5;"/>
   </g>
   <g id="line2d_32">
    <path clip-path="url(#pf578835628)" d="M 122.713636 191.702562 
L 123.858254 192.913432 
L 125.002871 189.276673 
L 126.147488 196.843957 
L 127.292106 193.856544 
L 128.436723 198.383844 
L 129.58134 203.457773 
L 130.725958 193.777611 
L 131.870575 200.999355 
L 133.015192 203.180374 
L 134.15981 200.483101 
L 135.304427 212.015896 
L 136.449044 215.92012 
L 137.593662 212.440838 
L 138.738279 221.378946 
L 139.882897 227.048141 
L 141.027514 230.162915 
L 142.172131 234.472241 
L 143.316749 245.437066 
L 144.461366 245.722303 
L 145.605983 241.785804 
L 146.750601 247.825233 
L 147.895218 240.899632 
L 149.039835 247.10435 
L 150.184453 260.511298 
L 151.32907 267.433846 
L 152.473687 269.300762 
L 153.618305 279.722214 
L 154.762922 282.524388 
L 155.907539 277.341085 
L 157.052157 286.438227 
L 158.196774 288.567742 
L 159.341391 287.621419 
L 160.486009 295.924378 
L 161.630626 302.782609 
L 162.775243 305.794475 
L 163.919861 323.420256 
L 165.064478 317.281571 
L 166.209095 314.433098 
L 167.353713 322.105219 
L 168.49833 323.450613 
L 169.642947 333.34301 
L 170.787565 336.220104 
L 171.932182 344.532018 
L 173.0768 344.651493 
L 174.221417 353.958051 
L 175.366034 359.925133 
L 176.510652 358.990003 
L 177.655269 371.547207 
L 178.799886 380.039344 
L 179.944504 374.813234 
L 181.089121 374.652057 
L 182.233738 391.005852 
L 183.378356 387.880124 
L 184.522973 401.969087 
L 185.66759 401.535495 
L 186.812208 392.549701 
L 187.956825 411.355983 
L 189.101442 400.200578 
L 190.24606 408.345382 
L 191.390677 405.211363 
L 192.535294 394.831752 
L 193.679912 416.565556 
L 194.824529 410.072856 
L 195.969146 408.053367 
L 197.113764 418.309562 
L 198.258381 422.71305 
L 199.402998 422.672719 
L 200.547616 425.666731 
L 201.692233 433.428851 
L 202.83685 423.795735 
L 203.981468 429.730018 
L 205.126085 447.057808 
L 206.270703 437.504245 
L 207.41532 427.003352 
L 208.559937 443.708142 
L 209.704555 450.667023 
L 210.849172 437.799486 
L 211.993789 444.260767 
L 213.138407 443.139045 
L 214.283024 445.070551 
L 215.427641 435.285268 
L 216.572259 423.946331 
L 217.716876 443.505491 
L 218.861493 434.274296 
L 220.006111 440.585595 
L 221.150728 444.818632 
L 222.295345 434.201662 
L 223.439963 451.395437 
L 224.58458 449.037326 
L 225.729197 449.153214 
L 226.873815 461.442492 
L 228.018432 451.27511 
L 229.163049 449.332315 
L 230.307667 455.348892 
L 231.452284 447.670394 
L 232.596901 457.304972 
L 233.741519 453.736661 
L 234.886136 455.119367 
L 236.030753 467.404274 
L 237.175371 450.501143 
L 238.319988 463.429466 
L 239.464606 464.875937 
L 240.609223 448.486358 
L 241.75384 457.020872 
L 242.898458 457.273223 
L 245.187692 443.142851 
L 246.33231 457.11728 
L 247.476927 468.13255 
L 248.621544 464.052855 
L 249.766162 464.315891 
L 250.910779 460.223125 
L 252.055396 465.975394 
L 253.200014 473.304746 
L 254.344631 473.598206 
L 255.489248 467.693415 
L 256.633866 473.5191 
L 257.778483 473.577645 
L 258.9231 459.497146 
L 260.067718 470.249522 
L 261.212335 470.796444 
L 262.356952 463.300294 
L 263.50157 463.305261 
L 264.646187 456.509682 
L 265.790804 463.307224 
L 266.935422 458.804673 
L 268.080039 457.427376 
L 269.224656 457.851916 
L 270.369274 449.628001 
L 271.513891 467.879638 
L 272.658509 453.672914 
L 273.803126 450.850316 
L 274.947743 465.768589 
L 276.092361 460.560068 
L 277.236978 462.77172 
L 278.381595 451.379607 
L 279.526213 458.001991 
L 280.67083 456.991667 
L 281.815447 453.484969 
L 282.960065 456.732351 
L 284.104682 446.953351 
L 285.249299 446.578065 
L 286.393917 438.798618 
L 287.538534 431.803836 
L 288.683151 430.461405 
L 289.827769 422.363935 
L 290.972386 425.459441 
L 292.117003 430.826691 
L 293.261621 429.831421 
L 294.406238 434.292726 
L 295.550855 435.473914 
L 296.695473 437.758385 
L 297.84009 430.71747 
L 298.984707 424.435422 
L 300.129325 429.892844 
L 301.273942 422.257202 
L 302.418559 409.901078 
L 303.563177 411.931537 
L 304.707794 408.322382 
L 305.852412 394.367218 
L 306.997029 393.634471 
L 308.141646 398.973235 
L 309.286264 388.790508 
L 310.430881 386.208695 
L 311.575498 389.760703 
L 312.720116 374.185033 
L 313.864733 374.337153 
L 315.00935 376.261156 
L 316.153968 368.896006 
L 317.298585 367.826447 
L 318.443202 355.123238 
L 319.58782 355.007173 
L 320.732437 343.844123 
L 321.877054 329.942813 
L 323.021672 336.014948 
L 324.166289 329.015948 
L 325.310906 328.931453 
L 326.455524 314.144437 
L 327.600141 313.254853 
L 328.744758 305.64309 
L 329.889376 282.361632 
L 331.033993 287.327442 
L 332.17861 273.782114 
L 333.323228 271.059434 
L 334.467845 274.532671 
L 335.612462 269.33011 
L 336.75708 261.847384 
L 337.901697 249.717339 
L 339.046314 247.155412 
L 340.190932 245.296729 
L 341.335549 232.50621 
L 342.480167 216.479062 
L 343.624784 216.277343 
L 344.769401 213.053049 
L 345.914019 202.016045 
L 347.058636 198.706201 
L 348.203253 196.152508 
L 349.347871 183.941304 
L 351.637105 172.248899 
L 352.781723 159.128354 
L 353.92634 158.107566 
L 355.070957 150.459645 
L 356.215575 143.738484 
L 357.360192 137.918563 
L 358.504809 118.304874 
L 359.649427 125.085283 
L 360.794044 129.287293 
L 361.938661 113.878093 
L 363.083279 116.175076 
L 364.227896 114.21252 
L 365.372513 105.073897 
L 366.517131 96.943141 
L 367.661748 97.128079 
L 368.806365 91.302514 
L 369.950983 69.273726 
L 371.0956 69.475264 
L 372.240217 64.906684 
L 373.384835 65.50576 
L 374.529452 75.99655 
L 375.67407 66.10429 
L 376.818687 62.166305 
L 377.963304 63.382473 
L 379.107922 62.252104 
L 380.252539 62.520473 
L 381.397156 58.642461 
L 382.541774 55.645455 
L 383.686391 59.616481 
L 384.831008 57.493653 
L 387.120243 64.719302 
L 388.26486 56.154943 
L 389.409478 66.970381 
L 390.554095 61.69435 
L 391.698712 57.965786 
L 392.84333 70.408041 
L 393.987947 62.430167 
L 395.132564 78.095898 
L 396.277182 91.573559 
L 397.421799 91.925672 
L 398.566416 88.134851 
L 399.711034 92.56321 
L 400.855651 100.054308 
L 402.000268 95.225471 
L 403.144886 112.708304 
L 404.289503 106.541992 
L 405.43412 122.115944 
L 406.578738 148.940964 
L 407.723355 133.462263 
L 408.867973 149.182679 
L 410.01259 162.079956 
L 411.157207 166.738346 
L 412.301825 173.202501 
L 413.446442 177.132977 
L 414.591059 190.224195 
L 415.735677 191.391927 
L 416.880294 189.579099 
L 418.024911 195.275058 
L 419.169529 210.680128 
L 420.314146 211.023589 
L 422.603381 242.054939 
L 423.747998 241.682151 
L 424.892615 260.362549 
L 426.037233 265.075409 
L 427.18185 274.607379 
L 428.326467 280.852105 
L 429.471085 283.912988 
L 430.615702 307.7303 
L 431.760319 320.447836 
L 432.904937 317.527805 
L 434.049554 333.706936 
L 435.194171 346.966377 
L 436.338789 349.447441 
L 437.483406 373.281889 
L 438.628023 370.090287 
L 439.772641 369.475932 
L 440.917258 389.693289 
L 442.061876 391.550265 
L 443.206493 401.922465 
L 444.35111 410.749306 
L 445.495728 421.132113 
L 446.640345 438.51613 
L 447.784962 442.494629 
L 448.92958 441.444421 
L 450.074197 451.420547 
L 451.218814 465.948713 
L 452.363432 464.702671 
L 453.508049 464.084564 
L 454.652666 485.467543 
L 455.797284 485.953141 
L 456.941901 496.777843 
L 458.086518 512.711348 
L 459.231136 510.352196 
L 460.375753 534.91272 
L 461.52037 535.998674 
L 462.664988 533.9268 
L 463.809605 558.139107 
L 464.954222 545.42579 
L 466.09884 538.550149 
L 467.243457 553.829956 
L 468.388074 549.587069 
L 469.532692 554.570705 
L 470.677309 569.701686 
L 471.821926 577.528309 
L 472.966544 581.948768 
L 474.111161 595.905768 
L 475.255779 595.244113 
L 476.400396 596.938793 
L 477.545013 612.52521 
L 478.689631 606.70411 
L 479.834248 602.17364 
L 480.978865 592.169528 
L 482.123483 598.877456 
L 483.2681 602.804151 
L 484.412717 596.089908 
L 485.557335 615.144183 
L 486.701952 618.780958 
L 487.846569 612.384925 
L 488.991187 625.621933 
L 490.135804 630.954545 
L 491.280421 623.13261 
L 492.425039 627.644788 
L 493.569656 624.528938 
L 494.714273 614.031654 
L 495.858891 624.512759 
L 498.148125 602.544633 
L 499.292743 614.182495 
L 500.43736 603.290715 
L 501.581977 607.276124 
L 502.726595 615.874673 
L 503.871212 606.926508 
L 505.015829 594.449129 
L 506.160447 594.454107 
L 507.305064 596.145651 
L 508.449681 597.633242 
L 509.594299 592.197572 
L 510.738916 563.560155 
L 511.883534 567.496387 
L 513.028151 570.554662 
L 514.172768 563.591751 
L 515.317386 564.048631 
L 516.462003 550.901765 
L 517.60662 552.102338 
L 518.751238 543.9577 
L 519.895855 532.885287 
L 521.040472 532.43176 
L 522.18509 519.025873 
L 523.329707 509.59564 
L 524.474324 512.573991 
L 525.618942 502.496405 
L 526.763559 485.290155 
L 527.908176 477.086038 
L 529.052794 473.317972 
L 530.197411 463.452602 
L 531.342028 459.91617 
L 532.486646 455.781581 
L 533.631263 438.233404 
L 534.77588 440.720723 
L 535.920498 432.643273 
L 537.065115 421.680855 
L 538.209732 412.821775 
L 539.35435 399.278481 
L 540.498967 401.379991 
L 541.643584 378.88836 
L 542.788202 375.396632 
L 543.932819 375.622589 
L 545.077437 371.499426 
L 546.222054 372.949341 
L 547.366671 355.341349 
L 548.511289 365.754688 
L 549.655906 343.376308 
L 550.800523 335.731687 
L 551.945141 344.793663 
L 553.089758 316.227969 
L 554.234375 321.558253 
L 555.378993 306.508286 
L 556.52361 299.861581 
L 557.668227 291.570243 
L 558.812845 271.911883 
L 559.957462 276.105148 
L 561.102079 253.255348 
L 562.246697 259.260394 
L 563.391314 257.732974 
L 564.535931 235.470044 
L 565.680549 242.664337 
L 566.825166 229.461162 
L 567.969783 217.920331 
L 569.114401 228.165721 
L 570.259018 220.980079 
L 571.403635 205.488126 
L 572.548253 194.80299 
L 573.69287 191.831794 
L 574.837487 185.936312 
L 575.982105 171.713516 
L 577.126722 167.166686 
L 578.27134 149.981534 
L 579.415957 151.749672 
L 580.560574 149.853867 
L 581.705192 134.634365 
L 582.849809 140.760196 
L 583.994426 133.30973 
L 585.139044 133.50869 
L 586.283661 125.2184 
L 587.428278 128.278254 
L 588.572896 125.206064 
L 589.717513 99.698896 
L 590.86213 104.451855 
L 592.006748 96.921332 
L 593.151365 98.291552 
L 594.295982 94.827994 
L 595.4406 86.689779 
L 596.585217 92.370746 
L 597.729834 80.249163 
L 598.874452 82.692487 
L 600.019069 78.447825 
L 601.163686 83.015844 
L 602.308304 93.054458 
L 603.452921 73.541891 
L 604.597538 79.845154 
L 605.742156 85.45595 
L 606.886773 67.778886 
L 608.03139 67.91909 
L 609.176008 68.798659 
L 610.320625 67.338375 
L 611.465243 72.173393 
L 612.60986 77.597943 
L 613.754477 67.699087 
L 614.899095 63.76077 
L 616.043712 83.320027 
L 617.188329 83.432898 
L 618.332947 72.675035 
L 619.477564 86.856867 
L 620.622181 92.770599 
L 621.766799 87.014037 
L 622.911416 95.64083 
L 624.056033 102.901956 
L 625.200651 108.838964 
L 626.345268 108.602777 
L 627.489885 107.895389 
L 628.634503 115.902321 
L 629.77912 117.669183 
L 630.923737 120.121532 
L 632.068355 118.958426 
L 633.212972 130.802101 
L 634.357589 137.501199 
L 635.502207 129.439597 
L 636.646824 155.387899 
L 637.791441 170.225175 
L 638.936059 173.692268 
L 640.080676 175.324296 
L 641.225293 170.290686 
L 642.369911 185.093941 
L 643.514528 189.135364 
L 644.659146 191.31881 
L 645.803763 194.149023 
L 646.94838 211.051889 
L 648.092998 212.836183 
L 649.237615 210.992563 
L 650.382232 241.092204 
L 652.671467 248.137953 
L 653.816084 258.336648 
L 654.960702 265.226165 
L 657.249936 287.567645 
L 658.394554 285.15919 
L 659.539171 287.171527 
L 660.683788 297.128691 
L 661.828406 312.93543 
L 662.973023 325.226075 
L 664.11764 334.719219 
L 665.262258 346.390381 
L 666.406875 348.549534 
L 667.551492 372.065183 
L 668.69611 378.949091 
L 669.840727 378.292304 
L 670.985344 386.842348 
L 672.129962 388.40486 
L 673.274579 385.649646 
L 674.419196 396.443672 
L 675.563814 416.675951 
L 676.708431 402.021065 
L 677.853049 425.740478 
L 678.997666 440.738385 
L 680.142283 428.950918 
L 681.286901 449.317533 
L 682.431518 443.331358 
L 683.576135 452.18864 
L 684.720753 472.348548 
L 685.86537 469.816329 
L 687.009987 475.276848 
L 688.154605 473.798599 
L 689.299222 490.055757 
L 690.443839 493.515187 
L 691.588457 481.531611 
L 692.733074 494.951783 
L 693.877691 499.940086 
L 695.022309 515.71416 
L 696.166926 513.18797 
L 697.311543 503.344414 
L 698.456161 515.76409 
L 699.600778 513.045764 
L 700.745395 525.018855 
L 701.890013 529.196785 
L 703.03463 522.772068 
L 704.179247 535.429503 
L 705.323865 531.09286 
L 706.468482 528.038609 
L 707.613099 543.95214 
L 708.757717 537.25794 
L 709.902334 545.974851 
L 711.046951 551.262089 
L 712.191569 539.168 
L 713.336186 549.379149 
L 714.480804 546.938858 
L 715.625421 551.204675 
L 716.770038 547.898036 
L 717.914656 542.765474 
L 719.059273 548.703807 
L 720.20389 532.955242 
L 721.348508 538.40358 
L 722.493125 545.411598 
L 723.637742 534.364332 
L 724.78236 542.524562 
L 725.926977 539.926704 
L 727.071594 533.031073 
L 728.216212 539.093991 
L 729.360829 536.299031 
L 730.505446 537.157679 
L 731.650064 533.604231 
L 732.794681 528.227043 
L 733.939298 523.531838 
L 735.083916 510.940653 
L 737.37315 515.544854 
L 738.517768 503.529116 
L 739.662385 500.975556 
L 740.807002 499.632779 
L 741.95162 495.79402 
L 743.096237 488.318572 
L 744.240854 479.771998 
L 745.385472 476.305058 
L 746.530089 467.974784 
L 747.674707 465.333093 
L 748.819324 465.140649 
L 749.963941 469.762673 
L 751.108559 455.813131 
L 752.253176 445.903439 
L 753.397793 450.298831 
L 754.542411 439.194448 
L 755.687028 437.546027 
L 756.831645 429.767235 
L 757.976263 431.951999 
L 759.12088 429.718076 
L 760.265497 414.040135 
L 761.410115 407.976301 
L 762.554732 395.326356 
L 763.699349 394.646663 
L 764.843967 394.548073 
L 765.988584 378.507845 
L 767.133201 378.833823 
L 768.277819 387.661859 
L 769.422436 375.98376 
L 770.567053 362.805145 
L 771.711671 356.738612 
L 772.856288 358.168628 
L 774.000905 349.125937 
L 775.145523 348.902022 
L 776.29014 338.874588 
L 777.434757 323.032954 
L 778.579375 329.079261 
L 779.723992 317.183492 
L 780.86861 322.161211 
L 782.013227 311.679928 
L 783.157844 294.801997 
L 784.302462 313.307693 
L 785.447079 299.418527 
L 786.591696 293.919299 
L 787.736314 294.096996 
L 788.880931 278.985912 
L 790.025548 288.818998 
L 791.170166 289.778167 
L 792.314783 285.205926 
L 793.4594 282.61846 
L 794.604018 271.56202 
L 795.748635 263.318648 
L 796.893252 255.968349 
L 798.03787 258.655126 
L 799.182487 256.994978 
L 800.327104 245.017062 
L 801.471722 242.621201 
L 802.616339 251.333228 
L 803.760956 239.005324 
L 804.905574 230.773867 
L 806.050191 247.29363 
L 807.194808 251.693246 
L 808.339426 244.973517 
L 809.484043 236.054997 
L 810.62866 242.739946 
L 811.773278 235.792671 
L 812.917895 232.772504 
L 814.062513 239.055828 
L 815.20713 232.945641 
L 816.351747 233.183328 
L 817.496365 220.004325 
L 818.640982 229.301725 
L 819.785599 228.560291 
L 820.930217 210.770265 
L 822.074834 220.501979 
L 823.219451 220.187077 
L 824.364069 216.874506 
L 825.508686 219.83208 
L 827.797921 220.80043 
L 828.942538 223.781084 
L 830.087155 227.937157 
L 831.231773 222.837842 
L 832.37639 206.951631 
L 833.521007 216.088194 
L 834.665625 226.20765 
L 835.810242 215.268634 
L 836.954859 230.412393 
L 838.099477 229.224227 
L 839.244094 225.680269 
L 840.388711 227.805224 
L 842.677946 213.970807 
L 843.822563 215.422287 
L 844.967181 232.780234 
L 846.111798 224.568772 
L 847.256416 226.45976 
L 848.401033 233.236454 
L 849.54565 231.901843 
L 850.690268 223.941695 
L 851.834885 214.46479 
L 852.979502 235.921734 
L 854.12412 242.070325 
L 855.268737 247.460975 
L 856.413354 246.614599 
L 857.557972 243.401078 
L 858.702589 252.568953 
L 859.847206 245.596612 
L 860.991824 245.01444 
L 862.136441 251.839304 
L 863.281058 248.713937 
L 864.425676 239.62938 
L 865.570293 245.565789 
L 866.71491 248.309199 
L 867.859528 252.240516 
L 869.004145 254.263544 
L 870.148762 252.605595 
L 871.29338 263.890543 
L 872.437997 267.523665 
L 873.582614 282.699225 
L 874.727232 282.141904 
L 875.871849 274.306756 
L 877.016466 278.381982 
L 878.161084 273.809958 
L 879.305701 279.210163 
L 880.450319 273.475635 
L 881.594936 271.639363 
L 882.739553 283.356696 
L 883.884171 297.181543 
L 885.028788 304.481368 
L 886.173405 303.018362 
L 887.318023 321.193871 
L 888.46264 318.021892 
L 889.607257 310.086246 
L 890.751875 318.93878 
L 891.896492 309.802951 
L 893.041109 311.38215 
L 896.474961 323.078162 
L 897.619579 323.107024 
L 898.764196 331.714934 
L 899.908813 333.339192 
L 901.053431 344.096998 
L 902.198048 347.795296 
L 903.342665 339.770249 
L 904.487283 351.578346 
L 905.6319 353.232912 
L 906.776517 345.672312 
L 907.921135 354.259288 
L 909.065752 363.797782 
L 910.210369 352.247148 
L 911.354987 350.856982 
L 912.499604 367.245972 
L 913.644221 372.102537 
L 914.788839 370.686512 
L 915.933456 375.426066 
L 917.078074 367.782379 
L 918.222691 370.164235 
L 919.367308 384.691386 
L 920.511926 377.956425 
L 921.656543 382.434347 
L 922.80116 397.14915 
L 923.945778 396.089849 
L 925.090395 384.045049 
L 926.235012 389.493062 
L 927.37963 383.137208 
L 928.524247 378.19812 
L 929.668864 398.471024 
L 930.813482 388.729724 
L 931.958099 395.792096 
L 933.102716 397.717765 
L 934.247334 391.615173 
L 935.391951 400.362711 
L 936.536568 397.803484 
L 937.681186 408.142382 
L 938.825803 405.895929 
L 939.97042 409.808906 
L 941.115038 411.733758 
L 942.259655 400.73095 
L 943.404272 402.284654 
L 944.54889 403.151983 
L 945.693507 407.633062 
L 946.838124 410.7185 
L 947.982742 414.285142 
L 949.127359 421.982663 
L 951.416594 401.043976 
L 952.561211 403.572272 
L 953.705829 404.76806 
L 954.850446 416.287076 
L 955.995063 420.063272 
L 957.139681 421.234334 
L 958.284298 412.548447 
L 959.428915 400.440694 
L 960.573533 416.201172 
L 961.71815 395.351453 
L 962.862767 398.986901 
L 964.007385 406.143233 
L 965.152002 385.529102 
L 966.296619 418.736552 
L 967.441237 405.598567 
L 968.585854 394.073492 
L 969.730471 416.510978 
L 970.875089 397.841025 
L 972.019706 415.195463 
L 973.164323 403.831531 
L 974.308941 384.242437 
L 975.453558 400.102351 
L 976.598175 385.465469 
L 977.742793 387.779033 
L 978.88741 382.655431 
L 980.032027 389.285956 
L 981.176645 395.062219 
L 982.321262 395.729739 
L 983.46588 400.62155 
L 984.610497 379.64727 
L 985.755114 399.056499 
L 986.899732 404.967042 
L 988.044349 392.921515 
L 989.188966 388.567057 
L 990.333584 381.877302 
L 991.478201 399.825729 
L 992.622818 395.763238 
L 993.767436 379.571361 
L 994.912053 391.38113 
L 996.05667 383.826824 
L 997.201288 381.987487 
L 998.345905 393.014141 
L 999.490522 381.644063 
L 1000.63514 381.00247 
L 1002.924374 389.311456 
L 1004.068992 386.491201 
L 1005.213609 384.950839 
L 1006.358226 380.370833 
L 1007.502844 382.020194 
L 1008.647461 381.139112 
L 1009.792078 372.308319 
L 1012.081313 378.26181 
L 1013.22593 388.995598 
L 1014.370548 374.895647 
L 1015.515165 377.724784 
L 1016.659783 395.711877 
L 1017.8044 370.900406 
L 1018.949017 370.700244 
L 1020.093635 372.311403 
L 1021.238252 357.336937 
L 1022.382869 365.440033 
L 1024.672104 350.725284 
L 1025.816721 355.916828 
L 1026.961339 354.806063 
L 1028.105956 365.323107 
L 1029.250573 360.191804 
L 1031.539808 353.956797 
L 1032.684425 349.733517 
L 1033.829043 354.184203 
L 1034.97366 345.021334 
L 1036.118277 341.026758 
L 1037.262895 335.923089 
L 1038.407512 335.861233 
L 1039.552129 336.399576 
L 1040.696747 324.682241 
L 1041.841364 323.116128 
L 1042.985981 325.872937 
L 1044.130599 327.921594 
L 1045.275216 332.340097 
L 1046.419833 323.157152 
L 1047.564451 319.765582 
L 1048.709068 325.64758 
L 1049.853686 324.608094 
L 1050.998303 313.815041 
L 1052.14292 313.149084 
L 1053.287538 322.283481 
L 1054.432155 302.999656 
L 1055.576772 305.736751 
L 1056.72139 301.053544 
L 1057.866007 297.138517 
L 1059.010624 310.47267 
L 1060.155242 299.538418 
L 1061.299859 312.802729 
L 1062.444476 309.746038 
L 1063.589094 305.567153 
L 1064.733711 308.250814 
L 1065.878328 303.515377 
L 1067.022946 311.774199 
L 1068.167563 293.483562 
L 1070.456798 298.376881 
L 1071.601415 295.217511 
L 1072.746032 299.505364 
L 1073.89065 286.547951 
L 1075.035267 294.195343 
L 1076.179884 284.49212 
L 1077.324502 281.842668 
L 1078.469119 295.189422 
L 1079.613736 302.003948 
L 1080.758354 307.38376 
L 1081.902971 303.426294 
L 1083.047588 298.381582 
L 1084.192206 291.065076 
L 1085.336823 298.057827 
L 1086.481441 291.388038 
L 1087.626058 288.615636 
L 1088.770675 289.005146 
L 1089.915293 272.894595 
L 1092.204527 274.765843 
L 1093.349145 279.36051 
L 1094.493762 281.995363 
L 1095.638379 273.563902 
L 1096.782997 279.489394 
L 1097.927614 280.356601 
L 1099.072231 286.719893 
L 1100.216849 286.784946 
L 1101.361466 278.921687 
L 1102.506083 279.283022 
L 1103.650701 266.20978 
L 1104.795318 274.984146 
L 1105.939935 276.778759 
L 1107.084553 271.207194 
L 1108.22917 276.236771 
L 1109.373787 269.51786 
L 1110.518405 270.993697 
L 1111.663022 268.785456 
L 1112.807639 265.458633 
L 1113.952257 257.995255 
L 1115.096874 273.428054 
L 1116.241491 273.112388 
L 1117.386109 264.892429 
L 1118.530726 274.700505 
L 1119.675344 257.939757 
L 1120.819961 270.489751 
L 1121.964578 274.722659 
L 1123.109196 266.015293 
L 1124.253813 269.240436 
L 1125.39843 255.282768 
L 1126.543048 265.658561 
L 1127.687665 266.569425 
L 1128.832282 265.655948 
L 1129.9769 271.535355 
L 1131.121517 273.594295 
L 1132.266134 279.29038 
L 1133.410752 261.608659 
L 1134.555369 270.213654 
L 1135.699986 274.301023 
L 1136.844604 265.457469 
L 1137.989221 264.276854 
L 1139.133838 249.730337 
L 1140.278456 259.543777 
L 1141.423073 253.80583 
L 1142.56769 259.917129 
L 1143.712308 254.876044 
L 1144.856925 247.603392 
L 1146.001542 269.349077 
L 1147.14616 262.93008 
L 1148.290777 259.211046 
L 1149.435394 246.493513 
L 1150.580012 251.970163 
L 1151.724629 258.54723 
L 1152.869247 257.017479 
L 1154.013864 263.536429 
L 1155.158481 251.557542 
L 1156.303099 259.582368 
L 1157.447716 257.621175 
L 1158.592333 257.611707 
L 1159.736951 266.215083 
L 1160.881568 271.535307 
L 1162.026185 279.177236 
L 1163.170803 275.614819 
L 1164.31542 281.99459 
L 1165.460037 277.210039 
L 1166.604655 289.13074 
L 1167.749272 293.372524 
L 1168.893889 288.347783 
L 1170.038507 296.363651 
L 1171.183124 299.880067 
L 1172.327741 315.5444 
L 1173.472359 313.616399 
L 1174.616976 312.391687 
L 1175.761593 312.459646 
L 1176.906211 321.724869 
L 1178.050828 338.051781 
L 1179.195445 329.418996 
L 1180.340063 331.478448 
L 1181.48468 338.993798 
L 1182.629297 340.782501 
L 1183.773915 347.419832 
L 1184.918532 350.799507 
L 1186.06315 343.690054 
L 1187.207767 353.940133 
L 1188.352384 370.592379 
L 1189.497002 372.037533 
L 1190.641619 364.267194 
L 1191.786236 371.421649 
L 1192.930854 375.900039 
L 1194.075471 371.062638 
L 1195.220088 387.163835 
L 1196.364706 384.398885 
L 1197.509323 382.327125 
L 1198.65394 388.873283 
L 1199.798558 398.254113 
L 1200.943175 402.42667 
L 1202.087792 398.500517 
L 1203.23241 408.743915 
L 1204.377027 401.519941 
L 1205.521644 399.401228 
L 1206.666262 405.279941 
L 1207.810879 409.114426 
L 1208.955496 409.134655 
L 1210.100114 407.297261 
L 1211.244731 411.609104 
L 1212.389348 404.754085 
L 1213.533966 406.6561 
L 1214.678583 416.419707 
L 1215.8232 417.281826 
L 1216.967818 407.695467 
L 1218.112435 411.841451 
L 1219.257053 417.048743 
L 1220.40167 414.722519 
L 1221.546287 413.664444 
L 1222.690905 412.000024 
L 1223.835522 429.920454 
L 1224.980139 412.382384 
L 1226.124757 402.104824 
L 1227.269374 414.13947 
L 1228.413991 396.414268 
L 1229.558609 405.522942 
L 1230.703226 419.811187 
L 1231.847843 415.876444 
L 1232.992461 418.75888 
L 1234.137078 416.011459 
L 1235.281695 408.428362 
L 1236.426313 406.560616 
L 1237.57093 414.502949 
L 1238.715547 409.317826 
L 1239.860165 400.60037 
L 1241.004782 406.195075 
L 1242.149399 395.685306 
L 1244.438634 414.669489 
L 1245.583251 392.177571 
L 1246.727869 405.227898 
L 1247.872486 411.711668 
L 1249.017103 399.001066 
L 1250.161721 400.729757 
L 1251.306338 401.148929 
L 1252.450956 392.354149 
L 1253.595573 380.759867 
L 1254.74019 389.07846 
L 1255.884808 381.821038 
L 1257.029425 382.721665 
L 1258.174042 389.071098 
L 1259.31866 390.90977 
L 1260.463277 417.110638 
L 1261.607894 405.136726 
L 1262.752512 383.733215 
L 1263.897129 397.836621 
L 1265.041746 401.060031 
L 1266.186364 382.750461 
L 1266.186364 382.750461 
" style="fill:none;stroke:#ff7f0e;stroke-linecap:square;stroke-width:1.5;"/>
   </g>
   <g id="patch_3">
    <path d="M 65.54 659.72 
L 65.54 26.88 
" style="fill:none;stroke:#000000;stroke-linecap:square;stroke-linejoin:miter;stroke-width:0.8;"/>
   </g>
   <g id="patch_4">
    <path d="M 1323.36 659.72 
L 1323.36 26.88 
" style="fill:none;stroke:#000000;stroke-linecap:square;stroke-linejoin:miter;stroke-width:0.8;"/>
   </g>
   <g id="patch_5">
    <path d="M 65.54 659.72 
L 1323.36 659.72 
" style="fill:none;stroke:#000000;stroke-linecap:square;stroke-linejoin:miter;stroke-width:0.8;"/>
   </g>
   <g id="patch_6">
    <path d="M 65.54 26.88 
L 1323.36 26.88 
" style="fill:none;stroke:#000000;stroke-linecap:square;stroke-linejoin:miter;stroke-width:0.8;"/>
   </g>
   <g id="text_17">
    <!-- Raw data BHN &amp; BLN -->
    <defs>
     <path d="M 44.390625 34.1875 
Q 47.5625 33.109375 50.5625 29.59375 
Q 53.5625 26.078125 56.59375 19.921875 
L 66.609375 0 
L 56 0 
L 46.6875 18.703125 
Q 43.0625 26.03125 39.671875 28.421875 
Q 36.28125 30.8125 30.421875 30.8125 
L 19.671875 30.8125 
L 19.671875 0 
L 9.8125 0 
L 9.8125 72.90625 
L 32.078125 72.90625 
Q 44.578125 72.90625 50.734375 67.671875 
Q 56.890625 62.453125 56.890625 51.90625 
Q 56.890625 45.015625 53.6875 40.46875 
Q 50.484375 35.9375 44.390625 34.1875 
z
M 19.671875 64.796875 
L 19.671875 38.921875 
L 32.078125 38.921875 
Q 39.203125 38.921875 42.84375 42.21875 
Q 46.484375 45.515625 46.484375 51.90625 
Q 46.484375 58.296875 42.84375 61.546875 
Q 39.203125 64.796875 32.078125 64.796875 
z
" id="DejaVuSans-82"/>
     <path d="M 34.28125 27.484375 
Q 23.390625 27.484375 19.1875 25 
Q 14.984375 22.515625 14.984375 16.5 
Q 14.984375 11.71875 18.140625 8.90625 
Q 21.296875 6.109375 26.703125 6.109375 
Q 34.1875 6.109375 38.703125 11.40625 
Q 43.21875 16.703125 43.21875 25.484375 
L 43.21875 27.484375 
z
M 52.203125 31.203125 
L 52.203125 0 
L 43.21875 0 
L 43.21875 8.296875 
Q 40.140625 3.328125 35.546875 0.953125 
Q 30.953125 -1.421875 24.3125 -1.421875 
Q 15.921875 -1.421875 10.953125 3.296875 
Q 6 8.015625 6 15.921875 
Q 6 25.140625 12.171875 29.828125 
Q 18.359375 34.515625 30.609375 34.515625 
L 43.21875 34.515625 
L 43.21875 35.40625 
Q 43.21875 41.609375 39.140625 45 
Q 35.0625 48.390625 27.6875 48.390625 
Q 23 48.390625 18.546875 47.265625 
Q 14.109375 46.140625 10.015625 43.890625 
L 10.015625 52.203125 
Q 14.9375 54.109375 19.578125 55.046875 
Q 24.21875 56 28.609375 56 
Q 40.484375 56 46.34375 49.84375 
Q 52.203125 43.703125 52.203125 31.203125 
z
" id="DejaVuSans-97"/>
     <path d="M 4.203125 54.6875 
L 13.1875 54.6875 
L 24.421875 12.015625 
L 35.59375 54.6875 
L 46.1875 54.6875 
L 57.421875 12.015625 
L 68.609375 54.6875 
L 77.59375 54.6875 
L 63.28125 0 
L 52.6875 0 
L 40.921875 44.828125 
L 29.109375 0 
L 18.5 0 
z
" id="DejaVuSans-119"/>
     <path id="DejaVuSans-32"/>
     <path d="M 45.40625 46.390625 
L 45.40625 75.984375 
L 54.390625 75.984375 
L 54.390625 0 
L 45.40625 0 
L 45.40625 8.203125 
Q 42.578125 3.328125 38.25 0.953125 
Q 33.9375 -1.421875 27.875 -1.421875 
Q 17.96875 -1.421875 11.734375 6.484375 
Q 5.515625 14.40625 5.515625 27.296875 
Q 5.515625 40.1875 11.734375 48.09375 
Q 17.96875 56 27.875 56 
Q 33.9375 56 38.25 53.625 
Q 42.578125 51.265625 45.40625 46.390625 
z
M 14.796875 27.296875 
Q 14.796875 17.390625 18.875 11.75 
Q 22.953125 6.109375 30.078125 6.109375 
Q 37.203125 6.109375 41.296875 11.75 
Q 45.40625 17.390625 45.40625 27.296875 
Q 45.40625 37.203125 41.296875 42.84375 
Q 37.203125 48.484375 30.078125 48.484375 
Q 22.953125 48.484375 18.875 42.84375 
Q 14.796875 37.203125 14.796875 27.296875 
z
" id="DejaVuSans-100"/>
     <path d="M 19.671875 34.8125 
L 19.671875 8.109375 
L 35.5 8.109375 
Q 43.453125 8.109375 47.28125 11.40625 
Q 51.125 14.703125 51.125 21.484375 
Q 51.125 28.328125 47.28125 31.5625 
Q 43.453125 34.8125 35.5 34.8125 
z
M 19.671875 64.796875 
L 19.671875 42.828125 
L 34.28125 42.828125 
Q 41.5 42.828125 45.03125 45.53125 
Q 48.578125 48.25 48.578125 53.8125 
Q 48.578125 59.328125 45.03125 62.0625 
Q 41.5 64.796875 34.28125 64.796875 
z
M 9.8125 72.90625 
L 35.015625 72.90625 
Q 46.296875 72.90625 52.390625 68.21875 
Q 58.5 63.53125 58.5 54.890625 
Q 58.5 48.1875 55.375 44.234375 
Q 52.25 40.28125 46.1875 39.3125 
Q 53.46875 37.75 57.5 32.78125 
Q 61.53125 27.828125 61.53125 20.40625 
Q 61.53125 10.640625 54.890625 5.3125 
Q 48.25 0 35.984375 0 
L 9.8125 0 
z
" id="DejaVuSans-66"/>
     <path d="M 9.8125 72.90625 
L 19.671875 72.90625 
L 19.671875 43.015625 
L 55.515625 43.015625 
L 55.515625 72.90625 
L 65.375 72.90625 
L 65.375 0 
L 55.515625 0 
L 55.515625 34.71875 
L 19.671875 34.71875 
L 19.671875 0 
L 9.8125 0 
z
" id="DejaVuSans-72"/>
     <path d="M 9.8125 72.90625 
L 23.09375 72.90625 
L 55.421875 11.921875 
L 55.421875 72.90625 
L 64.984375 72.90625 
L 64.984375 0 
L 51.703125 0 
L 19.390625 60.984375 
L 19.390625 0 
L 9.8125 0 
z
" id="DejaVuSans-78"/>
     <path d="M 24.3125 39.203125 
Q 19.875 35.25 17.796875 31.3125 
Q 15.71875 27.390625 15.71875 23.09375 
Q 15.71875 15.96875 20.890625 11.234375 
Q 26.078125 6.5 33.890625 6.5 
Q 38.53125 6.5 42.578125 8.03125 
Q 46.625 9.578125 50.203125 12.703125 
z
M 31.203125 44.671875 
L 56 19.28125 
Q 58.890625 23.640625 60.5 28.59375 
Q 62.109375 33.546875 62.40625 39.109375 
L 71.484375 39.109375 
Q 70.90625 32.671875 68.359375 26.359375 
Q 65.828125 20.0625 61.28125 13.921875 
L 74.90625 0 
L 62.59375 0 
L 55.609375 7.171875 
Q 50.53125 2.828125 44.96875 0.703125 
Q 39.40625 -1.421875 33.015625 -1.421875 
Q 21.234375 -1.421875 13.765625 5.296875 
Q 6.296875 12.015625 6.296875 22.515625 
Q 6.296875 28.765625 9.5625 34.25 
Q 12.84375 39.75 19.390625 44.578125 
Q 17.046875 47.65625 15.8125 50.703125 
Q 14.59375 53.765625 14.59375 56.6875 
Q 14.59375 64.59375 20.015625 69.40625 
Q 25.4375 74.21875 34.421875 74.21875 
Q 38.484375 74.21875 42.5 73.34375 
Q 46.53125 72.46875 50.6875 70.703125 
L 50.6875 61.8125 
Q 46.4375 64.109375 42.578125 65.296875 
Q 38.71875 66.5 35.40625 66.5 
Q 30.28125 66.5 27.078125 63.78125 
Q 23.875 61.078125 23.875 56.78125 
Q 23.875 54.296875 25.3125 51.78125 
Q 26.765625 49.265625 31.203125 44.671875 
z
" id="DejaVuSans-38"/>
     <path d="M 9.8125 72.90625 
L 19.671875 72.90625 
L 19.671875 8.296875 
L 55.171875 8.296875 
L 55.171875 0 
L 9.8125 0 
z
" id="DejaVuSans-76"/>
    </defs>
    <g transform="translate(630.811563 20.88)scale(0.12 -0.12)">
     <use xlink:href="#DejaVuSans-82"/>
     <use x="69.451172" xlink:href="#DejaVuSans-97"/>
     <use x="130.730469" xlink:href="#DejaVuSans-119"/>
     <use x="212.517578" xlink:href="#DejaVuSans-32"/>
     <use x="244.304688" xlink:href="#DejaVuSans-100"/>
     <use x="307.78125" xlink:href="#DejaVuSans-97"/>
     <use x="369.060547" xlink:href="#DejaVuSans-116"/>
     <use x="408.269531" xlink:href="#DejaVuSans-97"/>
     <use x="469.548828" xlink:href="#DejaVuSans-32"/>
     <use x="501.335938" xlink:href="#DejaVuSans-66"/>
     <use x="569.939453" xlink:href="#DejaVuSans-72"/>
     <use x="645.134766" xlink:href="#DejaVuSans-78"/>
     <use x="719.939453" xlink:href="#DejaVuSans-32"/>
     <use x="751.726562" xlink:href="#DejaVuSans-38"/>
     <use x="829.705078" xlink:href="#DejaVuSans-32"/>
     <use x="861.492188" xlink:href="#DejaVuSans-66"/>
     <use x="930.095703" xlink:href="#DejaVuSans-76"/>
     <use x="985.808594" xlink:href="#DejaVuSans-78"/>
    </g>
   </g>
   <g id="legend_1">
    <g id="patch_7">
     <path d="M 72.54 64.23625 
L 126.4025 64.23625 
Q 128.4025 64.23625 128.4025 62.23625 
L 128.4025 33.88 
Q 128.4025 31.88 126.4025 31.88 
L 72.54 31.88 
Q 70.54 31.88 70.54 33.88 
L 70.54 62.23625 
Q 70.54 64.23625 72.54 64.23625 
z
" style="fill:#ffffff;opacity:0.8;stroke:#cccccc;stroke-linejoin:miter;"/>
    </g>
    <g id="line2d_33">
     <path d="M 74.54 39.978438 
L 94.54 39.978438 
" style="fill:none;stroke:#1f77b4;stroke-linecap:square;stroke-width:1.5;"/>
    </g>
    <g id="line2d_34"/>
    <g id="text_18">
     <!-- BHN -->
     <g transform="translate(102.54 43.478438)scale(0.1 -0.1)">
      <use xlink:href="#DejaVuSans-66"/>
      <use x="68.603516" xlink:href="#DejaVuSans-72"/>
      <use x="143.798828" xlink:href="#DejaVuSans-78"/>
     </g>
    </g>
    <g id="line2d_35">
     <path d="M 74.54 54.656563 
L 94.54 54.656563 
" style="fill:none;stroke:#ff7f0e;stroke-linecap:square;stroke-width:1.5;"/>
    </g>
    <g id="line2d_36"/>
    <g id="text_19">
     <!-- BLN -->
     <g transform="translate(102.54 58.156563)scale(0.1 -0.1)">
      <use xlink:href="#DejaVuSans-66"/>
      <use x="68.603516" xlink:href="#DejaVuSans-76"/>
      <use x="124.316406" xlink:href="#DejaVuSans-78"/>
     </g>
    </g>
   </g>
  </g>
 </g>
 <defs>
  <clipPath id="pf578835628">
   <rect height="632.84" width="1257.82" x="65.54" y="26.88"/>
  </clipPath>
 </defs>
</svg>
